<svg version="1.2" xmlns="http://www.w3.org/2000/svg" viewBox="0 0 2500 2500" width="2500" height="2500">
	<title>Auth and Access</title>
	<style>
		.s0 { fill: #eb5648 } 
		.s1 { fill: #000000 } 
		.s2 { fill: #45a2bf } 
		.s3 { fill: #8a9edd } 
		.s4 { fill: #3a72aa } 
		.s5 { fill: #a7b5de } 
		.s6 { fill: #ffffff } 
		.s7 { fill: #128cb2 } 
		.s8 { fill: #1f85a5 } 
		.s9 { fill: #1d677e } 
		.s10 { fill: #d28221 } 
		.s11 { fill: #f99370 } 
		.s12 { fill: #fecc86 } 
		.s13 { fill: #d2493c } 
	</style>
	<g id="Illustration">
		<g id="Access control system 1 ">
			<g id="&lt;Group&gt;">
				<g id="&lt;Group&gt;">
					<g id="&lt;Group&gt;">
						<path id="&lt;Compound Path&gt;" fill-rule="evenodd" class="s0" d="m557.4 1476.4q-8-3.9-15.1-9l-23.6 14.3-17.5-18.2 15.1-23q-4.9-7.4-8.5-15.4l-27.5 0.6-6.2-24.5 24.7-12.4q-0.6-8.7 0.3-17.6l-24.2-13.2 7-24.3 27.5 1.6q3.9-8 9-15.1l-14.3-23.5 18.2-17.6 23.1 15.2q7.3-4.9 15.3-8.5l-0.6-27.6 24.5-6.1 12.4 24.6q8.7-0.6 17.6 0.3l13.2-24.2 24.3 7-1.6 27.5q8 4 15.1 9.1l23.5-14.3 17.6 18.1-15.2 23.1q4.9 7.3 8.5 15.4l27.6-0.7 6.1 24.5-24.6 12.4q0.6 8.7-0.3 17.6l24.2 13.3-7 24.2-27.5-1.6q-4 8-9.1 15.1l14.3 23.6-18.1 17.5-23.1-15.1q-7.3 4.9-15.3 8.5l0.6 27.6-24.5 6.1-12.4-24.6q-8.7 0.5-17.6-0.4l-13.2 24.2-24.3-7zm28.6-32c34.5 9.9 70.5-10.1 80.4-44.6 9.9-34.5-10-70.5-44.5-80.4-34.5-9.9-70.5 10.1-80.4 44.6-9.9 34.5 10 70.5 44.5 80.4z"/>
						<path id="&lt;Compound Path&gt;" fill-rule="evenodd" class="s1" d="m623.3 1513.9c-0.9 0-1.6-0.5-2-1.2l-11.7-23.3c-5 0.2-10 0.1-15.1-0.3l-12.5 22.9c-0.5 0.9-1.6 1.3-2.6 1l-24.2-6.9c-1-0.3-1.7-1.3-1.6-2.3l1.5-26.1c-4.5-2.3-8.9-4.8-12.9-7.7l-22.3 13.6c-0.9 0.5-2 0.4-2.8-0.4l-17.5-18.1c-0.7-0.8-0.8-1.9-0.2-2.8l14.3-21.8c-2.7-4.2-5.2-8.6-7.3-13.2l-26.1 0.6q0 0 0 0c-1.1 0-1.9-0.7-2.2-1.7l-6.1-24.5c-0.3-1 0.2-2 1.2-2.5l23.3-11.7c-0.3-4.9-0.2-10 0.2-15l-22.9-12.6c-0.9-0.5-1.3-1.5-1-2.5l6.9-24.3c0.3-1 1.2-1.7 2.3-1.6l26.1 1.5c2.3-4.5 4.9-8.8 7.7-12.9l-13.6-22.3c-0.5-0.9-0.3-2 0.4-2.7l18.2-17.6c0.7-0.7 1.9-0.8 2.7-0.2l21.8 14.3c4.2-2.7 8.6-5.1 13.2-7.2l-0.6-26.2c0-1 0.7-1.9 1.7-2.2l24.5-6.1c1-0.2 2 0.3 2.5 1.2l11.7 23.3c4.9-0.3 10-0.2 15 0.3l12.6-22.9c0.5-0.9 1.5-1.4 2.5-1.1l24.3 7c1 0.3 1.7 1.2 1.6 2.2l-1.5 26.1c4.5 2.3 8.8 4.9 12.9 7.7l22.3-13.5c0.9-0.6 2-0.4 2.7 0.3l17.6 18.2c0.7 0.7 0.8 1.9 0.2 2.7l-14.3 21.9c2.7 4.2 5.1 8.6 7.2 13.1l26.2-0.6q0 0 0 0c1 0 1.9 0.7 2.2 1.7l6.1 24.5c0.2 1-0.3 2-1.2 2.5l-23.3 11.7c0.3 5 0.2 10-0.3 15.1l22.9 12.5c0.9 0.5 1.4 1.6 1.1 2.6l-7 24.2c-0.3 1-1.2 1.7-2.2 1.6l-26.1-1.5c-2.3 4.5-4.9 8.9-7.7 12.9l13.5 22.3c0.6 0.9 0.4 2-0.3 2.8l-18.2 17.5c-0.7 0.7-1.9 0.8-2.7 0.3l-21.9-14.4c-4.2 2.7-8.6 5.2-13.1 7.3l0.6 26.1c0 1-0.7 2-1.7 2.2l-24.5 6.1q-0.3 0.1-0.5 0.1zm-12.4-29.1c0.8 0 1.6 0.5 2 1.3l11.6 23 21-5.3-0.6-25.8c0-0.9 0.5-1.7 1.3-2 5.3-2.4 10.3-5.2 15.1-8.4 0.7-0.5 1.7-0.5 2.4 0l21.6 14.2 15.6-15.1-13.4-22c-0.4-0.8-0.4-1.7 0.1-2.5 3.3-4.5 6.3-9.5 8.9-14.7 0.4-0.8 1.2-1.3 2.1-1.3l25.8 1.5 6-20.9-22.7-12.4c-0.8-0.4-1.2-1.2-1.1-2.1 0.6-5.8 0.7-11.6 0.3-17.2 0-0.9 0.4-1.8 1.2-2.2l23-11.5-5.2-21.1-25.8 0.6c-0.9 0-1.7-0.5-2.1-1.3-2.3-5.3-5.1-10.3-8.3-15.1-0.5-0.7-0.5-1.7 0-2.4l14.1-21.6-15-15.6-22.1 13.4c-0.7 0.4-1.7 0.4-2.4-0.1-4.6-3.3-9.6-6.3-14.8-8.9-0.8-0.4-1.3-1.2-1.2-2.1l1.5-25.8-20.9-5.9-12.4 22.6c-0.4 0.8-1.2 1.2-2.2 1.1-5.7-0.6-11.5-0.7-17.2-0.3-0.9 0.1-1.7-0.4-2.1-1.2l-11.6-23-21 5.2 0.5 25.8c0.1 0.9-0.5 1.7-1.3 2.1-5.2 2.3-10.3 5.1-15 8.3-0.8 0.5-1.7 0.5-2.5 0l-21.5-14.1-15.7 15 13.4 22.1c0.5 0.7 0.4 1.7-0.1 2.4-3.3 4.6-6.2 9.6-8.8 14.8-0.4 0.8-1.2 1.3-2.1 1.2l-25.8-1.5-6 20.9 22.7 12.4c0.7 0.4 1.2 1.3 1.1 2.2-0.6 5.8-0.7 11.5-0.3 17.2 0 0.9-0.5 1.7-1.3 2.1l-23 11.6 5.3 21.1 25.8-0.6c0.9-0.1 1.7 0.5 2 1.3 2.4 5.2 5.2 10.3 8.4 15 0.5 0.8 0.5 1.7 0 2.5l-14.2 21.5 15.1 15.7 22-13.4c0.8-0.5 1.8-0.4 2.5 0.1 4.6 3.3 9.5 6.3 14.7 8.8 0.8 0.4 1.3 1.2 1.3 2.1l-1.5 25.8 20.9 6 12.4-22.6c0.4-0.8 1.2-1.3 2.1-1.2 5.8 0.6 11.6 0.7 17.2 0.3q0.1 0 0.2 0zm-6.9-35.7c-6.2 0-12.4-0.9-18.6-2.6-35.6-10.2-56.3-47.5-46.1-83.2 5-17.2 16.4-31.5 32.1-40.2 15.7-8.7 33.8-10.8 51.1-5.8 35.6 10.2 56.3 47.5 46 83.1-4.9 17.3-16.3 31.6-32 40.3-10.1 5.6-21.2 8.4-32.5 8.4zm-60.4-84.5c-9.6 33.2 9.7 68.1 43 77.6 16.1 4.6 33.1 2.7 47.8-5.4 14.6-8.1 25.3-21.5 29.9-37.6 9.5-33.3-9.8-68.1-43.1-77.7-16.1-4.6-33-2.7-47.7 5.5-14.7 8.1-25.3 21.4-29.9 37.6z"/>
					</g>
				</g>
				<g id="&lt;Group&gt;">
					<g id="&lt;Group&gt;">
						<path id="&lt;Compound Path&gt;" fill-rule="evenodd" class="s2" d="m556.4 1937.1c-9.1-4.4-17.8-9.6-25.8-15.4l-40.3 24.5-30-31.1 25.9-39.5c-5.6-8.3-10.5-17.1-14.6-26.3l-47.2 1.1-10.4-41.9 42.1-21.2c-0.7-9.9-0.5-20 0.6-30.1l-41.4-22.7 11.9-41.5 47.1 2.7c4.5-9.1 9.6-17.8 15.5-25.8l-24.5-40.3 31.1-30 39.4 25.9c8.4-5.6 17.2-10.5 26.3-14.6l-1-47.2 41.9-10.4 21.2 42.1c9.9-0.7 20-0.5 30.1 0.6l22.6-41.4 41.6 11.9-2.7 47.1c9.1 4.5 17.7 9.6 25.8 15.5l40.3-24.5 30 31.1-25.9 39.4c5.5 8.4 10.4 17.2 14.5 26.3l47.2-1 10.5 41.9-42.1 21.2c0.6 9.9 0.4 20-0.6 30.1l41.4 22.6-11.9 41.6-47.2-2.7c-4.4 9.1-9.6 17.7-15.4 25.8l24.5 40.3-31.1 30-39.5-25.9c-8.3 5.5-17.1 10.4-26.3 14.5l1.1 47.2-41.9 10.5-21.2-42.1c-9.9 0.6-20 0.4-30.1-0.6l-22.7 41.4-41.5-11.9zm49-54.9c59 16.9 120.6-17.2 137.6-76.3 16.9-59-17.2-120.6-76.3-137.5-59-17-120.6 17.2-137.5 76.2-17 59.1 17.2 120.7 76.2 137.6z"/>
						<path id="&lt;Compound Path&gt;" fill-rule="evenodd" class="s1" d="m669.2 1999.7c-0.9 0-1.6-0.5-2-1.2l-20.5-40.8c-9.1 0.5-18.3 0.3-27.6-0.6l-21.9 40.1c-0.5 0.9-1.6 1.4-2.6 1.1l-41.5-11.9c-1-0.3-1.7-1.2-1.6-2.3l2.6-45.6c-8.3-4.2-16.2-8.9-23.6-14.2l-39.1 23.7c-0.8 0.6-2 0.4-2.7-0.3l-30-31.1c-0.7-0.7-0.8-1.9-0.3-2.7l25.1-38.3c-5-7.6-9.5-15.7-13.3-24l-45.7 1c-1.1 0-2-0.7-2.2-1.7l-10.5-41.9c-0.2-1 0.3-2.1 1.2-2.5l40.8-20.5c-0.5-9.1-0.4-18.3 0.5-27.6l-40.1-22c-0.9-0.4-1.3-1.5-1-2.5l11.9-41.5c0.2-1 1.1-1.7 2.2-1.6l45.7 2.6c4.1-8.3 8.9-16.2 14.1-23.6l-23.7-39.1c-0.5-0.9-0.4-2 0.4-2.7l31-30c0.8-0.7 1.9-0.8 2.8-0.3l38.2 25.1c7.7-5 15.8-9.5 24.1-13.3l-1-45.7c-0.1-1.1 0.6-2 1.6-2.2l42-10.5c1-0.2 2 0.3 2.5 1.2l20.5 40.8c9-0.5 18.3-0.4 27.5 0.5l22-40.1c0.5-0.9 1.6-1.3 2.6-1.1l41.5 12c1 0.2 1.6 1.2 1.6 2.2l-2.7 45.7c8.4 4.1 16.3 8.9 23.7 14.1l39-23.7c0.9-0.5 2-0.4 2.8 0.4l30 31c0.7 0.8 0.8 1.9 0.2 2.8l-25.1 38.2c5 7.7 9.5 15.8 13.3 24.1l45.8-1.1q0 0 0 0c1 0 1.9 0.7 2.2 1.7l10.4 41.9c0.3 1.1-0.2 2.1-1.1 2.6l-40.8 20.5c0.5 9 0.3 18.3-0.6 27.5l40.1 22c0.9 0.5 1.4 1.6 1.1 2.5l-11.9 41.6c-0.3 1-1.2 1.6-2.3 1.6l-45.6-2.7c-4.2 8.4-8.9 16.3-14.2 23.7l23.8 39c0.5 0.9 0.3 2-0.4 2.8l-31.1 30c-0.7 0.7-1.9 0.8-2.7 0.2l-38.3-25.1c-7.6 5-15.7 9.5-24 13.3l1 45.8c0 1-0.7 1.9-1.7 2.2l-41.9 10.4q-0.3 0.1-0.5 0.1zm-21.2-46.6c0.8 0 1.6 0.5 2 1.3l20.3 40.5 38.5-9.6-1-45.4c0-0.9 0.5-1.7 1.3-2.1 9-4 17.8-8.9 26-14.4 0.7-0.5 1.7-0.5 2.4 0l38 24.9 28.6-27.5-23.6-38.8c-0.5-0.7-0.4-1.7 0.1-2.4 5.7-7.9 10.8-16.5 15.3-25.5 0.4-0.8 1.1-1.3 2.1-1.3l45.3 2.7 11-38.2-39.9-21.8c-0.8-0.4-1.2-1.3-1.1-2.2 1-10 1.2-20 0.6-29.7-0.1-0.9 0.4-1.7 1.2-2.1l40.5-20.4-9.6-38.5-45.4 1c-0.9 0.1-1.7-0.5-2.1-1.3-4-9-8.9-17.7-14.4-25.9-0.5-0.8-0.5-1.8 0-2.5l25-38-27.6-28.5-38.8 23.6c-0.7 0.4-1.7 0.4-2.4-0.1-7.9-5.7-16.5-10.9-25.5-15.3-0.8-0.4-1.3-1.2-1.3-2.1l2.7-45.4-38.2-10.9-21.8 39.8c-0.4 0.8-1.3 1.2-2.2 1.2-10-1.1-20-1.3-29.7-0.6-0.9 0-1.7-0.4-2.1-1.2l-20.4-40.5-38.5 9.5 1 45.5c0.1 0.9-0.5 1.7-1.3 2-9 4.1-17.7 8.9-25.9 14.4-0.8 0.5-1.7 0.5-2.5 0l-38-24.9-28.5 27.5 23.6 38.8c0.4 0.8 0.4 1.7-0.1 2.5-5.7 7.9-10.9 16.4-15.3 25.5-0.4 0.8-1.2 1.3-2.1 1.2l-45.4-2.6-10.9 38.1 39.8 21.8c0.8 0.5 1.3 1.3 1.2 2.2-1.1 10-1.3 20-0.6 29.7 0.1 0.9-0.4 1.8-1.2 2.2l-40.5 20.3 9.5 38.5 45.5-1c0.8 0 1.7 0.5 2 1.3 4.1 9 8.9 17.8 14.4 26 0.5 0.7 0.5 1.7 0 2.4l-24.9 38 27.6 28.5 38.7-23.5c0.8-0.5 1.7-0.4 2.5 0.1 7.9 5.7 16.5 10.8 25.5 15.3 0.8 0.3 1.3 1.2 1.2 2.1l-2.6 45.3 38.1 11 21.8-39.9c0.5-0.8 1.3-1.2 2.2-1.1 10 1 20 1.2 29.7 0.6q0.1-0.1 0.2-0.1zm-12-64.3c-10.3 0-20.8-1.4-31.2-4.4-29.1-8.3-53.3-27.5-67.9-54-14.7-26.5-18.2-57.2-9.9-86.3 8.4-29.1 27.6-53.3 54.1-67.9 26.5-14.7 57.1-18.2 86.3-9.9 29.1 8.4 53.2 27.6 67.9 54.1 14.7 26.5 18.2 57.1 9.8 86.2-14.2 49.8-59.8 82.2-109.1 82.2zm-95.3-60.6c14.1 25.5 37.3 43.9 65.3 52 10 2.8 20.1 4.2 30 4.2 47.4 0 91.2-31.2 104.9-79 8-28 4.6-57.4-9.5-82.9-14.1-25.4-37.3-43.9-65.3-51.9-28-8-57.4-4.7-82.9 9.4-25.4 14.1-43.9 37.3-51.9 65.3-8 28-4.7 57.4 9.4 82.9z"/>
					</g>
				</g>
			</g>
			<g id="&lt;Group&gt;">
				<g id="&lt;Group&gt;">
					<g id="&lt;Group&gt;">
						<path id="&lt;Path&gt;" class="s3" d="m1421.7 1415c17.8-23.7-99.8-66.1-98.2-149.4 1.4-76 100.6-95.6 97.7-165.3-3.1-74.5-118.3-89.1-118.3-165.2-0.1-58.5 68.3-67.4 73.9-130 6.6-75.3-90.1-85.3-121.5-184.7-29.4-92.9 38.1-137.5-11.1-211-6.4-9.6-46.4-66.8-103.1-67.6-92.1-1.4-211.2 146.6-193.7 274.7 14.8 107.8 115.3 120.8 121.2 235.4 5 97.1-65.9 113.3-42.8 188.6 27.3 89.1 135.7 96.1 158.1 196.6 11.6 52.6-14.4 67.2 7 104.5 45.1 78.6 211.1 99.5 230.8 73.4z"/>
						<path id="&lt;Compound Path&gt;" fill-rule="evenodd" class="s1" d="m1379.4 1427.9q-6.4 0-13.6-0.5c-53.4-3.3-144.6-28.6-176.9-84.7-11.9-20.7-9.5-34.9-6.8-51.4 2.3-14 4.9-29.8-0.4-53.7-11.5-52-47-79-81.4-105.1-31.2-23.8-63.5-48.3-76.7-91.3-12.1-39.5 0.9-62.8 15.9-89.8 13.7-24.7 29.3-52.7 26.9-99.4-3-58.9-30.8-89.9-60.2-122.8-26.5-29.5-53.8-60.1-61-112.4-11-80.4 30.6-160.4 73.1-208.5 39.2-44.2 84.1-69.3 122.9-68.7 56.6 0.8 97.3 57.3 104.8 68.6 26.8 40 19.6 72.3 11.9 106.4-6.9 30.7-14 62.4-0.5 105.1 15 47.5 45.2 74.4 71.7 98.1 28.7 25.5 53.4 47.5 49.9 87.5-2.9 31.9-21.4 50.1-39.4 67.6-17.8 17.4-34.5 33.7-34.5 62.2 0 37.5 28.3 59.2 58.3 82.3 28.7 22.1 58.5 45 60 82.8 1.5 35.6-22.2 57.9-47.3 81.5-24.5 22.9-49.7 46.6-50.4 84-0.9 48.5 39.8 83.1 69.5 108.3 21.3 18 36.7 31.1 28.2 42.3-5.6 7.5-21.4 11.6-44 11.6zm-239.5-1083.9c-36.8 0-80.9 25.1-118.3 67.3-41.9 47.3-82.8 126-72 204.9 7 51 33.9 81 59.9 110.1 28.6 32 58.2 65 61.3 125.5 2.5 48-13.4 76.6-27.4 101.8-14.5 26.1-27.1 48.6-15.5 86.3 12.7 41.6 43 64.7 75.1 89.1 35 26.6 71.1 54.1 83 107.6 5.5 24.7 2.8 41.1 0.5 55.5-2.7 16.2-4.8 29 6.3 48.4 31.4 54.6 120.9 79.3 173.3 82.5 27.6 1.7 48.2-1.9 53.8-9.3 5.9-7.9-8.8-20.5-27.6-36.3-30.4-25.8-72-61.1-71-111.8 0.7-39.3 26.6-63.6 51.7-87.2 24.4-22.8 47.4-44.4 46-78-1.5-35.8-29.1-57-58.3-79.5-29.5-22.7-60-46.2-60-85.7-0.1-30.4 18.2-48.2 35.8-65.4 17.4-17 35.4-34.6 38.1-64.9 3.3-37.8-20.7-59.1-48.4-83.8-27-24.1-57.6-51.4-73-100.1-13.9-43.8-6.3-77.6 0.4-107.4 7.8-34.6 14.5-64.5-11.3-103-7.3-10.9-46.8-65.8-101.2-66.6q-0.6 0-1.2 0z"/>
					</g>
					<path id="&lt;Path&gt;" class="s1" d="m1384.2 1401.6q-0.3 0-0.7-0.1c-71.2-22.1-116.2-53.2-133.6-92.5-13.2-29.8-5.7-53.9 2.2-79.4 8-25.6 16.3-52 4.5-87.4-12.5-37.4-35-54.2-56.7-70.4-21.1-15.8-41-30.7-49.9-62.6-12.5-45.1 11-77.1 33.6-108.2 22-30 44.7-61 36-104.6-7.1-35.2-30-55.7-54.3-77.5-26.3-23.5-56.1-50.1-70.1-99.7-10.3-36.8-9.2-76.3 3.3-117.2 0.3-1.2 1.5-1.9 2.7-1.5 1.2 0.4 1.8 1.6 1.5 2.8-12.3 40.1-13.3 78.7-3.2 114.7 13.6 48.4 41.6 73.4 68.7 97.6 24.9 22.3 48.4 43.3 55.7 79.9 9.1 45.5-14.1 77.4-36.7 108.2-23.1 31.5-44.9 61.3-32.9 104.3 8.5 30.5 27.8 44.9 48.2 60.3 22.3 16.6 45.3 33.8 58.3 72.5 12.2 36.7 3.8 63.9-4.4 90.2-7.7 24.6-15 47.9-2.5 76.2 16.9 38.1 61 68.4 130.9 90 1.2 0.4 1.9 1.6 1.5 2.8-0.3 1-1.2 1.6-2.1 1.6z"/>
				</g>
				<g id="&lt;Group&gt;">
					<g id="&lt;Group&gt;">
						<path id="&lt;Path&gt;" class="s3" d="m1464 1738.5c8-18.3-94-45.7-179.7-174.7-51.9-78.1-71.9-154.4-90-226.1-44.8-177.2-8-211.9-55.6-294.4-57.1-98.9-129.1-60.8-210.4-162.7-100.2-125.8-25.2-227-127.9-340.2-56.2-61.9-155.9-116.9-243.6-88.7-53 17.1-108.5 66.8-109.9 121-1.4 52.2 48.5 69.7 87.6 133.3 69.7 113.6-13.5 181.7 31 296.9 60.3 156.3 249.8 124.8 330.8 311 32.7 75 4.6 86.4 33.6 158 97.6 241.7 518.2 302.8 534.1 266.6z"/>
						<path id="&lt;Compound Path&gt;" fill-rule="evenodd" class="s1" d="m1423.1 1750.4q-2 0-3.8-0.1c-58.8-0.8-161.5-21.2-258.4-64.8-82-36.9-189-103.8-233.1-212.8-14.1-35-14.8-56.1-15.5-76.5-0.7-22.2-1.3-43.1-18-81.4-41.6-95.7-111.5-133.2-179.1-169.4-62.9-33.7-122.4-65.6-151.8-141.7-20.5-53.3-14.1-96.6-7.8-138.5 7.4-49.9 14.4-97.1-23-158-15.3-24.9-32.2-42.7-47.1-58.3-23.3-24.4-41.7-43.7-40.8-76.3 1.4-55 57.8-105.8 111.4-123 87.7-28.2 188.9 26.5 245.9 89.3 52.4 57.7 58.9 111.5 65.7 168.5 6.5 54.1 13.2 110.1 62.4 171.8 39.1 49.1 75.4 65.1 110.5 80.5 36.1 16 70.3 31.1 100 82.5 25.3 43.9 27 73.8 29.5 119.2 2.3 41 5.1 92 26.4 175.8 17.3 68.4 36.9 146 89.7 225.4 54.1 81.4 114 121.8 149.9 145.8 21.6 14.6 33.6 22.6 29.9 31-3.9 8.9-24.7 11-42.9 11zm-817-1304c-16.4 0-32.8 2.3-48.6 7.4-52.2 16.8-107 65.9-108.4 118.9-0.8 30.8 17 49.5 39.6 73.1 15 15.9 32.1 33.8 47.7 59 38.2 62.4 31.1 110.3 23.5 161.1-6.1 41.3-12.5 84 7.7 136.2 28.8 74.6 87.5 106.1 149.7 139.4 68.3 36.6 138.8 74.4 181.1 171.5 17 39.1 17.7 61.5 18.4 83.1 0.6 20 1.3 40.6 15.1 75 75.9 187.9 359.5 272.9 487.4 274.8 28.6 0.4 40.8-4 42.6-8.3 2.2-5-10.6-13.6-28.3-25.5-36.1-24.3-96.5-64.9-151.1-147.1-53.2-80-72.9-158-90.3-226.7-21.3-84.2-24.2-135.5-26.5-176.7-2.5-44.7-4.2-74.2-28.9-117.1-29-50.3-61-64.4-98-80.7-33.9-15-72.3-31.9-112.2-81.9-49.9-62.6-56.7-119.2-63.3-174-6.7-56.2-13.1-109.3-64.6-166.1-45.7-50.3-120.2-95.4-192.6-95.4z"/>
					</g>
					<path id="&lt;Path&gt;" class="s1" d="m1390.6 1729.8q-0.4 0-0.8-0.2c-83.8-35.1-150.7-76.5-199.1-123.2-39.2-37.8-67.1-80-83.2-125.6-16.7-47.7-18.6-92.8-20.5-136.4-2.7-65.3-5.3-127-57.3-189.4-36.6-44-74.9-61.4-111.9-78.2-41.3-18.8-80.2-36.5-107-90.2-18.6-37.3-19-67.3-19.3-102-0.4-34.3-0.9-73.2-17.8-130.3-16.7-56.5-43.7-110.3-80.1-159.9-0.7-1-0.5-2.4 0.5-3.1 1-0.7 2.4-0.5 3.1 0.5 36.7 50 63.9 104.3 80.8 161.3 17.1 57.7 17.5 96.8 17.9 131.4 0.4 35.6 0.7 63.7 18.9 100.2 26 52.2 62.5 68.8 104.8 88 35.8 16.3 76.3 34.7 113.5 79.4 53 63.6 55.6 126 58.4 192.1 1.8 43.3 3.7 88.1 20.2 135.1 35.3 100.4 129.4 183.2 279.8 246.3 1.1 0.4 1.6 1.7 1.2 2.9-0.4 0.8-1.2 1.3-2.1 1.3z"/>
				</g>
			</g>
			<g id="&lt;Group&gt;">
				<path id="&lt;Path&gt;" class="s4" d="m1971.8 1750.7h-695.9v-1415.7h690.8c19.8 0 35.9 16.1 35.9 36v1348.9c0 17-13.8 30.8-30.8 30.8z"/>
				<path id="&lt;Path&gt;" class="s5" d="m1930.2 1751.9h-669.1c-15.9 0-28.8-12.9-28.8-28.8v-1356.8c0-16 12.9-28.9 28.8-28.9h669.1c15.9 0 28.8 12.9 28.8 28.9v1356.8c0 15.9-12.9 28.8-28.8 28.8z"/>
				<g id="&lt;Group&gt;">
					<path id="&lt;Path&gt;" class="s1" d="m1448.4 877.9h-82.1c-5.5 0-9.9-4.5-9.9-10v-74.5c0-5.5 4.4-10 9.9-10h82.1c5.5 0 10 4.5 10 10v74.5c0 5.5-4.5 10-10 10z"/>
					<path id="&lt;Path&gt;" class="s1" d="m1577.9 877.9h-83.2c-5.5 0-9.9-4.5-9.9-10v-74.5c0-5.5 4.4-10 9.9-10h83.2c5.5 0 10 4.5 10 10v74.5c0 5.5-4.5 10-10 10z"/>
					<path id="&lt;Path&gt;" class="s1" d="m1706.6 879.1h-81.1c-5.5 0-9.9-4.5-9.9-10v-74.5c0-5.5 4.4-10 9.9-10h81.1c5.5 0 9.9 4.5 9.9 10v74.5c0 5.5-4.4 10-9.9 10z"/>
					<path id="&lt;Path&gt;" class="s1" d="m1833.8 879.1h-81.1c-5.5 0-9.9-4.5-9.9-10v-74.5c0-5.5 4.4-10 9.9-10h81.1c5.5 0 9.9 4.5 9.9 10v74.5c0 5.5-4.4 10-9.9 10z"/>
					<path id="&lt;Path&gt;" class="s1" d="m1448.4 1006.3h-82.1c-5.5 0-10-4.5-10-10v-74.5c0-5.5 4.5-10 10-10h82.1c5.5 0 10 4.5 10 10v74.5c0 5.5-4.5 10-10 10z"/>
					<path id="&lt;Path&gt;" class="s1" d="m1577.9 1006.3h-83.2c-5.5 0-10-4.5-10-10v-74.5c0-5.5 4.5-10 10-10h83.2c5.5 0 10 4.5 10 10v74.5c0 5.5-4.5 10-10 10z"/>
					<path id="&lt;Path&gt;" class="s1" d="m1706.6 1007.5h-81.1c-5.5 0-9.9-4.5-9.9-10v-74.5c0-5.5 4.4-10 9.9-10h81.1c5.5 0 9.9 4.5 9.9 10v74.5c0 5.5-4.4 10-9.9 10z"/>
					<path id="&lt;Path&gt;" class="s1" d="m1833.8 1007.5h-81.1c-5.5 0-9.9-4.5-9.9-10v-74.5c0-5.5 4.4-10 9.9-10h81.1c5.5 0 9.9 4.5 9.9 10v74.5c0 5.5-4.4 10-9.9 10z"/>
					<path id="&lt;Path&gt;" class="s1" d="m1451 1134.7h-82.1c-5.5 0-9.9-4.5-9.9-10v-74.5c0-5.5 4.4-10 9.9-10h82.1c5.5 0 10 4.5 10 10v74.5c0 5.5-4.5 10-10 10z"/>
					<path id="&lt;Path&gt;" class="s1" d="m1578.3 1134.7h-83.2c-5.5 0-9.9-4.5-9.9-10v-74.5c0-5.5 4.4-10 9.9-10h83.2c5.5 0 10 4.5 10 10v74.5c0 5.5-4.5 10-10 10z"/>
					<path id="&lt;Path&gt;" class="s1" d="m1709.2 1135.9h-81.1c-5.5 0-9.9-4.4-9.9-9.9v-74.6c0-5.5 4.4-10 9.9-10h81.1c5.5 0 9.9 4.5 9.9 10v74.6c0 5.5-4.4 9.9-9.9 9.9z"/>
					<path id="&lt;Path&gt;" class="s1" d="m1836.4 1135.9h-81.1c-5.5 0-9.9-4.4-9.9-9.9v-74.6c0-5.5 4.4-10 9.9-10h81.1c5.5 0 9.9 4.5 9.9 10v74.6c0 5.5-4.4 9.9-9.9 9.9z"/>
					<path id="&lt;Path&gt;" class="s1" d="m1451 1263.1h-82.1c-5.5 0-9.9-4.5-9.9-10v-74.5c0-5.5 4.4-10 9.9-10h82.1c5.5 0 10 4.5 10 10v74.5c0 5.5-4.5 10-10 10z"/>
					<path id="&lt;Path&gt;" class="s1" d="m1580.5 1263.1h-83.1c-5.6 0-10-4.5-10-10v-74.5c0-5.5 4.4-10 10-10h83.1c5.5 0 10 4.5 10 10v74.5c0 5.5-4.5 10-10 10z"/>
					<path id="&lt;Path&gt;" class="s1" d="m1709.2 1264.3h-81.1c-5.5 0-9.9-4.4-9.9-9.9v-74.6c0-5.5 4.4-10 9.9-10h81.1c5.5 0 9.9 4.5 9.9 10v74.6c0 5.5-4.4 9.9-9.9 9.9z"/>
					<path id="&lt;Path&gt;" class="s1" d="m1836.4 1264.3h-81.1c-5.5 0-9.9-4.4-9.9-9.9v-74.6c0-5.5 4.4-10 9.9-10h81.1c5.5 0 9.9 4.5 9.9 10v74.6c0 5.5-4.4 9.9-9.9 9.9z"/>
				</g>
				<g id="&lt;Group&gt;">
					<g id="&lt;Group&gt;">
						<path id="&lt;Path&gt;" class="s6" d="m1438.3 881.7h-74.6c-5.5 0-9.9-4.5-9.9-10v-74.5c0-5.5 4.4-10 9.9-10h74.6c5.5 0 9.9 4.5 9.9 10v74.5c0 5.5-4.4 10-9.9 10z"/>
						<path id="&lt;Compound Path&gt;" fill-rule="evenodd" class="s1" d="m1438.3 883.9h-74.6c-6.7 0-12.2-5.5-12.2-12.2v-74.5c0-6.7 5.5-12.2 12.2-12.2h74.6c6.7 0 12.2 5.5 12.2 12.2v74.5c0 6.7-5.5 12.2-12.2 12.2zm-74.6-94.5c-4.3 0-7.7 3.5-7.7 7.8v74.5c0 4.3 3.4 7.8 7.7 7.8h74.6c4.3 0 7.7-3.5 7.7-7.8v-74.5c0-4.3-3.4-7.8-7.7-7.8z"/>
					</g>
					<g id="&lt;Group&gt;">
						<path id="&lt;Path&gt;" class="s6" d="m1566.7 881.7h-74.6c-5.5 0-9.9-4.5-9.9-10v-74.5c0-5.5 4.4-10 9.9-10h74.6c5.5 0 9.9 4.5 9.9 10v74.5c0 5.5-4.4 10-9.9 10z"/>
						<path id="&lt;Compound Path&gt;" fill-rule="evenodd" class="s1" d="m1566.7 883.9h-74.6c-6.7 0-12.2-5.5-12.2-12.2v-74.5c0-6.7 5.5-12.2 12.2-12.2h74.6c6.7 0 12.2 5.5 12.2 12.2v74.5c0 6.7-5.5 12.2-12.2 12.2zm-74.6-94.5c-4.3 0-7.7 3.5-7.7 7.8v74.5c0 4.3 3.4 7.8 7.7 7.8h74.6c4.3 0 7.7-3.5 7.7-7.8v-74.5c0-4.3-3.4-7.8-7.7-7.8z"/>
					</g>
					<g id="&lt;Group&gt;">
						<path id="&lt;Path&gt;" class="s6" d="m1697.5 882.9h-74.6c-5.5 0-9.9-4.5-9.9-10v-74.5c0-5.5 4.4-10 9.9-10h74.6c5.5 0 10 4.5 10 10v74.5c0 5.5-4.5 10-10 10z"/>
						<path id="&lt;Compound Path&gt;" fill-rule="evenodd" class="s1" d="m1697.5 885.1h-74.6c-6.7 0-12.1-5.4-12.1-12.2v-74.5c0-6.7 5.4-12.2 12.1-12.2h74.6c6.7 0 12.2 5.5 12.2 12.2v74.5c0 6.8-5.5 12.2-12.2 12.2zm-74.6-94.5c-4.2 0-7.7 3.5-7.7 7.8v74.5c0 4.3 3.5 7.8 7.7 7.8h74.6c4.3 0 7.8-3.5 7.8-7.8v-74.5c0-4.3-3.5-7.8-7.8-7.8z"/>
					</g>
					<g id="&lt;Group&gt;">
						<path id="&lt;Path&gt;" class="s6" d="m1824.7 882.9h-74.6c-5.5 0-9.9-4.5-9.9-10v-74.5c0-5.5 4.4-10 9.9-10h74.6c5.5 0 10 4.5 10 10v74.5c0 5.5-4.5 10-10 10z"/>
						<path id="&lt;Compound Path&gt;" fill-rule="evenodd" class="s1" d="m1824.7 885.1h-74.6c-6.7 0-12.1-5.5-12.1-12.2v-74.5c0-6.7 5.4-12.2 12.1-12.2h74.6c6.7 0 12.2 5.5 12.2 12.2v74.5c0 6.7-5.5 12.2-12.2 12.2zm-74.6-94.5c-4.2 0-7.7 3.5-7.7 7.8v74.5c0 4.3 3.5 7.8 7.7 7.8h74.6c4.3 0 7.7-3.5 7.7-7.8v-74.5c0-4.3-3.4-7.8-7.7-7.8z"/>
					</g>
					<g id="&lt;Group&gt;">
						<path id="&lt;Path&gt;" class="s6" d="m1438.3 1010.1h-74.6c-5.5 0-9.9-4.5-9.9-10v-74.5c0-5.5 4.4-10 9.9-10h74.6c5.5 0 9.9 4.5 9.9 10v74.5c0 5.5-4.4 10-9.9 10z"/>
						<path id="&lt;Compound Path&gt;" fill-rule="evenodd" class="s1" d="m1438.3 1012.3h-74.6c-6.7 0-12.2-5.5-12.2-12.2v-74.5c0-6.7 5.5-12.2 12.2-12.2h74.6c6.7 0 12.2 5.5 12.2 12.2v74.5c0 6.7-5.5 12.2-12.2 12.2zm-74.6-94.5c-4.3 0-7.7 3.5-7.7 7.8v74.5c0 4.3 3.4 7.8 7.7 7.8h74.6c4.3 0 7.7-3.5 7.7-7.8v-74.5c0-4.3-3.4-7.8-7.7-7.8z"/>
					</g>
					<g id="&lt;Group&gt;">
						<path id="&lt;Path&gt;" class="s6" d="m1566.7 1010.1h-74.6c-5.5 0-9.9-4.5-9.9-10v-74.5c0-5.5 4.4-10 9.9-10h74.6c5.5 0 9.9 4.5 9.9 10v74.5c0 5.5-4.4 10-9.9 10z"/>
						<path id="&lt;Compound Path&gt;" fill-rule="evenodd" class="s1" d="m1566.7 1012.3h-74.6c-6.7 0-12.2-5.5-12.2-12.2v-74.5c0-6.7 5.5-12.2 12.2-12.2h74.6c6.7 0 12.2 5.5 12.2 12.2v74.5c0 6.7-5.5 12.2-12.2 12.2zm-74.6-94.5c-4.3 0-7.7 3.5-7.7 7.8v74.5c0 4.3 3.4 7.8 7.7 7.8h74.6c4.3 0 7.7-3.5 7.7-7.8v-74.5c0-4.3-3.4-7.8-7.7-7.8z"/>
					</g>
					<g id="&lt;Group&gt;">
						<path id="&lt;Path&gt;" class="s6" d="m1697.5 1011.3h-74.6c-5.5 0-9.9-4.5-9.9-10v-74.5c0-5.5 4.4-10 9.9-10h74.6c5.5 0 10 4.5 10 10v74.5c0 5.5-4.5 10-10 10z"/>
						<path id="&lt;Compound Path&gt;" fill-rule="evenodd" class="s1" d="m1697.5 1013.5h-74.6c-6.7 0-12.1-5.4-12.1-12.2v-74.5c0-6.7 5.4-12.2 12.1-12.2h74.6c6.7 0 12.2 5.5 12.2 12.2v74.5c0 6.8-5.5 12.2-12.2 12.2zm-74.6-94.5c-4.2 0-7.7 3.5-7.7 7.8v74.5c0 4.3 3.5 7.8 7.7 7.8h74.6c4.3 0 7.8-3.5 7.8-7.8v-74.5c0-4.3-3.5-7.8-7.8-7.8z"/>
					</g>
					<g id="&lt;Group&gt;">
						<path id="&lt;Path&gt;" class="s6" d="m1824.7 1011.3h-74.6c-5.5 0-9.9-4.5-9.9-10v-74.5c0-5.5 4.4-10 9.9-10h74.6c5.5 0 10 4.5 10 10v74.5c0 5.5-4.5 10-10 10z"/>
						<path id="&lt;Compound Path&gt;" fill-rule="evenodd" class="s1" d="m1824.7 1013.5h-74.6c-6.7 0-12.1-5.4-12.1-12.2v-74.5c0-6.7 5.4-12.2 12.1-12.2h74.6c6.7 0 12.2 5.5 12.2 12.2v74.5c0 6.8-5.5 12.2-12.2 12.2zm-74.6-94.5c-4.2 0-7.7 3.5-7.7 7.8v74.5c0 4.3 3.5 7.8 7.7 7.8h74.6c4.3 0 7.7-3.5 7.7-7.8v-74.5c0-4.3-3.4-7.8-7.7-7.8z"/>
					</g>
					<g id="&lt;Group&gt;">
						<path id="&lt;Path&gt;" class="s6" d="m1440.7 1138.5h-74.6c-5.5 0-9.9-4.5-9.9-10v-74.5c0-5.5 4.4-10 9.9-10h74.6c5.5 0 10 4.5 10 10v74.5c0 5.5-4.5 10-10 10z"/>
						<path id="&lt;Compound Path&gt;" fill-rule="evenodd" class="s1" d="m1440.7 1140.7h-74.6c-6.7 0-12.1-5.4-12.1-12.2v-74.5c0-6.7 5.4-12.2 12.1-12.2h74.6c6.7 0 12.2 5.5 12.2 12.2v74.5c0 6.8-5.5 12.2-12.2 12.2zm-74.6-94.5c-4.2 0-7.7 3.5-7.7 7.8v74.5c0 4.3 3.5 7.8 7.7 7.8h74.6c4.3 0 7.7-3.5 7.7-7.8v-74.5c0-4.3-3.4-7.8-7.7-7.8z"/>
					</g>
					<g id="&lt;Group&gt;">
						<path id="&lt;Path&gt;" class="s6" d="m1569.1 1138.5h-74.6c-5.5 0-9.9-4.5-9.9-10v-74.5c0-5.5 4.4-10 9.9-10h74.6c5.5 0 10 4.5 10 10v74.5c0 5.5-4.5 10-10 10z"/>
						<path id="&lt;Compound Path&gt;" fill-rule="evenodd" class="s1" d="m1569.1 1140.7h-74.6c-6.7 0-12.1-5.4-12.1-12.2v-74.5c0-6.7 5.4-12.2 12.1-12.2h74.6c6.7 0 12.2 5.5 12.2 12.2v74.5c0 6.8-5.5 12.2-12.2 12.2zm-74.6-94.5c-4.2 0-7.7 3.5-7.7 7.8v74.5c0 4.3 3.5 7.8 7.7 7.8h74.6c4.3 0 7.8-3.5 7.8-7.8v-74.5c0-4.3-3.5-7.8-7.8-7.8z"/>
					</g>
					<g id="&lt;Group&gt;">
						<path id="&lt;Path&gt;" class="s6" d="m1699.9 1139.7h-74.5c-5.5 0-10-4.4-10-9.9v-74.6c0-5.5 4.5-10 10-10h74.5c5.5 0 10 4.5 10 10v74.6c0 5.5-4.5 9.9-10 9.9z"/>
						<path id="&lt;Compound Path&gt;" fill-rule="evenodd" class="s1" d="m1699.9 1141.9h-74.5c-6.7 0-12.2-5.4-12.2-12.1v-74.6c0-6.7 5.5-12.2 12.2-12.2h74.5c6.7 0 12.2 5.5 12.2 12.2v74.6c0 6.7-5.5 12.1-12.2 12.1zm-74.5-94.5c-4.3 0-7.8 3.5-7.8 7.8v74.6c0 4.2 3.5 7.7 7.8 7.7h74.5c4.3 0 7.8-3.5 7.8-7.7v-74.6c0-4.3-3.5-7.8-7.8-7.8z"/>
					</g>
					<g id="&lt;Group&gt;">
						<path id="&lt;Path&gt;" class="s6" d="m1827.1 1139.7h-74.5c-5.5 0-10-4.4-10-9.9v-74.6c0-5.5 4.5-10 10-10h74.5c5.5 0 10 4.5 10 10v74.6c0 5.5-4.5 9.9-10 9.9z"/>
						<path id="&lt;Compound Path&gt;" fill-rule="evenodd" class="s1" d="m1827.1 1141.9h-74.5c-6.8 0-12.2-5.4-12.2-12.1v-74.6c0-6.7 5.4-12.2 12.2-12.2h74.5c6.7 0 12.2 5.5 12.2 12.2v74.6c0 6.7-5.5 12.1-12.2 12.1zm-74.5-94.5c-4.3 0-7.8 3.5-7.8 7.8v74.6c0 4.2 3.5 7.7 7.8 7.7h74.5c4.3 0 7.8-3.5 7.8-7.7v-74.6c0-4.3-3.5-7.8-7.8-7.8z"/>
					</g>
					<g id="&lt;Group&gt;">
						<path id="&lt;Path&gt;" class="s6" d="m1440.7 1266.9h-74.6c-5.5 0-9.9-4.5-9.9-10v-74.5c0-5.5 4.4-10 9.9-10h74.6c5.5 0 10 4.5 10 10v74.5c0 5.5-4.5 10-10 10z"/>
						<path id="&lt;Compound Path&gt;" fill-rule="evenodd" class="s1" d="m1440.7 1269.1h-74.6c-6.7 0-12.1-5.4-12.1-12.2v-74.5c0-6.7 5.4-12.2 12.1-12.2h74.6c6.7 0 12.2 5.5 12.2 12.2v74.5c0 6.8-5.5 12.2-12.2 12.2zm-74.6-94.5c-4.2 0-7.7 3.5-7.7 7.8v74.5c0 4.3 3.5 7.8 7.7 7.8h74.6c4.3 0 7.7-3.5 7.7-7.8v-74.5c0-4.3-3.4-7.8-7.7-7.8z"/>
					</g>
					<g id="&lt;Group&gt;">
						<path id="&lt;Path&gt;" class="s6" d="m1569.1 1266.9h-74.6c-5.5 0-9.9-4.5-9.9-10v-74.5c0-5.5 4.4-10 9.9-10h74.6c5.5 0 10 4.5 10 10v74.5c0 5.5-4.5 10-10 10z"/>
						<path id="&lt;Compound Path&gt;" fill-rule="evenodd" class="s1" d="m1569.1 1269.1h-74.6c-6.7 0-12.1-5.4-12.1-12.2v-74.5c0-6.7 5.4-12.2 12.1-12.2h74.6c6.7 0 12.2 5.5 12.2 12.2v74.5c0 6.8-5.5 12.2-12.2 12.2zm-74.6-94.5c-4.2 0-7.7 3.5-7.7 7.8v74.5c0 4.3 3.5 7.8 7.7 7.8h74.6c4.3 0 7.7-3.5 7.7-7.8v-74.5c0-4.3-3.4-7.8-7.7-7.8z"/>
					</g>
					<g id="&lt;Group&gt;">
						<path id="&lt;Path&gt;" class="s6" d="m1699.9 1268.1h-74.5c-5.5 0-10-4.4-10-9.9v-74.6c0-5.5 4.5-10 10-10h74.5c5.5 0 10 4.5 10 10v74.6c0 5.5-4.5 9.9-10 9.9z"/>
						<path id="&lt;Compound Path&gt;" fill-rule="evenodd" class="s1" d="m1699.9 1270.3h-74.5c-6.7 0-12.2-5.4-12.2-12.1v-74.6c0-6.7 5.5-12.2 12.2-12.2h74.5c6.7 0 12.2 5.5 12.2 12.2v74.6c0 6.7-5.5 12.1-12.2 12.1zm-74.5-94.5c-4.3 0-7.8 3.5-7.8 7.8v74.6c0 4.2 3.5 7.7 7.8 7.7h74.5c4.3 0 7.8-3.5 7.8-7.7v-74.6c0-4.3-3.5-7.8-7.8-7.8z"/>
					</g>
					<g id="&lt;Group&gt;">
						<path id="&lt;Path&gt;" class="s6" d="m1827.1 1268.1h-74.5c-5.5 0-10-4.4-10-9.9v-74.6c0-5.5 4.5-10 10-10h74.5c5.5 0 10 4.5 10 10v74.6c0 5.5-4.5 9.9-10 9.9z"/>
						<path id="&lt;Compound Path&gt;" fill-rule="evenodd" class="s1" d="m1827.1 1270.3h-74.5c-6.8 0-12.2-5.4-12.2-12.1v-74.6c0-6.7 5.4-12.2 12.2-12.2h74.5c6.7 0 12.2 5.5 12.2 12.2v74.6c0 6.7-5.5 12.1-12.2 12.1zm-74.5-94.5c-4.3 0-7.8 3.5-7.8 7.8v74.6c0 4.2 3.5 7.7 7.8 7.7h74.5c4.3 0 7.8-3.5 7.8-7.7v-74.6c0-4.3-3.5-7.8-7.8-7.8z"/>
					</g>
				</g>
				<g id="&lt;Group&gt;">
					<path id="&lt;Path&gt;" class="s6" d="m1666.4 1361.4h-123.1c-3.5 0-6.3-2.8-6.3-6.3v-50.2c0-3.5 2.8-6.3 6.3-6.3h123.1c3.5 0 6.3 2.8 6.3 6.3v50.2c0 3.5-2.8 6.3-6.3 6.3z"/>
					<path id="&lt;Compound Path&gt;" fill-rule="evenodd" class="s1" d="m1666.4 1363.6h-123.1c-4.7 0-8.5-3.8-8.5-8.5v-50.2c0-4.7 3.8-8.5 8.5-8.5h123.1c4.7 0 8.5 3.8 8.5 8.5v50.2c0 4.7-3.8 8.5-8.5 8.5zm-123.1-62.8c-2.3 0-4.1 1.9-4.1 4.1v50.2c0 2.3 1.8 4.1 4.1 4.1h123.1c2.3 0 4.1-1.8 4.1-4.1v-50.2c0-2.2-1.8-4.1-4.1-4.1z"/>
				</g>
				<path id="&lt;Compound Path&gt;" fill-rule="evenodd" class="s1" d="m1930.2 1754.2h-669.1c-17.1 0-31-14-31-31.1v-1356.8c0-17.2 13.9-31.1 31-31.1h669.1c17.1 0 31.1 13.9 31.1 31.1v1356.8c0 17.1-14 31.1-31.1 31.1zm-669.1-1414.6c-14.7 0-26.6 12-26.6 26.7v1356.8c0 14.7 11.9 26.6 26.6 26.6h669.1c14.7 0 26.6-11.9 26.6-26.6v-1356.8c0-14.7-11.9-26.7-26.6-26.7z"/>
				<g id="&lt;Group&gt;">
					<path id="&lt;Path&gt;" class="s4" d="m1693.8 1766.5h-171.5c-4.2 0-7.6-3.4-7.6-7.6v-267.4c0-15.5 12.6-28.1 28.1-28.1h139.4c11.2 0 20.3 9.1 20.3 20.3v274.1c0 4.8-3.9 8.7-8.7 8.7z"/>
					<path id="&lt;Compound Path&gt;" fill-rule="evenodd" class="s1" d="m1693.8 1768.7h-171.5c-5.4 0-9.8-4.4-9.8-9.8v-267.4c0-16.7 13.6-30.3 30.3-30.3h139.4c12.4 0 22.5 10.1 22.5 22.5v274.1c0 6-4.9 10.9-10.9 10.9zm-151-303.1c-14.3 0-25.9 11.6-25.9 25.9v267.4c0 3 2.4 5.4 5.4 5.4h171.5c3.6 0 6.5-2.9 6.5-6.5v-274.1c0-10-8.1-18.1-18.1-18.1z"/>
				</g>
				<path id="&lt;Path&gt;" class="s1" d="m1633.8 1597.9h-54.6c-6.9 0-12.6-5.6-12.6-12.5v-54.6c0-7 5.7-12.6 12.6-12.6h54.6c7 0 12.6 5.6 12.6 12.6v54.6c0 6.9-5.6 12.5-12.6 12.5z"/>
				<g id="&lt;Group&gt;">
					<g id="&lt;Group&gt;">
						<path id="&lt;Path&gt;" class="s6" d="m1841.8 739.6h-487.7c-9.1 0-16.6-7.4-16.6-16.6v-286.6c0-9.2 7.5-16.6 16.6-16.6h487.7c9.2 0 16.6 7.4 16.6 16.6v286.6c0 9.2-7.4 16.6-16.6 16.6z"/>
						<path id="&lt;Compound Path&gt;" fill-rule="evenodd" class="s1" d="m1841.8 741.8h-487.7c-10.3 0-18.8-8.4-18.8-18.8v-286.6c0-10.4 8.5-18.8 18.8-18.8h487.7c10.4 0 18.8 8.4 18.8 18.8v286.6c0 10.4-8.4 18.8-18.8 18.8zm-487.7-319.8c-7.9 0-14.3 6.5-14.3 14.4v286.6c0 7.9 6.4 14.4 14.3 14.4h487.7c7.9 0 14.4-6.5 14.4-14.4v-286.6c0-7.9-6.5-14.4-14.4-14.4z"/>
					</g>
				</g>
				<g id="&lt;Group&gt;">
					<path id="&lt;Path&gt;" class="s7" d="m1481.4 591.7c0 12.9-10.4 23.3-23.3 23.3-12.8 0-23.2-10.4-23.2-23.3 0-12.8 10.4-23.2 23.2-23.2 12.9 0 23.3 10.4 23.3 23.2z"/>
					<path id="&lt;Path&gt;" class="s7" d="m1554.4 590.6c0 12.9-10.4 23.3-23.2 23.3-12.9 0-23.3-10.4-23.3-23.3 0-12.8 10.4-23.2 23.3-23.2 12.8 0 23.2 10.4 23.2 23.2z"/>
					<path id="&lt;Path&gt;" class="s7" d="m1628.6 589.5c0 12.9-10.4 23.3-23.3 23.3-12.8 0-23.2-10.4-23.2-23.3 0-12.8 10.4-23.2 23.2-23.2 12.9 0 23.3 10.4 23.3 23.2z"/>
					<path id="&lt;Path&gt;" class="s7" d="m1701.6 588.4c0 12.9-10.4 23.3-23.2 23.3-12.9 0-23.3-10.4-23.3-23.3 0-12.8 10.4-23.2 23.3-23.2 12.8 0 23.2 10.4 23.2 23.2z"/>
					<path id="&lt;Path&gt;" class="s7" d="m1773.5 586.2c0 12.8-10.4 23.2-23.2 23.2-12.8 0-23.2-10.4-23.2-23.2 0-12.8 10.4-23.2 23.2-23.2 12.8 0 23.2 10.4 23.2 23.2z"/>
				</g>
			</g>
			<g id="&lt;Group&gt;">
				<g id="&lt;Group&gt;">
					<path id="&lt;Path&gt;" class="s2" d="m1340.7 2055.5c-1.1 0-2-0.8-2.2-1.9-0.1-1.2 0.7-2.3 1.9-2.5 193.2-24.1 400.5-182.6 402.6-184.2 0.9-0.8 2.3-0.6 3.1 0.4 0.7 0.9 0.5 2.3-0.4 3.1-2.1 1.6-210.4 160.8-404.7 185.1q-0.1 0-0.3 0z"/>
					<path id="&lt;Path&gt;" class="s2" d="m1324.1 2090.1c-1.2 0-2.2-1-2.2-2.2-0.1-1.2 0.8-2.2 2.1-2.3 150.9-6.9 346.9-129.1 348.8-130.3 1.1-0.7 2.4-0.4 3.1 0.7 0.6 1 0.3 2.4-0.7 3-2 1.3-198.9 124-351 131.1q-0.1 0-0.1 0z"/>
					<path id="&lt;Compound Path&gt;" fill-rule="evenodd" class="s8" d="m1307 2077c-3.9 0-7.9-1.5-11-4.5q0 0 0 0c-6.2-6.1-6.3-16.1-0.2-22.3 6-6.3 16.1-6.4 22.3-0.3 6.2 6.1 6.3 16.1 0.2 22.4-3.1 3.1-7.2 4.7-11.3 4.7zm-7.9-7.7c4.5 4.4 11.7 4.3 16.1-0.1 4.4-4.5 4.3-11.7-0.2-16.1-4.5-4.4-11.7-4.3-16.1 0.2-4.4 4.4-4.3 11.7 0.2 16z"/>
					<path id="&lt;Compound Path&gt;" fill-rule="evenodd" class="s9" d="m1784.2 1861.2q-0.1 0-0.2 0c-0.8 0-1.5-0.5-1.8-1.2l-19.2-39c-0.4-0.7-0.4-1.5 0-2.1 0.4-0.6 1-1.1 1.7-1.1l47.4-4.3c0.8 0 1.7 0.4 2.1 1.1 0.5 0.7 0.4 1.6 0 2.3l-28.2 43.3c-0.4 0.6-1.1 1-1.8 1zm-15.9-39.3l16.1 32.6 23.6-36.1z"/>
				</g>
				<g id="&lt;Group&gt;">
					<path id="&lt;Path&gt;" class="s1" d="m2049.1 739.8c-0.5 0-1.1-0.2-1.5-0.7-0.9-0.8-0.9-2.2 0-3.1l7.7-7.7c0.8-0.9 2.2-0.9 3.1 0 0.9 0.8 0.9 2.2 0 3.1l-7.7 7.7c-0.4 0.5-1 0.7-1.6 0.7z"/>
					<path id="&lt;Path&gt;" class="s1" d="m2078.3 710.6c-0.6 0-1.1-0.2-1.6-0.6-0.8-0.9-0.8-2.3 0-3.2l7.8-7.7c0.8-0.9 2.2-0.9 3.1 0 0.8 0.9 0.8 2.3 0 3.1l-7.7 7.8c-0.5 0.4-1 0.6-1.6 0.6z"/>
					<path id="&lt;Path&gt;" class="s1" d="m2086 739.8c-0.5 0-1.1-0.2-1.5-0.7l-7.8-7.7c-0.8-0.9-0.8-2.3 0-3.1 0.9-0.9 2.3-0.9 3.2 0l7.7 7.7c0.8 0.9 0.8 2.3 0 3.1-0.4 0.5-1 0.7-1.6 0.7z"/>
					<path id="&lt;Path&gt;" class="s1" d="m2056.8 710.6c-0.5 0-1.1-0.2-1.5-0.6l-7.7-7.8c-0.9-0.8-0.9-2.2 0-3.1 0.8-0.9 2.2-0.9 3.1 0l7.7 7.7c0.9 0.9 0.9 2.3 0 3.2-0.4 0.4-1 0.6-1.6 0.6z"/>
				</g>
				<g id="&lt;Group&gt;">
					<path id="&lt;Path&gt;" class="s1" d="m457.3 1066q-0.5 0-0.9-0.2c-1.1-0.5-1.6-1.8-1.1-2.9l4.5-10c0.5-1.1 1.8-1.6 2.9-1.1 1.1 0.6 1.6 1.9 1.1 3l-4.5 9.9c-0.4 0.8-1.2 1.3-2 1.3z"/>
					<path id="&lt;Path&gt;" class="s1" d="m474.4 1028.5q-0.5 0-0.9-0.2c-1.1-0.5-1.6-1.8-1.1-3l4.5-9.9c0.5-1.1 1.8-1.6 2.9-1.1 1.1 0.5 1.6 1.8 1.1 2.9l-4.5 10c-0.4 0.8-1.2 1.3-2 1.3z"/>
					<path id="&lt;Path&gt;" class="s1" d="m491.8 1053.1q-0.4 0-0.9-0.2l-9.9-4.5c-1.1-0.5-1.6-1.9-1.1-3 0.5-1.1 1.8-1.6 2.9-1.1l10 4.6c1.1 0.5 1.6 1.8 1.1 2.9-0.4 0.8-1.2 1.3-2.1 1.3z"/>
					<path id="&lt;Path&gt;" class="s1" d="m454.3 1036q-0.5 0-0.9-0.2l-10-4.5c-1.1-0.5-1.6-1.9-1.1-3 0.6-1.1 1.9-1.6 3-1.1l9.9 4.6c1.1 0.5 1.6 1.8 1.1 2.9-0.4 0.8-1.2 1.3-2 1.3z"/>
				</g>
				<path id="&lt;Compound Path&gt;" fill-rule="evenodd" class="s1" d="m556.7 1187.3c-8.8 0-15.9-7.1-15.9-15.9 0-8.8 7.1-15.9 15.9-15.9 8.8 0 15.9 7.1 15.9 15.9 0 8.8-7.1 15.9-15.9 15.9zm0-27.4c-6.3 0-11.5 5.1-11.5 11.5 0 6.3 5.2 11.5 11.5 11.5 6.3 0 11.5-5.2 11.5-11.5 0-6.4-5.2-11.5-11.5-11.5z"/>
			</g>
			<g id="&lt;Group&gt;">
				<path id="&lt;Path&gt;" class="s10" d="m857.2 1689.4c-42 58.2-74 157.6-98.5 273.3-1.6 7.6-19.8 141.9-12.4 144.3 154.9 48.7 166 48.7 270 55.3 26.3 1.7 137.2 0 214.2-2.2 6.7-0.2 12.4-4.5 12-11.1-9.5-175.1-26.1-386.1-26.1-386.1z"/>
				<path id="&lt;Path&gt;" class="s10" d="m1240.5 2153.2c-1.1 0-2.1-0.9-2.2-2.1-9-164.9-24.4-364.1-26-384.3l-356.1-73c-37.7 52.9-70.4 144.2-97.3 271.4-2.3 11-18 132.6-13.4 141.9 0.8 0.6 1.2 1.6 0.9 2.5-0.4 1.2-1.6 1.9-2.8 1.5-2.6-0.8-6.4-2 1.3-72.5 3.8-34 8.8-70.2 9.6-74.3 27.3-128.8 60.5-221 98.9-274.2 0.6-0.7 1.4-1.1 2.3-0.9l359.1 73.6c1 0.2 1.7 1 1.8 2 0.2 2.1 16.7 213 26.2 386 0 1.3-0.9 2.3-2.1 2.4q-0.1 0-0.2 0z"/>
				<g id="&lt;Group&gt;">
					<g id="&lt;Group&gt;">
						<path id="&lt;Path&gt;" class="s11" d="m1303.9 1256.1c0 0 97.1 65.3 142.4 53 63.9-17.3 92-180 94.7-194.4 2.8-14.4 15.1-87.7 27.8-115 12-25.7 19.3-51.9 23.2-68.1 2.3-9.7 8.9-14.5 15.5-13.5 5.8 0.9 9.6 5.5 6.4 20-3.8 16.8-7.1 33.7-10.2 48-1 4.6-2.8 8.8 0.4 5.6 7.4-7.5 19.4-15.8 31.5-19.8 5.3-1.8 47.6-47.7 58.9-42.1 10 5.1-47.3 67.9-45 75.4 5.6 18.6 2.4 43.3-6.6 65.7-15.3 38-39.8 33.7-44 51.7-4.2 17.9-26.3 245.1-43.9 286.7-25.4 59.8-268.9 16.1-268.9 16.1z"/>
						<path id="&lt;Compound Path&gt;" fill-rule="evenodd" class="s1" d="m1446.1 1443.1c-72.7 0-154.6-14.4-160.4-15.5-1.2-0.2-2-1.2-1.8-2.4l17.8-169.4c0.1-0.7 0.5-1.4 1.2-1.7 0.7-0.4 1.6-0.3 2.2 0.1 1 0.7 96.8 64.7 140.7 52.8 54.5-14.8 83-138.4 92.7-190.8l0.4-1.9c0.3-1.7 0.7-4 1.2-7 4.2-23 15.3-84 26.7-108.5 11.6-24.8 18.9-50.5 23-67.7 2.5-10.3 9.7-16.4 18.1-15.1 3.2 0.4 5.6 1.9 7.2 4.2 2.6 3.8 2.9 9.8 0.9 18.4-2.3 10.5-4.5 21-6.6 31.1-1.2 5.9-2.4 11.6-3.5 16.9q-0.1 0.2-0.1 0.5c7.1-6.3 17.6-13.5 29.1-17.3 1.3-0.6 7.3-6 12.5-10.8 21.3-19.6 39.6-35.4 48.1-31.1 1.1 0.6 1.9 1.6 2.2 2.9 1.5 6.3-9 21-26.4 44.3-8.3 11.2-19.8 26.5-19.7 29.6 5.5 17.9 3 43-6.7 67-9 22.6-21.6 30.9-30.7 37-6.7 4.4-11.6 7.6-13.1 14.4-1.2 5-4 28.4-7.6 58.1-8.9 74.4-23.8 199.1-36.5 228.9-10.8 25.5-58.4 33-110.9 33zm-157.6-19.5c23.4 4 241.2 39.5 264.4-15.2 12.5-29.3 27.3-153.5 36.2-227.8 3.7-30.9 6.4-53.3 7.6-58.5 2-8.5 8.1-12.5 15-17.1 9.2-6.1 20.6-13.7 29.1-34.9 9.3-23.2 11.8-47.2 6.5-64.2-1.2-3.9 4.7-12.3 20.5-33.4 10.2-13.8 27.4-36.8 25.6-40.8-6.4-3.1-31.1 19.6-43 30.5-8.4 7.7-12.1 11.1-14.1 11.8-12.7 4.2-24.4 13-30.6 19.3-0.8 0.8-2.5 2.5-4.3 1.4-1.9-1-1.4-3-0.6-6.1 0.3-0.9 0.5-1.9 0.7-2.9 1.2-5.3 2.4-11 3.6-16.9 2.1-10.1 4.3-20.6 6.6-31.2 1.6-7.2 1.5-12.2-0.3-14.9-0.9-1.3-2.2-2.1-4.2-2.4-5.9-0.9-11.2 3.9-13.1 11.8-4.1 17.4-11.5 43.4-23.2 68.6-11.2 23.9-22.3 84.6-26.4 107.4-0.5 3-1 5.4-1.3 7l-0.3 1.9c-9.9 53.3-39 178.8-96 194.2-4.1 1.2-8.6 1.7-13.4 1.7-43.9 0-112.3-42.9-127.8-53z"/>
					</g>
					<path id="&lt;Path&gt;" class="s12" d="m895.3 1167.7c117-52.3 343.2-41.4 501.9 128.9 18.6 20-35.3 171-83.3 160.6-42.5-9.2-77.1-19.8-80.4 4.8-4.4 34 26 306.2-18.3 383-79.3 137.1-315.7 116.6-437.3 49.8-32.1-17.7 1.6-66.3 25.2-224.8 17.6-118 27.9-215.8 6.1-178.1-10.7 18.5-122.5-92.9-110.8-126.1 25.6-73 70.6-141.8 196.9-198.1z"/>
					<path id="&lt;Path&gt;" class="s12" d="m1515.4 1129.2l93.7 12.7c6.4 216.1-14.2 371.3-295.2 315.3l37.9-200.9c104.8 73.1 143.8-15.8 163.6-127.1z"/>
					<path id="&lt;Path&gt;" class="s12" d="m724.3 1311.9c-136.6 198.6-58.1 604.6 127.1 607.6l-4.8-175.5c-15.5-19.6-23.3-213.4 6-274.8z"/>
					<path id="&lt;Path&gt;" class="s10" d="m769.8 1890.8q-0.3 0-0.6-0.1c-1.2-0.4-1.9-1.6-1.5-2.8 27.6-99 42.9-257.5 48.1-372.8 0.1-1.2 1.1-2.1 2.3-2.1 1.3 0.1 2.2 1.1 2.2 2.3-5.2 115.6-20.7 274.5-48.4 373.8-0.2 1-1.1 1.7-2.1 1.7z"/>
				</g>
				<g id="&lt;Group&gt;">
					<g id="&lt;Group&gt;">
						<path id="&lt;Path&gt;" class="s11" d="m966.2 1149.8c1.2-4.7 47.3-42.8 35.2-128.6 0 0-62.3-84.7-43.3-122 18.9-37.3 17.3-92.5 80.9-93 63.6-0.4 101 28.1 115.7 65.2 14.6 37.1 18.5 74.3 19.9 95.9 1 15.9-1.2 51.7-2.4 69.2-0.4 6-4.5 11.1-10.3 12.7l-19.3 5.4c-6.2 1.7-10.5 7.5-10.4 14l0.8 34.4c3 83.9-24.2 72.3-44.2 76.8-50.9 11.6-129.3-5.4-122.6-30z"/>
						<path id="&lt;Compound Path&gt;" fill-rule="evenodd" class="s1" d="m1051.9 1185.8c-34.7 0-70.4-8.6-83.3-22-4.3-4.6-5.9-9.6-4.6-14.6 0.4-1.2 1.4-2.4 3.7-5.2 10.3-12.5 41.5-50.4 31.6-122-5.5-7.4-62-86.7-43.2-123.8 4.5-8.8 7.9-19 11.2-28.8 10.7-32 21.8-65 71.7-65.4 57.9-0.4 100.8 23.9 117.7 66.6 11.1 27.9 17.8 60.4 20.1 96.5 1 15.8-1.1 50.3-2.4 69.5-0.4 6.9-5.2 12.8-11.9 14.7l-19.3 5.4c-5.2 1.5-8.9 6.4-8.8 11.9l0.8 34.3c2.6 73.7-18.5 75.9-37 77.8-3.2 0.3-6.1 0.6-8.9 1.3-11.5 2.6-24.4 3.8-37.4 3.8zm-83.6-35.4c-0.9 3.5 0.2 6.9 3.5 10.3 16.6 17.3 76.5 26 116.5 16.9 3.1-0.7 6.3-1 9.4-1.3 17.5-1.8 35.5-3.7 33-73.3l-0.7-34.3c-0.1-7.6 4.8-14.2 12-16.3l19.3-5.3c4.9-1.4 8.4-5.7 8.7-10.8 1.3-19.1 3.3-53.3 2.3-68.9-2.2-35.7-8.8-67.7-19.7-95.2-16.2-40.9-57.5-64.1-113.6-63.8-46.7 0.4-56.8 30.5-67.5 62.4-3.4 10-6.8 20.3-11.5 29.4-18.1 35.7 42.6 118.8 43.2 119.7q0.3 0.4 0.4 1c10.4 73.9-21.9 113-32.5 125.9-1.2 1.5-2.5 3.1-2.8 3.6z"/>
					</g>
					<path id="&lt;Path&gt;" class="s1" d="m1133.1 928.8c7.7-3.3 12.7-10.8 12.9-19.1 0.2-10-5.9-33 8.7-38.3 39.2-14.2 23.9-61.4 0.6-78.8-23.3-17.4-114.7-46.4-160.9-21.2 0 0-18.3 15.3-14.2 30.5 0 0-36.8 1-45.4 28.3-8.6 27.2-23.1 127.3 68.6 203.1 0 0 23.7 2.8 50.1-4.2 15.3-4.1 26.5-17.2 28.6-32.9 3.3-24.1 13-60.9 19.7-71.9 0 0-4.2-17 5.3-21.4 6.2-2.9 13.8 4.3 17.2 10.3z"/>
					<path id="&lt;Path&gt;" class="s1" d="m1169.7 1045.1q-0.2 0-0.4 0c-0.3-0.1-34.4-6.2-42.4-43.3-0.3-1.2 0.5-2.4 1.7-2.6 1.2-0.3 2.4 0.5 2.6 1.7 7.4 34.2 38.5 39.8 38.9 39.8 1.2 0.2 2 1.4 1.8 2.6-0.2 1-1.1 1.8-2.2 1.8z"/>
					<path id="&lt;Path&gt;" class="s1" d="m1126.5 966.6q0 0 0 0c-1.2 0-28.8-1.2-36.1-50-0.2-1.2 0.7-2.4 1.9-2.5 1.2-0.2 2.3 0.6 2.5 1.8 6.7 44.9 30.8 46.3 31.8 46.3 1.2 0 2.2 1 2.1 2.3 0 1.2-1 2.1-2.2 2.1z"/>
				</g>
			</g>
			<path id="&lt;Compound Path&gt;" fill-rule="evenodd" class="s4" d="m1507.6 1886.9q0.5 5.7 0.1 11.3l15.7 8.1-4.1 15.7-17.7-0.6q-2.4 5.1-5.6 9.8l9.6 14.9-11.4 11.5-15-9.4q-4.6 3.2-9.8 5.7l0.8 17.7-15.6 4.3-8.3-15.7q-5.7 0.6-11.3 0.1l-8.1 15.7-15.6-4.1 0.6-17.7q-5.2-2.4-9.8-5.6l-14.9 9.6-11.5-11.4 9.3-15q-3.2-4.6-5.7-9.8l-17.6 0.8-4.3-15.6 15.6-8.3q-0.5-5.7-0.1-11.3l-15.6-8.1 4.1-15.7 17.6 0.6q2.4-5.1 5.6-9.8l-9.5-14.9 11.4-11.5 14.9 9.3q4.6-3.2 9.8-5.6l-0.8-17.7 15.6-4.3 8.3 15.6q5.7-0.5 11.3 0l8.1-15.7 15.7 4.1-0.6 17.7q5.1 2.3 9.8 5.5l14.9-9.5 11.5 11.4-9.4 15q3.2 4.6 5.7 9.7l17.7-0.8 4.2 15.7zm-27.1-5c-6.1-22.3-29-35.3-51.2-29.3-22.2 6.1-35.2 29.1-29.2 51.3 6.1 22.2 29 35.3 51.2 29.2 22.2-6.1 35.3-29 29.2-51.2z"/>
			<g id="&lt;Group&gt;">
				<path id="&lt;Path&gt;" class="s4" d="m910.7 659.8c0 81.4-66 147.3-147.3 147.3-81.4 0-147.3-65.9-147.3-147.3 0-81.3 65.9-147.3 147.3-147.3 81.3 0 147.3 66 147.3 147.3z"/>
				<g id="&lt;Group&gt;">
					<g id="&lt;Group&gt;">
						<path id="&lt;Path&gt;" class="s0" d="m797.5 639.1l-0.7-46.8c-0.4-15.1-12.3-27.4-27.4-28.1-16.6-0.8-30.4 12.8-30.1 29.5l0.4 14.5c0.1 5-4.1 9.1-9.2 8.9-4.6-0.2-8.3-4-8.4-8.6l-0.2-13.8c-0.6-26.7 20.8-48.7 48.4-47.5 22.8 0.9 43.7 21 44.2 45.4l0.6 47.2z"/>
						<path id="&lt;Compound Path&gt;" fill-rule="evenodd" class="s1" d="m815.1 642q0 0-0.1 0l-17.6-0.7c-1.1-0.1-2.1-1-2.1-2.2l-0.7-46.7c-0.4-14-11.5-25.4-25.3-26-7.4-0.3-14.4 2.3-19.7 7.5-5.3 5.2-8.2 12.3-8.1 19.7l0.4 14.5c0 3-1.1 6-3.3 8.1-2.2 2.1-5.1 3.2-8.1 3.1-5.9-0.2-10.5-5-10.6-10.8l-0.2-13.8c-0.3-13.7 4.9-26.5 14.5-36 9.6-9.4 22.5-14.3 36.2-13.8q0.2 0.1 0.3 0.1c24.4 1.2 45.5 22.9 46 47.5l0.6 47.2c0 0.7-0.2 1.2-0.6 1.7-0.4 0.4-1 0.6-1.6 0.6zm-15.4-5.1l13.2 0.6-0.6-44.9c-0.5-22.5-19.8-42.3-42.1-43.2q-0.1 0-0.3 0c-12.4-0.5-24 4-32.6 12.5-8.8 8.6-13.4 20.2-13.1 32.8l0.2 13.7c0 3.5 2.8 6.4 6.2 6.5 1.9 0.1 3.6-0.6 4.9-1.9 1.3-1.3 2-3 2-4.8l-0.4-14.5c-0.2-8.6 3.2-16.9 9.4-22.9 6.2-6.1 14.3-9.2 23-8.8 16.2 0.7 29.1 14 29.5 30.3z"/>
					</g>
					<path id="&lt;Path&gt;" class="s13" d="m778 767.5l-19.7 0.8c-27.3-0.7-51.4-33.3-48.9-71.6l4.2-61.4 116-0.9c10.3 0 18.9 9.1 18.2 19.4l-3.6 51.8c-2.3 34.9-31.3 61.9-66.2 61.9z"/>
					<g id="&lt;Group&gt;">
						<path id="&lt;Path&gt;" class="s0" d="m759 766.6c-38.4 0-68.9-32.5-66.3-70.9l4.1-59.5h122.6c5.7 0 10.1 4.8 9.7 10.5l-3.9 58c-2.3 34.8-31.3 61.9-66.2 61.9z"/>
						<path id="&lt;Compound Path&gt;" fill-rule="evenodd" class="s1" d="m759 768.8c-19.2 0-37-7.7-50.1-21.8-13.2-14-19.7-32.3-18.4-51.4l4-59.5c0.1-1.2 1.1-2.1 2.3-2.1h122.6c3.3 0 6.5 1.4 8.8 3.8 2.2 2.4 3.4 5.7 3.2 9l-4 58c-2.4 35.9-32.5 64-68.4 64zm-60.2-130.3l-3.9 57.4c-1.2 17.9 4.9 35 17.2 48.1 12.3 13.1 28.9 20.4 46.9 20.4 33.6 0 61.8-26.3 64-59.9l3.9-58c0.2-2.1-0.5-4.1-2-5.6-1.4-1.6-3.4-2.4-5.5-2.4z"/>
					</g>
					<g id="&lt;Group&gt;">
						<path id="&lt;Path&gt;" class="s1" d="m757.5 729c-3.2 0-5.7-2.7-5.5-5.8l3-46.2c0.2-2.9 2.5-5.1 5.4-5.1 3.1 0 5.6 2.6 5.4 5.8l-2.9 46.2c-0.2 2.8-2.6 5.1-5.4 5.1z"/>
						<path id="&lt;Path&gt;" class="s1" d="m779.3 681.2c0 11-8.9 19.9-19.9 19.9-11.1 0-20-8.9-20-19.9 0-11.1 8.9-20 20-20 11 0 19.9 8.9 19.9 20z"/>
					</g>
				</g>
			</g>
		</g>
	</g>
</svg>