<svg version="1.2" xmlns="http://www.w3.org/2000/svg" viewBox="0 0 4000 2000" width="4000" height="2000">
	<title>AI</title>
	<style>
		.s0 { fill: #4bb6d8 } 
		.s1 { fill: #f8fdff } 
		.s2 { fill: #128cb2 } 
		.s3 { fill: #ffde00 } 
		.s4 { fill: #fecc86 } 
		.s5 { fill: #ffb358 } 
		.s6 { fill: #d28221 } 
		.s7 { fill: #f99370 } 
		.s8 { fill: #e57d61 } 
		.s9 { fill: #21111d } 
		.s10 { fill: #c16256 } 
		.s11 { fill: #49263e } 
		.s12 { fill: #23061a } 
		.s13 { fill: #8a9edd } 
		.s14 { fill: #3a72aa } 
		.s15 { fill: #7689d6 } 
		.s16 { fill: #eb5648 } 
		.s17 { fill: #ce3932 } 
		.s18 { fill: #45a2bf } 
		.s19 { fill: #ffffff } 
		.s20 { fill: #8cc5d6 } 
	</style>
	<g id="321353356351 1">
		<g id="&lt;Group&gt;">
			<g id="7">
				<path id="&lt;Path&gt;" class="s0" d="m1164.1 1383.4v340.9c0 11.5-2.3 22.5-6.3 32.4h-305.8c-4.1-9.9-6.3-20.9-6.3-32.4v-340.9c0-43.2 31.5-78.2 70.3-78.2h177.8c38.8 0 70.3 35 70.3 78.2z"/>
				<path id="&lt;Path&gt;" class="s1" d="m1459.6 1717.5c-16.3 0-32.1-8.5-40.8-23.6l-235.7-406.9c-13-22.6-5.3-51.4 17.2-64.4 22.5-13.1 51.4-5.4 64.4 17.1l235.6 407c13.1 22.5 5.4 51.4-17.1 64.4-7.5 4.3-15.6 6.4-23.6 6.4z"/>
				<path id="&lt;Path&gt;" class="s2" d="m1296.6 1263.4c-0.4 95-144.9 95-145.4 0 0.5-95.1 145-95.1 145.4 0z"/>
				<path id="&lt;Path&gt;" class="s1" d="m1013.5 783.2h-17.3v-105.3h17.3z"/>
				<path id="&lt;Path&gt;" class="s0" d="m960 793.3c0.6-10.3-4-33.1 12.6-32.7 0 0 64.6 0 64.6 0 6.9 0 12.5 5.6 12.5 12.5-0.6 10.3 4.1 33-12.5 32.7 0 0-64.6 0-64.6 0-6.9 0-12.6-5.6-12.6-12.5z"/>
				<path id="&lt;Path&gt;" class="s0" d="m786.3 1052.6c-13.6-0.5-41.9 4.6-41.5-16.8 0 0 0-91.2 0-91.2-0.4-21.3 27.9-16.4 41.5-16.8 9.2 0 16.8 7.6 16.8 16.8v91.2c0 9.2-7.6 16.8-16.8 16.8z"/>
				<path id="&lt;Path&gt;" class="s0" d="m1248.2 1052.6c-13.6-0.5-41.9 4.6-41.5-16.8 0 0 0-91.2 0-91.2-0.4-21.3 27.9-16.4 41.5-16.8 9.2 0 16.8 7.6 16.8 16.8v91.2c0 9.2-7.6 16.8-16.8 16.8z"/>
				<path id="&lt;Path&gt;" class="s1" d="m936.5 833.1c0.9-15.7-6.2-50.4 19.1-49.9 0 0 98.6 0 98.6 0 25.2-0.5 18.3 34.2 19.1 49.9 0 10.5-8.6 19.1-19.1 19.1h-98.6c-10.5 0-19.1-8.6-19.1-19.1z"/>
				<path id="&lt;Path&gt;" class="s0" d="m989.5 1094.3c15.7 1 50.4-6.2 49.9 19.1 0 0 0 98.6 0 98.6 0.5 25.2-34.3 18.3-49.9 19.1-10.5 0-19.1-8.6-19.1-19.1v-98.6c0-10.5 8.6-19.1 19.1-19.1z"/>
				<path id="&lt;Path&gt;" class="s1" d="m1137.3 1162.7h-264.8c-54.2 0-98.6-44.3-98.6-98.5 4.3-84.2-31.4-243.8 98.6-246.5 0 0 264.8 0 264.8 0 54.2 0 98.5 44.3 98.5 98.5-4.3 84.2 31.4 243.8-98.5 246.5z"/>
				<path id="&lt;Path&gt;" class="s2" d="m1111.8 1105.2h-213.9c-36.1 0-65.7-29.5-65.7-65.7 2.9-56.1-20.9-162.5 65.7-164.3 0 0 213.9 0 213.9 0 36.2 0 65.7 29.6 65.7 65.7-2.9 56.1 21 162.5-65.7 164.3z"/>
				<path id="&lt;Path&gt;" class="s0" d="m1037.6 677.9c-0.2 42.8-65.3 42.8-65.5 0 0.2-42.8 65.3-42.8 65.5 0z"/>
				<path id="&lt;Path&gt;" class="s3" d="m960.9 990.2c-0.1 35-53.3 35-53.5 0 0.2-35 53.4-35 53.5 0z"/>
				<path id="&lt;Path&gt;" class="s3" d="m1102.3 990.2c-0.2 35-53.3 35-53.5 0 0.2-35 53.4-35 53.5 0z"/>
				<path id="&lt;Path&gt;" class="s2" d="m1164.1 1370.3v207.5h-318.4v-207.5c0-35.9 31.5-65.1 70.3-65.1h177.8c38.8 0 70.3 29.2 70.3 65.1z"/>
				<path id="&lt;Path&gt;" class="s1" d="m1265 1285.9v166.7c0 41.9-34 75.9-75.9 75.9h-368.4c-41.9 0-75.9-34-75.9-75.9v-166.7c0-41.9 34-75.9 75.9-75.9h368.4c41.9 0 75.9 34 75.9 75.9z"/>
				<path id="&lt;Path&gt;" class="s2" d="m831.3 1242.1c-0.5 95.1-145 95.1-145.4 0 0.4-95 145-95 145.4 0z"/>
				<path id="&lt;Path&gt;" class="s1" d="m522.9 1696.3c-35.1 0.8-59.4-40.5-40.7-70.8 0 0 235.6-407 235.6-407 31.8-52.9 111.8-7 81.6 47.3 0 0-235.6 406.9-235.6 406.9-8.8 15.1-24.6 23.6-40.9 23.6z"/>
				<path id="&lt;Path&gt;" class="s2" d="m595.7 1649.1c-0.5 95.1-145 95.1-145.4 0 0.4-95 144.9-95 145.4 0z"/>
				<path id="&lt;Path&gt;" class="s1" d="m953.5 1601.3l-72.9 0.1 15.3-16.8c20.9-22.2-14.5-54.6-34.8-31.7 0 0-44.4 48.6-44.4 48.6l-291.9 0.5c-26 0-47.1 21.1-47.1 47.1 0 26.1 21.1 47.2 47.1 47.2l428.9-0.1c62.3-1.2 62.1-94-0.2-94.9z"/>
				<path id="&lt;Path&gt;" class="s4" d="m1807.1 1669.7h-530l105.5-388.5h526.8z"/>
				<path id="&lt;Path&gt;" class="s5" d="m1277.1 1667.8v26.4h530v-26.4z"/>
				<path id="&lt;Path&gt;" class="s5" d="m1390.6 1281.2h-19l-103.3 386.6h-251.5v26.4h269.1v-23.6z"/>
			</g>
			<g id="6">
				<path id="&lt;Path&gt;" class="s4" d="m3089.4 1069.4c0 0-98.3 0-193.7 96.2-80 80.7-152.2 209.9-152.2 209.9l258.3 41.1c0 0 99.6-287.8 87.6-347.2z"/>
				<path id="&lt;Path&gt;" class="s4" d="m3520.4 1692.8q-1.9 31.6-6.6 63.9h-641.8c-1.8-17.9-2.1-39.6-1.2-63.9 4.2-113 34.8-280.8 67.8-364.1 43.8-112.9 123.2-204.6 185.6-259.5 0 0 97.8-6.7 97.8-6.7 163.9 95.5 316.1 340.3 298.4 630.3z"/>
				<path id="&lt;Path&gt;" class="s6" d="m2930.7 1354.2c1.5 0 2.9-1.1 3.3-2.7 9.6-46.6 43.1-86.1 37.3-92.3-8.3-1.8-31 46.3-44 90.8-0.5 2.1 1.2 4.2 3.4 4.2z"/>
				<path id="&lt;Path&gt;" class="s7" d="m3309.6 1309.8c66.2 53.4 215.3 166.1 164.9 256.2-64.2 36.7-179 35.1-265.6 47.4-24.9 1.8-28.4 39.4-4.6 46 81.5 24.1 166.3 39.2 252.2 34.8 38.8-2.8 81.2-11.4 110.9-40.2 39.6-39.6 62.8-99.3 58.6-155.7-12.1-135.8-116.4-239.9-220.1-316.1-87-66.7-184.7 63-96.3 127.6z"/>
				<path id="&lt;Path&gt;" class="s4" d="m3283.6 1296.3c163.9 201 184.1 232.3-51.5 314.5 25.5 30.2 8.2 59.7 8.2 59.7 659.5 193.5 445.1-619.5-22.3-608 3.3 51.1 26.9 180.3 65.6 233.8z"/>
				<path id="&lt;Path&gt;" class="s7" d="m3068.7 1666.9c0 0 27.7-83.8 142.7-53.6l22.2 53.7z"/>
				<path id="&lt;Path&gt;" class="s8" d="m3074.9 1665.3c3.4-0.1 30.9-29.5 71.8-33.7 1.8-0.2 3.1-1.8 2.9-3.6-19.7-12.6-95.1 37.5-74.7 37.3z"/>
				<path id="&lt;Path&gt;" class="s8" d="m3105.8 1666.4c30.9-11.5 33.7-13.3 56.6-17.6-0.2-1.6-0.8-4.8-1.1-6.4-24 5-24 5-56 17.6-3.8 0.7-3.3 6.4 0.5 6.4z"/>
				<path id="&lt;Path&gt;" class="s6" d="m3271.1 1678.8c-9.1-2.7-19-5.9-26.8-8.3 0 0 17.3-29.5-8.2-59.7 0 0 12.7-4.1 30.8-10.5 0 0 31.2 40 4.2 78.5z"/>
				<path id="&lt;Path&gt;" class="s6" d="m3266.3 1607.5c-4.9 0.7 154.6-51 152.6-118.5 0-78.8-129-194-134.5-198.8-3.3-2.9-7.9 2.1-4.6 5.1-0.2 1.5 187.1 162.5 115.5 231.7-53.3 52.3-148.5 73-129 80.5z"/>
				<path id="&lt;Path&gt;" class="s6" d="m3323.8 1692.5c4 0.1 4.6-6.1 0.6-6.7-28.8-5.7-55-14.9-55.2-15-19.3 5 25 15.5 54.6 21.7z"/>
				<path id="&lt;Path&gt;" class="s6" d="m3087.1 1132.7c27.4 66.4 162.7 26.5 184-66.8q0 0-0.1 0c-30.1-4.1-49-3.4-49-3.4 0 0-97.8 6.7-97.8 6.7-12-0.6-23.5-0.5-34.8 0.2-11.9 16.3-7.9 49.7-2.3 63.3z"/>
				<path id="&lt;Path&gt;" class="s7" d="m3124.2 1069.2c-11.6-51.7-11.4-128.1-7.4-160 6.6-62.7 106.3-49.3 96.6 12.7-3.4-1.7-1.6 110.5 8.6 140.6 12.7 45.3-136.2 104.8-97.8 6.7z"/>
				<path id="&lt;Path&gt;" class="s8" d="m3213.8 916.7c-0.1 1.7-0.2 3.5-0.4 5.2-2.4-1.3-2.2 60.7 2.4 105.2-39.8 23.4-87.3 20-96 19.1-6.9-56.2-7.1-108.1-2.3-141.2 12.2-56.6 98-46.1 96.3 11.7z"/>
				<path id="&lt;Path&gt;" class="s9" d="m3051 841.2c0 0 0.7-50.7 16.5-85.7l29 14.2z"/>
				<path id="&lt;Path&gt;" class="s7" d="m3050.5 989.5c34.5 34.9 87.7 44.7 130.2 35.4 13.2-2.6 25.8-7.3 37.1-14.3q5.7-3.6 10.8-7.9l0.1 0.1c161.3-163.2-59-429.3-158.7-196.5-33.7 65.6-92.6 100.9-19.5 183.2z"/>
				<path id="&lt;Path&gt;" class="s10" d="m3119.9 857.3c-1.7-3.2-0.4-7.1 2.8-8.7 3.2-1.7 7.1-0.4 8.7 2.8 1.6 3.2 0.4 7.1-2.8 8.7-3.2 1.6-7.1 0.4-8.7-2.8z"/>
				<path id="&lt;Path&gt;" class="s10" d="m3065.3 848.3c-1.7-3.2-0.4-7.1 2.8-8.7 3.2-1.7 7.1-0.4 8.7 2.8 1.7 3.2 0.4 7.1-2.8 8.7-3.2 1.6-7.1 0.4-8.7-2.8z"/>
				<path id="&lt;Path&gt;" class="s10" d="m3082.3 904.4c3.8 0.4 7.7 0.2 11-0.9 1.3-0.4 2-1.8 1.6-3.1-0.4-1.3-1.9-1.9-3.1-1.5-8.2 2.6-19.9-1.5-21.5-5.2-0.6-1.3 1.2-2.6 2.8-3.4 13.8-7.6 23.1-34 23.5-35.1 0.4-1.3-0.2-2.7-1.5-3.1-1.3-0.5-2.7 0.2-3.1 1.5-0.1 0.3-9.1 25.7-21.3 32.3-6.7 3.7-5.7 8-4.9 9.8 1.9 4.4 9.1 7.8 16.5 8.7z"/>
				<path id="&lt;Path&gt;" class="s8" d="m3077.5 790.2c35.1-18.6 99-1.8 130.3-2.2 0 0-6.5 53.6 47.6 91.7 4.7 49.2 12.8 70.7-37.6 130.9q5.7-3.6 10.8-7.9l0.1 0.1c155.4-155.7-48.1-420.2-151.2-212.6z"/>
				<path id="&lt;Path&gt;" class="s9" d="m3050.7 683.6c20.1-39.9 79.9-61.6 131.7-12.5 39.9 37.8 82.9 37.4 82.1 77.3 80 36.1 40.5 124.1 40.5 124.1l-40-4.6c-45.8-36.9-44.6-91.3-44.6-91.3h0.1c-10.2 0.5-21 0.1-30.5-2.3-29.5-7.5-73.1-11.1-106.3 1.3-33.2 12.3-55.5-47.5-33-92z"/>
				<path id="&lt;Path&gt;" class="s7" d="m3310.8 904.8c-4.3 20.5-21.2 34.4-37.7 31-16.6-3.5-26.6-23-22.3-43.5 4.3-20.6 21.2-34.5 37.8-31 16.5 3.4 26.5 22.9 22.2 43.5z"/>
				<path id="&lt;Path&gt;" class="s10" d="m3271.4 877.6c0.7-0.2 15.8-6.1 24.4 1.8 2.2 2 3.6 4.7 4.5 8q0 0 0 0c0 0.3 0.1 0.6 0.2 0.9q0 0 0 0 0 0 0 0 1.9 9.3-2.8 24.8c-0.3 1.2-1.5 1.9-2.6 1.7q-0.2 0-0.4 0c-1.3-0.4-2.1-1.8-1.7-3.1 2.5-8.4 3.5-15.2 3-20.3-14.2 2.6-21.2 18.4-21.3 18.6-0.4 1-1.5 1.6-2.5 1.5q-0.4-0.1-0.7-0.2c-1.3-0.5-1.9-2-1.3-3.2 0.3-0.8 8-18.5 24.6-21.6-0.6-1.4-1.3-2.6-2.3-3.5-6.3-5.8-19.1-0.9-19.3-0.8-1.2 0.5-2.6-0.1-3.1-1.4-0.5-1.3 0.1-2.7 1.3-3.2z"/>
				<path id="&lt;Path&gt;" class="s11" d="m2477.4 1668.8h532.2l-105.9-390.1h-529.1z"/>
				<path id="&lt;Path&gt;" class="s12" d="m3009.6 1666.9v26.5h-532.2v-26.5z"/>
				<path id="&lt;Path&gt;" class="s12" d="m2895.7 1278.7h19l103.8 388.2h252.6v26.5h-270.3v-23.7z"/>
				<path id="&lt;Path&gt;" class="s10" d="m3150.7 846.5c-0.8 0-1.6-0.4-2.1-1.2-0.4-0.5-9.3-13.3-32.9-13.6-1.5 0-2.6-1.2-2.6-2.6 0-1.5 1.2-2.6 2.6-2.6q0 0 0 0c26.6 0.3 36.8 15.2 37.2 15.9 0.8 1.2 0.5 2.8-0.7 3.6-0.4 0.3-1 0.5-1.5 0.5z"/>
				<path id="&lt;Path&gt;" class="s10" d="m3091.3 828q-0.5 0-1-0.2c-0.2 0-13.4-5.2-26.2 0-1.3 0.6-2.9-0.1-3.4-1.4-0.6-1.3 0.1-2.9 1.4-3.4 14.9-6 29.5-0.3 30.1 0 1.4 0.5 2 2.1 1.5 3.4-0.4 1-1.4 1.6-2.5 1.6z"/>
				<path id="&lt;Path&gt;" class="s10" d="m3087.8 923.5q-4.1 0-8.7-0.7c-1.4-0.2-2.4-1.6-2.2-3 0.3-1.4 1.6-2.4 3-2.2 23.2 3.8 37.2-10.5 37.3-10.6 1.1-1 2.7-1.1 3.8-0.1 1 1 1 2.7 0 3.7-0.5 0.6-12.6 12.9-33.2 12.9z"/>
			</g>
			<path id="5" class="s2" d="m3835.1 1729.2c0 20.1-13.2 36.4-29.6 36.4h-3611c-8.2 0-15.6-4.1-20.9-10.7-5.4-6.6-8.7-15.7-8.7-25.7 0-20.1 13.2-36.4 29.6-36.4h3611c8.2 0 15.6 4.1 20.9 10.6 5.4 6.6 8.7 15.7 8.7 25.8z"/>
			<g id="4">
				<path id="&lt;Path&gt;" class="s13" d="m2187.9 1505.1h-48c-135.4-495.5 187.6-394.2 48 0z"/>
				<path id="&lt;Path&gt;" class="s14" d="m2187.9 1505.1c0 0-35.9 8.5-34.5 0 37.2-216.2 2.1-334.7 2.1-334.7 130.7-8.7 32.4 334.7 32.4 334.7z"/>
				<path id="&lt;Path&gt;" class="s15" d="m2321.2 1288.9c-7.2 79.6-56.9 150.8-98.1 216.1h-54.8c4.9-75.3 17.1-157.1 59-222 19.5-46.6 94.1-58 93.9 5.9z"/>
				<path id="&lt;Path&gt;" class="s13" d="m2321.2 1288.9c0 2.9-0.8 9.1-0.8 9.1-39-6.2-61.8-25-74.1-39.6 2.2-2.6 4.4-4.4 6.8-6.1 11.2 13.4 32.5 30.8 68.1 36.6z"/>
				<path id="&lt;Path&gt;" class="s13" d="m2312.8 1334.8c-0.9 2.8-1.9 5.8-3 8.7-55.7-6.8-80.1-38.6-87.9-51.8 1.7-2.9 3.5-5.8 5.4-8.7 5.2 10.2 30.1 45.8 85.5 51.8z"/>
				<path id="&lt;Path&gt;" class="s13" d="m2297.8 1373.7c-1.3 2.9-2.6 5.8-3.9 8.7-53-2.4-81.5-27.8-94.1-44.5 1.2-3.4 2.6-6.8 4-10.1 10.3 15.8 41.6 44.1 94 45.9z"/>
				<path id="&lt;Path&gt;" class="s13" d="m2273.8 1422.2c-1.6 2.8-3.1 5.6-4.7 8.4-44-3.2-71-21.8-85.7-38 0.5-3.8 2.3-6.6 3.1-9.9 16.1 16.4 41 36.5 87.3 39.5z"/>
				<path id="&lt;Path&gt;" class="s13" d="m2245.8 1469.6q-2.7 4.3-5.4 8.5c-32.8-5.4-54-19.8-66.5-32 0.5-3.9 1-7.7 1.6-11.6 11.5 12 36.2 30.1 70.3 35.1z"/>
				<path id="&lt;Path&gt;" class="s15" d="m2091.2 1505.1h-54.2c-170.5-227.1 40.5-270.9 54.2 0z"/>
				<path id="&lt;Path&gt;" class="s13" d="m2091.2 1505.1h-33c-59.3-82.7-72.2-150.6-72.2-183.3 77.3-41.3 105.3 183.1 105.2 183.3z"/>
				<path id="&lt;Path&gt;" class="s14" d="m2148.7 1505h-66.5c1.2 2.9-21.3-39.2-29.8-59.7-18.5-43.4-42.5-102-33-148.9 5.3-37.1 58.3-51.7 83.4-26.4 49.5 43.9 48 189.4 45.9 235z"/>
				<path id="&lt;Path&gt;" class="s15" d="m2148.4 1425.9c-0.3-4.7-0.6-9.6-1-14.3l-36.6 50.8-14.7-58.3 41.4-62.1c-1-4.3-2.1-8.4-3.2-12.5l-41.2 62.6-17.5-69.4 33.4-46.3c-1.9-2.3-4-4.5-6.2-6.4l-30.1 41.1-12.8-53c-3.2 0.6-6.4 1.4-9.3 2.4l13.5 53.6-44.8-17.1c-0.7 2.7-1.2 5.5-1.5 8.5l49 19.6 17.7 70.3-59.4-25.3c0.9 3.8 2.1 7.6 3.2 11.4l59 25 14.8 58.8-49.7-20c1.7 4.3 3.7 8.1 5.4 11.9l47 19.1c2.4 4 5 34.1 11.9 33.3 11 0.5-3.7-31.2-3-35.7l34.7-48c0 0 0 0 0 0z"/>
				<path id="&lt;Path&gt;" class="s16" d="m2222.6 1505.1v187.9h-186.2v-187.9z"/>
				<path id="&lt;Path&gt;" class="s17" d="m2222.6 1505.1v187.9h-186.2c0 0 186.2-2.9 186.2-187.9z"/>
			</g>
			<g id="3">
				<path id="&lt;Compound Path&gt;" fill-rule="evenodd" class="s18" d="m2469.3 803.5c-0.5 19.7-3.9 39.1-9.9 57.4l51.3 32.4-52.9 83.9-51.3-32.4c-14 13.3-29.9 24.7-47.6 33.7l13 57.1-96.8 21.9-12.9-57.2c-18.2-0.4-36.1-3.4-53.2-8.5l-30.7 48.6-83.8-52.9 29.5-46.8c-14.6-14.7-27.1-31.8-36.8-50.7l-55.5 12.5-21.9-96.7 55.5-12.6c0.5-19.7 4-39 10-57.4l-44.1-27.8 52.9-83.8 44.1 27.8c13.9-13.4 29.9-24.8 47.5-33.7l-12.9-57.1 96.7-21.9 12.9 57.1c21.3 0.5 42.1 4.5 61.7 11.3l29.5-46.8 83.9 52.9-30.7 48.7c12 13.1 22.3 28 30.6 44.3l55.5-12.6 21.9 96.7zm-227.7-92c-113.2 34.3-62.5 206.8 51.5 173.8 113.2-34.3 62.5-206.8-51.5-173.8z"/>
				<path id="&lt;Compound Path&gt;" fill-rule="evenodd" class="s2" d="m1919.6 763.5c2.4 17.2 1.6 34.3-1.9 50.5l20.7 6.4-7.3 23.5-20.7-6.5c-6.4 15.8-15.6 30.2-27 42.8l14.7 15.9-18 16.7-14.7-15.9c-13.1 10.2-28.2 18.2-44.8 23.5l4.8 21.2-23.9 5.4-4.8-21.2c-17.2 2.4-34.3 1.6-50.5-1.9l-6.4 20.7-23.5-7.3 6.4-20.7c-15.7-6.5-30.2-15.6-42.7-27l-15.9 14.7-16.7-18 15.9-14.7c-10.2-13.1-18.3-28.2-23.5-44.8l-21.2 4.8-5.4-23.9 21.2-4.8c-2.4-17.3-1.6-34.3 1.9-50.5l-20.7-6.5 7.3-23.4 20.7 6.4c6.4-15.7 15.6-30.2 27-42.7l-14.7-16 18-16.6 14.7 15.9c13.1-10.2 28.2-18.3 44.7-23.5l-4.7-21.2 23.9-5.4 4.8 21.2c17.2-2.4 34.3-1.7 50.5 1.9l6.4-20.7 23.5 7.3-6.4 20.7c15.7 6.4 30.1 15.6 42.7 27l15.9-14.7 16.7 18-15.9 14.7c10.2 13.1 18.2 28.2 23.5 44.7l21.2-4.8 5.4 24zm-163.3-71.6c-119.5 29.2-79.1 207.7 41.3 182.6 119.5-29.2 79.2-207.7-41.3-182.6z"/>
				<path id="&lt;Compound Path&gt;" fill-rule="evenodd" class="s16" d="m2075.4 435.1q0.4 8.9-0.6 17.5l27.1 8.4-11 35.5-27.2-8.5q-4 7.8-9.3 14.8l19.3 20.9-27.3 25.2-19.3-20.8q-7.3 4.6-15.5 8.1l6.3 27.7-36.2 8.2-6.3-27.7q-8.9 0.4-17.5-0.7l-8.4 27.2-35.5-11 8.5-27.2q-7.8-4.1-14.8-9.3l-20.9 19.3-25.2-27.3 20.8-19.3q-4.6-7.3-8.1-15.5l-27.7 6.3-8.2-36.2 27.7-6.3q-0.4-8.9 0.7-17.5l-27.2-8.4 11-35.5 27.2 8.4q4.1-7.7 9.3-14.7l-19.3-20.9 27.3-25.3 19.3 20.9q7.3-4.7 15.5-8.1l-6.3-27.8 36.2-8.2 6.3 27.8q8.9-0.4 17.5 0.6l8.4-27.1 35.5 11-8.4 27.2q7.7 4 14.7 9.3l20.9-19.3 25.3 27.3-20.9 19.3q4.7 7.3 8.1 15.5l27.8-6.3 8.2 36.2zm-116.2-46.4c-66.9 16.3-44.3 116.2 23.1 102.1 66.9-16.3 44.3-116.2-23.1-102.1z"/>
			</g>
			<g id="2">
				<path id="&lt;Path&gt;" class="s18" d="m1659.1 335.4v178.8c0 29.7-24.1 53.8-53.7 53.8h-428.9c-29.7 0-53.8-24.1-53.8-53.8v-178.8c0-29.6 24.1-53.7 53.8-53.7h428.9c29.6 0 53.7 24.1 53.7 53.7z"/>
				<path id="&lt;Path&gt;" class="s2" d="m1122.7 514.2c0 29.7 24.1 53.8 53.8 53.8h21.9v76.8l103.6-76.8h303.4c29.6 0 53.7-24.1 53.7-53.8v-178.8c-202.4 202.5-536.4 178.8-536.4 178.8z"/>
				<path id="&lt;Path&gt;" class="s19" d="m1462.7 369.1h-285.7c-8.2 0-14.9-6.7-14.9-14.9 0-8.2 6.7-14.9 14.9-14.9h285.7c19.4 0.1 19.5 29.7 0 29.8z"/>
				<path id="&lt;Path&gt;" class="s19" d="m1292.3 439.7h-115.3c-19.4 0-19.5-29.7 0-29.7 0 0 115.3 0 115.3 0 19.4 0 19.5 29.7 0 29.7z"/>
				<path id="&lt;Path&gt;" class="s19" d="m1604.8 439.7h-243.3c-8.2 0-14.9-6.6-14.9-14.9 0-8.2 6.7-14.8 14.9-14.8h243.3c19.4 0 19.5 29.7 0 29.7z"/>
				<path id="&lt;Path&gt;" class="s19" d="m1412.6 510.4h-235.6c-19.4-0.1-19.5-29.7 0-29.8 0 0 235.6 0 235.6 0 19.4 0.1 19.5 29.7 0 29.8z"/>
				<path id="&lt;Path&gt;" class="s20" d="m1580.3 281.7c-361.6 0-445.6 60.3-457.6 70.9-4.5-35.7 14.8-70.7 53.8-70.9 0 0 403.8 0 403.8 0z"/>
			</g>
			<g id="1">
				<path id="&lt;Path&gt;" class="s18" d="m2521.3 297.1v178.8c0 29.7 24.1 53.7 53.7 53.7h428.9c29.7 0 53.8-24 53.8-53.7v-178.8c0-29.7-24.1-53.8-53.8-53.8h-428.9c-29.6 0-53.7 24.1-53.7 53.8z"/>
				<path id="&lt;Path&gt;" class="s2" d="m3057.7 475.9c0 29.7-24.1 53.7-53.8 53.7h-21.9v76.8l-103.7-76.8h-303.3c-29.6 0-53.7-24-53.7-53.7v-178.8c202.4 202.4 536.4 178.8 536.4 178.8z"/>
				<path id="&lt;Path&gt;" class="s19" d="m2717.7 330.7h285.7c8.2 0 14.9-6.7 14.9-14.9 0-8.2-6.7-14.9-14.9-14.9h-285.7c-19.4 0.1-19.5 29.7 0 29.8z"/>
				<path id="&lt;Path&gt;" class="s19" d="m2888.1 401.4h115.3c19.4-0.1 19.5-29.7 0-29.8 0 0-115.3 0-115.3 0-19.4 0.1-19.5 29.7 0 29.8z"/>
				<path id="&lt;Path&gt;" class="s19" d="m2575.6 401.4h243.3c8.2 0 14.9-6.7 14.9-14.9 0-8.3-6.7-14.9-14.9-14.9h-243.3c-19.4 0.1-19.5 29.7 0 29.8z"/>
				<path id="&lt;Path&gt;" class="s19" d="m2767.8 472h235.6c19.4 0 19.5-29.7 0-29.8 0 0-235.6 0-235.6 0-19.4 0.1-19.5 29.7 0 29.8z"/>
				<path id="&lt;Path&gt;" class="s20" d="m2600.1 243.3c361.6 0 445.6 60.3 457.6 70.9 4.5-35.7-14.8-70.6-53.8-70.9 0 0-403.8 0-403.8 0z"/>
			</g>
		</g>
	</g>
</svg>