<svg xmlns="http://www.w3.org/2000/svg" xmlns:xlink="http://www.w3.org/1999/xlink" width="1920" zoomAndPan="magnify" viewBox="0 0 1440 809.999993" height="1080" preserveAspectRatio="xMidYMid meet" version="1.0"><defs><clipPath id="3017b6e370"><path d="M 424.527344 194.792969 L 948.027344 194.792969 L 948.027344 718.292969 L 424.527344 718.292969 Z M 424.527344 194.792969 " clip-rule="nonzero"/></clipPath><clipPath id="3fc4f21fc6"><path d="M 905.785156 459.410156 L 1216.285156 459.410156 L 1216.285156 769.910156 L 905.785156 769.910156 Z M 905.785156 459.410156 " clip-rule="nonzero"/></clipPath><clipPath id="0e43e84d05"><path d="M 1127.195312 375 L 1165 375 L 1165 412 L 1127.195312 412 Z M 1127.195312 375 " clip-rule="nonzero"/></clipPath><clipPath id="aff617792c"><path d="M 1339 433 L 1376.945312 433 L 1376.945312 470 L 1339 470 Z M 1339 433 " clip-rule="nonzero"/></clipPath><clipPath id="2bf0b08cd1"><path d="M 1127.195312 433 L 1165 433 L 1165 469 L 1127.195312 469 Z M 1127.195312 433 " clip-rule="nonzero"/></clipPath><clipPath id="b160322096"><path d="M 1339 375 L 1376.945312 375 L 1376.945312 412 L 1339 412 Z M 1339 375 " clip-rule="nonzero"/></clipPath><clipPath id="c33fa8df6d"><path d="M 864 65 L 1176 65 L 1176 378 L 864 378 Z M 864 65 " clip-rule="nonzero"/></clipPath><clipPath id="496fb1acae"><path d="M 872.535156 59.242188 L 1182.6875 73.929688 L 1167.996094 384.082031 L 857.84375 369.394531 Z M 872.535156 59.242188 " clip-rule="nonzero"/></clipPath><clipPath id="41acb0243e"><path d="M 872.535156 59.242188 L 1182.6875 73.929688 L 1167.996094 384.082031 L 857.84375 369.394531 Z M 872.535156 59.242188 " clip-rule="nonzero"/></clipPath><clipPath id="9086d7dde2"><path d="M 1157 81 L 1348 81 L 1348 272 L 1157 272 Z M 1157 81 " clip-rule="nonzero"/></clipPath><clipPath id="778c3bbc07"><path d="M 1225.703125 41.269531 L 1387.46875 150.15625 L 1278.582031 311.921875 L 1116.816406 203.035156 Z M 1225.703125 41.269531 " clip-rule="nonzero"/></clipPath><clipPath id="61ce992a57"><path d="M 1225.703125 41.269531 L 1387.46875 150.15625 L 1278.582031 311.921875 L 1116.816406 203.035156 Z M 1225.703125 41.269531 " clip-rule="nonzero"/></clipPath><clipPath id="2d2cb56077"><path d="M 1132 57 L 1372 57 L 1372 296 L 1132 296 Z M 1132 57 " clip-rule="nonzero"/></clipPath><clipPath id="b1cc354337"><path d="M 1225.703125 41.269531 L 1387.46875 150.15625 L 1278.582031 311.921875 L 1116.816406 203.035156 Z M 1225.703125 41.269531 " clip-rule="nonzero"/></clipPath><clipPath id="0ae02273cf"><path d="M 1225.703125 41.269531 L 1387.46875 150.15625 L 1278.582031 311.921875 L 1116.816406 203.035156 Z M 1225.703125 41.269531 " clip-rule="nonzero"/></clipPath></defs><g clip-path="url(#3017b6e370)"><path fill="#4f4c4c" d="M 686.265625 629.132812 C 590.945312 629.132812 513.667969 551.859375 513.667969 456.535156 C 513.667969 361.214844 590.945312 283.9375 686.265625 283.9375 C 781.589844 283.9375 858.863281 361.214844 858.863281 456.535156 C 858.863281 551.859375 781.589844 629.132812 686.265625 629.132812 Z M 888.214844 510.507812 C 891.339844 498.789062 900.511719 489.65625 912.277344 486.714844 L 947.132812 478.007812 C 947.710938 470.925781 948.007812 463.765625 948.007812 456.535156 C 948.007812 449.375 947.714844 442.28125 947.152344 435.265625 L 912.300781 426.53125 C 900.539062 423.582031 891.371094 414.4375 888.257812 402.722656 C 888.222656 402.578125 888.183594 402.4375 888.144531 402.296875 C 885.007812 390.585938 888.371094 378.09375 897.089844 369.664062 L 922.957031 344.664062 C 916.824219 331.714844 909.664062 319.347656 901.578125 307.667969 L 866.957031 317.546875 C 855.300781 320.875 842.800781 317.539062 834.238281 308.957031 C 834.144531 308.863281 834.054688 308.773438 833.964844 308.679688 C 825.386719 300.113281 822.058594 287.605469 825.394531 275.949219 L 835.296875 241.339844 C 823.628906 233.246094 811.269531 226.078125 798.324219 219.933594 L 773.300781 245.78125 C 764.863281 254.492188 752.371094 257.847656 740.664062 254.699219 C 740.519531 254.664062 740.378906 254.625 740.238281 254.585938 C 728.519531 251.464844 719.386719 242.289062 716.449219 230.527344 L 707.738281 195.667969 C 700.65625 195.09375 693.496094 194.796875 686.265625 194.796875 C 679.105469 194.796875 672.015625 195.089844 665 195.652344 L 656.261719 230.503906 C 653.3125 242.265625 644.171875 251.429688 632.453125 254.542969 C 632.3125 254.582031 632.171875 254.621094 632.027344 254.65625 C 620.316406 257.796875 607.824219 254.429688 599.398438 245.714844 L 574.394531 219.847656 C 561.445312 225.980469 549.078125 233.136719 537.402344 241.226562 L 547.28125 275.84375 C 550.609375 287.503906 547.273438 300.003906 538.6875 308.566406 C 538.597656 308.65625 538.503906 308.746094 538.414062 308.839844 C 529.84375 317.417969 517.339844 320.746094 505.683594 317.410156 L 471.070312 307.503906 C 462.976562 319.171875 455.808594 331.535156 449.667969 344.480469 L 475.511719 369.503906 C 484.222656 377.9375 487.582031 390.433594 484.433594 402.140625 C 484.394531 402.28125 484.355469 402.425781 484.316406 402.566406 C 481.195312 414.28125 472.019531 423.414062 460.257812 426.355469 L 425.402344 435.066406 C 424.828125 442.144531 424.527344 449.304688 424.527344 456.535156 C 424.527344 463.695312 424.820312 470.789062 425.386719 477.804688 L 460.234375 486.542969 C 471.996094 489.488281 481.160156 498.632812 484.277344 510.351562 C 484.316406 510.492188 484.351562 510.632812 484.390625 510.777344 C 487.527344 522.484375 484.164062 534.976562 475.445312 543.40625 L 449.582031 568.410156 C 455.710938 581.359375 462.871094 593.726562 470.957031 605.402344 L 505.574219 595.523438 C 517.234375 592.195312 529.734375 595.53125 538.300781 604.117188 C 538.386719 604.207031 538.480469 604.300781 538.574219 604.390625 C 547.148438 612.957031 550.476562 625.464844 547.144531 637.121094 L 537.234375 671.734375 C 548.90625 679.828125 561.269531 686.996094 574.210938 693.136719 L 599.238281 667.289062 C 607.667969 658.578125 620.164062 655.226562 631.875 658.371094 C 632.015625 658.410156 632.15625 658.445312 632.296875 658.484375 C 644.015625 661.605469 653.148438 670.78125 656.085938 682.542969 L 664.796875 717.402344 C 671.878906 717.976562 679.039062 718.277344 686.265625 718.277344 C 693.429688 718.277344 700.523438 717.984375 707.539062 717.417969 L 716.273438 682.570312 C 719.222656 670.808594 728.363281 661.644531 740.082031 658.527344 C 740.222656 658.488281 740.363281 658.453125 740.507812 658.414062 C 752.21875 655.277344 764.710938 658.640625 773.136719 667.355469 L 798.144531 693.222656 C 811.089844 687.09375 823.457031 679.933594 835.132812 671.847656 L 825.253906 637.226562 C 821.929688 625.570312 825.265625 613.066406 833.847656 604.507812 C 833.941406 604.414062 834.03125 604.324219 834.125 604.230469 C 842.691406 595.652344 855.199219 592.328125 866.851562 595.664062 L 901.460938 605.566406 C 909.5625 593.898438 916.730469 581.535156 922.871094 568.589844 L 897.023438 543.566406 C 888.3125 535.132812 884.957031 522.636719 888.105469 510.929688 C 888.144531 510.789062 888.179688 510.644531 888.214844 510.507812 " fill-opacity="1" fill-rule="nonzero"/></g><path fill="#4f4c4c" d="M 686.265625 314.871094 C 608.15625 314.871094 544.601562 378.421875 544.601562 456.535156 C 544.601562 534.648438 608.15625 598.203125 686.265625 598.203125 C 764.382812 598.203125 827.933594 534.648438 827.933594 456.535156 C 827.933594 378.421875 764.382812 314.871094 686.265625 314.871094 Z M 686.265625 623.167969 C 663.777344 623.167969 641.953125 618.761719 621.402344 610.066406 C 601.558594 601.675781 583.738281 589.660156 568.441406 574.363281 C 553.140625 559.0625 541.128906 541.242188 532.734375 521.398438 C 524.042969 500.847656 519.632812 479.027344 519.632812 456.535156 C 519.632812 434.046875 524.042969 412.222656 532.734375 391.671875 C 541.128906 371.828125 553.140625 354.007812 568.441406 338.710938 C 583.738281 323.410156 601.558594 311.398438 621.402344 303.003906 C 641.953125 294.3125 663.777344 289.902344 686.265625 289.902344 C 708.757812 289.902344 730.582031 294.3125 751.132812 303.003906 C 770.976562 311.398438 788.796875 323.410156 804.09375 338.710938 C 819.394531 354.007812 831.40625 371.828125 839.800781 391.671875 C 848.492188 412.222656 852.898438 434.046875 852.898438 456.535156 C 852.898438 479.027344 848.492188 500.847656 839.800781 521.398438 C 831.40625 541.242188 819.394531 559.0625 804.09375 574.363281 C 788.796875 589.660156 770.976562 601.675781 751.132812 610.066406 C 730.582031 618.761719 708.757812 623.167969 686.265625 623.167969 " fill-opacity="1" fill-rule="nonzero"/><path fill="#4f4c4c" d="M 686.265625 535.808594 C 642.488281 535.808594 606.996094 500.316406 606.996094 456.535156 C 606.996094 412.757812 642.488281 377.261719 686.265625 377.261719 C 730.050781 377.261719 765.539062 412.757812 765.539062 456.535156 C 765.539062 500.316406 730.050781 535.808594 686.265625 535.808594 Z M 686.265625 327 C 614.726562 327 556.730469 384.996094 556.730469 456.535156 C 556.730469 528.078125 614.726562 586.070312 686.265625 586.070312 C 757.808594 586.070312 815.800781 528.078125 815.800781 456.535156 C 815.800781 384.996094 757.808594 327 686.265625 327 " fill-opacity="1" fill-rule="nonzero"/><g clip-path="url(#3fc4f21fc6)"><path fill="#4f4c4c" d="M 1047.988281 459.410156 L 1041.519531 496.246094 L 1041.546875 496.273438 C 1033.640625 497.5625 1025.992188 499.632812 1018.6875 502.390625 L 1018.6875 502.367188 L 994.683594 473.6875 L 972.125 486.722656 L 984.933594 521.84375 L 984.984375 521.867188 C 978.867188 526.886719 973.261719 532.511719 968.246094 538.632812 L 968.21875 538.558594 L 933.097656 525.746094 L 920.066406 548.308594 L 948.742188 572.335938 C 945.992188 579.632812 943.9375 587.273438 942.648438 595.167969 L 942.625 595.144531 L 905.785156 601.613281 L 905.785156 627.679688 L 942.625 634.144531 L 942.648438 634.121094 C 943.9375 642.019531 945.992188 649.65625 948.742188 656.957031 L 920.066406 680.984375 L 933.097656 703.542969 L 968.21875 690.734375 L 968.246094 690.660156 C 973.261719 696.777344 978.867188 702.402344 984.984375 707.421875 L 984.933594 707.449219 L 972.125 742.570312 L 994.683594 755.601562 L 1018.6875 726.925781 L 1018.6875 726.898438 C 1025.992188 729.65625 1033.640625 731.726562 1041.546875 733.019531 L 1041.519531 733.042969 L 1047.988281 769.878906 L 1074.03125 769.878906 L 1080.496094 733.042969 L 1080.472656 733.019531 C 1088.375 731.730469 1096.027344 729.675781 1103.332031 726.925781 L 1127.359375 755.601562 L 1149.921875 742.570312 L 1137.085938 707.449219 C 1143.1875 702.441406 1148.789062 696.835938 1153.800781 690.734375 L 1188.945312 703.542969 L 1201.957031 680.984375 L 1173.300781 656.953125 C 1176.054688 649.65625 1178.128906 642.019531 1179.417969 634.121094 L 1216.257812 627.679688 L 1216.257812 601.613281 L 1179.417969 595.144531 C 1178.128906 587.253906 1176.050781 579.628906 1173.300781 572.335938 L 1201.957031 548.308594 L 1188.945312 525.746094 L 1153.800781 538.558594 C 1148.789062 532.457031 1143.1875 526.851562 1137.085938 521.84375 L 1149.921875 486.722656 L 1127.359375 473.6875 L 1103.332031 502.367188 C 1096.027344 499.613281 1088.375 497.5625 1080.472656 496.273438 L 1080.496094 496.246094 L 1074.03125 459.410156 Z M 1061.023438 522.835938 C 1111.730469 522.835938 1152.859375 563.933594 1152.859375 614.640625 C 1152.859375 665.351562 1111.734375 706.445312 1061.023438 706.445312 C 1010.3125 706.445312 969.21875 665.347656 969.21875 614.640625 C 969.21875 563.933594 1010.3125 522.835938 1061.023438 522.835938 Z M 1061.023438 522.835938 " fill-opacity="1" fill-rule="nonzero"/></g><path fill="#4f4c4c" d="M 1267.832031 367.726562 C 1237.652344 359.039062 1206.027344 376.515625 1197.335938 406.699219 C 1188.636719 436.882812 1206.121094 468.507812 1236.320312 477.199219 C 1266.496094 485.894531 1298.125 468.40625 1306.820312 438.21875 C 1315.496094 408.054688 1298.007812 376.421875 1267.832031 367.726562 Z M 1222.578125 524.886719 C 1166.109375 508.617188 1133.386719 449.441406 1149.652344 392.964844 C 1165.914062 336.503906 1225.082031 303.789062 1281.570312 320.042969 C 1338.042969 336.316406 1370.746094 395.476562 1354.480469 451.953125 C 1338.21875 508.417969 1279.046875 541.148438 1222.578125 524.886719 " fill-opacity="1" fill-rule="nonzero"/><path fill="#4f4c4c" d="M 1296.207031 330.839844 L 1298.84375 309.6875 C 1299.226562 306.601562 1297.292969 303.472656 1294.5625 302.675781 L 1279.792969 298.429688 C 1277.050781 297.632812 1273.761719 299.273438 1272.433594 302.082031 L 1263.40625 321.402344 C 1262.105469 324.214844 1264.15625 327.386719 1267.980469 328.488281 L 1288.574219 334.425781 C 1292.410156 335.53125 1295.828125 333.925781 1296.207031 330.839844 " fill-opacity="1" fill-rule="nonzero"/><path fill="#4f4c4c" d="M 1240.714844 523.53125 L 1231.699219 542.839844 C 1230.394531 545.652344 1227.105469 547.285156 1224.351562 546.5 L 1209.59375 542.246094 C 1206.839844 541.449219 1204.921875 538.316406 1205.308594 535.238281 L 1207.933594 514.082031 C 1208.324219 510.996094 1211.746094 509.402344 1215.566406 510.503906 L 1236.164062 516.425781 C 1239.996094 517.539062 1242.050781 520.71875 1240.714844 523.53125 " fill-opacity="1" fill-rule="nonzero"/><g clip-path="url(#0e43e84d05)"><path fill="#4f4c4c" d="M 1160.460938 378.328125 L 1139.300781 375.699219 C 1136.222656 375.3125 1133.078125 377.234375 1132.285156 379.980469 L 1128.039062 394.738281 C 1127.242188 397.488281 1128.882812 400.773438 1131.703125 402.09375 L 1150.996094 411.117188 C 1153.824219 412.425781 1156.996094 410.382812 1158.101562 406.554688 L 1164.03125 385.960938 C 1165.136719 382.132812 1163.539062 378.703125 1160.460938 378.328125 " fill-opacity="1" fill-rule="nonzero"/></g><g clip-path="url(#aff617792c)"><path fill="#4f4c4c" d="M 1353.132812 433.8125 L 1372.460938 442.835938 C 1375.253906 444.15625 1376.898438 447.441406 1376.097656 450.179688 L 1371.847656 464.941406 C 1371.066406 467.695312 1367.929688 469.613281 1364.851562 469.230469 L 1343.6875 466.601562 C 1340.59375 466.21875 1339.003906 462.796875 1340.109375 458.96875 L 1346.046875 438.375 C 1347.144531 434.539062 1350.316406 432.492188 1353.132812 433.8125 " fill-opacity="1" fill-rule="nonzero"/></g><path fill="#4f4c4c" d="M 1241.003906 321.367188 L 1232.035156 302.019531 C 1230.734375 299.210938 1227.445312 297.570312 1224.695312 298.34375 L 1209.933594 302.558594 C 1207.179688 303.339844 1205.25 306.46875 1205.613281 309.546875 L 1208.195312 330.726562 C 1208.570312 333.808594 1211.984375 335.414062 1215.828125 334.316406 L 1236.425781 328.449219 C 1240.265625 327.351562 1242.3125 324.179688 1241.003906 321.367188 " fill-opacity="1" fill-rule="nonzero"/><path fill="#4f4c4c" d="M 1295.945312 514.199219 L 1298.519531 535.378906 C 1298.882812 538.460938 1296.96875 541.578125 1294.214844 542.367188 L 1279.453125 546.578125 C 1276.703125 547.359375 1273.414062 545.714844 1272.101562 542.890625 L 1263.125 523.558594 C 1261.824219 520.734375 1263.875 517.558594 1267.71875 516.480469 L 1288.3125 510.605469 C 1292.167969 509.507812 1295.574219 511.125 1295.945312 514.199219 " fill-opacity="1" fill-rule="nonzero"/><g clip-path="url(#2bf0b08cd1)"><path fill="#4f4c4c" d="M 1150.992188 433.523438 L 1131.636719 442.492188 C 1128.8125 443.792969 1127.175781 447.082031 1127.957031 449.832031 L 1132.167969 464.613281 C 1132.949219 467.363281 1136.078125 469.285156 1139.167969 468.910156 L 1160.324219 466.34375 C 1163.402344 465.972656 1165.019531 462.550781 1163.9375 458.707031 L 1158.050781 438.101562 C 1156.960938 434.257812 1153.789062 432.214844 1150.992188 433.523438 " fill-opacity="1" fill-rule="nonzero"/></g><g clip-path="url(#b160322096)"><path fill="#4f4c4c" d="M 1343.816406 378.589844 L 1364.984375 376.007812 C 1368.054688 375.636719 1371.195312 377.566406 1371.980469 380.308594 L 1376.183594 395.089844 C 1376.964844 397.832031 1375.320312 401.132812 1372.5 402.429688 L 1353.164062 411.398438 C 1350.355469 412.703125 1347.171875 410.660156 1346.082031 406.808594 L 1340.226562 386.207031 C 1339.109375 382.367188 1340.722656 378.964844 1343.816406 378.589844 " fill-opacity="1" fill-rule="nonzero"/></g><path fill="#4f4c4c" d="M 1315.203125 342.742188 L 1333.078125 331.128906 C 1335.675781 329.4375 1339.34375 329.78125 1341.253906 331.917969 L 1351.527344 343.328125 C 1353.4375 345.457031 1353.410156 349.132812 1351.460938 351.546875 L 1338.019531 368.097656 C 1336.050781 370.507812 1332.316406 370.0625 1329.648438 367.089844 L 1315.316406 351.164062 C 1312.644531 348.195312 1312.601562 344.414062 1315.203125 342.742188 " fill-opacity="1" fill-rule="nonzero"/><path fill="#4f4c4c" d="M 1166.121094 476.8125 L 1152.703125 493.378906 C 1150.746094 495.792969 1150.691406 499.460938 1152.59375 501.578125 L 1162.875 513.007812 C 1164.792969 515.148438 1168.457031 515.488281 1171.054688 513.800781 L 1188.933594 502.191406 C 1191.53125 500.492188 1191.507812 496.714844 1188.816406 493.757812 L 1174.488281 477.832031 C 1171.816406 474.855469 1168.082031 474.402344 1166.121094 476.8125 " fill-opacity="1" fill-rule="nonzero"/><path fill="#4f4c4c" d="M 1331.8125 485.585938 L 1343.414062 503.480469 C 1345.09375 506.078125 1344.746094 509.738281 1342.613281 511.660156 L 1331.199219 521.917969 C 1329.070312 523.832031 1325.390625 523.800781 1322.988281 521.847656 L 1306.425781 508.40625 C 1304.023438 506.449219 1304.46875 502.707031 1307.445312 500.035156 L 1323.359375 485.707031 C 1326.339844 483.042969 1330.113281 482.980469 1331.8125 485.585938 " fill-opacity="1" fill-rule="nonzero"/><path fill="#4f4c4c" d="M 1197.703125 336.503906 L 1181.144531 323.089844 C 1178.738281 321.117188 1175.058594 321.085938 1172.945312 322.996094 L 1161.523438 333.261719 C 1159.386719 335.183594 1159.046875 338.847656 1160.734375 341.457031 L 1172.34375 359.335938 C 1174.03125 361.933594 1177.800781 361.886719 1180.777344 359.21875 L 1196.714844 344.890625 C 1199.675781 342.214844 1200.128906 338.460938 1197.703125 336.503906 " fill-opacity="1" fill-rule="nonzero"/><g clip-path="url(#c33fa8df6d)"><g clip-path="url(#496fb1acae)"><g clip-path="url(#41acb0243e)"><path fill="#4f4c4c" d="M 1014.578125 65.96875 L 1006.375 102.457031 L 1006.402344 102.484375 C 998.441406 103.402344 990.707031 105.105469 983.277344 107.515625 L 983.28125 107.492188 L 960.660156 77.707031 L 937.507812 89.660156 L 948.644531 125.347656 L 948.691406 125.375 C 942.34375 130.101562 936.476562 135.453125 931.175781 141.328125 L 931.15625 141.253906 L 896.679688 126.796875 L 882.59375 148.714844 L 910.101562 174.070312 C 907.007812 181.234375 904.597656 188.765625 902.9375 196.589844 L 902.910156 196.566406 L 865.808594 201.28125 L 864.578125 227.320312 L 901.066406 235.523438 L 901.09375 235.5 C 902.007812 243.449219 903.695312 251.175781 906.101562 258.597656 L 876.316406 281.242188 L 888.269531 304.394531 L 923.957031 293.257812 L 923.984375 293.183594 C 928.707031 299.535156 934.039062 305.417969 939.914062 310.722656 L 939.863281 310.746094 L 925.40625 345.21875 L 947.324219 359.308594 L 972.65625 331.796875 L 972.65625 331.769531 C 979.824219 334.871094 987.367188 337.300781 995.199219 338.964844 L 995.175781 338.988281 L 999.890625 376.089844 L 1025.90625 377.324219 L 1034.105469 340.832031 L 1034.082031 340.804688 C 1042.039062 339.894531 1049.777344 338.203125 1057.207031 335.800781 L 1079.847656 365.585938 L 1103 353.632812 L 1091.84375 317.945312 C 1098.175781 313.230469 1104.035156 307.894531 1109.328125 302.039062 L 1143.828125 316.496094 L 1157.890625 294.578125 L 1130.40625 269.21875 C 1133.5 262.058594 1135.9375 254.53125 1137.597656 246.703125 L 1174.699219 242.007812 L 1175.933594 215.972656 L 1139.441406 207.769531 C 1138.527344 199.824219 1136.8125 192.109375 1134.410156 184.695312 L 1164.167969 162.050781 L 1152.242188 138.902344 L 1116.527344 150.03125 C 1111.8125 143.703125 1106.480469 137.835938 1100.621094 132.546875 L 1115.105469 98.070312 L 1093.1875 83.984375 L 1067.828125 111.496094 C 1060.664062 108.398438 1053.117188 105.988281 1045.285156 104.324219 L 1045.308594 104.300781 L 1040.59375 67.199219 Z M 1024.597656 129.941406 C 1075.25 132.339844 1114.386719 175.335938 1111.988281 225.988281 C 1109.589844 276.640625 1066.570312 315.746094 1015.910156 313.34375 C 965.257812 310.945312 926.152344 267.949219 928.550781 217.300781 C 930.953125 166.648438 973.945312 127.542969 1024.597656 129.941406 Z M 1024.597656 129.941406 " fill-opacity="1" fill-rule="nonzero"/></g></g></g><g clip-path="url(#9086d7dde2)"><g clip-path="url(#778c3bbc07)"><g clip-path="url(#61ce992a57)"><path fill="#4f4c4c" d="M 1301.207031 94.730469 C 1299.460938 93.722656 1297.667969 92.890625 1295.902344 91.972656 L 1295.789062 91.898438 L 1277.46875 110.65625 C 1270.101562 107.808594 1262.425781 106.230469 1254.757812 105.949219 L 1245.691406 81.453125 C 1238.453125 81.945312 1231.230469 83.335938 1224.292969 85.441406 L 1224.511719 111.46875 C 1216.992188 114.636719 1209.851562 119.230469 1203.707031 124.96875 C 1203.683594 125 1203.636719 125.074219 1203.632812 125.082031 L 1180.085938 114.117188 C 1177.558594 117.03125 1175.175781 120.199219 1172.96875 123.484375 C 1171.160156 126.167969 1169.449219 128.867188 1167.949219 131.660156 L 1186.667969 149.796875 C 1183.207031 158.207031 1181.4375 167.042969 1181.347656 175.835938 L 1157.003906 184.679688 C 1157.597656 191.621094 1159.027344 198.535156 1161.105469 205.183594 L 1187.320312 204.925781 C 1190.894531 213.136719 1196 220.644531 1202.652344 227.125 L 1191.761719 250.558594 C 1194.003906 252.382812 1196.449219 254.039062 1198.890625 255.683594 C 1202.34375 258.003906 1205.726562 260.09375 1209.347656 261.910156 L 1227.933594 243.003906 C 1236.335938 246.058594 1245.1875 247.5 1253.867188 247.277344 L 1262.671875 271.433594 C 1269.707031 270.636719 1276.742188 269.015625 1283.441406 266.695312 L 1283.109375 240.101562 C 1290.457031 236.523438 1297.167969 231.632812 1303.023438 225.511719 L 1326.453125 236.402344 C 1328.128906 234.320312 1329.605469 232.199219 1331.125 229.941406 C 1333.765625 226.019531 1335.898438 221.867188 1337.882812 217.726562 L 1319.015625 199.332031 C 1321.519531 191.972656 1322.664062 184.304688 1322.675781 176.726562 L 1347.019531 167.886719 C 1346.324219 160.445312 1344.832031 153.003906 1342.4375 145.921875 L 1315.734375 146.175781 C 1312.574219 139.539062 1308.53125 133.359375 1303.308594 127.882812 L 1314.273438 104.339844 C 1311.457031 101.921875 1308.507812 99.644531 1305.351562 97.519531 C 1304.5 96.945312 1303.640625 96.332031 1302.777344 95.785156 C 1302.355469 95.523438 1301.972656 95.210938 1301.542969 94.957031 C 1301.429688 94.890625 1301.324219 94.796875 1301.207031 94.730469 Z M 1267.476562 151.128906 C 1267.902344 151.382812 1268.292969 151.679688 1268.707031 151.960938 C 1281.96875 160.882812 1285.503906 178.992188 1276.582031 192.25 C 1267.65625 205.511719 1249.621094 208.9375 1236.363281 200.011719 C 1223.105469 191.085938 1219.601562 173.164062 1228.527344 159.90625 C 1237.171875 147.0625 1254.359375 143.234375 1267.476562 151.128906 Z M 1267.476562 151.128906 " fill-opacity="1" fill-rule="nonzero"/></g></g></g><g clip-path="url(#2d2cb56077)"><g clip-path="url(#b1cc354337)"><g clip-path="url(#0ae02273cf)"><path stroke-linecap="butt" transform="matrix(1.044325, 0.702962, -0.702962, 1.044325, 1347.031234, -732.588039)" fill="none" stroke-linejoin="miter" d="M 336.779307 565.50915 C 335.181635 565.619547 333.631045 565.866571 332.060355 566.044836 L 331.952784 566.046176 L 328.200607 586.533518 C 322.082666 587.924869 316.324499 590.289694 311.146739 593.505663 L 294.306387 581.384949 C 289.754857 584.919996 285.612146 589.040161 281.974432 593.504903 L 293.663616 610.559257 C 290.113654 615.982334 287.44582 622.176894 285.942072 628.683831 C 285.940489 628.71482 285.942521 628.784521 285.943412 628.791402 L 265.562883 632.0106 C 265.190025 635.051959 265.025036 638.196525 265.027864 641.340343 C 265.026415 643.91101 265.09625 646.448655 265.346672 648.954513 L 285.726836 652.603033 C 287.176682 659.680301 289.92999 666.287885 293.77111 672.12209 L 281.652022 688.748142 C 285.122311 693.058988 289.131333 696.981016 293.449836 700.440373 L 310.610421 688.642278 C 316.607897 692.467659 323.302541 695.150475 330.560836 696.470145 L 333.778694 716.743102 C 336.065416 716.950644 338.411485 716.957397 340.749782 716.958161 C 344.054536 716.955476 347.210726 716.832107 350.402648 716.422855 L 354.264022 695.719872 C 361.15594 694.005782 367.628273 691.029317 373.249212 687.032515 L 389.766352 699.045372 C 394.048876 695.399644 397.965799 691.210776 401.351193 686.710152 L 389.336117 669.332798 C 392.590883 663.715678 394.843877 657.516082 395.987335 650.885102 L 416.257719 647.668976 C 416.438485 645.553637 416.470643 643.500924 416.470472 641.339057 C 416.470941 637.583326 416.034544 633.900974 415.505528 630.292188 L 394.913189 626.539618 C 393.298781 620.579304 390.651693 615.018615 387.297962 610.019617 L 399.418783 593.39614 C 395.65978 588.800856 391.375657 584.559045 386.656319 580.954309 L 369.172236 592.966418 C 364.145899 589.994743 358.740537 587.715832 352.869677 586.423541 L 349.652212 566.045586 C 346.723722 565.701486 343.77009 565.508967 340.747605 565.508671 C 339.931738 565.508005 339.093396 565.485064 338.281935 565.507615 C 337.887839 565.522281 337.496958 565.486157 337.101178 565.509436 C 336.997073 565.515925 336.885986 565.500929 336.779307 565.50915 Z M 339.568586 617.636281 C 339.961791 617.614733 340.350889 617.637096 340.748501 617.638766 C 353.445156 617.635521 363.807572 628.001058 363.809084 640.695138 C 363.809755 653.393526 353.444611 663.650945 340.748798 663.649883 C 328.052984 663.648821 317.794331 653.392981 317.795393 640.697167 C 317.794785 628.398966 327.422876 618.25241 339.568586 617.636281 Z M 339.568586 617.636281 " stroke="#333333" stroke-width="3.432" stroke-opacity="1" stroke-miterlimit="4"/></g></g></g></svg>