<svg version="1.2" xmlns="http://www.w3.org/2000/svg" viewBox="0 0 1000 1000" width="1000" height="1000">
	<title>Graphql</title>
	<style>
		.s0 { fill: #253e7d } 
		.s1 { fill: #e6eef5 } 
		.s2 { fill: #2f4e9e } 
		.s3 { fill: #55d9cc } 
		.s4 { fill: #f1375a } 
		.s5 { fill: #f5a404 } 
		.s6 { fill: none;stroke: #f1375a;stroke-linecap: round;stroke-miterlimit:10;stroke-width: 3.8 } 
		.s7 { fill: none;stroke: #a6a6e9;stroke-linecap: round;stroke-miterlimit:10;stroke-width: 3.8;stroke-dasharray: 0,7.1309 } 
		.s8 { fill: #54d8cc;stroke: #a6a6e9;stroke-linecap: round;stroke-miterlimit:10;stroke-width: 3.8;stroke-dasharray: 0,7.57948 } 
		.s9 { fill: #54d8cc;stroke: #a6a6e9;stroke-linecap: round;stroke-miterlimit:10;stroke-width: 3.8;stroke-dasharray: 0,7.902480000000001 } 
		.s10 { fill: #54d8cc;stroke: #f1375a;stroke-linecap: round;stroke-miterlimit:10;stroke-width: 3.8 } 
		.s11 { fill: #1c625c;stroke: #a6a6e9;stroke-linecap: round;stroke-miterlimit:10;stroke-width: 3.8;stroke-dasharray: 0,7.902480000000001 } 
		.s12 { fill: #143b38;stroke: #a6a6e9;stroke-linecap: round;stroke-miterlimit:10;stroke-width: 3.8;stroke-dasharray: 0,7.902480000000001 } 
		.s13 { fill: #a6a6e9 } 
		.s14 { fill: #525252 } 
		.s15 { fill: #5858c0 } 
		.s16 { fill: none;stroke: #a6a6e9;stroke-linecap: round;stroke-miterlimit:10;stroke-width: 3.8;stroke-dasharray: 0,7.521160000000001 } 
	</style>
	<g id="&lt;Group&gt;">
		<path id="&lt;Path&gt;" class="s0" d="m447.2 831.3h106v53.1h-106z"/>
		<path id="&lt;Path&gt;" class="s0" d="m232 514c0-8.3 6.7-15 15-15h506.4c8.3 0 15 6.7 15 15v323.7c0 8.3-6.7 15-15 15h-506.4c-8.3 0-15-6.7-15-15z"/>
		<path id="&lt;Path&gt;" class="s1" d="m250.1 523.1c0-5 4-9 8.9-9h482.3c5 0 9 4 9 9v306.9c0 4.9-4 8.9-9 8.9h-482.3c-4.9 0-8.9-4-8.9-8.9z"/>
		<path id="&lt;Path&gt;" class="s2" d="m768.4 776.8v57.6c0 10.1-7.7 18.3-17.1 18.3h-502.2c-9.4 0-17.1-8.2-17.1-18.3v-57.6z"/>
		<path id="&lt;Path&gt;" class="s2" d="m597.2 883.3c0 4.2-3.3 7.7-7.2 7.7h-177.3c-4 0-7.2-3.5-7.2-7.7 0-4.3 3.2-7.7 7.2-7.7h177.3c3.9 0 7.2 3.4 7.2 7.7z"/>
		<path id="&lt;Path&gt;" class="s0" d="m510.1 816.4c0 5.6-4.6 10.2-10.3 10.2-5.6 0-10.2-4.6-10.2-10.2 0-5.7 4.6-10.3 10.2-10.3 5.7 0 10.3 4.6 10.3 10.3z"/>
	</g>
	<g id="objects">
		<path id="&lt;Path&gt;" class="s3" d="m437.1 266.8c-2.3 0-4.2-1.8-4.2-4.1 0-2.3 1.9-4.2 4.2-4.2 2.4 0 4.3 1.9 4.3 4.2 0 2.3-1.9 4.1-4.3 4.1z"/>
		<path id="&lt;Path&gt;" class="s3" d="m483.2 271c-2.3 0-4.2-1.9-4.2-4.2 0-2.3 1.9-4.1 4.2-4.1 2.3 0 4.2 1.8 4.2 4.1 0 2.3-1.9 4.2-4.2 4.2z"/>
		<path id="&lt;Path&gt;" class="s3" d="m526.7 256.2c-2.3 0-4.2-1.8-4.2-4.1 0-2.3 1.9-4.2 4.2-4.2 2.3 0 4.2 1.9 4.2 4.2 0 2.3-1.9 4.1-4.2 4.1z"/>
		<path id="&lt;Path&gt;" class="s4" d="m432.6 268.3l-6.6-5.9 6-6.6 6.7 6z"/>
		<path id="&lt;Path&gt;" class="s4" d="m464.6 262.1l-4.5-7.6 7.8-4.5 4.5 7.6z"/>
		<path id="&lt;Path&gt;" class="s4" d="m465.2 273.5l-4.5-7.6 7.7-4.5 4.5 7.7z"/>
		<path id="&lt;Path&gt;" class="s4" d="m470 252.1l-4.6-7.6 7.8-4.5 4.5 7.6z"/>
		<path id="&lt;Path&gt;" class="s4" d="m498.2 253.3l6.3 6.3-6.4 6.2-6.3-6.2z"/>
		<path id="&lt;Path&gt;" class="s4" d="m502.7 239.8l6.3 6.3-6.4 6.2-6.3-6.3z"/>
		<path id="&lt;Path&gt;" class="s4" d="m505.2 265.8l6.3 6.3-6.4 6.2-6.3-6.2z"/>
		<path id="&lt;Path&gt;" class="s4" d="m486.1 246.8l6.3 6.3-6.3 6.2-6.4-6.2z"/>
		<path id="&lt;Path&gt;" class="s4" d="m557.2 245.7l-2.1-8.6 8.8-2 2 8.6z"/>
		<path id="&lt;Path&gt;" class="s4" d="m524.9 236.1l-0.3 8.9-8.9-0.3 0.3-8.9z"/>
		<path id="&lt;Path&gt;" class="s4" d="m559.8 276.3l-6.6-5.9 6-6.5 6.7 5.9z"/>
		<path id="&lt;Path&gt;" class="s4" d="m547.6 256l-4.5-7.6 7.7-4.5 4.6 7.7z"/>
		<path id="&lt;Path&gt;" class="s4" d="m532 254.6l-0.4-8.9 9-0.3 0.3 8.8z"/>
		<path id="&lt;Path&gt;" class="s3" d="m431.2 257.2c-2.3 0-4.2-1.9-4.2-4.2 0-2.3 1.9-4.1 4.2-4.1 2.4 0 4.2 1.8 4.2 4.1 0 2.3-1.8 4.2-4.2 4.2z"/>
		<path id="&lt;Path&gt;" class="s3" d="m463 244.3c-2.3 0-4.2-1.8-4.2-4.1 0-2.3 1.9-4.2 4.2-4.2 2.4 0 4.3 1.9 4.3 4.2 0 2.3-1.9 4.1-4.3 4.1z"/>
		<path id="&lt;Path&gt;" class="s3" d="m485.1 251.1c-2.3 0-4.2-1.9-4.2-4.2 0-2.3 1.9-4.1 4.2-4.1 2.3 0 4.2 1.8 4.2 4.1 0 2.3-1.9 4.2-4.2 4.2z"/>
		<path id="&lt;Path&gt;" class="s3" d="m476.7 260.4c-2.3 0-4.2-1.9-4.2-4.2 0-2.3 1.9-4.1 4.2-4.1 2.3 0 4.2 1.8 4.2 4.1 0 2.3-1.9 4.2-4.2 4.2z"/>
		<path id="&lt;Path&gt;" class="s3" d="m503.6 249c-2.3 0-4.2-1.9-4.2-4.2 0-2.3 1.9-4.2 4.2-4.2 2.3 0 4.2 1.9 4.2 4.2 0 2.3-1.9 4.2-4.2 4.2z"/>
		<path id="&lt;Path&gt;" class="s3" d="m541.6 259.3c-2.3 0-4.2-1.9-4.2-4.2 0-2.3 1.9-4.2 4.2-4.2 2.3 0 4.2 1.9 4.2 4.2 0 2.3-1.9 4.2-4.2 4.2z"/>
		<path id="&lt;Path&gt;" class="s3" d="m503.1 265.5c-2.3 0-4.2-1.9-4.2-4.2 0-2.3 1.9-4.1 4.2-4.1 2.3 0 4.2 1.8 4.2 4.1 0 2.3-1.9 4.2-4.2 4.2z"/>
		<path id="&lt;Path&gt;" class="s3" d="m556 271c-2.3 0-4.2-1.9-4.2-4.2 0-2.3 1.9-4.1 4.2-4.1 2.4 0 4.2 1.8 4.2 4.1 0 2.3-1.8 4.2-4.2 4.2z"/>
		<path id="&lt;Path&gt;" class="s3" d="m540.5 272.6c-2.4 0-4.2-1.8-4.2-4.1 0-2.3 1.8-4.2 4.2-4.2 2.3 0 4.2 1.9 4.2 4.2 0 2.3-1.9 4.1-4.2 4.1z"/>
		<path id="&lt;Path&gt;" class="s5" d="m509.8 248.4l-8.5 4 6.6 5.1z"/>
		<path id="&lt;Path&gt;" class="s5" d="m508.9 262.4l8.3 4.4 0.2-8.3z"/>
		<path id="&lt;Path&gt;" class="s5" d="m460.2 246.4l7.9-5.1-7.3-4.2z"/>
		<path id="&lt;Path&gt;" class="s5" d="m443.8 248.7l-8.5 4 6.6 5.1z"/>
		<path id="&lt;Path&gt;" class="s5" d="m444.2 266.9l8.3 4.3 0.2-8.3z"/>
		<path id="&lt;Path&gt;" class="s5" d="m473 268.1l7.8-5.1-7.3-4.2z"/>
		<path id="&lt;Path&gt;" class="s5" d="m461.7 266.7l1.8-9.1-8.1 2.1z"/>
		<path id="&lt;Path&gt;" class="s5" d="m486.6 250l-5.5 7.6 8.3 1.3z"/>
		<path id="&lt;Path&gt;" class="s5" d="m531.7 258.2l7.9-5.1-7.3-4.2z"/>
		<path id="&lt;Path&gt;" class="s5" d="m545.4 240.1l-5.5 7.6 8.3 1.3z"/>
		<path id="&lt;Path&gt;" class="s5" d="m528.1 174.1l8.3 4.3 0.2-8.3z"/>
		<path id="&lt;Path&gt;" class="s5" d="m448.7 164l8.3 4.3 0.2-8.3z"/>
		<path id="&lt;Path&gt;" class="s5" d="m354.8 165.2l-5.5 7.5 8.3 1.3z"/>
		<path id="&lt;Path&gt;" class="s5" d="m376.4 136.7l1.9-9.1-8.2 2.1z"/>
		<path id="&lt;Path&gt;" class="s5" d="m358.7 201.9l-2.1-9.1-6.5 5.3z"/>
		<path id="&lt;Path&gt;" class="s5" d="m401.3 167.6l3.4 8.7 5.7-6.1z"/>
		<path id="&lt;Path&gt;" class="s5" d="m528.9 123.6l8.4 4.3 0.1-8.3z"/>
		<path id="&lt;Path&gt;" class="s5" d="m481.7 127.8l1.9-9.1-8.1 2.1z"/>
		<path id="&lt;Path&gt;" class="s5" d="m628.5 189.2l8.4 4.3 0.1-8.3z"/>
		<path id="&lt;Path&gt;" class="s5" d="m693.3 123.6l-5.5 7.6 8.3 1.3z"/>
		<path id="&lt;Path&gt;" class="s5" d="m634.9 114.9l8.3 4.3 0.2-8.3z"/>
		<path id="&lt;Path&gt;" class="s5" d="m294.8 145l8.3 4.4 0.2-8.3z"/>
		<path id="&lt;Path&gt;" class="s5" d="m315.3 97.1l-5.5 7.6 8.3 1.3z"/>
		<path id="&lt;Path&gt;" class="s5" d="m347.5 109l7.8-5.2-7.3-4.1z"/>
		<path id="&lt;Path&gt;" class="s3" d="m470.6 229.4c-2.3 0-4.2-1.9-4.2-4.2 0-2.3 1.9-4.1 4.2-4.1 2.3 0 4.2 1.8 4.2 4.1 0 2.3-1.9 4.2-4.2 4.2z"/>
		<path id="&lt;Path&gt;" class="s3" d="m450.9 202.2c-2.4 0-4.2-1.8-4.2-4.1 0-2.3 1.8-4.2 4.2-4.2 2.3 0 4.2 1.9 4.2 4.2 0 2.3-1.9 4.1-4.2 4.1z"/>
		<path id="&lt;Path&gt;" class="s3" d="m413.6 147.6c-2.3 0-4.2-1.9-4.2-4.2 0-2.3 1.9-4.2 4.2-4.2 2.3 0 4.2 1.9 4.2 4.2 0 2.3-1.9 4.2-4.2 4.2z"/>
		<path id="&lt;Path&gt;" class="s3" d="m496.9 206.4c-2.3 0-4.2-1.9-4.2-4.2 0-2.3 1.9-4.1 4.2-4.1 2.4 0 4.2 1.8 4.2 4.1 0 2.3-1.8 4.2-4.2 4.2z"/>
		<path id="&lt;Path&gt;" class="s3" d="m329.5 203.9c-2.3 0-4.2-1.9-4.2-4.2 0-2.3 1.9-4.2 4.2-4.2 2.3 0 4.2 1.9 4.2 4.2 0 2.3-1.9 4.2-4.2 4.2z"/>
		<path id="&lt;Path&gt;" class="s3" d="m348.6 144.5c2.1-1 4.6-0.2 5.7 1.9 1 2 0.2 4.5-1.9 5.6-2.1 1-4.6 0.2-5.7-1.9-1-2.1-0.2-4.6 1.9-5.6z"/>
		<path id="&lt;Path&gt;" class="s3" d="m382 203c-1.1 2-3.7 2.6-5.7 1.5-2-1.2-2.7-3.7-1.6-5.7 1.2-2 3.8-2.6 5.8-1.5 2 1.1 2.7 3.7 1.5 5.7z"/>
		<path id="&lt;Path&gt;" class="s3" d="m424.8 190.7c-2.3 0-4.2-1.9-4.2-4.2 0-2.3 1.9-4.1 4.2-4.1 2.4 0 4.3 1.8 4.3 4.1 0 2.3-1.9 4.2-4.3 4.2z"/>
		<path id="&lt;Path&gt;" class="s3" d="m444.9 158c-2.3 0-4.2-1.9-4.2-4.2 0-2.3 1.9-4.1 4.2-4.1 2.4 0 4.3 1.8 4.3 4.1 0 2.3-1.9 4.2-4.3 4.2z"/>
		<path id="&lt;Path&gt;" class="s3" d="m392.4 217.3c-2.4 0-4.3-1.9-4.3-4.2 0-2.3 1.9-4.1 4.3-4.1 2.3 0 4.2 1.8 4.2 4.1 0 2.3-1.9 4.2-4.2 4.2z"/>
		<path id="&lt;Path&gt;" class="s3" d="m674.8 120.2c-2.3 0-4.2-1.9-4.2-4.2 0-2.3 1.9-4.2 4.2-4.2 2.3 0 4.2 1.9 4.2 4.2 0 2.3-1.9 4.2-4.2 4.2z"/>
		<path id="&lt;Path&gt;" class="s3" d="m637.2 82.8c2-1.1 4.6-0.2 5.6 1.8 1 2.1 0.2 4.6-1.9 5.6-2.1 1-4.6 0.2-5.6-1.9-1.1-2-0.2-4.5 1.9-5.5z"/>
		<path id="&lt;Path&gt;" class="s3" d="m658.9 92.9c-2.3 0-4.2-1.9-4.2-4.2 0-2.3 1.9-4.1 4.2-4.1 2.3 0 4.2 1.8 4.2 4.1 0 2.3-1.9 4.2-4.2 4.2z"/>
		<path id="&lt;Path&gt;" class="s3" d="m624.5 135.3c-2.3 0-4.2-1.8-4.2-4.1 0-2.3 1.9-4.2 4.2-4.2 2.4 0 4.2 1.9 4.2 4.2 0 2.3-1.8 4.1-4.2 4.1z"/>
		<path id="&lt;Path&gt;" class="s3" d="m540.4 191.6c-2.3 0-4.2-1.8-4.2-4.1 0-2.3 1.9-4.2 4.2-4.2 2.3 0 4.2 1.9 4.2 4.2 0 2.3-1.9 4.1-4.2 4.1z"/>
		<path id="&lt;Path&gt;" class="s3" d="m567 121.4c2.1-1 4.6-0.2 5.7 1.9 1 2 0.2 4.5-1.9 5.5-2.1 1.1-4.6 0.2-5.7-1.8-1-2.1-0.2-4.6 1.9-5.6z"/>
		<path id="&lt;Path&gt;" class="s3" d="m500.7 136.6c2.1-1 4.6-0.2 5.6 1.9 1.1 2 0.2 4.5-1.8 5.5-2.1 1.1-4.7 0.2-5.7-1.8-1-2.1-0.2-4.6 1.9-5.6z"/>
		<path id="&lt;Path&gt;" class="s3" d="m528.1 154.3c2.1-1.1 4.6-0.2 5.6 1.8 1.1 2.1 0.2 4.6-1.9 5.6-2 1-4.6 0.2-5.6-1.9-1-2-0.2-4.5 1.9-5.5z"/>
		<path id="&lt;Path&gt;" class="s3" d="m347.1 111.7c2.1-1 4.6-0.2 5.6 1.8 1.1 2.1 0.2 4.6-1.9 5.6-2 1.1-4.6 0.2-5.6-1.8-1.1-2.1-0.2-4.6 1.9-5.6z"/>
		<path id="&lt;Path&gt;" class="s3" d="m571.2 166.4c2.1-1 4.6-0.2 5.7 1.9 1 2 0.2 4.5-1.9 5.6-2.1 1-4.6 0.2-5.7-1.9-1-2.1-0.2-4.6 1.9-5.6z"/>
		<path id="&lt;Path&gt;" class="s3" d="m526.7 101.8c2.1-1 4.6-0.2 5.6 1.9 1.1 2 0.2 4.5-1.9 5.5-2 1.1-4.6 0.2-5.6-1.8-1-2.1-0.2-4.6 1.9-5.6z"/>
		<path id="&lt;Path&gt;" class="s3" d="m603.3 205.1c-2.3 0-4.2-1.9-4.2-4.2 0-2.3 1.9-4.1 4.2-4.1 2.3 0 4.2 1.8 4.2 4.1 0 2.3-1.9 4.2-4.2 4.2z"/>
		<path id="&lt;Path&gt;" class="s3" d="m299.8 138.9c2.1-1 4.6-0.2 5.7 1.9 1 2 0.2 4.5-1.9 5.5-2.1 1.1-4.6 0.2-5.7-1.8-1-2.1-0.2-4.6 1.9-5.6z"/>
		<path id="&lt;Path&gt;" class="s3" d="m681.2 180.3c-2.4 0-4.2-1.9-4.2-4.2 0-2.3 1.8-4.1 4.2-4.1 2.3 0 4.2 1.8 4.2 4.1 0 2.3-1.9 4.2-4.2 4.2z"/>
		<path id="&lt;Path&gt;" class="s3" d="m712.6 103.7c2.1-1.1 4.6-0.2 5.6 1.8 1.1 2.1 0.2 4.6-1.8 5.6-2.1 1-4.6 0.2-5.7-1.9-1-2-0.2-4.5 1.9-5.5z"/>
		<path id="&lt;Path&gt;" class="s4" d="m423.6 239.5h9v8.8h-9z"/>
		<path id="&lt;Path&gt;" class="s4" d="m369.9 139.9h8.9v8.9h-8.9z"/>
		<path id="&lt;Path&gt;" class="s4" d="m410.5 158.1l-5.6 7-7-5.5 5.5-7z"/>
		<path id="&lt;Path&gt;" class="s4" d="m407.4 99l-5.5 6.9-7-5.5 5.5-6.9z"/>
		<path id="&lt;Path&gt;" class="s4" d="m421.6 248.9l-7.5 5-5-7.3 7.4-5z"/>
		<path id="&lt;Path&gt;" class="s4" d="m376.7 135l-7.4 4.9-5-7.3 7.4-5z"/>
		<path id="&lt;Path&gt;" class="s4" d="m389 130.5l-7.4 5-5-7.3 7.4-5z"/>
		<path id="&lt;Path&gt;" class="s4" d="m364.2 130.5l-7.4 5-5-7.3 7.4-5z"/>
		<path id="&lt;Path&gt;" class="s4" d="m406.8 131.7l-8.9 0.3-0.3-8.8 8.9-0.4z"/>
		<path id="&lt;Path&gt;" class="s4" d="m394.6 156.7l-8.6 2.6-2.6-8.5 8.6-2.6z"/>
		<path id="&lt;Path&gt;" class="s4" d="m417.1 240.5l-8.9 1-1-8.8 8.9-1z"/>
		<path id="&lt;Path&gt;" class="s4" d="m459.8 250.7l0.6-8.8 8.9 0.6-0.6 8.8z"/>
		<path id="&lt;Path&gt;" class="s4" d="m432.6 233l0.6-8.8 8.9 0.6-0.6 8.8z"/>
		<path id="&lt;Path&gt;" class="s4" d="m446.4 203.7l-6.7-5.9 6-6.6 6.7 6z"/>
		<path id="&lt;Path&gt;" class="s4" d="m419.6 186.6l-6.7-5.9 6.1-6.6 6.6 6z"/>
		<path id="&lt;Path&gt;" class="s4" d="m396.5 178.8l-6.7-5.9 6.1-6.6 6.6 5.9z"/>
		<path id="&lt;Path&gt;" class="s4" d="m473.3 223.9l-6.6-5.9 6-6.6 6.7 6z"/>
		<path id="&lt;Path&gt;" class="s4" d="m475.7 252.6l-4.6-7.6 7.8-4.5 4.5 7.7z"/>
		<path id="&lt;Path&gt;" class="s4" d="m478.4 197.5l-4.6-7.6 7.8-4.5 4.5 7.6z"/>
		<path id="&lt;Path&gt;" class="s4" d="m478.9 208.9l-4.5-7.6 7.7-4.5 4.6 7.7z"/>
		<path id="&lt;Path&gt;" class="s4" d="m563.9 254.4l-4.5-7.7 7.7-4.4 4.5 7.6z"/>
		<path id="&lt;Path&gt;" class="s4" d="m455.3 151.9l-4.5-7.7 7.7-4.4 4.5 7.6z"/>
		<path id="&lt;Path&gt;" class="s4" d="m459.8 172.4l-4.5-7.7 7.7-4.5 4.6 7.7z"/>
		<path id="&lt;Path&gt;" class="s4" d="m508.6 246.4l-4.5-7.7 7.7-4.5 4.6 7.7z"/>
		<path id="&lt;Path&gt;" class="s4" d="m483.7 187.5l-4.5-7.6 7.7-4.5 4.5 7.6z"/>
		<path id="&lt;Path&gt;" class="s4" d="m444.4 173.2l-4.5-7.6 7.7-4.5 4.6 7.6z"/>
		<path id="&lt;Path&gt;" class="s4" d="m511.9 188.7l6.3 6.3-6.4 6.2-6.3-6.2z"/>
		<path id="&lt;Path&gt;" class="s4" d="m516.4 175.2l6.3 6.3-6.4 6.2-6.3-6.3z"/>
		<path id="&lt;Path&gt;" class="s4" d="m493 148.5l6.3 6.3-6.3 6.2-6.3-6.3z"/>
		<path id="&lt;Path&gt;" class="s4" d="m518.9 201.2l6.3 6.3-6.3 6.2-6.3-6.2z"/>
		<path id="&lt;Path&gt;" class="s4" d="m499.8 182.2l6.3 6.3-6.3 6.3-6.3-6.3z"/>
		<path id="&lt;Path&gt;" class="s4" d="m477.6 225.6l0.2-8.9 9 0.3-0.3 8.9z"/>
		<path id="&lt;Path&gt;" class="s4" d="m432.2 214.3l-2.1-8.6 8.8-2.1 2 8.6z"/>
		<path id="&lt;Path&gt;" class="s4" d="m429.2 182.6l-2-8.6 8.7-2 2.1 8.6z"/>
		<path id="&lt;Path&gt;" class="s4" d="m368.1 125.7l-4.5-7.6 7.7-4.5 4.5 7.7z"/>
		<path id="&lt;Path&gt;" class="s4" d="m345 80.1l-4.5-7.6 7.7-4.5 4.5 7.6z"/>
		<path id="&lt;Path&gt;" class="s4" d="m349.5 100.6l-4.5-7.6 7.7-4.5 4.6 7.6z"/>
		<path id="&lt;Path&gt;" class="s4" d="m373.4 115.7l-4.5-7.6 7.7-4.5 4.5 7.7z"/>
		<path id="&lt;Path&gt;" class="s4" d="m334.2 101.4l-4.6-7.6 7.8-4.5 4.5 7.7z"/>
		<path id="&lt;Path&gt;" class="s4" d="m319 110.8l-2.1-8.6 8.7-2 2.1 8.6z"/>
		<path id="&lt;Path&gt;" class="s4" d="m380.8 190.5l-5.3 7.1-7.2-5.2 5.3-7.1z"/>
		<path id="&lt;Path&gt;" class="s4" d="m399.9 204.7l-0.2 8.8-9-0.3 0.3-8.8z"/>
		<path id="&lt;Path&gt;" class="s4" d="m386.8 203.9l-4.5 7.6-7.8-4.4 4.5-7.6z"/>
		<path id="&lt;Path&gt;" class="s4" d="m407.9 199.5l-6.9-5.7 5.8-6.8 6.8 5.7z"/>
		<path id="&lt;Path&gt;" class="s4" d="m392.2 195.4l-8.2-3.4 3.5-8.2 8.2 3.5z"/>
		<path id="&lt;Path&gt;" class="s4" d="m421.7 166.4l-8.3-3.5 3.5-8.1 8.2 3.4z"/>
		<path id="&lt;Path&gt;" class="s4" d="m468.7 236l-0.3-8.9 8.9-0.3 0.4 8.8z"/>
		<path id="&lt;Path&gt;" class="s4" d="m491.7 215.2l-0.4-8.8 8.9-0.4 0.4 8.8z"/>
		<path id="&lt;Path&gt;" class="s4" d="m585.1 170.6l-6.7-5.9 6-6.6 6.7 5.9z"/>
		<path id="&lt;Path&gt;" class="s4" d="m558.3 153.5l-6.6-6 6-6.5 6.6 5.9z"/>
		<path id="&lt;Path&gt;" class="s4" d="m535.2 145.7l-6.6-6 6-6.5 6.6 5.9z"/>
		<path id="&lt;Path&gt;" class="s4" d="m612 190.8l-6.6-5.9 6-6.6 6.7 5.9z"/>
		<path id="&lt;Path&gt;" class="s4" d="m617.1 164.4l-4.5-7.7 7.7-4.5 4.5 7.7z"/>
		<path id="&lt;Path&gt;" class="s4" d="m617.6 175.8l-4.5-7.6 7.8-4.5 4.5 7.6z"/>
		<path id="&lt;Path&gt;" class="s4" d="m594 118.7l-4.5-7.6 7.7-4.5 4.5 7.7z"/>
		<path id="&lt;Path&gt;" class="s4" d="m598.5 139.2l-4.5-7.6 7.7-4.5 4.6 7.6z"/>
		<path id="&lt;Path&gt;" class="s4" d="m622.4 154.4l-4.5-7.7 7.7-4.4 4.5 7.6z"/>
		<path id="&lt;Path&gt;" class="s4" d="m583.2 140l-4.6-7.6 7.8-4.5 4.5 7.7z"/>
		<path id="&lt;Path&gt;" class="s4" d="m631.7 115.4l6.3 6.3-6.3 6.2-6.3-6.3z"/>
		<path id="&lt;Path&gt;" class="s4" d="m638.5 149.1l6.4 6.3-6.4 6.2-6.3-6.3z"/>
		<path id="&lt;Path&gt;" class="s4" d="m616.3 192.4l0.3-8.8 8.9 0.3-0.3 8.8z"/>
		<path id="&lt;Path&gt;" class="s4" d="m570.9 181.1l-2-8.6 8.7-2 2 8.6z"/>
		<path id="&lt;Path&gt;" class="s4" d="m567.9 149.5l-2-8.7 8.7-2 2.1 8.6z"/>
		<path id="&lt;Path&gt;" class="s4" d="m538.7 171.5l-0.3 8.9-9-0.3 0.3-8.9z"/>
		<path id="&lt;Path&gt;" class="s4" d="m546.6 166.4l-6.9-5.7 5.8-6.8 6.8 5.7z"/>
		<path id="&lt;Path&gt;" class="s4" d="m613.7 105.9l-6.9-5.6 5.8-6.8 6.9 5.7z"/>
		<path id="&lt;Path&gt;" class="s4" d="m530.9 162.3l-8.2-3.5 3.5-8.1 8.2 3.4z"/>
		<path id="&lt;Path&gt;" class="s4" d="m560.4 133.2l-8.3-3.4 3.5-8.2 8.3 3.5z"/>
		<path id="&lt;Path&gt;" class="s4" d="m525 126.5l-6.7-6 6.1-6.5 6.6 5.9z"/>
		<path id="&lt;Path&gt;" class="s4" d="m501.9 118.7l-6.7-6 6-6.5 6.7 5.9z"/>
		<path id="&lt;Path&gt;" class="s4" d="m534.6 122.5l-2-8.7 8.7-2 2 8.6z"/>
		<path id="&lt;Path&gt;" class="s4" d="m513.2 139.4l-6.8-5.7 5.7-6.8 6.9 5.7z"/>
		<path id="&lt;Path&gt;" class="s4" d="m497.6 135.3l-8.2-3.5 3.4-8.1 8.3 3.4z"/>
		<path id="&lt;Path&gt;" class="s4" d="m527.1 106.2l-8.3-3.4 3.5-8.2 8.2 3.5z"/>
		<path id="&lt;Path&gt;" class="s4" d="m630.4 182l-0.4-8.8 9-0.4 0.3 8.9z"/>
		<path id="&lt;Path&gt;" class="s4" d="m540.5 239l0.7-8.9 8.9 0.6-0.6 8.9z"/>
		<path id="&lt;Path&gt;" class="s4" d="m573.6 211.8l-6.7-6 6-6.5 6.7 5.9z"/>
		<path id="&lt;Path&gt;" class="s4" d="m559.7 237.4l-4.5-7.6 7.7-4.5 4.5 7.7z"/>
		<path id="&lt;Path&gt;" class="s4" d="m561.4 191.4l-4.6-7.6 7.8-4.5 4.5 7.7z"/>
		<path id="&lt;Path&gt;" class="s4" d="m589.4 234.6l-4.5-7.6 7.7-4.5 4.5 7.7z"/>
		<path id="&lt;Path&gt;" class="s4" d="m592.7 177l6.3 6.3-6.4 6.2-6.3-6.3z"/>
		<path id="&lt;Path&gt;" class="s4" d="m599.7 189.5l6.3 6.3-6.4 6.2-6.3-6.3z"/>
		<path id="&lt;Path&gt;" class="s4" d="m310.1 168.9l-6.7-5.9 6.1-6.6 6.6 6z"/>
		<path id="&lt;Path&gt;" class="s4" d="m283.3 151.8l-6.6-6 6-6.5 6.6 5.9z"/>
		<path id="&lt;Path&gt;" class="s4" d="m337.1 189.1l-6.7-5.9 6-6.6 6.7 5.9z"/>
		<path id="&lt;Path&gt;" class="s4" d="m342.1 162.7l-4.5-7.7 7.7-4.4 4.5 7.6z"/>
		<path id="&lt;Path&gt;" class="s4" d="m342.7 174.1l-4.6-7.6 7.8-4.5 4.5 7.6z"/>
		<path id="&lt;Path&gt;" class="s4" d="m323.5 137.5l-4.5-7.6 7.8-4.5 4.5 7.7z"/>
		<path id="&lt;Path&gt;" class="s4" d="m347.4 152.7l-4.5-7.7 7.7-4.4 4.6 7.6z"/>
		<path id="&lt;Path&gt;" class="s4" d="m308.2 138.4l-4.6-7.7 7.8-4.4 4.5 7.6z"/>
		<path id="&lt;Path&gt;" class="s4" d="m363.6 147.4l6.3 6.3-6.4 6.2-6.3-6.3z"/>
		<path id="&lt;Path&gt;" class="s4" d="m651.2 124.8h9v8.8h-9z"/>
		<path id="&lt;Path&gt;" class="s4" d="m691.8 142.9l-5.5 7-7.1-5.5 5.6-7z"/>
		<path id="&lt;Path&gt;" class="s4" d="m700.6 110.4l-5.6 7-7-5.5 5.6-7z"/>
		<path id="&lt;Path&gt;" class="s4" d="m658 119.8l-7.4 5-5-7.3 7.4-5z"/>
		<path id="&lt;Path&gt;" class="s4" d="m687.2 93l-7.4 5-5-7.4 7.4-4.9z"/>
		<path id="&lt;Path&gt;" class="s4" d="m682.5 129.9l-8.9 0.3-0.4-8.9 9-0.3z"/>
		<path id="&lt;Path&gt;" class="s4" d="m675.9 141.5l-8.5 2.6-2.7-8.4 8.6-2.6z"/>
		<path id="&lt;Path&gt;" class="s4" d="m727.7 188.6l-6.7-6 6.1-6.5 6.6 5.9z"/>
		<path id="&lt;Path&gt;" class="s4" d="m700.9 171.4l-6.6-5.9 6-6.6 6.6 6z"/>
		<path id="&lt;Path&gt;" class="s4" d="m677.8 163.6l-6.6-5.9 6-6.6 6.6 6z"/>
		<path id="&lt;Path&gt;" class="s4" d="m725.8 158l-4.6-7.6 7.8-4.5 4.5 7.6z"/>
		<path id="&lt;Path&gt;" class="s4" d="m710.6 167.4l-2.1-8.6 8.7-2 2.1 8.6z"/>
		<path id="&lt;Path&gt;" class="s4" d="m662.1 175.3l-5.3 7.1-7.2-5.2 5.3-7.1z"/>
		<path id="&lt;Path&gt;" class="s4" d="m689.2 184.3l-6.9-5.7 5.8-6.7 6.8 5.7z"/>
		<path id="&lt;Path&gt;" class="s4" d="m673.6 180.2l-8.3-3.4 3.5-8.1 8.2 3.4z"/>
		<path id="&lt;Path&gt;" class="s4" d="m703 151.2l-8.3-3.4 3.5-8.2 8.3 3.4z"/>
		<path id="&lt;Path&gt;" class="s4" d="m644.9 132.2l6.3 6.3-6.4 6.2-6.3-6.2z"/>
		<path id="&lt;Path&gt;" class="s4" d="m341.3 190.8l0.3-8.9 8.9 0.3-0.3 8.8z"/>
		<path id="&lt;Path&gt;" class="s4" d="m295.9 179.4l-2-8.6 8.7-2 2 8.6z"/>
		<path id="&lt;Path&gt;" class="s4" d="m293 147.8l-2.1-8.6 8.7-2.1 2.1 8.6z"/>
		<path id="&lt;Path&gt;" class="s4" d="m281.3 128.4l-8.3-3.4 3.5-8.2 8.2 3.5z"/>
		<path id="&lt;Path&gt;" class="s4" d="m355.4 180.4l-0.4-8.9 9-0.4 0.3 8.9z"/>
		<path id="&lt;Path&gt;" class="s4" d="m286.4 189.8l-4.6-7.7 7.8-4.5 4.5 7.7z"/>
		<path id="&lt;Path&gt;" class="s4" d="m317.7 175.3l6.3 6.3-6.4 6.2-6.3-6.3z"/>
		<path id="&lt;Path&gt;" class="s4" d="m324.7 187.8l6.3 6.3-6.3 6.2-6.4-6.3z"/>
		<path id="&lt;Path&gt;" class="s4" d="m558.3 213.9l0.3-8.9 9 0.3-0.3 8.8z"/>
		<path id="&lt;Path&gt;" class="s4" d="m536.5 224.8l-0.4-8.8 8.9-0.4 0.4 8.8z"/>
		<path id="&lt;Path&gt;" class="s4" d="m545.7 190l-0.4-8.8 9-0.4 0.4 8.8z"/>
		<path id="&lt;Path&gt;" class="s4" d="m653.7 109.6l-6.6-6 6-6.5 6.6 5.9z"/>
		<path id="&lt;Path&gt;" class="s4" d="m644.6 81.7l-8.9 1.2-1.2-8.7 8.8-1.3z"/>
		<path id="&lt;Path&gt;" class="s4" d="m638.5 111.7l0.3-8.9 8.9 0.3-0.3 8.8z"/>
		<path id="&lt;Path&gt;" class="s4" d="m637.3 95.5l-8.4-3.1 3-8.3 8.4 3z"/>
		<path id="&lt;Path&gt;" class="s4" d="m433.8 129.9l6.3 6.3-6.3 6.2-6.3-6.3z"/>
		<path id="&lt;Path&gt;" class="s4" d="m438.3 116.4l6.3 6.3-6.3 6.2-6.3-6.3z"/>
		<path id="&lt;Path&gt;" class="s4" d="m421.8 123.4l6.3 6.3-6.4 6.2-6.3-6.2z"/>
		<path id="&lt;Path&gt;" class="s4" d="m460.6 112.7l-0.3 8.9-9-0.3 0.3-8.9z"/>
		<path id="&lt;Path&gt;" class="s4" d="m467.6 131.2l-0.3-8.9 8.9-0.3 0.4 8.8z"/>
		<path id="&lt;Path&gt;" class="s3" d="m468.3 251.7c-2.3 0-4.2-1.9-4.2-4.2 0-2.3 1.9-4.2 4.2-4.2 2.4 0 4.3 1.9 4.3 4.2 0 2.3-1.9 4.2-4.3 4.2z"/>
		<path id="&lt;Path&gt;" class="s3" d="m484.7 231c-2.3 0-4.2-1.9-4.2-4.2 0-2.3 1.9-4.1 4.2-4.1 2.3 0 4.2 1.8 4.2 4.1 0 2.3-1.9 4.2-4.2 4.2z"/>
		<path id="&lt;Path&gt;" class="s3" d="m470.6 217.2c-2.3 0-4.2-1.8-4.2-4.1 0-2.3 1.9-4.2 4.2-4.2 2.3 0 4.2 1.9 4.2 4.2 0 2.3-1.9 4.1-4.2 4.1z"/>
		<path id="&lt;Path&gt;" class="s3" d="m440.7 218c-2.3 0-4.2-1.9-4.2-4.2 0-2.3 1.9-4.2 4.2-4.2 2.4 0 4.3 1.9 4.3 4.2 0 2.3-1.9 4.2-4.3 4.2z"/>
		<path id="&lt;Path&gt;" class="s3" d="m444.9 192.6c-2.3 0-4.2-1.9-4.2-4.2 0-2.3 1.9-4.1 4.2-4.1 2.4 0 4.3 1.8 4.3 4.1 0 2.3-1.9 4.2-4.3 4.2z"/>
		<path id="&lt;Path&gt;" class="s3" d="m476.8 179.7c-2.4 0-4.2-1.8-4.2-4.1 0-2.3 1.8-4.2 4.2-4.2 2.3 0 4.2 1.9 4.2 4.2 0 2.3-1.9 4.1-4.2 4.1z"/>
		<path id="&lt;Path&gt;" class="s3" d="m470.6 163.6c-2.3 0-4.2-1.8-4.2-4.1 0-2.3 1.9-4.2 4.2-4.2 2.3 0 4.2 1.9 4.2 4.2 0 2.3-1.9 4.1-4.2 4.1z"/>
		<path id="&lt;Path&gt;" class="s3" d="m432.3 142.4c-2.3 0-4.2-1.9-4.2-4.2 0-2.3 1.9-4.1 4.2-4.1 2.3 0 4.2 1.8 4.2 4.1 0 2.3-1.9 4.2-4.2 4.2z"/>
		<path id="&lt;Path&gt;" class="s3" d="m428.1 153.8c-2.3 0-4.2-1.8-4.2-4.1 0-2.3 1.9-4.2 4.2-4.2 2.3 0 4.2 1.9 4.2 4.2 0 2.3-1.9 4.1-4.2 4.1z"/>
		<path id="&lt;Path&gt;" class="s3" d="m394.5 137.3c-2.3 0-4.2-1.8-4.2-4.1 0-2.3 1.9-4.2 4.2-4.2 2.3 0 4.2 1.9 4.2 4.2 0 2.3-1.9 4.1-4.2 4.1z"/>
		<path id="&lt;Path&gt;" class="s3" d="m385.3 147.6c-2.3 0-4.2-1.9-4.2-4.2 0-2.3 1.9-4.2 4.2-4.2 2.3 0 4.2 1.9 4.2 4.2 0 2.3-1.9 4.2-4.2 4.2z"/>
		<path id="&lt;Path&gt;" class="s3" d="m498.8 186.5c-2.3 0-4.2-1.8-4.2-4.1 0-2.3 1.9-4.2 4.2-4.2 2.4 0 4.2 1.9 4.2 4.2 0 2.3-1.8 4.1-4.2 4.1z"/>
		<path id="&lt;Path&gt;" class="s3" d="m490.4 195.8c-2.3 0-4.2-1.9-4.2-4.2 0-2.3 1.9-4.1 4.2-4.1 2.3 0 4.2 1.8 4.2 4.1 0 2.3-1.9 4.2-4.2 4.2z"/>
		<path id="&lt;Path&gt;" class="s3" d="m400.8 208c-2.3 0-4.2-1.8-4.2-4.1 0-2.3 1.9-4.2 4.2-4.2 2.3 0 4.2 1.9 4.2 4.2 0 2.3-1.9 4.1-4.2 4.1z"/>
		<path id="&lt;Path&gt;" class="s3" d="m366.4 222.7c-2.3 0-4.2-1.9-4.2-4.2 0-2.3 1.9-4.1 4.2-4.1 2.3 0 4.2 1.8 4.2 4.1 0 2.3-1.9 4.2-4.2 4.2z"/>
		<path id="&lt;Path&gt;" class="s3" d="m414.5 172.7c2.1-1 4.6-0.2 5.7 1.9 1 2.1 0.2 4.5-1.9 5.6-2.1 1-4.6 0.2-5.6-1.9-1.1-2-0.2-4.5 1.8-5.6z"/>
		<path id="&lt;Path&gt;" class="s3" d="m356.1 133.6c2.1-1 4.6-0.2 5.6 1.9 1.1 2 0.2 4.5-1.8 5.6-2.1 1-4.6 0.2-5.7-1.9-1-2.1-0.2-4.6 1.9-5.6z"/>
		<path id="&lt;Path&gt;" class="s3" d="m356.1 155.8c2.1-1.1 4.6-0.2 5.6 1.8 1.1 2.1 0.2 4.6-1.8 5.6-2.1 1-4.6 0.2-5.7-1.9-1-2-0.2-4.5 1.9-5.5z"/>
		<path id="&lt;Path&gt;" class="s3" d="m331.8 135.5c2.1-1 4.6-0.2 5.7 1.9 1 2 0.2 4.5-1.9 5.6-2.1 1-4.6 0.2-5.7-1.9-1-2-0.2-4.5 1.9-5.6z"/>
		<path id="&lt;Path&gt;" class="s3" d="m331.8 145.9c2.1-1 4.6-0.2 5.7 1.9 1 2.1 0.2 4.5-1.9 5.6-2.1 1-4.6 0.2-5.7-1.9-1-2-0.2-4.5 1.9-5.6z"/>
		<path id="&lt;Path&gt;" class="s3" d="m317.2 166.5c2-1 4.6-0.2 5.6 1.8 1 2.1 0.2 4.6-1.9 5.6-2.1 1-4.6 0.2-5.6-1.8-1.1-2.1-0.2-4.6 1.9-5.6z"/>
		<path id="&lt;Path&gt;" class="s3" d="m360.3 178.6c2.1-1 4.6-0.2 5.7 1.9 1 2 0.1 4.5-1.9 5.6-2.1 1-4.6 0.2-5.7-1.9-1-2-0.2-4.5 1.9-5.6z"/>
		<path id="&lt;Path&gt;" class="s3" d="m403.1 180.6c2.1-1.1 4.6-0.2 5.7 1.8 1 2.1 0.1 4.6-1.9 5.6-2.1 1-4.6 0.2-5.7-1.9-1-2-0.2-4.5 1.9-5.5z"/>
		<path id="&lt;Path&gt;" class="s3" d="m466.4 145.3c-2.3 0-4.2-1.9-4.2-4.2 0-2.3 1.9-4.1 4.2-4.1 2.3 0 4.2 1.8 4.2 4.1 0 2.3-1.9 4.2-4.2 4.2z"/>
		<path id="&lt;Path&gt;" class="s3" d="m684.9 104.4c-2.3 0-4.2-1.8-4.2-4.1 0-2.3 1.9-4.2 4.2-4.2 2.4 0 4.2 1.9 4.2 4.2 0 2.3-1.8 4.1-4.2 4.1z"/>
		<path id="&lt;Path&gt;" class="s3" d="m679 94.8c-2.3 0-4.2-1.9-4.2-4.2 0-2.3 1.9-4.1 4.2-4.1 2.3 0 4.2 1.8 4.2 4.1 0 2.3-1.9 4.2-4.2 4.2z"/>
		<path id="&lt;Path&gt;" class="s3" d="m634.8 110.2c-2.3 0-4.2-1.8-4.2-4.1 0-2.3 1.9-4.2 4.2-4.2 2.4 0 4.2 1.9 4.2 4.2 0 2.3-1.8 4.1-4.2 4.1z"/>
		<path id="&lt;Path&gt;" class="s3" d="m648.6 74.9c2.1-1 4.6-0.2 5.6 1.9 1.1 2 0.2 4.5-1.8 5.6-2.1 1-4.6 0.2-5.7-1.9-1-2-0.2-4.5 1.9-5.6z"/>
		<path id="&lt;Path&gt;" class="s3" d="m626.4 119.5c-2.3 0-4.2-1.9-4.2-4.2 0-2.3 1.9-4.1 4.2-4.1 2.3 0 4.2 1.8 4.2 4.1 0 2.3-1.9 4.2-4.2 4.2z"/>
		<path id="&lt;Path&gt;" class="s3" d="m336 186.5c-2.3 0-4.2-1.8-4.2-4.1 0-2.3 1.9-4.2 4.2-4.2 2.3 0 4.2 1.9 4.2 4.2 0 2.3-1.9 4.1-4.2 4.1z"/>
		<path id="&lt;Path&gt;" class="s3" d="m344.4 206.9c-2.3 0-4.2-1.9-4.2-4.2 0-2.3 1.9-4.1 4.2-4.1 2.3 0 4.2 1.8 4.2 4.1 0 2.3-1.9 4.2-4.2 4.2z"/>
		<path id="&lt;Path&gt;" class="s3" d="m605.4 125.1c-2.3 0-4.2-1.8-4.2-4.1 0-2.3 1.9-4.2 4.2-4.2 2.4 0 4.2 1.9 4.2 4.2 0 2.3-1.8 4.1-4.2 4.1z"/>
		<path id="&lt;Path&gt;" class="s3" d="m596.2 135.3c-2.3 0-4.2-1.8-4.2-4.1 0-2.3 1.9-4.2 4.2-4.2 2.3 0 4.2 1.9 4.2 4.2 0 2.3-1.9 4.1-4.2 4.1z"/>
		<path id="&lt;Path&gt;" class="s3" d="m611.7 195.8c-2.3 0-4.2-1.9-4.2-4.2 0-2.3 1.9-4.1 4.2-4.1 2.3 0 4.2 1.8 4.2 4.1 0 2.3-1.9 4.2-4.2 4.2z"/>
		<path id="&lt;Path&gt;" class="s3" d="m577.3 210.5c-2.3 0-4.2-1.9-4.2-4.2 0-2.3 1.9-4.1 4.2-4.1 2.3 0 4.2 1.8 4.2 4.1 0 2.3-1.9 4.2-4.2 4.2z"/>
		<path id="&lt;Path&gt;" class="s3" d="m625.5 160.5c2-1 4.6-0.2 5.6 1.9 1.1 2 0.2 4.5-1.9 5.6-2 1-4.6 0.2-5.6-1.9-1.1-2.1-0.2-4.5 1.9-5.6z"/>
		<path id="&lt;Path&gt;" class="s3" d="m559.5 132.3c2.1-1 4.7-0.2 5.7 1.9 1 2 0.2 4.5-1.9 5.5-2.1 1.1-4.6 0.2-5.6-1.8-1.1-2.1-0.2-4.6 1.8-5.6z"/>
		<path id="&lt;Path&gt;" class="s3" d="m567 143.6c2.1-1.1 4.6-0.2 5.7 1.8 1 2.1 0.2 4.6-1.9 5.6-2.1 1-4.6 0.2-5.7-1.9-1-2-0.2-4.5 1.9-5.5z"/>
		<path id="&lt;Path&gt;" class="s3" d="m380.9 114.9c2.1-1 4.6-0.2 5.6 1.9 1.1 2 0.2 4.5-1.8 5.5-2.1 1.1-4.6 0.2-5.7-1.8-1-2.1-0.2-4.6 1.9-5.6z"/>
		<path id="&lt;Path&gt;" class="s3" d="m493.2 147.5c2.1-1 4.6-0.2 5.7 1.9 1 2 0.2 4.5-1.9 5.5-2.1 1.1-4.6 0.2-5.7-1.8-1-2.1-0.2-4.6 1.9-5.6z"/>
		<path id="&lt;Path&gt;" class="s3" d="m443.1 103.2c2-1 4.6-0.2 5.6 1.9 1.1 2 0.2 4.5-1.9 5.5-2 1.1-4.6 0.2-5.6-1.8-1.1-2.1-0.2-4.6 1.9-5.6z"/>
		<path id="&lt;Path&gt;" class="s3" d="m500.7 158.8c2.1-1.1 4.6-0.2 5.6 1.8 1.1 2.1 0.2 4.6-1.8 5.6-2.1 1-4.7 0.2-5.7-1.9-1-2-0.2-4.5 1.9-5.5z"/>
		<path id="&lt;Path&gt;" class="s3" d="m542.7 123.3c2.1-1 4.6-0.2 5.7 1.9 1 2 0.2 4.5-1.9 5.6-2.1 1-4.6 0.1-5.6-1.9-1.1-2.1-0.2-4.6 1.8-5.6z"/>
		<path id="&lt;Path&gt;" class="s3" d="m542.7 133.7c2.1-1 4.6-0.2 5.7 1.9 1 2 0.2 4.5-1.9 5.6-2.1 1-4.6 0.2-5.6-1.9-1.1-2-0.2-4.5 1.8-5.6z"/>
		<path id="&lt;Path&gt;" class="s3" d="m347.1 89.5c2.1-1 4.6-0.2 5.6 1.9 1.1 2.1 0.2 4.6-1.9 5.6-2 1-4.6 0.2-5.6-1.9-1.1-2-0.2-4.5 1.9-5.6z"/>
		<path id="&lt;Path&gt;" class="s3" d="m339.6 100.4c2.1-1 4.6-0.2 5.7 1.9 1 2.1 0.1 4.6-1.9 5.6-2.1 1-4.6 0.2-5.7-1.9-1-2-0.2-4.5 1.9-5.6z"/>
		<path id="&lt;Path&gt;" class="s3" d="m322.8 91.5c2.1-1.1 4.6-0.2 5.6 1.8 1.1 2.1 0.2 4.6-1.8 5.6-2.1 1-4.7 0.2-5.7-1.9-1-2-0.2-4.5 1.9-5.5z"/>
		<path id="&lt;Path&gt;" class="s3" d="m322.8 101.9c2.1-1.1 4.6-0.2 5.6 1.8 1.1 2.1 0.2 4.6-1.8 5.6-2.1 1-4.7 0.2-5.7-1.9-1-2-0.2-4.5 1.9-5.5z"/>
		<path id="&lt;Path&gt;" class="s3" d="m308.1 122.4c2.1-1 4.6-0.2 5.7 1.9 1 2 0.2 4.5-1.9 5.5-2.1 1.1-4.6 0.2-5.6-1.8-1.1-2.1-0.2-4.6 1.8-5.6z"/>
		<path id="&lt;Path&gt;" class="s3" d="m601.4 149.9c2.1-1 4.6-0.1 5.6 1.9 1.1 2.1 0.2 4.6-1.8 5.6-2.1 1-4.6 0.2-5.7-1.9-1-2-0.2-4.5 1.9-5.6z"/>
		<path id="&lt;Path&gt;" class="s3" d="m614 168.3c2.1-1 4.6-0.2 5.7 1.9 1 2.1 0.2 4.5-1.9 5.6-2.1 1-4.6 0.2-5.7-1.9-1-2-0.1-4.5 1.9-5.6z"/>
		<path id="&lt;Path&gt;" class="s3" d="m593 190.8c-1.2 2-3.8 2.6-5.8 1.5-2-1.2-2.7-3.7-1.5-5.7 1.1-2 3.7-2.7 5.7-1.5 2 1.1 2.7 3.7 1.6 5.7z"/>
		<path id="&lt;Path&gt;" class="s3" d="m525.8 175.1c-2.4 0-4.3-1.9-4.3-4.2 0-2.3 1.9-4.1 4.3-4.1 2.3 0 4.2 1.8 4.2 4.1 0 2.3-1.9 4.2-4.2 4.2z"/>
		<path id="&lt;Path&gt;" class="s3" d="m517.3 184.4c-2.3 0-4.2-1.9-4.2-4.2 0-2.3 1.9-4.1 4.2-4.1 2.4 0 4.2 1.8 4.2 4.1 0 2.3-1.8 4.2-4.2 4.2z"/>
		<path id="&lt;Path&gt;" class="s3" d="m546.9 174.3c-2.3 0-4.2-1.9-4.2-4.2 0-2.3 1.9-4.1 4.2-4.1 2.3 0 4.2 1.8 4.2 4.1 0 2.3-1.9 4.2-4.2 4.2z"/>
		<path id="&lt;Path&gt;" class="s3" d="m574.3 104.4c-2.4 0-4.3-1.8-4.3-4.1 0-2.3 1.9-4.2 4.3-4.2 2.3 0 4.2 1.9 4.2 4.2 0 2.3-1.9 4.1-4.2 4.1z"/>
		<path id="&lt;Path&gt;" class="s3" d="m312.1 176.3c-2.3 0-4.2-1.9-4.2-4.2 0-2.3 1.9-4.1 4.2-4.1 2.4 0 4.3 1.8 4.3 4.1 0 2.3-1.9 4.2-4.3 4.2z"/>
		<path id="&lt;Path&gt;" class="s3" d="m297.5 159.7c-2.3 0-4.2-1.8-4.2-4.1 0-2.3 1.9-4.2 4.2-4.2 2.3 0 4.2 1.9 4.2 4.2 0 2.3-1.9 4.1-4.2 4.1z"/>
		<path id="&lt;Path&gt;" class="s3" d="m289.1 169c-2.4 0-4.2-1.9-4.2-4.2 0-2.3 1.8-4.1 4.2-4.1 2.3 0 4.2 1.8 4.2 4.1 0 2.3-1.9 4.2-4.2 4.2z"/>
		<path id="&lt;Path&gt;" class="s3" d="m318.7 158.9c-2.4 0-4.3-1.8-4.3-4.1 0-2.3 1.9-4.2 4.3-4.2 2.3 0 4.2 1.9 4.2 4.2 0 2.3-1.9 4.1-4.2 4.1z"/>
		<path id="&lt;Path&gt;" class="s3" d="m555.3 194.7c-2.3 0-4.2-1.9-4.2-4.2 0-2.3 1.9-4.1 4.2-4.1 2.4 0 4.2 1.8 4.2 4.1 0 2.3-1.8 4.2-4.2 4.2z"/>
		<path id="&lt;Path&gt;" class="s3" d="m422 232.1c-2.3 0-4.2-1.9-4.2-4.2 0-2.3 1.9-4.2 4.2-4.2 2.4 0 4.2 1.9 4.2 4.2 0 2.3-1.8 4.2-4.2 4.2z"/>
		<path id="&lt;Path&gt;" class="s3" d="m516.8 200.9c-2.3 0-4.2-1.9-4.2-4.2 0-2.3 1.9-4.1 4.2-4.1 2.4 0 4.2 1.8 4.2 4.1 0 2.3-1.8 4.2-4.2 4.2z"/>
		<path id="&lt;Path&gt;" class="s3" d="m641.1 159.1c-2.3 0-4.2-1.8-4.2-4.1 0-2.3 1.9-4.2 4.2-4.2 2.3 0 4.2 1.9 4.2 4.2 0 2.3-1.9 4.1-4.2 4.1z"/>
		<path id="&lt;Path&gt;" class="s3" d="m663.2 165.9c-2.4 0-4.2-1.8-4.2-4.1 0-2.3 1.8-4.2 4.2-4.2 2.3 0 4.2 1.9 4.2 4.2 0 2.3-1.9 4.1-4.2 4.1z"/>
		<path id="&lt;Path&gt;" class="s3" d="m654.8 175.2c-2.4 0-4.3-1.9-4.3-4.1 0-2.3 1.9-4.2 4.3-4.2 2.3 0 4.2 1.9 4.2 4.2 0 2.2-1.9 4.1-4.2 4.1z"/>
		<path id="&lt;Path&gt;" class="s3" d="m661.3 185.8c-2.4 0-4.2-1.9-4.2-4.2 0-2.3 1.8-4.1 4.2-4.1 2.3 0 4.2 1.8 4.2 4.1 0 2.3-1.9 4.2-4.2 4.2z"/>
		<path id="&lt;Path&gt;" class="s3" d="m690.1 154.5c-2.3 0-4.2-1.9-4.2-4.2 0-2.3 1.9-4.1 4.2-4.1 2.3 0 4.2 1.8 4.2 4.1 0 2.3-1.9 4.2-4.2 4.2z"/>
		<path id="&lt;Path&gt;" class="s3" d="m681.7 163.8c-2.4 0-4.2-1.9-4.2-4.2 0-2.3 1.8-4.1 4.2-4.1 2.3 0 4.2 1.8 4.2 4.1 0 2.3-1.9 4.2-4.2 4.2z"/>
		<path id="&lt;Path&gt;" class="s3" d="m508.4 226.8c-2.3 0-4.2-1.8-4.2-4.1 0-2.3 1.9-4.2 4.2-4.2 2.3 0 4.2 1.9 4.2 4.2 0 2.3-1.9 4.1-4.2 4.1z"/>
		<path id="&lt;Path&gt;" class="s3" d="m541.2 238.5c-2.4 0-4.2-1.9-4.2-4.2 0-2.3 1.8-4.2 4.2-4.2 2.3 0 4.2 1.9 4.2 4.2 0 2.3-1.9 4.2-4.2 4.2z"/>
		<path id="&lt;Path&gt;" class="s3" d="m569.7 206.4c-2.3 0-4.2-1.9-4.2-4.2 0-2.3 1.9-4.1 4.2-4.1 2.4 0 4.3 1.8 4.3 4.1 0 2.3-1.9 4.2-4.3 4.2z"/>
		<path id="&lt;Path&gt;" class="s3" d="m569.7 234.3c-2.3 0-4.2-1.9-4.2-4.2 0-2.3 1.9-4.1 4.2-4.1 2.4 0 4.3 1.8 4.3 4.1 0 2.3-1.9 4.2-4.3 4.2z"/>
		<path id="&lt;Path&gt;" class="s3" d="m554.2 208c-2.3 0-4.2-1.8-4.2-4.1 0-2.3 1.9-4.2 4.2-4.2 2.3 0 4.2 1.9 4.2 4.2 0 2.3-1.9 4.1-4.2 4.1z"/>
		<path id="&lt;Path&gt;" class="s3" d="m705.4 133.5c-2.4 0-4.3-1.9-4.3-4.2 0-2.3 1.9-4.2 4.3-4.2 2.3 0 4.2 1.9 4.2 4.2 0 2.3-1.9 4.2-4.2 4.2z"/>
		<path id="&lt;Path&gt;" class="s3" d="m713.8 153.8c-2.4 0-4.2-1.8-4.2-4.1 0-2.3 1.8-4.2 4.2-4.2 2.3 0 4.2 1.9 4.2 4.2 0 2.3-1.9 4.1-4.2 4.1z"/>
		<path id="&lt;Path&gt;" class="s3" d="m728.2 165.6c-2.3 0-4.2-1.9-4.2-4.2 0-2.3 1.9-4.2 4.2-4.2 2.3 0 4.2 1.9 4.2 4.2 0 2.3-1.9 4.2-4.2 4.2z"/>
		<path id="&lt;Path&gt;" class="s3" d="m712.6 167.2c-2.3 0-4.2-1.9-4.2-4.2 0-2.3 1.9-4.1 4.2-4.1 2.4 0 4.2 1.8 4.2 4.1 0 2.3-1.8 4.2-4.2 4.2z"/>
		<path id="&lt;Path&gt;" class="s5" d="m529.8 237.1l-8.5 4 6.6 5.1z"/>
		<path id="&lt;Path&gt;" class="s5" d="m528.8 251.2l8.4 4.3 0.1-8.3z"/>
		<path id="&lt;Path&gt;" class="s5" d="m486 211.1l-8.5 3.9 6.6 5.2z"/>
		<path id="&lt;Path&gt;" class="s5" d="m437.7 172.8l-8.5 4 6.6 5.1z"/>
		<path id="&lt;Path&gt;" class="s5" d="m469.2 236.9l-8.5 3.9 6.6 5.2z"/>
		<path id="&lt;Path&gt;" class="s5" d="m486.4 229.2l8.4 4.4 0.1-8.4z"/>
		<path id="&lt;Path&gt;" class="s5" d="m515.2 230.4l7.8-5.1-7.3-4.1z"/>
		<path id="&lt;Path&gt;" class="s5" d="m503.9 229l1.9-9.1-8.2 2.2z"/>
		<path id="&lt;Path&gt;" class="s5" d="m528.8 212.4l-5.5 7.5 8.3 1.3z"/>
		<path id="&lt;Path&gt;" class="s5" d="m441.8 147.4l7.9-5.1-7.3-4.1z"/>
		<path id="&lt;Path&gt;" class="s5" d="m455.5 129.4l-5.5 7.5 8.3 1.3z"/>
		<path id="&lt;Path&gt;" class="s5" d="m523.5 183.8l-8.5 4 6.6 5.1z"/>
		<path id="&lt;Path&gt;" class="s5" d="m522.6 197.9l8.3 4.3 0.2-8.3z"/>
		<path id="&lt;Path&gt;" class="s5" d="m500 179.1l7.8-5.1-7.3-4.1z"/>
		<path id="&lt;Path&gt;" class="s5" d="m513.6 161.1l-5.5 7.5 8.3 1.3z"/>
		<path id="&lt;Path&gt;" class="s5" d="m529 160l-8.5 4 6.6 5.1z"/>
		<path id="&lt;Path&gt;" class="s5" d="m485.2 134l-8.5 4 6.7 5.1z"/>
		<path id="&lt;Path&gt;" class="s5" d="m485.7 152.1l8.3 4.4 0.2-8.3z"/>
		<path id="&lt;Path&gt;" class="s5" d="m514.4 153.4l7.9-5.2-7.3-4.1z"/>
		<path id="&lt;Path&gt;" class="s5" d="m503.1 151.9l1.9-9.1-8.1 2.2z"/>
		<path id="&lt;Path&gt;" class="s5" d="m528 135.3l-5.5 7.5 8.3 1.4z"/>
		<path id="&lt;Path&gt;" class="s5" d="m473.9 181.8l7.9-5.1-7.3-4.2z"/>
		<path id="&lt;Path&gt;" class="s5" d="m472 152.6l1.9-9.1-8.1 2.2z"/>
		<path id="&lt;Path&gt;" class="s5" d="m490.8 160.3l-5.5 7.5 8.3 1.4z"/>
		<path id="&lt;Path&gt;" class="s5" d="m457.5 184.1l-8.5 4 6.6 5.1z"/>
		<path id="&lt;Path&gt;" class="s5" d="m457.9 202.3l8.4 4.3 0.1-8.3z"/>
		<path id="&lt;Path&gt;" class="s5" d="m486.7 203.5l7.8-5.1-7.3-4.2z"/>
		<path id="&lt;Path&gt;" class="s5" d="m475.4 202.1l1.9-9.1-8.2 2.1z"/>
		<path id="&lt;Path&gt;" class="s5" d="m445.8 230.1l-9.4-0.7 3.2 7.7z"/>
		<path id="&lt;Path&gt;" class="s5" d="m428.6 248.1l-9.4-0.7 3.2 7.7z"/>
		<path id="&lt;Path&gt;" class="s5" d="m421.1 198.7l-9.3-0.7 3.1 7.7z"/>
		<path id="&lt;Path&gt;" class="s5" d="m425.8 208.7l5.1 7.9 4.3-7.2z"/>
		<path id="&lt;Path&gt;" class="s5" d="m450.2 223.9l9.4-0.7-4.3-7.1z"/>
		<path id="&lt;Path&gt;" class="s5" d="m441.1 217.1l6.2-7-8.2-2.1z"/>
		<path id="&lt;Path&gt;" class="s5" d="m500.3 185.4l-5.5 7.6 8.3 1.3z"/>
		<path id="&lt;Path&gt;" class="s5" d="m545.5 193.6l7.8-5.1-7.3-4.2z"/>
		<path id="&lt;Path&gt;" class="s5" d="m559.1 175.5l-5.5 7.6 8.3 1.3z"/>
		<path id="&lt;Path&gt;" class="s5" d="m616.8 184l-8.5 4 6.6 5.1z"/>
		<path id="&lt;Path&gt;" class="s5" d="m615.8 198.1l8.4 4.3 0.2-8.3z"/>
		<path id="&lt;Path&gt;" class="s5" d="m573 158l-8.5 3.9 6.6 5.2z"/>
		<path id="&lt;Path&gt;" class="s5" d="m573.4 176.1l8.4 4.3 0.1-8.3z"/>
		<path id="&lt;Path&gt;" class="s5" d="m602.2 177.3l7.8-5.1-7.2-4.1z"/>
		<path id="&lt;Path&gt;" class="s5" d="m590.9 175.9l1.9-9.1-8.2 2.2z"/>
		<path id="&lt;Path&gt;" class="s5" d="m615.8 159.3l-5.5 7.5 8.3 1.3z"/>
		<path id="&lt;Path&gt;" class="s5" d="m544.5 131l-8.5 4 6.6 5.1z"/>
		<path id="&lt;Path&gt;" class="s5" d="m544.9 149.2l8.4 4.3 0.1-8.3z"/>
		<path id="&lt;Path&gt;" class="s5" d="m573.7 150.4l7.8-5.1-7.3-4.2z"/>
		<path id="&lt;Path&gt;" class="s5" d="m562.4 149l1.9-9.2-8.2 2.2z"/>
		<path id="&lt;Path&gt;" class="s5" d="m587.3 132.3l-5.5 7.5 8.3 1.4z"/>
		<path id="&lt;Path&gt;" class="s5" d="m366.6 149.5l-8.5 3.9 6.6 5.2z"/>
		<path id="&lt;Path&gt;" class="s5" d="m341.1 183.2l7.9-5.1-7.3-4.1z"/>
		<path id="&lt;Path&gt;" class="s5" d="m387 145.7l-8.5 3.9 6.6 5.2z"/>
		<path id="&lt;Path&gt;" class="s5" d="m358.5 118.7l-8.5 4 6.6 5.1z"/>
		<path id="&lt;Path&gt;" class="s5" d="m358.9 136.9l8.4 4.3 0.1-8.3z"/>
		<path id="&lt;Path&gt;" class="s5" d="m387.7 138.1l7.8-5.1-7.3-4.2z"/>
		<path id="&lt;Path&gt;" class="s5" d="m401.3 120l-5.5 7.6 8.3 1.3z"/>
		<path id="&lt;Path&gt;" class="s5" d="m345 197.9l-6.1 7.1 8.2 2z"/>
		<path id="&lt;Path&gt;" class="s5" d="m393.9 165.3l-2-9-6.5 5.2z"/>
		<path id="&lt;Path&gt;" class="s5" d="m375.9 161.8l-6.1 7.1 8.2 2z"/>
		<path id="&lt;Path&gt;" class="s5" d="m368.5 189.2l3.3 8.7 5.7-6.1z"/>
		<path id="&lt;Path&gt;" class="s5" d="m432.2 156.1l-8.6 4 6.7 5.1z"/>
		<path id="&lt;Path&gt;" class="s5" d="m372.3 178.7l8.6 3.8-0.3-8.4z"/>
		<path id="&lt;Path&gt;" class="s5" d="m383.4 206.3l-6.3-6.9-3.1 7.7z"/>
		<path id="&lt;Path&gt;" class="s5" d="m426.8 143.7l-2.1-9.1-6.5 5.3z"/>
		<path id="&lt;Path&gt;" class="s5" d="m408.7 140.2l-6 7.1 8.1 1.9z"/>
		<path id="&lt;Path&gt;" class="s5" d="m405.2 157l8.6 3.8-0.4-8.3z"/>
		<path id="&lt;Path&gt;" class="s5" d="m416.2 184.7l-6.3-7-3.1 7.8z"/>
		<path id="&lt;Path&gt;" class="s5" d="m444 98.6l-8.5 3.9 6.7 5.2z"/>
		<path id="&lt;Path&gt;" class="s5" d="m529.9 109.5l-8.5 4 6.6 5.1z"/>
		<path id="&lt;Path&gt;" class="s5" d="m506.3 104.9l7.9-5.2-7.3-4.1z"/>
		<path id="&lt;Path&gt;" class="s5" d="m534.4 99.8l8.3 4.3 0.2-8.3z"/>
		<path id="&lt;Path&gt;" class="s5" d="m480.3 107.5l7.8-5.1-7.3-4.1z"/>
		<path id="&lt;Path&gt;" class="s5" d="m463.9 109.8l-8.5 4 6.6 5.1z"/>
		<path id="&lt;Path&gt;" class="s5" d="m464.3 128l8.3 4.3 0.2-8.3z"/>
		<path id="&lt;Path&gt;" class="s5" d="m493 129.2l7.9-5.1-7.3-4.2z"/>
		<path id="&lt;Path&gt;" class="s5" d="m427.5 124.4l-9.4-0.7 3.2 7.7z"/>
		<path id="&lt;Path&gt;" class="s5" d="m506.7 111.1l-5.5 7.6 8.3 1.3z"/>
		<path id="&lt;Path&gt;" class="s5" d="m551.8 119.3l7.9-5.1-7.3-4.2z"/>
		<path id="&lt;Path&gt;" class="s5" d="m565.5 101.3l-5.5 7.5 8.3 1.3z"/>
		<path id="&lt;Path&gt;" class="s5" d="m623.1 109.7l-8.5 4 6.7 5.1z"/>
		<path id="&lt;Path&gt;" class="s5" d="m622.2 123.8l8.3 4.3 0.2-8.3z"/>
		<path id="&lt;Path&gt;" class="s5" d="m579.8 101.8l8.3 4.4 0.2-8.3z"/>
		<path id="&lt;Path&gt;" class="s5" d="m635 151.3l-8.6 4 6.7 5.2z"/>
		<path id="&lt;Path&gt;" class="s5" d="m634 165.4l8.3 4.3 0.2-8.3z"/>
		<path id="&lt;Path&gt;" class="s5" d="m634 126.6l-5.5 7.6 8.3 1.3z"/>
		<path id="&lt;Path&gt;" class="s5" d="m651.4 184.9l7.9-5.1-7.3-4.2z"/>
		<path id="&lt;Path&gt;" class="s5" d="m665.1 166.9l-5.5 7.5 8.3 1.3z"/>
		<path id="&lt;Path&gt;" class="s5" d="m679 149.3l-8.5 4 6.6 5.1z"/>
		<path id="&lt;Path&gt;" class="s5" d="m679.4 167.4l8.3 4.4 0.2-8.3z"/>
		<path id="&lt;Path&gt;" class="s5" d="m650.5 122.3l-8.5 4 6.6 5.1z"/>
		<path id="&lt;Path&gt;" class="s5" d="m650.9 140.5l8.3 4.3 0.2-8.3z"/>
		<path id="&lt;Path&gt;" class="s5" d="m679.6 141.7l7.9-5.1-7.3-4.2z"/>
		<path id="&lt;Path&gt;" class="s5" d="m668.3 140.3l1.9-9.1-8.1 2.1z"/>
		<path id="&lt;Path&gt;" class="s5" d="m635.8 100.8l-8.5 4 6.6 5.1z"/>
		<path id="&lt;Path&gt;" class="s5" d="m640.4 91.1l8.3 4.4 0.2-8.4z"/>
		<path id="&lt;Path&gt;" class="s5" d="m657.8 110.6l7.8-5.1-7.3-4.1z"/>
		<path id="&lt;Path&gt;" class="s5" d="m671.4 92.6l-5.5 7.5 8.3 1.3z"/>
		<path id="&lt;Path&gt;" class="s5" d="m685.8 93.2l8.3 4.3 0.2-8.3z"/>
		<path id="&lt;Path&gt;" class="s5" d="m295.3 189.5l7.9-5.1-7.3-4.2z"/>
		<path id="&lt;Path&gt;" class="s5" d="m309 171.4l-5.5 7.6 8.3 1.3z"/>
		<path id="&lt;Path&gt;" class="s5" d="m322.9 153.8l-8.5 4 6.6 5.1z"/>
		<path id="&lt;Path&gt;" class="s5" d="m323.3 172l8.3 4.3 0.2-8.3z"/>
		<path id="&lt;Path&gt;" class="s5" d="m294.4 126.9l-8.5 4 6.6 5.1z"/>
		<path id="&lt;Path&gt;" class="s5" d="m323.6 146.3l7.8-5.2-7.3-4.1z"/>
		<path id="&lt;Path&gt;" class="s5" d="m312.3 144.8l1.8-9.1-8.1 2.2z"/>
		<path id="&lt;Path&gt;" class="s5" d="m337.2 128.2l-5.5 7.5 8.3 1.4z"/>
		<path id="&lt;Path&gt;" class="s5" d="m284.3 95.7l8.3 4.3 0.2-8.3z"/>
		<path id="&lt;Path&gt;" class="s5" d="m301.7 115.2l7.9-5.1-7.3-4.2z"/>
		<path id="&lt;Path&gt;" class="s5" d="m329.7 97.7l8.3 4.3 0.2-8.3z"/>
		<path id="&lt;Path&gt;" class="s5" d="m608.5 103.1l7.9-5.2-7.3-4.1z"/>
		<path id="&lt;Path&gt;" class="s5" d="m597.2 101.6l1.9-9.1-8.1 2.2z"/>
		<path id="&lt;Path&gt;" class="s5" d="m365.1 127.6l-2.1-9.1-6.5 5.3z"/>
		<path id="&lt;Path&gt;" class="s5" d="m351.4 123.6l-6.1 7.1 8.2 2z"/>
		<path id="&lt;Path&gt;" class="s5" d="m374.8 115l3.4 8.6 5.7-6.1z"/>
		<path id="&lt;Path&gt;" class="s5" d="m378.7 104.4l8.6 3.8-0.4-8.3z"/>
		<path id="&lt;Path&gt;" class="s5" d="m389.7 132l-6.2-6.9-3.2 7.7z"/>
		<path id="&lt;Path&gt;" class="s5" d="m407.7 93.3l3.3 8.7 5.7-6.1z"/>
		<path id="&lt;Path&gt;" class="s5" d="m422.6 110.4l-6.3-6.9-3.1 7.7z"/>
	</g>
	<g id="filter">
		<g id="filter lines">
			<g id="&lt;Group&gt;">
				<g id="&lt;Group&gt;">
					<path id="&lt;Path&gt;" class="s6" d=""/>
					<path id="&lt;Path&gt;" class="s7" d="m496.6 578.8l0.7-97.2"/>
					<path id="&lt;Path&gt;" class="s6" d=""/>
					<path id="&lt;Path&gt;" class="s8" d="m491.2 578.3h-175.6"/>
					<path id="&lt;Path&gt;" class="s6" d=""/>
					<path id="&lt;Path&gt;" class="s9" d="m312.7 584.2v20.8"/>
					<path id="&lt;Path&gt;" class="s6" d=""/>
				</g>
			</g>
			<g id="&lt;Group&gt;">
				<g id="&lt;Group&gt;">
					<path id="&lt;Path&gt;" class="s6" d=""/>
					<path id="&lt;Path&gt;" class="s8" d="m502.7 578.3h175.7"/>
					<path id="&lt;Path&gt;" class="s10" d=""/>
					<path id="&lt;Path&gt;" class="s11" d="m681.2 584.2v20.8"/>
					<path id="&lt;Path&gt;" class="s6" d=""/>
				</g>
			</g>
			<g id="&lt;Group&gt;">
				<g id="&lt;Group&gt;">
					<path id="&lt;Path&gt;" class="s10" d=""/>
					<path id="&lt;Path&gt;" class="s12" d="m497 584.2v20.8"/>
					<path id="&lt;Path&gt;" class="s6" d=""/>
				</g>
			</g>
		</g>
		<g id="&lt;Group&gt;">
			<path id="&lt;Path&gt;" class="s13" d="m393.5 313.7c0-7.5 6-13.5 13.5-13.5h190c7.4 0 13.5 6 13.5 13.5v25.2c0 7.5-6.1 13.5-13.5 13.5h-190c-7.5 0-13.5-6-13.5-13.5z"/>
		</g>
		<g id="&lt;Group&gt;">
			<path id="&lt;Path&gt;" class="s14" d="m406.7 352.4h190.6v11.8h-190.6z"/>
		</g>
		<g id="&lt;Group&gt;">
			<path id="&lt;Path&gt;" class="s13" d="m393.5 377.7c0-7.5 6-13.5 13.5-13.5h190c7.4 0 13.5 6 13.5 13.5v25.3c0 7.4-6.1 13.5-13.5 13.5h-190c-7.5 0-13.5-6.1-13.5-13.5z"/>
		</g>
		<g id="&lt;Group&gt;">
			<path id="&lt;Path&gt;" class="s14" d="m406.7 416.5h190.6v11.7h-190.6z"/>
		</g>
		<g id="&lt;Group&gt;">
			<path id="&lt;Path&gt;" class="s13" d="m393.5 441.7c0-7.4 6-13.5 13.5-13.5h190c7.4 0 13.5 6.1 13.5 13.5v25.3c0 7.5-6.1 13.5-13.5 13.5h-190c-7.5 0-13.5-6-13.5-13.5z"/>
		</g>
		<path id="&lt;Path&gt;" class="s15" d="m563.3 300.2h-122.7l-10.2-20h143.2z"/>
		<path id="&lt;Path&gt;" class="s13" d="m580.7 280.2h-157.5c-2.8 0-5.1-2.2-5.1-5 0-2.8 2.3-5.1 5.1-5.1h157.5c2.8 0 5.1 2.3 5.1 5.1 0 2.8-2.3 5-5.1 5z"/>
		<g id="blue lines">
			<path id="&lt;Path&gt;" class="s3" d="m588.2 379.1c2.2 0 4-1.8 4-4v-10.4h-8v10.4c0 2.2 1.8 4 4 4z"/>
			<path id="&lt;Path&gt;" class="s3" d="m575 379.1c2.1 0 3.9-1.8 3.9-4v-10.4h-7.9v10.4c0 2.2 1.8 4 4 4z"/>
			<path id="&lt;Path&gt;" class="s3" d="m561.7 379.1c2.2 0 4-1.8 4-4v-10.4h-7.9v10.4c0 2.2 1.7 4 3.9 4z"/>
		</g>
		<g id="Yello lines">
			<path id="&lt;Path&gt;" class="s5" d="m589.7 443.1c2.2 0 4-1.8 4-3.9v-10.5h-8v10.5c0 2.1 1.8 3.9 4 3.9z"/>
			<path id="&lt;Path&gt;" class="s5" d="m576.5 443.1c2.2 0 3.9-1.8 3.9-3.9v-10.5h-7.9v10.5c0 2.1 1.8 3.9 4 3.9z"/>
			<path id="&lt;Path&gt;" class="s5" d="m563.2 443.1c2.2 0 4-1.8 4-3.9v-10.5h-7.9v10.5c0 2.1 1.7 3.9 3.9 3.9z"/>
		</g>
		<g id="Red filter lines">
			<path id="&lt;Path&gt;" class="s4" d="m588.9 315.1c2.2 0 4-1.8 4-4v-10.4h-7.9v10.4c0 2.2 1.8 4 3.9 4z"/>
			<path id="&lt;Path&gt;" class="s4" d="m575.7 315.1c2.2 0 4-1.8 4-4v-10.4h-8v10.4c0 2.2 1.8 4 4 4z"/>
			<path id="&lt;Path&gt;" class="s4" d="m562.5 315.1c2.2 0 3.9-1.8 3.9-4v-10.4h-7.9v10.4c0 2.2 1.8 4 4 4z"/>
		</g>
		<g id="Red filter">
			<path id="&lt;Path&gt;" class="s13" d="m408 306.7h100.6v39.2h-100.6z"/>
			<path id="&lt;Path&gt;" class="s13" d="m408 370.7h100.6v39.2h-100.6z"/>
			<path id="&lt;Path&gt;" class="s13" d="m408 434.8h100.6v39.2h-100.6z"/>
			<path id="&lt;Path&gt;" class="s4" d="m412 311.9h7.9v7.9h-7.9z"/>
			<path id="&lt;Path&gt;" class="s4" d="m422.6 311.9h7.9v7.9h-7.9z"/>
			<path id="&lt;Path&gt;" class="s4" d="m433.2 311.9h7.9v7.9h-7.9z"/>
			<path id="&lt;Path&gt;" class="s4" d="m443.7 311.9h8v7.9h-8z"/>
			<path id="&lt;Path&gt;" class="s4" d="m454.3 311.9h8v7.9h-8z"/>
			<path id="&lt;Path&gt;" class="s4" d="m464.9 311.9h8v7.9h-8z"/>
			<path id="&lt;Path&gt;" class="s4" d="m475.5 311.9h7.9v7.9h-7.9z"/>
			<path id="&lt;Path&gt;" class="s4" d="m486.1 311.9h7.9v7.9h-7.9z"/>
			<path id="&lt;Path&gt;" class="s4" d="m496.7 311.9h7.9v7.9h-7.9z"/>
			<path id="&lt;Path&gt;" class="s4" d="m412 322.4h7.9v7.8h-7.9z"/>
			<path id="&lt;Path&gt;" class="s4" d="m422.6 322.4h7.9v7.8h-7.9z"/>
			<path id="&lt;Path&gt;" class="s4" d="m433.2 322.4h7.9v7.8h-7.9z"/>
			<path id="&lt;Path&gt;" class="s4" d="m443.7 322.4h8v7.8h-8z"/>
			<path id="&lt;Path&gt;" class="s4" d="m454.3 322.4h8v7.8h-8z"/>
			<path id="&lt;Path&gt;" class="s4" d="m464.9 322.4h8v7.8h-8z"/>
			<path id="&lt;Path&gt;" class="s4" d="m475.5 322.4h7.9v7.8h-7.9z"/>
			<path id="&lt;Path&gt;" class="s4" d="m486.1 322.4h7.9v7.8h-7.9z"/>
			<path id="&lt;Path&gt;" class="s4" d="m496.7 322.4h7.9v7.8h-7.9z"/>
			<path id="&lt;Path&gt;" class="s4" d="m412 332.8h7.9v7.9h-7.9z"/>
			<path id="&lt;Path&gt;" class="s4" d="m422.6 332.8h7.9v7.9h-7.9z"/>
			<path id="&lt;Path&gt;" class="s4" d="m433.2 332.8h7.9v7.9h-7.9z"/>
			<path id="&lt;Path&gt;" class="s4" d="m443.7 332.8h8v7.9h-8z"/>
			<path id="&lt;Path&gt;" class="s4" d="m454.3 332.8h8v7.9h-8z"/>
		</g>
		<g id="blue filter">
			<path id="&lt;Path&gt;" class="s3" d="m416 382.5c-2.2 0-4-1.8-4-3.9 0-2.2 1.8-3.9 4-3.9 2.2 0 3.9 1.7 3.9 3.9 0 2.1-1.7 3.9-3.9 3.9z"/>
			<path id="&lt;Path&gt;" class="s3" d="m426.5 382.5c-2.2 0-3.9-1.8-3.9-3.9 0-2.2 1.7-3.9 3.9-3.9 2.2 0 4 1.7 4 3.9 0 2.1-1.8 3.9-4 3.9z"/>
			<path id="&lt;Path&gt;" class="s3" d="m437.1 382.5c-2.2 0-3.9-1.8-3.9-3.9 0-2.2 1.7-3.9 3.9-3.9 2.2 0 4 1.7 4 3.9 0 2.1-1.8 3.9-4 3.9z"/>
			<path id="&lt;Path&gt;" class="s3" d="m447.7 382.5c-2.2 0-4-1.8-4-3.9 0-2.2 1.8-3.9 4-3.9 2.2 0 4 1.7 4 3.9 0 2.1-1.8 3.9-4 3.9z"/>
			<path id="&lt;Path&gt;" class="s3" d="m458.3 382.5c-2.2 0-4-1.8-4-3.9 0-2.2 1.8-3.9 4-3.9 2.2 0 4 1.7 4 3.9 0 2.1-1.8 3.9-4 3.9z"/>
			<path id="&lt;Path&gt;" class="s3" d="m468.9 382.5c-2.2 0-4-1.8-4-3.9 0-2.2 1.8-3.9 4-3.9 2.2 0 4 1.7 4 3.9 0 2.1-1.8 3.9-4 3.9z"/>
			<path id="&lt;Path&gt;" class="s3" d="m479.5 382.5c-2.2 0-4-1.8-4-3.9 0-2.2 1.8-3.9 4-3.9 2.2 0 3.9 1.7 3.9 3.9 0 2.1-1.7 3.9-3.9 3.9z"/>
			<path id="&lt;Path&gt;" class="s3" d="m490.1 382.5c-2.2 0-4-1.8-4-3.9 0-2.2 1.8-3.9 4-3.9 2.2 0 3.9 1.7 3.9 3.9 0 2.1-1.7 3.9-3.9 3.9z"/>
			<path id="&lt;Path&gt;" class="s3" d="m500.7 382.5c-2.2 0-4-1.8-4-3.9 0-2.2 1.8-3.9 4-3.9 2.1 0 3.9 1.7 3.9 3.9 0 2.1-1.8 3.9-3.9 3.9z"/>
			<path id="&lt;Path&gt;" class="s3" d="m416 394.3c-2.2 0-4-1.8-4-4 0-2.1 1.8-3.9 4-3.9 2.2 0 3.9 1.8 3.9 3.9 0 2.2-1.7 4-3.9 4z"/>
			<path id="&lt;Path&gt;" class="s3" d="m426.5 394.3c-2.2 0-3.9-1.8-3.9-4 0-2.1 1.7-3.9 3.9-3.9 2.2 0 4 1.8 4 3.9 0 2.2-1.8 4-4 4z"/>
			<path id="&lt;Path&gt;" class="s3" d="m437.1 394.3c-2.2 0-3.9-1.8-3.9-4 0-2.1 1.7-3.9 3.9-3.9 2.2 0 4 1.8 4 3.9 0 2.2-1.8 4-4 4z"/>
			<path id="&lt;Path&gt;" class="s3" d="m447.7 394.3c-2.2 0-4-1.8-4-4 0-2.1 1.8-3.9 4-3.9 2.2 0 4 1.8 4 3.9 0 2.2-1.8 4-4 4z"/>
			<path id="&lt;Path&gt;" class="s3" d="m458.3 394.3c-2.2 0-4-1.8-4-4 0-2.1 1.8-3.9 4-3.9 2.2 0 4 1.8 4 3.9 0 2.2-1.8 4-4 4z"/>
			<path id="&lt;Path&gt;" class="s3" d="m468.9 394.3c-2.2 0-4-1.8-4-4 0-2.1 1.8-3.9 4-3.9 2.2 0 4 1.8 4 3.9 0 2.2-1.8 4-4 4z"/>
			<path id="&lt;Path&gt;" class="s3" d="m479.5 394.3c-2.2 0-4-1.8-4-4 0-2.1 1.8-3.9 4-3.9 2.2 0 3.9 1.8 3.9 3.9 0 2.2-1.7 4-3.9 4z"/>
			<path id="&lt;Path&gt;" class="s3" d="m490.1 394.3c-2.2 0-4-1.8-4-4 0-2.1 1.8-3.9 4-3.9 2.2 0 3.9 1.8 3.9 3.9 0 2.2-1.7 4-3.9 4z"/>
			<path id="&lt;Path&gt;" class="s3" d="m500.7 394.3c-2.2 0-4-1.8-4-4 0-2.1 1.8-3.9 4-3.9 2.1 0 3.9 1.8 3.9 3.9 0 2.2-1.8 4-3.9 4z"/>
			<path id="&lt;Path&gt;" class="s3" d="m416 406c-2.2 0-4-1.7-4-3.9 0-2.2 1.8-3.9 4-3.9 2.2 0 3.9 1.7 3.9 3.9 0 2.2-1.7 3.9-3.9 3.9z"/>
			<path id="&lt;Path&gt;" class="s3" d="m426.5 406c-2.2 0-3.9-1.7-3.9-3.9 0-2.2 1.7-3.9 3.9-3.9 2.2 0 4 1.7 4 3.9 0 2.2-1.8 3.9-4 3.9z"/>
			<path id="&lt;Path&gt;" class="s3" d="m437.1 406c-2.2 0-3.9-1.7-3.9-3.9 0-2.2 1.7-3.9 3.9-3.9 2.2 0 4 1.7 4 3.9 0 2.2-1.8 3.9-4 3.9z"/>
			<path id="&lt;Path&gt;" class="s3" d="m447.7 406c-2.2 0-4-1.7-4-3.9 0-2.2 1.8-3.9 4-3.9 2.2 0 4 1.7 4 3.9 0 2.2-1.8 3.9-4 3.9z"/>
			<path id="&lt;Path&gt;" class="s3" d="m458.3 406c-2.2 0-4-1.7-4-3.9 0-2.2 1.8-3.9 4-3.9 2.2 0 4 1.7 4 3.9 0 2.2-1.8 3.9-4 3.9z"/>
			<path id="&lt;Path&gt;" class="s3" d="m468.9 406c-2.2 0-4-1.7-4-3.9 0-2.2 1.8-3.9 4-3.9 2.2 0 4 1.7 4 3.9 0 2.2-1.8 3.9-4 3.9z"/>
			<path id="&lt;Path&gt;" class="s3" d="m479.5 406c-2.2 0-4-1.7-4-3.9 0-2.2 1.8-3.9 4-3.9 2.2 0 3.9 1.7 3.9 3.9 0 2.2-1.7 3.9-3.9 3.9z"/>
		</g>
		<g id="yello filter">
			<g id="&lt;Group&gt;">
				<path id="&lt;Path&gt;" class="s5" d="m416 439.6l-4 7.8h7.9z"/>
				<path id="&lt;Path&gt;" class="s5" d="m426.5 439.6l-3.9 7.8h7.9z"/>
				<path id="&lt;Path&gt;" class="s5" d="m437.1 439.6l-3.9 7.8h7.9z"/>
				<path id="&lt;Path&gt;" class="s5" d="m447.7 439.6l-4 7.8h8z"/>
				<path id="&lt;Path&gt;" class="s5" d="m458.3 439.6l-4 7.8h8z"/>
				<path id="&lt;Path&gt;" class="s5" d="m468.9 439.6l-4 7.8h8z"/>
				<path id="&lt;Path&gt;" class="s5" d="m479.5 439.6l-4 7.8h7.9z"/>
				<path id="&lt;Path&gt;" class="s5" d="m490.1 439.6l-4 7.8h7.9z"/>
				<path id="&lt;Path&gt;" class="s5" d="m500.7 439.6l-4 7.8h7.9z"/>
			</g>
			<g id="&lt;Group&gt;">
				<path id="&lt;Path&gt;" class="s5" d="m416 450l-4 7.9h7.9z"/>
				<path id="&lt;Path&gt;" class="s5" d="m426.5 450l-3.9 7.9h7.9z"/>
				<path id="&lt;Path&gt;" class="s5" d="m437.1 450l-3.9 7.9h7.9z"/>
				<path id="&lt;Path&gt;" class="s5" d="m447.7 450l-4 7.9h8z"/>
				<path id="&lt;Path&gt;" class="s5" d="m458.3 450l-4 7.9h8z"/>
				<path id="&lt;Path&gt;" class="s5" d="m468.9 450l-4 7.9h8z"/>
				<path id="&lt;Path&gt;" class="s5" d="m479.5 450l-4 7.9h7.9z"/>
				<path id="&lt;Path&gt;" class="s5" d="m490.1 450l-4 7.9h7.9z"/>
				<path id="&lt;Path&gt;" class="s5" d="m500.7 450l-4 7.9h7.9z"/>
			</g>
			<g id="&lt;Group&gt;">
				<path id="&lt;Path&gt;" class="s5" d="m416 460.5l-4 7.8h7.9z"/>
				<path id="&lt;Path&gt;" class="s5" d="m426.5 460.5l-3.9 7.8h7.9z"/>
			</g>
		</g>
		<g id="dot circles and icons">
			<g id="blue circle">
				<path id="&lt;Path&gt;" class="s16" d="m496 688c-22.2 0-40.1-17.7-40.1-39.5 0-21.9 17.9-39.5 40.1-39.5 22.1 0 40 17.6 40 39.5 0 21.8-17.9 39.5-40 39.5z"/>
			</g>
			<g id="red cirlce">
				<path id="&lt;Path&gt;" class="s16" d="m311.7 688c-22.1 0-40-17.7-40-39.5 0-21.9 17.9-39.5 40-39.5 22.1 0 40 17.6 40 39.5 0 21.8-17.9 39.5-40 39.5z"/>
			</g>
			<g id="yellow circle">
				<path id="&lt;Path&gt;" class="s16" d="m680.2 688c-22.1 0-40-17.7-40-39.5 0-21.9 17.9-39.5 40-39.5 22.2 0 40.1 17.6 40.1 39.5 0 21.8-17.9 39.5-40.1 39.5z"/>
			</g>
			<path id="trainglae yello big" class="s4" d="m288.9 625.8h45.8v45.3h-45.8z"/>
			<path id="circle blue big" class="s3" d="m496 671.1c-12.7 0-22.9-10.1-22.9-22.6 0-12.5 10.2-22.7 22.9-22.7 12.6 0 22.9 10.2 22.9 22.7 0 12.5-10.3 22.6-22.9 22.6z"/>
			<path id="red square big" class="s5" d="m680.2 621.1l-22.9 45.3h45.9z"/>
		</g>
	</g>
</svg>