<?xml version="1.0" encoding="UTF-8"?>
<svg id="Layer_1" data-name="Layer 1" xmlns="http://www.w3.org/2000/svg" xmlns:xlink="http://www.w3.org/1999/xlink" viewBox="0 0 650.01 682">
  <defs>
    <style>
      .cls-1 {
        clip-path: url(#clippath);
      }

      .cls-2 {
        fill: none;
      }

      .cls-2, .cls-3, .cls-4, .cls-5, .cls-6, .cls-7, .cls-8, .cls-9, .cls-10 {
        stroke-width: 0px;
      }

      .cls-3, .cls-11 {
        opacity: .7;
      }

      .cls-3, .cls-9 {
        fill: #fff;
      }

      .cls-4 {
        fill: #f2f2f2;
      }

      .cls-5 {
        fill: #625bfe;
      }

      .cls-6 {
        fill: #4a4add;
      }

      .cls-7 {
        fill: #7c76bb;
      }

      .cls-8 {
        fill: #d1d1d1;
      }

      .cls-10 {
        fill: #fcfcfc;
      }
    </style>
    <clipPath id="clippath">
      <rect class="cls-2" x="83.21" y="114.8" width="566.8" height="566.8"/>
    </clipPath>
  </defs>
  <g>
    <path class="cls-6" d="m82.77,114.82h-2.68c-19.23,0-34.82-15.59-34.82-34.81s15.58-34.81,34.82-34.81h375.09v69.71h37.83s0-92.34,0-92.34C493,10.1,482.9,0,470.44,0H80.08C35.89,0,.07,35.82.07,80.01v521.59c0,44.19,35.82,80,80.01,80h71.73s-69.05,0-69.05,0V114.82Z"/>
    <path class="cls-5" d="m503.73,114.91l-420.97-.11v566.79h420.97c12.45,0,22.55-10.09,22.55-22.55V137.47c0-12.45-10.09-22.56-22.55-22.56Zm-325.04,210.58c-.83-1.94-1.54-3.89-2.2-5.86l11.75-11.66c-.74-3.35-1.21-6.71-1.42-10.06l-14.53-8c.2-4.18.72-8.32,1.55-12.38l16.04-4.23c1.03-3.23,2.3-6.38,3.81-9.41l-8.59-14.2c2.23-3.49,4.73-6.83,7.49-9.97l16.01,4.35c2.48-2.26,5.15-4.35,8.01-6.24l-.33-16.56c1.84-.95,3.71-1.86,5.64-2.68,1.94-.82,3.9-1.53,5.86-2.2l11.67,11.75c3.34-.73,6.71-1.21,10.06-1.42l8-14.53c4.18.19,8.31.71,12.38,1.54l4.24,16.04c3.22,1.03,6.36,2.3,9.4,3.8l14.19-8.59c3.5,2.23,6.83,4.73,9.97,7.49l-4.35,16.02c2.26,2.48,4.35,5.16,6.25,8.01l16.55-.34c.95,1.84,1.87,3.71,2.69,5.65.81,1.94,1.53,3.89,2.19,5.86l-11.75,11.66c.74,3.34,1.21,6.71,1.42,10.06l14.54,8c-.2,4.18-.72,8.31-1.55,12.37l-16.05,4.24c-1.03,3.22-2.3,6.36-3.8,9.4l8.59,14.19c-2.23,3.5-4.72,6.84-7.49,9.97l-16.01-4.34c-2.48,2.26-5.16,4.35-8.01,6.24l.34,16.56c-1.84.95-3.71,1.85-5.65,2.68-1.94.82-3.89,1.54-5.85,2.2l-11.67-11.75c-3.35.73-6.7,1.2-10.06,1.42l-8,14.53c-4.18-.2-8.31-.72-12.37-1.55l-4.24-16.04c-3.23-1.03-6.37-2.3-9.4-3.8l-14.2,8.59c-3.5-2.23-6.84-4.74-9.97-7.49l4.35-16.01c-2.26-2.49-4.35-5.17-6.24-8.02l-16.56.34c-.95-1.84-1.86-3.71-2.68-5.65Zm310.97,222.32c-2.15,7.43-4.89,14.65-8.14,21.61l-30.72.69c-3.24,5.36-6.89,10.47-10.9,15.29l9.31,29.27c-5.52,5.33-11.47,10.26-17.8,14.72l-26.95-14.75c-5.45,2.99-11.17,5.6-17.12,7.78l-6.56,29.96c-3.73.92-7.49,1.75-11.33,2.39-3.85.64-7.67,1.08-11.49,1.43l-15.93-26.2c-6.34-.13-12.6-.73-18.73-1.8l-20.69,22.71c-7.43-2.16-14.65-4.89-21.61-8.14l-.7-30.71c-5.36-3.25-10.47-6.9-15.28-10.91l-29.28,9.32c-5.34-5.52-10.26-11.47-14.72-17.8l14.75-26.95c-3-5.45-5.6-11.18-7.78-17.13l-29.95-6.56c-.92-3.72-1.75-7.49-2.38-11.33-.65-3.84-1.08-7.67-1.43-11.49l26.2-15.93c.13-6.34.73-12.59,1.79-18.72l-22.71-20.7c2.15-7.43,4.89-14.65,8.13-21.61l30.72-.7c3.25-5.36,6.89-10.47,10.91-15.28l-9.32-29.27c5.53-5.33,11.47-10.26,17.8-14.72l26.94,14.76c5.46-3,11.17-5.6,17.14-7.79l6.56-29.95c3.72-.91,7.49-1.75,11.33-2.38,3.84-.64,7.67-1.08,11.49-1.43l15.93,26.21c6.34.13,12.59.73,18.73,1.79l20.69-22.71c7.43,2.16,14.65,4.89,21.62,8.14l.7,30.71c5.36,3.25,10.47,6.89,15.28,10.91l29.28-9.33c5.32,5.53,10.25,11.48,14.71,17.81l-14.75,26.95c2.99,5.45,5.6,11.17,7.77,17.13l29.96,6.56c.92,3.72,1.74,7.49,2.38,11.33.65,3.84,1.08,7.67,1.43,11.49l-26.21,15.93c-.11,6.34-.72,12.61-1.79,18.74l22.71,20.69Z"/>
  </g>
  <rect class="cls-5" x="152.11" y="184.45" width="358.48" height="472.87"/>
  <g class="cls-11">
    <g class="cls-1">
      <path class="cls-10" d="m212.06,251.29c-.87,0-1.58-.71-1.58-1.58s.71-1.57,1.58-1.57,1.57.7,1.57,1.57-.71,1.58-1.57,1.58Zm38.55,65.76c0,.87-.71,1.58-1.58,1.58s-1.57-.71-1.57-1.58.7-1.57,1.57-1.57,1.58.7,1.58,1.57Zm-35.09-67.34c0-1.91-1.56-3.46-3.46-3.46s-3.47,1.55-3.47,3.46c0,1.79,1.37,3.24,3.1,3.43v15.65c0,.25.1.49.27.67l36.12,36.11v8.16c-1.45.41-2.52,1.74-2.52,3.32,0,1.91,1.56,3.47,3.47,3.47s3.47-1.55,3.47-3.47c0-1.58-1.07-2.9-2.52-3.32v-8.55c0-.25-.1-.49-.28-.67l-36.12-36.12v-15.59c1.14-.57,1.94-1.73,1.94-3.09Zm1.99,201.66c0-.87.7-1.58,1.57-1.58s1.58.71,1.58,1.58-.71,1.57-1.58,1.57-1.57-.7-1.57-1.57Zm-10.32,38.79c-.87,0-1.57-.71-1.57-1.58s.71-1.57,1.57-1.57,1.58.7,1.58,1.57-.71,1.58-1.58,1.58Zm1.68-4.59c-.5-.28-1.07-.45-1.68-.45-1.91,0-3.46,1.55-3.46,3.46s1.55,3.47,3.46,3.47,3.47-1.55,3.47-3.47c0-.61-.17-1.18-.45-1.67l9.55-9.55c.18-.18.28-.41.28-.67v-22c1.45-.41,2.52-1.74,2.52-3.32,0-1.91-1.55-3.47-3.47-3.47s-3.46,1.55-3.46,3.47c0,1.58,1.07,2.9,2.52,3.32v21.61l-9.27,9.27Zm235.56-30.11c-.87,0-1.57-.71-1.57-1.57s.7-1.58,1.57-1.58,1.58.71,1.58,1.58-.71,1.57-1.58,1.57ZM196.88,177.15c0-.87.71-1.58,1.58-1.58s1.58.71,1.58,1.58-.71,1.57-1.58,1.57-1.58-.71-1.58-1.57Zm247.55,273.28c-.61,0-1.18.17-1.67.45l-45.25-45.25c-.18-.18-.42-.27-.67-.27h-19.04l-10.52-10.52c-.18-.18-.42-.28-.67-.28h-59.65l-107.56-107.56v-106.54c1.45-.41,2.52-1.74,2.52-3.31,0-1.91-1.55-3.47-3.46-3.47s-3.46,1.55-3.46,3.47c0,1.58,1.07,2.9,2.52,3.31v106.93c0,.25.1.49.27.66l108.11,108.11c.18.18.42.27.67.27h59.65l10.52,10.52c.18.17.42.27.67.27h19.04l44.97,44.97c-.28.5-.45,1.07-.45,1.68,0,1.91,1.55,3.46,3.46,3.46s3.47-1.56,3.47-3.46-1.55-3.47-3.47-3.47Zm-225.46-59.01c-.87,0-1.57-.7-1.57-1.58s.7-1.57,1.57-1.57,1.58.7,1.58,1.57-.71,1.58-1.58,1.58Zm19.92,81.56c.87,0,1.58.71,1.58,1.58s-.71,1.57-1.58,1.57-1.57-.7-1.57-1.57.71-1.58,1.57-1.58Zm-16.46-83.13c0-1.91-1.55-3.46-3.47-3.46s-3.47,1.55-3.47,3.46c0,1.58,1.07,2.9,2.52,3.32v36.45c0,.25.1.49.28.67l12.28,12.28v24.62c0,.25.1.49.28.67l5.02,5.02c-.28.5-.45,1.06-.45,1.68,0,1.91,1.56,3.46,3.46,3.46s3.46-1.55,3.46-3.46-1.55-3.47-3.46-3.47c-.61,0-1.17.17-1.68.45l-4.74-4.74v-24.62c0-.25-.1-.49-.28-.67l-12.28-12.28v-36.06c1.45-.41,2.52-1.74,2.52-3.32Zm6.88,96.96c.87,0,1.57.7,1.57,1.57s-.7,1.58-1.57,1.58-1.58-.71-1.58-1.58.71-1.57,1.58-1.57Zm-34.52,37.67c-.87,0-1.58-.7-1.58-1.57s.7-1.58,1.58-1.58,1.57.71,1.57,1.58-.71,1.57-1.57,1.57Zm0-5.04c-1.91,0-3.47,1.55-3.47,3.47s1.55,3.46,3.47,3.46,3.46-1.55,3.46-3.46c0-.61-.17-1.18-.45-1.68l29.83-29.83c.5.28,1.06.45,1.68.45,1.91,0,3.46-1.55,3.46-3.47s-1.55-3.46-3.46-3.46-3.47,1.55-3.47,3.46c0,.61.17,1.18.45,1.68l-29.83,29.83c-.5-.28-1.07-.45-1.67-.45Zm227.29-54.97c-.87,0-1.58-.71-1.58-1.58s.71-1.57,1.58-1.57,1.57.71,1.57,1.57-.71,1.58-1.57,1.58Zm-33.65-33.65c-.87,0-1.57-.71-1.57-1.58s.7-1.57,1.57-1.57,1.58.7,1.58,1.57-.7,1.58-1.58,1.58Zm37.11,32.07c0-1.91-1.55-3.46-3.46-3.46-.61,0-1.18.17-1.68.45l-28.96-28.96c.28-.5.45-1.07.45-1.68,0-1.91-1.55-3.46-3.47-3.46s-3.47,1.56-3.47,3.46,1.56,3.47,3.47,3.47c.61,0,1.18-.17,1.68-.45l28.96,28.96c-.28.5-.45,1.07-.45,1.67,0,1.91,1.55,3.47,3.47,3.47s3.46-1.56,3.46-3.47ZM104.26,304.82c.3-.3.69-.46,1.11-.46s.82.17,1.11.46c.62.61.62,1.61,0,2.23s-1.61.61-2.22,0-.62-1.61,0-2.23Zm-1.34,3.56c.65.66,1.53,1.01,2.45,1.01s1.8-.36,2.45-1.01c1.35-1.35,1.35-3.55,0-4.9-1.08-1.08-2.81-1.25-4.12-.56l-20.5-20.49v2.67l19.15,19.15c-.73,1.32-.56,3.01.56,4.13Zm44.26,182.14c.31-.31.71-.46,1.11-.46s.8.15,1.12.46c.3.3.46.69.46,1.11s-.16.82-.46,1.11c-.62.62-1.61.62-2.23,0-.3-.3-.46-.69-.46-1.11s.16-.81.46-1.11Zm-23.85,27.65c-.87,0-1.58-.71-1.58-1.58s.71-1.57,1.58-1.57,1.58.71,1.58,1.57-.71,1.58-1.58,1.58Zm0-5.04c-1.91,0-3.46,1.55-3.46,3.46s1.55,3.47,3.46,3.47,3.47-1.55,3.47-3.47c0-.61-.17-1.17-.45-1.67l20.27-20.27c.52.29,1.1.45,1.68.45.89,0,1.77-.34,2.45-1.01s1.01-1.52,1.01-2.45-.36-1.79-1.01-2.45c-1.35-1.35-3.55-1.35-4.9,0-.65.65-1.01,1.53-1.01,2.45,0,.6.17,1.17.45,1.68l-20.27,20.27c-.5-.28-1.07-.45-1.68-.45Zm271.71,21.04c.87,0,1.58.71,1.58,1.58s-.71,1.58-1.58,1.58-1.58-.71-1.58-1.58.71-1.58,1.58-1.58Zm-9.87-63.42c-.87,0-1.57-.7-1.57-1.57s.7-1.58,1.57-1.58,1.58.71,1.58,1.58-.71,1.57-1.58,1.57Zm6.4,65c0,1.91,1.55,3.47,3.46,3.47s3.46-1.55,3.46-3.47c0-1.58-1.07-2.9-2.52-3.32v-53.12c0-.25-.1-.49-.27-.67l-7.61-7.62c.34-.54.55-1.17.55-1.85,0-1.91-1.55-3.46-3.47-3.46s-3.46,1.55-3.46,3.46,1.55,3.47,3.46,3.47c.54,0,1.05-.14,1.5-.36l7.42,7.42v52.72c-1.45.42-2.52,1.74-2.52,3.32Zm-296.2-.43c.87,0,1.57.7,1.57,1.58s-.7,1.57-1.57,1.57-1.58-.71-1.58-1.57.71-1.58,1.58-1.58Zm-1.58-18.72c0-.87.71-1.57,1.58-1.57s1.57.71,1.57,1.57-.7,1.58-1.57,1.58-1.58-.71-1.58-1.58Zm-1.89,20.3c0,1.91,1.55,3.46,3.47,3.46s3.46-1.55,3.46-3.46c0-1.58-1.07-2.9-2.52-3.32v-13.67c1.45-.41,2.52-1.73,2.52-3.32,0-1.91-1.55-3.46-3.46-3.46s-3.47,1.55-3.47,3.46c0,1.58,1.07,2.9,2.52,3.32v13.67c-1.45.41-2.52,1.73-2.52,3.32Zm153.86-256.82c.87,0,1.58.71,1.58,1.58s-.71,1.58-1.58,1.58-1.57-.71-1.57-1.58.71-1.58,1.57-1.58Zm113.27,60.98c.87,0,1.58.7,1.58,1.57s-.71,1.58-1.58,1.58-1.57-.71-1.57-1.58.71-1.57,1.57-1.57Zm-113.27-55.95c1.58,0,2.9-1.07,3.32-2.52h21.61l60.71,60.71c.18.18.42.28.67.28h23.65c.41,1.45,1.74,2.52,3.31,2.52,1.91,0,3.47-1.55,3.47-3.47s-1.55-3.46-3.47-3.46c-1.58,0-2.9,1.07-3.31,2.52h-23.26l-60.7-60.71c-.18-.18-.42-.27-.67-.27h-22c-.41-1.45-1.73-2.52-3.32-2.52-1.91,0-3.46,1.56-3.46,3.47s1.55,3.46,3.46,3.46Zm-145.41,158.68l-17.16,17.16v-2.67l15.55-15.55v-74.14l-15.55-15.55v-2.67l17.16,17.16c.18.18.28.42.28.67v74.92c0,.25-.1.49-.28.67Zm537.15-99.48c0-.87.71-1.58,1.58-1.58s1.58.71,1.58,1.58-.71,1.57-1.58,1.57-1.58-.71-1.58-1.57Zm-47.36,178.03v-91.3l50.24-50.25c.18-.18.27-.42.27-.67v-32.75c1.11-.58,1.88-1.72,1.88-3.06,0-1.91-1.56-3.46-3.47-3.46s-3.46,1.55-3.46,3.46c0,1.81,1.39,3.28,3.16,3.43v31.99l-50.25,50.25c-.17.18-.27.42-.27.67v92.08c0,.25.1.49.27.67l61.47,61.47v-2.67l-59.85-59.85Zm-454.23-100.63c.87,0,1.58.71,1.58,1.58s-.71,1.57-1.58,1.57-1.58-.71-1.58-1.57.71-1.58,1.58-1.58Zm-37.63-77.5c-.87,0-1.57-.71-1.57-1.58s.7-1.57,1.57-1.57,1.58.7,1.58,1.57-.71,1.58-1.58,1.58Zm25.59,22.68l-22.58-22.58c.28-.5.45-1.06.45-1.68,0-1.91-1.55-3.46-3.46-3.46s-3.46,1.55-3.46,3.46,1.55,3.47,3.46,3.47c.61,0,1.18-.17,1.68-.45l22.3,22.3v42.85c0,.25.1.49.27.67l10.29,10.29c-.23.46-.37.98-.37,1.53,0,1.91,1.55,3.46,3.46,3.46s3.46-1.56,3.46-3.46-1.55-3.47-3.46-3.47c-.67,0-1.29.2-1.82.53l-9.94-9.94v-42.85c0-.25-.1-.49-.28-.67Zm22.2,29.74c.87,0,1.58.71,1.58,1.58s-.71,1.58-1.58,1.58-1.58-.71-1.58-1.58.71-1.58,1.58-1.58Zm-3.46,1.58c0,1.91,1.55,3.46,3.46,3.46s3.47-1.55,3.47-3.46c0-1.58-1.07-2.9-2.52-3.32v-18.84c0-.25-.1-.49-.27-.67l-63.55-63.55v2.67l61.94,61.93v18.45c-1.45.41-2.52,1.74-2.52,3.32Zm27.59,82.73c.3-.3.7-.46,1.12-.46s.82.16,1.11.46c.61.61.61,1.61,0,2.23-.6.6-1.63.6-2.23,0-.61-.61-.61-1.61,0-2.23Zm-6.37,25.38c-.62.61-1.61.61-2.23,0-.61-.61-.61-1.61,0-2.23.61-.61,1.61-.61,2.23,0,.61.61.61,1.61,0,2.23Zm.56-4.12c-1.31-.73-3.01-.56-4.12.56-1.35,1.35-1.35,3.55,0,4.9.68.68,1.56,1.01,2.45,1.01s1.77-.34,2.45-1.01c1.12-1.12,1.3-2.81.56-4.12l6.04-6.04c.18-.17.27-.41.27-.67v-11.39c.65-.14,1.24-.45,1.72-.93,1.35-1.35,1.35-3.55,0-4.9-1.31-1.31-3.59-1.31-4.9,0-1.35,1.35-1.35,3.55,0,4.9.37.37.81.63,1.29.8v11.13l-5.76,5.76Zm14.87-99.89c-.87,0-1.58-.71-1.58-1.58s.7-1.58,1.58-1.58,1.57.71,1.57,1.58-.71,1.58-1.57,1.58Zm1.86,55.11c0,.87-.7,1.57-1.57,1.57s-1.58-.71-1.58-1.57.71-1.58,1.58-1.58,1.57.71,1.57,1.58Zm1.6-56.68c0-1.91-1.55-3.47-3.46-3.47s-3.47,1.55-3.47,3.47c0,1.69,1.21,3.09,2.81,3.4v49.96c-1.45.41-2.52,1.74-2.52,3.32,0,1.91,1.55,3.46,3.46,3.46s3.46-1.56,3.46-3.46c0-1.58-1.07-2.9-2.52-3.32v-50.14c1.3-.5,2.23-1.75,2.23-3.23Zm90.74-98.35c-.87,0-1.58-.71-1.58-1.58s.71-1.58,1.58-1.58,1.57.71,1.57,1.58-.7,1.58-1.57,1.58Zm178.7,83.38c.87,0,1.58.71,1.58,1.58s-.7,1.57-1.58,1.57-1.57-.7-1.57-1.57.7-1.58,1.57-1.58Zm0,5.04c1.91,0,3.47-1.55,3.47-3.46s-1.55-3.47-3.47-3.47c-.61,0-1.18.17-1.67.45l-20.64-20.64c-.18-.18-.42-.28-.67-.28h-92.29l-60.61-60.6c.4-.57.64-1.25.64-2,0-1.91-1.55-3.46-3.46-3.46s-3.46,1.55-3.46,3.46,1.55,3.46,3.46,3.46c.48,0,.93-.1,1.35-.27l61.02,61.02c.18.18.42.28.67.28h92.29l20.37,20.37c-.28.5-.45,1.07-.45,1.68,0,1.91,1.55,3.46,3.46,3.46Zm-272.62-11.59c-.87,0-1.58-.71-1.58-1.58s.71-1.57,1.58-1.57,1.57.7,1.57,1.57-.7,1.58-1.57,1.58Zm-80.39,179.12c-.87,0-1.58-.71-1.58-1.58s.71-1.58,1.58-1.58,1.58.71,1.58,1.58-.71,1.58-1.58,1.58Zm31.71-33.92c-.25,0-.49.1-.67.27l-29.16,29.17c-.54-.35-1.18-.56-1.88-.56-1.91,0-3.47,1.55-3.47,3.46s1.56,3.46,3.47,3.46,3.46-1.55,3.46-3.46c0-.53-.13-1.03-.34-1.47l28.98-28.98h42.92c.25,0,.49-.1.67-.28l20.6-20.6c.18-.17.28-.41.28-.66v-111.89c0-.25-.1-.49-.28-.67l-12.88-12.88c.28-.5.45-1.07.45-1.68,0-1.91-1.55-3.47-3.46-3.47s-3.46,1.56-3.46,3.47,1.55,3.47,3.46,3.47c.61,0,1.18-.17,1.68-.45l12.61,12.61v111.11l-20.04,20.05h-42.92Zm136.91-214.47c0-.87.7-1.57,1.57-1.57s1.58.7,1.58,1.57-.71,1.58-1.58,1.58-1.57-.71-1.57-1.58Zm11.86,20.87c.87,0,1.58.71,1.58,1.58s-.71,1.58-1.58,1.58-1.57-.71-1.57-1.58.71-1.58,1.57-1.58Zm0,5.04c1.91,0,3.47-1.55,3.47-3.46s-1.55-3.46-3.47-3.46c-.53,0-1.03.13-1.48.34l-7.87-7.87v-8.15c1.45-.41,2.52-1.74,2.52-3.32,0-1.91-1.56-3.47-3.47-3.47s-3.47,1.56-3.47,3.47c0,1.58,1.07,2.9,2.52,3.32v8.54c0,.25.1.49.28.67l8.05,8.05c-.35.54-.56,1.18-.56,1.87,0,1.91,1.55,3.46,3.46,3.46Zm-168.58,198.54c0,.87-.7,1.57-1.57,1.57s-1.58-.7-1.58-1.57.71-1.58,1.58-1.58,1.57.71,1.57,1.58Zm18.74-222.6l-46.61-46.6v2.67l44.99,44.99v19.54c0,.25.1.49.27.67l37.26,37.26v86.23l-56.81,56.81c-.18.17-.28.41-.28.67v17.01c-1.49.38-2.61,1.73-2.61,3.35,0,1.91,1.55,3.46,3.47,3.46s3.46-1.55,3.46-3.46c0-1.55-1.03-2.84-2.43-3.29v-16.68l56.81-56.81c.18-.18.27-.42.27-.67v-87.01c0-.25-.1-.49-.27-.67l-37.26-37.26v-19.55c0-.25-.1-.49-.27-.67Zm72.34,303.07c.87,0,1.58.7,1.58,1.57s-.71,1.58-1.58,1.58-1.57-.71-1.57-1.58.7-1.57,1.57-1.57Zm-58.91-15.48c-.87,0-1.58-.7-1.58-1.57s.71-1.58,1.58-1.58,1.58.71,1.58,1.58-.71,1.57-1.58,1.57Zm55.44,17.05c0,1.91,1.55,3.47,3.46,3.47s3.47-1.55,3.47-3.47c0-1.54-1.01-2.83-2.4-3.28v-16.29c0-.25-.1-.49-.28-.67l-17.67-17.67c-.18-.18-.42-.28-.67-.28h-22.74c-.25,0-.49.1-.67.28l-16.27,16.27c-.5-.27-1.06-.45-1.67-.45-1.91,0-3.47,1.56-3.47,3.47s1.55,3.47,3.47,3.47,3.46-1.56,3.46-3.47c0-.61-.17-1.18-.46-1.68l15.99-15.99h21.96l17.12,17.12v15.83c-1.51.37-2.64,1.73-2.64,3.35Zm5.98-37.94c.87,0,1.58.71,1.58,1.58s-.71,1.57-1.58,1.57-1.57-.71-1.57-1.57.7-1.58,1.57-1.58Zm-65.16-27.92h26.85l19.95,19.95c.18.18.42.28.67.28h7.09l7.59,7.58c-.28.5-.45,1.07-.45,1.68,0,1.91,1.55,3.46,3.46,3.46s3.46-1.55,3.46-3.46-1.55-3.47-3.46-3.47c-.61,0-1.17.17-1.67.45l-7.87-7.86c-.17-.18-.41-.28-.66-.28h-7.09l-19.95-19.96c-.18-.18-.42-.27-.67-.27h-27.63c-.25,0-.49.1-.67.27l-55.25,55.25v2.67l56.31-56.31Zm218.22,46.47c-.87,0-1.57-.71-1.57-1.58s.71-1.58,1.57-1.58,1.58.71,1.58,1.58-.71,1.58-1.58,1.58Zm13.29,65.02c.18-.18.28-.42.28-.67v-10.93l11.41-11.41c.18-.18.27-.42.27-.67v-19.35c0-.25-.1-.49-.27-.67l-21.72-21.73c.13-.37.22-.76.22-1.17,0-1.91-1.56-3.47-3.47-3.47s-3.46,1.55-3.46,3.47,1.56,3.46,3.46,3.46c.8,0,1.53-.28,2.13-.75l21.24,21.24v18.57l-11.41,11.41c-.18.18-.28.41-.28.67v10.93l-7.34,7.34c-.18.18-.28.42-.28.67v12.61h1.89v-12.22l7.34-7.34Zm-193.98-71.45c-.87,0-1.58-.7-1.58-1.57s.71-1.58,1.58-1.58,1.57.71,1.57,1.58-.71,1.57-1.57,1.57Zm12.12,8.97c.87,0,1.58.71,1.58,1.58s-.71,1.58-1.58,1.58-1.58-.71-1.58-1.58.71-1.58,1.58-1.58Zm0,5.04c1.91,0,3.46-1.56,3.46-3.46s-1.55-3.47-3.46-3.47c-.61,0-1.18.17-1.68.45l-7.43-7.43c.28-.5.45-1.07.45-1.68,0-1.91-1.56-3.47-3.46-3.47s-3.47,1.55-3.47,3.47,1.55,3.46,3.47,3.46c.61,0,1.17-.17,1.68-.45l7.43,7.43c-.28.5-.45,1.07-.45,1.68,0,1.91,1.55,3.46,3.46,3.46Zm33.73-71.8c.87,0,1.58.71,1.58,1.58s-.7,1.57-1.58,1.57-1.57-.7-1.57-1.57.71-1.58,1.57-1.58Zm-8.27,11.18l6.59-6.59c.5.28,1.07.45,1.67.45,1.91,0,3.47-1.55,3.47-3.46s-1.55-3.47-3.47-3.47-3.46,1.55-3.46,3.47c0,.61.17,1.18.45,1.67l-6.31,6.32h-77.05c-.25,0-.49.1-.67.28l-52.64,52.64v2.67l53.7-53.7h77.05c.25,0,.49-.1.67-.27Zm153.6,74.85c.87,0,1.58.71,1.58,1.58s-.71,1.57-1.58,1.57-1.57-.7-1.57-1.57.7-1.58,1.57-1.58Zm-10.49-7.34c-.87,0-1.57-.7-1.57-1.57s.71-1.58,1.57-1.58,1.58.71,1.58,1.58-.71,1.57-1.58,1.57Zm0-5.04c-1.91,0-3.46,1.55-3.46,3.47s1.56,3.46,3.46,3.46c.61,0,1.18-.17,1.68-.45l5.8,5.8c-.28.5-.45,1.07-.45,1.68,0,1.91,1.55,3.47,3.46,3.47s3.47-1.56,3.47-3.47-1.55-3.46-3.47-3.46c-.61,0-1.18.17-1.67.45l-5.8-5.8c.28-.5.45-1.06.45-1.67,0-1.91-1.56-3.47-3.47-3.47Zm-37.19-20.05c.87,0,1.58.71,1.58,1.57s-.71,1.58-1.58,1.58-1.57-.71-1.57-1.58.7-1.57,1.57-1.57Zm14.23,86.49l-9.56-9.57v-18.41c0-.25-.1-.49-.28-.67l-11.59-11.59v-35.43l6.01-6.01c.37.14.77.22,1.19.22,1.91,0,3.47-1.55,3.47-3.47s-1.55-3.46-3.47-3.46-3.46,1.56-3.46,3.46c0,.8.28,1.52.73,2.11l-6.08,6.08c-.18.18-.28.42-.28.67v36.21c0,.25.1.49.28.67l11.59,11.59v18.42c0,.25.1.49.27.67l9.57,9.56v7.65h1.89v-8.04c0-.25-.1-.49-.28-.67Zm-224.91-53.96c0-.87.71-1.57,1.58-1.57s1.57.71,1.57,1.57-.7,1.58-1.57,1.58-1.58-.71-1.58-1.58Zm17.49,62.66v-22.67c0-.25-.1-.49-.27-.67l-14.7-14.7v-21.31c1.45-.41,2.52-1.73,2.52-3.32,0-1.91-1.56-3.46-3.47-3.46s-3.47,1.55-3.47,3.46c0,1.58,1.07,2.9,2.52,3.32v21.7c0,.25.1.49.28.67l14.7,14.7v22.28h1.89Zm-9.07-74.83c-.87,0-1.57-.7-1.57-1.57s.7-1.58,1.57-1.58,1.58.71,1.58,1.58-.71,1.57-1.58,1.57Zm17.21,74.83v-36.78c0-.25-.1-.49-.28-.66l-9.7-9.7v-22.97c0-.25-.1-.49-.27-.67l-3.94-3.94c.28-.5.45-1.07.45-1.68,0-1.91-1.55-3.47-3.47-3.47s-3.46,1.56-3.46,3.47,1.55,3.47,3.46,3.47c.61,0,1.18-.17,1.68-.45l3.66,3.66v22.97c0,.25.1.49.28.67l9.7,9.7v36.38h1.89Zm193.03-128.77c-.87,0-1.57-.71-1.57-1.58s.71-1.57,1.57-1.57,1.58.7,1.58,1.57-.71,1.58-1.58,1.58Zm26.59,73.62l-15.35-15.35v-49.25c0-.25-.1-.49-.28-.67l-8.05-8.05c.35-.54.56-1.18.56-1.87,0-1.91-1.56-3.47-3.47-3.47s-3.46,1.56-3.46,3.47,1.55,3.47,3.46,3.47c.53,0,1.03-.13,1.48-.34l7.87,7.87v49.25c0,.25.1.49.28.67l15.35,15.35v54.09h1.89v-54.48c0-.25-.1-.49-.28-.67Zm-198.64-17.01c-.87,0-1.58-.71-1.58-1.58s.71-1.57,1.58-1.57,1.57.7,1.57,1.57-.7,1.58-1.57,1.58Zm1.57,26.19c0,.87-.7,1.57-1.57,1.57s-1.58-.71-1.58-1.57.71-1.58,1.58-1.58,1.57.7,1.57,1.58Zm1.89-27.77c0-1.91-1.55-3.46-3.46-3.46s-3.46,1.55-3.46,3.46c0,1.58,1.07,2.9,2.52,3.32v21.13c-1.45.41-2.52,1.73-2.52,3.32,0,1.91,1.55,3.46,3.46,3.46s3.46-1.55,3.46-3.46c0-1.58-1.07-2.9-2.52-3.32v-21.13c1.45-.41,2.52-1.74,2.52-3.32Zm-24.03-166.54c.87,0,1.58.7,1.58,1.57s-.71,1.58-1.58,1.58-1.58-.71-1.58-1.58.71-1.57,1.58-1.57Zm-8.12,10.87c.25,0,.49-.1.67-.27l5.92-5.92c.47.23.98.37,1.53.37,1.91,0,3.46-1.55,3.46-3.47s-1.55-3.46-3.46-3.46-3.46,1.55-3.46,3.46c0,.67.2,1.3.53,1.83l-5.58,5.58h-15.52c-.25,0-.49.1-.67.27l-28.02,28.02v2.67l29.08-29.08h15.52Zm287.85,103.36c0,.87-.71,1.57-1.58,1.57s-1.58-.7-1.58-1.57.71-1.58,1.58-1.58,1.58.71,1.58,1.58Zm-41.89-96.58c-.87,0-1.58-.71-1.58-1.57s.71-1.58,1.58-1.58,1.57.71,1.57,1.58-.7,1.57-1.57,1.57Zm40.98,16.79l-19.03-19.03c-.17-.18-.41-.28-.67-.28h-17.96c-.41-1.45-1.74-2.52-3.32-2.52-1.91,0-3.47,1.56-3.47,3.47s1.56,3.46,3.47,3.46c1.58,0,2.9-1.07,3.32-2.52h17.57l18.48,18.48v75.42c-1.45.41-2.52,1.74-2.52,3.32,0,1.91,1.55,3.46,3.46,3.46s3.46-1.55,3.46-3.46c0-1.58-1.07-2.9-2.52-3.32v-75.8c0-.25-.1-.49-.27-.67Zm-302.72-76.62c.87,0,1.57.71,1.57,1.58s-.71,1.58-1.57,1.58-1.58-.71-1.58-1.58.71-1.58,1.58-1.58Zm-1.58-26.62c0-.87.71-1.58,1.58-1.58s1.57.71,1.57,1.58-.71,1.57-1.57,1.57-1.58-.7-1.58-1.57Zm-1.89,28.19c0,1.91,1.55,3.46,3.47,3.46s3.46-1.55,3.46-3.46c0-1.58-1.07-2.9-2.52-3.32v-21.56c1.45-.41,2.52-1.74,2.52-3.32,0-1.91-1.55-3.46-3.46-3.46s-3.47,1.55-3.47,3.46c0,1.58,1.07,2.9,2.52,3.32v21.56c-1.45.42-2.52,1.74-2.52,3.32Zm297.47-3.21c-.87,0-1.58-.7-1.58-1.57s.71-1.58,1.58-1.58,1.57.71,1.57,1.58-.7,1.57-1.57,1.57Zm102.44,268.9l9.96-9.96c.18-.18.28-.41.28-.67v-49.12c0-.25-.1-.49-.28-.67l-13.26-13.26v-20.63l15.78-15.78c.18-.18.27-.41.27-.67v-63.61c0-.25-.1-.49-.27-.67l-27.79-27.79c-.18-.17-.42-.27-.67-.27h-17.75l-65.69-65.69c.28-.5.45-1.07.45-1.68,0-1.91-1.55-3.47-3.46-3.47s-3.47,1.55-3.47,3.47,1.55,3.47,3.47,3.47c.61,0,1.18-.17,1.67-.45l65.97,65.97c.18.18.42.27.67.27h17.75l27.24,27.24v62.83l-15.78,15.78c-.18.18-.28.42-.28.67v21.41c0,.25.1.49.28.67l13.26,13.27v48.34l-9.96,9.96c-.18.18-.28.42-.28.67v15.58h1.89v-15.19Zm-107.12-185.51c-.87,0-1.57-.71-1.57-1.58s.7-1.57,1.57-1.57,1.58.7,1.58,1.57-.71,1.58-1.58,1.58Zm1.58,67.95c0,.87-.71,1.58-1.58,1.58s-1.57-.71-1.57-1.58.7-1.57,1.57-1.57,1.58.7,1.58,1.57Zm1.89-69.52c0-1.91-1.55-3.46-3.47-3.46s-3.46,1.55-3.46,3.46c0,1.58,1.07,2.9,2.52,3.32v62.89c-1.45.41-2.52,1.74-2.52,3.31,0,1.91,1.55,3.47,3.46,3.47s3.47-1.55,3.47-3.47c0-1.58-1.07-2.9-2.52-3.31v-62.89c1.45-.41,2.52-1.74,2.52-3.32Zm-166.99-68.53c0-.87.71-1.58,1.58-1.58s1.57.71,1.57,1.58-.7,1.57-1.57,1.57-1.58-.7-1.58-1.57Zm13.31,74.5v-22.02c0-.25-.1-.49-.28-.67l-10.63-10.63v-37.84c1.51-.37,2.64-1.73,2.64-3.35,0-1.91-1.55-3.46-3.46-3.46s-3.47,1.55-3.47,3.46c0,1.54,1.01,2.83,2.4,3.28v38.3c0,.25.1.49.28.66l10.63,10.63v21.23l-51.17,51.17h-64.16c-.25,0-.49.1-.67.28l-50.03,50.03v2.67l51.09-51.09h64.16c.25,0,.49-.1.67-.28l51.72-51.72c.18-.17.28-.41.28-.66Zm-118.88-97.97c0-.87.7-1.58,1.57-1.58s1.58.71,1.58,1.58-.71,1.57-1.58,1.57-1.57-.7-1.57-1.57Zm-13.6,74.57h17.28c.25,0,.49-.1.67-.27l11.86-11.86c.18-.18.28-.42.28-.67v-32.11c0-.25-.1-.49-.28-.67l-13.92-13.92v-11.69c1.57-.33,2.75-1.72,2.75-3.39,0-1.91-1.55-3.47-3.47-3.47s-3.46,1.55-3.46,3.47c0,1.49.96,2.76,2.29,3.24v12.22c0,.25.1.49.27.67l13.92,13.92v31.32l-11.3,11.31h-17.28c-.25,0-.49.1-.67.27l-34.38,34.38v2.67l35.44-35.44Zm234.94,113.69c-.87,0-1.57-.71-1.57-1.58s.71-1.58,1.57-1.58,1.58.71,1.58,1.58-.71,1.58-1.58,1.58Zm27.84,87.23c.17-.18.27-.41.27-.67v-8.74l10.6-10.6c.17-.18.27-.41.27-.67v-30.07c0-.25-.1-.49-.27-.67l-35.71-35.71c.28-.5.45-1.07.45-1.68,0-1.91-1.55-3.46-3.47-3.46s-3.46,1.55-3.46,3.46,1.56,3.46,3.46,3.46c.61,0,1.18-.17,1.68-.45l35.43,35.43v29.29l-10.6,10.6c-.18.18-.28.42-.28.67v8.75l-7.78,7.77c-.17.18-.27.42-.27.67v11.4h1.89v-11.01l7.78-7.78ZM110.91,414.43c-.62-.62-.62-1.61,0-2.23.29-.29.69-.46,1.11-.46s.81.17,1.11.46c.62.61.62,1.61,0,2.23s-1.63.59-2.22,0Zm11.32,24.84c.62-.61,1.61-.61,2.23,0,.61.61.61,1.61,0,2.23-.6.6-1.63.6-2.23,0-.61-.61-.61-1.61,0-2.23Zm-1.34,3.56c.66.66,1.53,1.02,2.45,1.02s1.8-.36,2.45-1.02c1.35-1.35,1.35-3.55,0-4.9-1.12-1.12-2.81-1.3-4.13-.56l-8.7-8.7v-12.04c.56-.16,1.08-.44,1.51-.87,1.35-1.35,1.35-3.55,0-4.9s-3.59-1.31-4.9,0c-1.35,1.35-1.35,3.55,0,4.9.42.43.94.71,1.5.87v12.43c0,.25.1.49.28.67l8.98,8.98c-.73,1.32-.55,3.01.56,4.12Zm2.97,31.67l-40.66,40.66v-2.67l39.6-39.6c.17-.18.41-.27.67-.27h17.28l18.68-18.69v-81.01l-76.23-76.23v-2.67l77.84,77.84c.18.17.28.41.28.67v81.79c0,.25-.1.49-.28.67l-19.23,19.23c-.18.18-.42.27-.67.27h-17.28Zm29.28-23.18v-75.79l-69.93-69.93v-2.67l71.55,71.55c.18.18.27.42.27.67v76.58c0,.25-.1.49-.27.67l-15.55,15.55c-.18.18-.42.28-.67.28h-17.28l-38.05,38.05v-2.67l36.99-36.99c.18-.18.42-.28.67-.28h17.28l14.99-14.99Zm-53.97,161.24c-.87,0-1.58-.71-1.58-1.58s.71-1.58,1.58-1.58,1.58.71,1.58,1.58-.71,1.58-1.58,1.58Zm34.65-37.6c.87,0,1.58.71,1.58,1.58s-.71,1.58-1.58,1.58-1.57-.71-1.57-1.58.7-1.58,1.57-1.58Zm0,5.04c1.91,0,3.47-1.55,3.47-3.46s-1.55-3.46-3.47-3.46-3.46,1.55-3.46,3.46c0,.61.17,1.18.45,1.68l-29.83,29.83c-.53-.33-1.14-.52-1.81-.52-1.91,0-3.47,1.55-3.47,3.46s1.56,3.47,3.47,3.47,3.46-1.55,3.46-3.47c0-.56-.15-1.08-.38-1.55l29.89-29.89c.5.28,1.06.45,1.67.45Zm301.57,23.54c.87,0,1.58.71,1.58,1.58s-.71,1.57-1.58,1.57-1.58-.7-1.58-1.57.71-1.58,1.58-1.58Zm14.49,78.06v-18.72c0-.25-.1-.49-.28-.67l-23.46-23.46v-22.56l7.89-7.89c.42.18.87.28,1.35.28,1.91,0,3.46-1.55,3.46-3.47s-1.55-3.47-3.46-3.47-3.46,1.56-3.46,3.47c0,.74.24,1.43.64,1.99l-8.03,8.03c-.18.17-.28.41-.28.67v23.34c0,.25.1.49.28.67l23.46,23.46v18.33h1.89Zm-84.63-146.79c-.87,0-1.58-.71-1.58-1.58s.71-1.58,1.58-1.58,1.57.71,1.57,1.58-.7,1.58-1.57,1.58Zm75.85,146.79v-15.16c0-.25-.1-.49-.28-.67l-22.56-22.56v-40.31c0-.25-.1-.49-.28-.67l-51.37-51.37v-14.45c1.23-.53,2.1-1.75,2.1-3.18,0-1.91-1.56-3.46-3.47-3.46s-3.47,1.55-3.47,3.46c0,1.73,1.28,3.16,2.94,3.41v14.61c0,.25.1.49.28.67l51.37,51.37v40.31c0,.25.1.49.27.66l22.56,22.56v14.77h1.89ZM208.8,202.59c-.87,0-1.57-.71-1.57-1.57s.7-1.58,1.57-1.58,1.58.7,1.58,1.58-.7,1.57-1.58,1.57Zm246.57,168.36c.87,0,1.58.71,1.58,1.58s-.71,1.57-1.58,1.57-1.57-.7-1.57-1.57.71-1.58,1.57-1.58Zm-243.1-169.93c0-1.91-1.55-3.47-3.47-3.47s-3.46,1.55-3.46,3.47c0,1.58,1.07,2.9,2.52,3.31v21.43c0,.25.1.49.28.67l16.99,16.99c.18.18.42.27.67.27h51.39l42.97,42.97c.18.18.42.28.67.28h10.37l30.86,30.86c.17.18.41.28.67.28h6.49l37.66,37.66c.17.18.41.28.67.28h29.99l14.84,14.84c-.28.5-.45,1.06-.45,1.68,0,1.91,1.55,3.46,3.46,3.46s3.47-1.55,3.47-3.46-1.55-3.46-3.47-3.46c-.61,0-1.18.17-1.67.45l-15.12-15.11c-.18-.18-.42-.28-.67-.28h-29.99l-37.66-37.66c-.18-.18-.41-.28-.67-.28h-6.5l-30.86-30.86c-.18-.18-.42-.27-.67-.27h-10.37l-42.97-42.97c-.17-.17-.41-.28-.66-.28h-51.39l-16.43-16.43v-21.04c1.45-.41,2.52-1.74,2.52-3.31Zm225.65,432.85c-.87,0-1.58-.71-1.58-1.58s.71-1.58,1.58-1.58,1.58.71,1.58,1.58-.71,1.58-1.58,1.58Zm28.02,47.74v-22.23c0-.25-.1-.49-.28-.67l-24.73-24.73c.28-.5.45-1.07.45-1.68,0-1.91-1.55-3.46-3.46-3.46s-3.47,1.55-3.47,3.46,1.55,3.46,3.47,3.46c.61,0,1.17-.17,1.68-.45l24.45,24.45v21.84h1.89Zm-126.77-197.12c0-.87.71-1.58,1.58-1.58s1.57.71,1.57,1.58-.71,1.58-1.57,1.58-1.58-.71-1.58-1.58Zm68.32,118.38l-65.81-65.81v-49.25c1.45-.42,2.52-1.74,2.52-3.32,0-1.91-1.56-3.46-3.46-3.46s-3.47,1.55-3.47,3.46c0,1.58,1.07,2.9,2.52,3.32v49.64c0,.25.1.49.28.67l65.81,65.81v77.69h1.89v-78.08c0-.25-.1-.49-.28-.67ZM168.23,132.05c-.87,0-1.58-.71-1.58-1.57s.7-1.58,1.58-1.58,1.57.71,1.57,1.58-.7,1.57-1.57,1.57Zm93.65-13.64h-67.56c-.25,0-.49.1-.67.28l-10.85,10.84h-11.26c-.41-1.45-1.74-2.52-3.31-2.52-1.91,0-3.47,1.56-3.47,3.47s1.55,3.46,3.47,3.46c1.58,0,2.9-1.07,3.31-2.52h11.65c.25,0,.49-.1.67-.27l10.84-10.85h67.56c.25,0,.49-.1.67-.28l5.23-5.22h-2.67l-3.61,3.61Zm370.08,500.72c.87,0,1.58.71,1.58,1.58s-.71,1.58-1.58,1.58-1.57-.71-1.57-1.58.71-1.58,1.57-1.58Zm-45.76-24.44c-.87,0-1.58-.71-1.58-1.58s.71-1.57,1.58-1.57,1.57.7,1.57,1.57-.71,1.58-1.57,1.58Zm0-5.04c-1.91,0-3.47,1.55-3.47,3.46s1.55,3.47,3.47,3.47c.61,0,1.17-.17,1.67-.45l25.25,25.24c.18.18.41.27.66.27h14.86c.41,1.45,1.74,2.52,3.31,2.52,1.91,0,3.47-1.55,3.47-3.46s-1.55-3.46-3.47-3.46c-1.58,0-2.9,1.07-3.31,2.52h-14.47l-24.97-24.97c.28-.5.45-1.06.45-1.68,0-1.91-1.56-3.46-3.46-3.46Zm-165.41,78.44c0-.87.71-1.58,1.57-1.58s1.58.71,1.58,1.58-.71,1.57-1.58,1.57-1.57-.71-1.57-1.57Zm2.61,13.5v-10.22c1.4-.44,2.43-1.74,2.43-3.29,0-1.91-1.55-3.47-3.47-3.47s-3.46,1.55-3.46,3.47c0,1.61,1.12,2.96,2.61,3.34v10.16h1.89ZM200.98,138.56c-.87,0-1.58-.71-1.58-1.58s.71-1.57,1.58-1.57,1.58.7,1.58,1.57-.71,1.58-1.58,1.58Zm66.12-7.56h-38.5c-.25,0-.49.1-.67.28l-4.76,4.76h-18.87c-.42-1.45-1.74-2.52-3.32-2.52-1.91,0-3.46,1.56-3.46,3.47s1.55,3.46,3.46,3.46c1.58,0,2.9-1.07,3.32-2.52h19.26c.25,0,.49-.1.67-.27l4.76-4.76h38.5c.25,0,.49-.1.67-.28l17.82-17.82h-2.67l-16.2,16.2Zm206.75,521.19c.87,0,1.58.71,1.58,1.58s-.71,1.57-1.58,1.57-1.57-.71-1.57-1.57.71-1.58,1.57-1.58Zm-8.86-5.21c-.87,0-1.57-.71-1.57-1.58s.7-1.57,1.57-1.57,1.58.71,1.58,1.57-.71,1.58-1.58,1.58Zm0-5.04c-1.91,0-3.46,1.55-3.46,3.46s1.55,3.47,3.46,3.47c.61,0,1.18-.17,1.68-.45l4,4c-.17.41-.27.87-.27,1.35,0,1.91,1.55,3.46,3.46,3.46s3.47-1.56,3.47-3.46-1.55-3.47-3.47-3.47c-.74,0-1.43.24-1.99.64l-3.86-3.86c.28-.5.45-1.07.45-1.68,0-1.91-1.56-3.46-3.47-3.46ZM178.83,234.88c.87,0,1.57.7,1.57,1.57s-.7,1.58-1.57,1.58-1.58-.71-1.58-1.58.71-1.57,1.58-1.57Zm-23.09-120.08v99.5c0,.25.1.49.28.67l19.8,19.8c-.28.5-.45,1.07-.45,1.68,0,1.91,1.56,3.47,3.47,3.47s3.47-1.56,3.47-3.47-1.56-3.47-3.47-3.47c-.61,0-1.18.18-1.68.45l-19.53-19.53v-99.12h-1.89Zm386.16,520.95c-.87,0-1.58-.7-1.58-1.57s.71-1.58,1.58-1.58,1.57.71,1.57,1.58-.71,1.57-1.57,1.57Zm33,15.87c-.18-.18-.42-.27-.67-.27h-13.85l-15.47-15.48c.28-.5.46-1.07.46-1.69,0-1.91-1.56-3.47-3.46-3.47s-3.46,1.55-3.46,3.47,1.55,3.46,3.46,3.46c.6,0,1.16-.17,1.66-.44l15.76,15.76c.18.18.41.28.67.28h13.85l28.37,28.37h2.67l-29.98-29.98Zm-150.66-167.14c0-.87.71-1.58,1.58-1.58s1.57.71,1.57,1.58-.71,1.58-1.57,1.58-1.58-.71-1.58-1.58Zm73.86,197.12v-63.44c0-.25-.1-.49-.28-.67l-71.06-71.06v-58.64c1.45-.42,2.52-1.74,2.52-3.32,0-1.91-1.56-3.46-3.46-3.46s-3.47,1.55-3.47,3.46c0,1.58,1.07,2.9,2.52,3.32v59.03c0,.25.1.49.28.67l71.06,71.06v63.05h1.89Zm58.79-21.03c.87,0,1.57.71,1.57,1.58s-.71,1.58-1.57,1.58-1.58-.71-1.58-1.58.71-1.58,1.58-1.58Zm-38.34,11.07l8.55-8.55h26.47c.41,1.45,1.73,2.52,3.32,2.52,1.91,0,3.46-1.55,3.46-3.46s-1.55-3.46-3.46-3.46c-1.58,0-2.9,1.07-3.32,2.52h-26.85c-.25,0-.49.1-.67.27l-9.11,9.11c-.18.18-.27.41-.27.67v10.34h1.89v-9.95Zm-314.42-112.8c.31-.31.71-.46,1.11-.46s.81.15,1.11.46.46.69.46,1.11-.17.82-.46,1.11c-.61.62-1.61.62-2.23,0-.3-.3-.46-.69-.46-1.11s.17-.82.46-1.11Zm-20.93-6.37c-.6.59-1.63.59-2.23,0-.29-.3-.46-.7-.46-1.11s.17-.82.46-1.12c.29-.3.69-.46,1.11-.46s.81.16,1.11.46c.3.3.46.7.46,1.12s-.16.82-.46,1.11Zm1.33-3.56c-1.31-1.31-3.59-1.31-4.9,0-.66.65-1.01,1.52-1.01,2.45s.36,1.79,1.01,2.45,1.52,1.01,2.45,1.01c.6,0,1.17-.17,1.68-.45l6.04,6.04c.18.18.42.28.67.28h11.39c.14.64.45,1.24.93,1.72.68.68,1.56,1.01,2.45,1.01s1.77-.34,2.45-1.01c.65-.65,1.01-1.52,1.01-2.45s-.36-1.79-1.01-2.45c-1.35-1.35-3.55-1.35-4.9,0-.37.37-.63.81-.8,1.29h-11.12l-5.76-5.76c.29-.51.45-1.08.45-1.68,0-.93-.36-1.79-1.01-2.45Zm382.66,25.1c0-.87.71-1.58,1.57-1.58s1.58.71,1.58,1.58-.71,1.58-1.58,1.58-1.57-.71-1.57-1.58Zm60.85,60.29c-.18-.18-.42-.28-.67-.28h-18.87l-38.79-38.79v-17.91c1.45-.41,2.52-1.73,2.52-3.32,0-1.91-1.55-3.46-3.47-3.46s-3.46,1.55-3.46,3.46c0,1.58,1.07,2.9,2.52,3.32v18.3c0,.25.1.49.27.67l39.34,39.34c.18.18.42.28.67.28h18.88l23.02,23.03v-2.67l-21.97-21.97Zm-187.62-11.32c-.87,0-1.58-.7-1.58-1.57s.71-1.58,1.58-1.58,1.58.71,1.58,1.58-.71,1.57-1.58,1.57Zm42.42,58.61v-32.89c0-.25-.1-.49-.27-.67l-12.01-12.01c-.18-.18-.41-.28-.67-.28h-13.46l-12.88-12.87c.21-.45.33-.94.33-1.46,0-1.91-1.55-3.47-3.46-3.47s-3.46,1.56-3.46,3.47,1.55,3.46,3.46,3.46c.7,0,1.35-.21,1.89-.57l13.05,13.05c.18.18.41.27.67.27h13.46l11.46,11.46v32.5h1.89Zm92.32-116.77c-.87,0-1.58-.71-1.58-1.58s.71-1.57,1.58-1.57,1.57.7,1.57,1.57-.7,1.58-1.57,1.58Zm0-5.04c-1.91,0-3.47,1.55-3.47,3.46s1.55,3.47,3.47,3.47c.66,0,1.26-.19,1.79-.51l43.22,43.22c.18.18.42.28.67.28h13.4l15.76,15.75v-2.67l-14.69-14.7c-.18-.17-.42-.27-.67-.27h-13.41l-43-43c.24-.47.39-1,.39-1.56,0-1.91-1.55-3.46-3.46-3.46Zm30.05-172.69c.87,0,1.57.7,1.57,1.57s-.71,1.58-1.57,1.58-1.58-.71-1.58-1.58.71-1.57,1.58-1.57Zm-58.81,171.57v-18.17l21.46-21.46c.18-.18.28-.41.28-.67v-69.4l9.95-9.95c.18-.18.28-.42.28-.67v-21.5l25.17-25.16c.5.28,1.06.45,1.68.45,1.91,0,3.46-1.55,3.46-3.46s-1.55-3.46-3.46-3.46-3.47,1.55-3.47,3.46c0,.61.18,1.18.45,1.68l-25.44,25.44c-.18.18-.27.42-.27.67v21.5l-9.95,9.95c-.18.18-.28.42-.28.67v69.4l-21.46,21.46c-.17.18-.27.41-.27.67v47.79c0,.25.1.49.27.67l93.03,93.03h2.67l-94.09-94.09v-28.84Zm48.27,11.33c-.61.61-1.61.61-2.22,0-.62-.62-.62-1.61,0-2.23.31-.31.71-.46,1.11-.46s.81.15,1.11.46c.62.61.62,1.61,0,2.23Zm1.34-3.57c-1.35-1.35-3.55-1.35-4.9,0s-1.35,3.55,0,4.9c.68.67,1.56,1.01,2.45,1.01.6,0,1.2-.17,1.74-.47l29,29c.18.18.41.28.67.28h14.61l10.43,10.43v-2.67l-9.37-9.37c-.18-.18-.42-.28-.67-.28h-14.61l-28.75-28.75c.7-1.31.51-2.97-.59-4.07Zm-138.55,46.63c-.87,0-1.57-.71-1.57-1.58s.7-1.57,1.57-1.57,1.58.7,1.58,1.57-.71,1.58-1.58,1.58Zm33.72,68.53v-37.33c0-.25-.1-.49-.28-.67l-30.43-30.43c.28-.5.45-1.07.45-1.68,0-1.91-1.55-3.47-3.46-3.47s-3.46,1.55-3.46,3.47,1.55,3.47,3.46,3.47c.61,0,1.18-.17,1.68-.45l30.15,30.16v36.94h1.89Zm77.58-17.88c-.87,0-1.57-.71-1.57-1.58s.71-1.58,1.57-1.58,1.58.71,1.58,1.58-.71,1.58-1.58,1.58Zm3.01.1c.28-.5.45-1.07.45-1.68,0-1.91-1.55-3.46-3.47-3.46s-3.46,1.55-3.46,3.46,1.56,3.46,3.46,3.46c.61,0,1.18-.17,1.68-.45l16.44,16.44h2.67l-17.77-17.77Zm-280.48-188.82c.87,0,1.58.7,1.58,1.57s-.71,1.58-1.58,1.58-1.58-.71-1.58-1.58.71-1.57,1.58-1.57Zm-1.58-43.8c0-.87.71-1.57,1.58-1.57s1.58.71,1.58,1.57-.71,1.58-1.58,1.58-1.58-.71-1.58-1.58Zm-1.89,45.37c0,1.91,1.55,3.47,3.46,3.47s3.46-1.56,3.46-3.47c0-1.58-1.07-2.9-2.52-3.32v-38.74c1.45-.41,2.52-1.74,2.52-3.32,0-1.91-1.55-3.46-3.46-3.46s-3.46,1.56-3.46,3.46c0,1.58,1.07,2.9,2.52,3.32v38.74c-1.45.41-2.52,1.74-2.52,3.32Zm101.92-120.96c-.87,0-1.57-.7-1.57-1.57s.71-1.58,1.57-1.58,1.58.71,1.58,1.58-.71,1.57-1.58,1.57Zm-45.37,0c-.87,0-1.57-.7-1.57-1.57s.71-1.58,1.57-1.58,1.58.71,1.58,1.58-.71,1.57-1.58,1.57Zm45.37-5.04c-1.58,0-2.9,1.07-3.31,2.52h-38.74c-.41-1.45-1.74-2.52-3.32-2.52-1.91,0-3.46,1.55-3.46,3.46s1.56,3.46,3.46,3.46c1.58,0,2.9-1.07,3.32-2.52h38.74c.41,1.45,1.74,2.52,3.31,2.52,1.91,0,3.47-1.55,3.47-3.46s-1.55-3.46-3.47-3.46Zm-104.07,197.56c-.87,0-1.57-.71-1.57-1.58s.7-1.58,1.57-1.58,1.58.71,1.58,1.58-.71,1.58-1.58,1.58Zm-108.93-211.34c-.87,0-1.58-.71-1.58-1.58s.71-1.58,1.58-1.58,1.57.71,1.57,1.58-.7,1.58-1.57,1.58Zm99.81,78.76l-81.01-81c-.18-.18-.42-.28-.67-.28h-14.82c-.41-1.45-1.74-2.52-3.31-2.52-1.91,0-3.47,1.55-3.47,3.46s1.55,3.46,3.47,3.46c1.58,0,2.9-1.07,3.31-2.52h14.43l80.45,80.45v76.89c0,.25.1.49.28.67l16.02,16.02v29.52l-3.85,3.85c-.51-.29-1.09-.47-1.71-.47-1.91,0-3.47,1.55-3.47,3.46s1.56,3.46,3.47,3.46,3.47-1.55,3.47-3.46c0-.59-.17-1.15-.43-1.64l4.15-4.15c.18-.17.27-.41.27-.67v-30.3c0-.25-.1-.49-.27-.67l-16.02-16.02v-76.89c0-.25-.1-.49-.27-.67Zm-8.54,90.13c-.87,0-1.58-.71-1.58-1.58s.71-1.57,1.58-1.57,1.57.71,1.57,1.57-.7,1.58-1.57,1.58Zm12.15,9.33c.87,0,1.57.71,1.57,1.57s-.71,1.58-1.57,1.58-1.58-.71-1.58-1.58.71-1.57,1.58-1.57Zm0,5.04c1.91,0,3.46-1.55,3.46-3.47s-1.56-3.46-3.46-3.46c-.61,0-1.18.17-1.68.45l-7.58-7.58c.36-.54.57-1.19.57-1.89,0-1.91-1.55-3.46-3.46-3.46s-3.47,1.56-3.47,3.46,1.56,3.47,3.47,3.47c.52,0,1.01-.13,1.46-.34l7.68,7.68c-.28.5-.45,1.06-.45,1.67,0,1.91,1.56,3.47,3.47,3.47Zm61.69-191.87c.87,0,1.58.71,1.58,1.58s-.71,1.58-1.58,1.58-1.57-.71-1.57-1.58.7-1.58,1.57-1.58Zm-20.42-16.69c-.87,0-1.57-.71-1.57-1.58s.7-1.57,1.57-1.57,1.58.7,1.58,1.57-.71,1.58-1.58,1.58Zm0-5.04c-1.91,0-3.46,1.56-3.46,3.47s1.55,3.47,3.46,3.47c.8,0,1.53-.29,2.11-.74l15.35,15.34c-.31.52-.5,1.12-.5,1.77,0,1.91,1.55,3.46,3.46,3.46s3.47-1.55,3.47-3.46-1.55-3.46-3.47-3.46c-.57,0-1.1.15-1.58.4l-15.59-15.59c.13-.37.22-.77.22-1.18,0-1.91-1.55-3.47-3.47-3.47Zm231.35,275.91c.87,0,1.58.7,1.58,1.57s-.71,1.58-1.58,1.58-1.57-.71-1.57-1.58.7-1.57,1.57-1.57Zm-1.12-36.02c-.61-.61-.61-1.61,0-2.23.62-.62,1.61-.61,2.23,0,.61.61.61,1.61,0,2.23s-1.61.61-2.23,0Zm-2.35,37.59c0,1.91,1.56,3.47,3.47,3.47s3.47-1.55,3.47-3.47c0-1.58-1.07-2.9-2.52-3.31v-32.07c.55-.16,1.07-.43,1.51-.87,1.35-1.35,1.35-3.55,0-4.9s-3.55-1.35-4.9,0c-1.35,1.35-1.35,3.55,0,4.9.43.43.96.71,1.51.87v32.07c-1.45.41-2.52,1.74-2.52,3.31ZM236.92,273.7c-.87,0-1.57-.71-1.57-1.58s.7-1.57,1.57-1.57,1.58.7,1.58,1.57-.71,1.58-1.58,1.58Zm40.22-3.15c.87,0,1.58.7,1.58,1.57s-.71,1.58-1.58,1.58-1.57-.71-1.57-1.58.7-1.57,1.57-1.57Zm0,5.04c1.91,0,3.47-1.55,3.47-3.46s-1.56-3.46-3.47-3.46c-1.58,0-2.9,1.07-3.32,2.52h-33.59c-.41-1.45-1.74-2.52-3.32-2.52-1.91,0-3.46,1.55-3.46,3.46s1.55,3.46,3.46,3.46c1.58,0,2.9-1.07,3.32-2.52h33.59c.41,1.45,1.74,2.52,3.32,2.52Zm-20.02,159.24c.87,0,1.58.71,1.58,1.58s-.7,1.57-1.58,1.57-1.57-.71-1.57-1.57.71-1.58,1.57-1.58Zm-58.96-81.43c-.87,0-1.58-.71-1.58-1.58s.71-1.57,1.58-1.57,1.57.7,1.57,1.57-.71,1.58-1.57,1.58Zm55.5,83.01c0,1.91,1.56,3.46,3.46,3.46s3.47-1.56,3.47-3.46c0-1.58-1.07-2.9-2.52-3.32v-22.29c0-.25-.1-.49-.28-.67l-56.62-56.63c.28-.5.45-1.06.45-1.68,0-1.91-1.55-3.46-3.46-3.46s-3.47,1.55-3.47,3.46,1.56,3.47,3.47,3.47c.61,0,1.17-.17,1.67-.45l56.35,56.34v21.9c-1.45.41-2.52,1.74-2.52,3.32Zm120.22-92.2c-.87,0-1.58-.71-1.58-1.58s.71-1.57,1.58-1.57,1.57.7,1.57,1.57-.7,1.58-1.57,1.58Zm-145.29-82.71c-.87,0-1.57-.71-1.57-1.57s.7-1.58,1.57-1.58,1.58.71,1.58,1.58-.71,1.57-1.58,1.57Zm145.29,77.67c-.61,0-1.18.17-1.68.45l-44.33-44.33c-.18-.17-.42-.27-.67-.27h-11.26l-35.62-35.62c-.17-.18-.41-.28-.67-.28h-47.7c-.36-1.53-1.73-2.67-3.36-2.67-1.91,0-3.47,1.56-3.47,3.47s1.56,3.46,3.47,3.46c1.53,0,2.81-1,3.27-2.37h47.4l35.62,35.62c.18.18.42.28.67.28h11.27l44.05,44.05c-.28.5-.45,1.06-.45,1.67,0,1.91,1.55,3.47,3.47,3.47s3.46-1.55,3.46-3.47-1.55-3.46-3.46-3.46Zm201.29,116.03c-.87,0-1.58-.71-1.58-1.58s.71-1.57,1.58-1.57,1.57.71,1.57,1.57-.7,1.58-1.57,1.58Zm8.69,69.75v-63.82c0-.25-.1-.49-.28-.66l-5.32-5.32c.23-.46.37-.98.37-1.53,0-1.91-1.55-3.46-3.46-3.46s-3.47,1.55-3.47,3.46,1.55,3.47,3.47,3.47c.67,0,1.3-.2,1.83-.54l4.97,4.97v63.82c0,.25.1.49.28.67l37.92,37.92,29.84,29.84v-2.67l-28.51-28.5-37.64-37.65Zm-31.07-116.36c-.87,0-1.57-.71-1.57-1.58s.7-1.57,1.57-1.57,1.58.7,1.58,1.57-.71,1.58-1.58,1.58Zm1.47,32.3c0,.87-.71,1.57-1.58,1.57s-1.57-.71-1.57-1.57.7-1.58,1.57-1.58,1.58.71,1.58,1.58Zm2-33.88c0-1.91-1.55-3.47-3.47-3.47s-3.47,1.56-3.47,3.47c0,1.54,1.02,2.83,2.41,3.28v27.28c-1.45.41-2.52,1.74-2.52,3.32,0,1.91,1.56,3.46,3.47,3.46s3.47-1.56,3.47-3.46c0-1.58-1.07-2.9-2.52-3.32v-27.21c1.51-.38,2.63-1.73,2.63-3.35Zm-80.44-49.43c0-.87.71-1.58,1.58-1.58s1.57.7,1.57,1.58-.7,1.57-1.57,1.57-1.58-.71-1.58-1.57Zm11.87,20.87c.87,0,1.57.71,1.57,1.57s-.71,1.58-1.57,1.58-1.58-.71-1.58-1.58.71-1.57,1.58-1.57Zm0,5.04c1.91,0,3.46-1.56,3.46-3.47s-1.55-3.46-3.46-3.46c-.53,0-1.03.13-1.48.35l-7.87-7.87v-8.15c1.45-.41,2.52-1.74,2.52-3.31,0-1.91-1.55-3.47-3.46-3.47s-3.46,1.56-3.46,3.47c0,1.58,1.07,2.9,2.52,3.31v8.54c0,.25.1.49.28.67l8.05,8.05c-.35.54-.56,1.18-.56,1.87,0,1.91,1.56,3.47,3.47,3.47Zm53.44,51.33c.87,0,1.58.71,1.58,1.58s-.71,1.57-1.58,1.57-1.58-.71-1.58-1.57.71-1.58,1.58-1.58Zm-14.96-59.12c0-.87.7-1.58,1.57-1.58s1.58.71,1.58,1.58-.71,1.57-1.58,1.57-1.57-.7-1.57-1.57Zm11.5,60.7c0,1.91,1.55,3.46,3.46,3.46s3.47-1.56,3.47-3.46c0-1.58-1.07-2.9-2.52-3.32v-21.24c0-.25-.1-.49-.27-.67l-13.11-13.11v-19.04c1.45-.41,2.52-1.74,2.52-3.32,0-1.91-1.56-3.47-3.47-3.47s-3.47,1.55-3.47,3.47c0,1.58,1.07,2.9,2.52,3.32v19.43c0,.25.1.49.28.67l13.11,13.11v20.85c-1.45.41-2.52,1.74-2.52,3.32Zm-209.7-172.19c.87,0,1.57.71,1.57,1.58s-.71,1.58-1.57,1.58-1.58-.71-1.58-1.58.71-1.58,1.58-1.58Zm-88.53-45.37c-.87,0-1.57-.7-1.57-1.57s.7-1.58,1.57-1.58,1.58.71,1.58,1.58-.71,1.57-1.58,1.57Zm55.52-2.52h-52.21c-.41-1.45-1.74-2.52-3.32-2.52-1.91,0-3.47,1.56-3.47,3.47s1.56,3.47,3.47,3.47c1.58,0,2.9-1.07,3.32-2.52h51.82l20.11,20.11v15.13c0,.25.1.49.28.67l9.99,9.99c-.28.5-.45,1.07-.45,1.68,0,1.91,1.56,3.46,3.47,3.46s3.46-1.55,3.46-3.46-1.56-3.46-3.46-3.46c-.61,0-1.18.17-1.68.45l-9.72-9.72v-15.12c0-.25-.1-.49-.28-.67l-20.66-20.66c-.18-.18-.42-.28-.67-.28Zm-6.97,10.94c0,.87-.7,1.58-1.57,1.58s-1.58-.71-1.58-1.58.71-1.57,1.58-1.57,1.57.71,1.57,1.57Zm-37.81,1.58c-.87,0-1.58-.71-1.58-1.58s.71-1.57,1.58-1.57,1.58.71,1.58,1.57-.71,1.58-1.58,1.58Zm32.92-2.52h-29.6c-.41-1.45-1.74-2.52-3.32-2.52-1.91,0-3.46,1.56-3.46,3.46s1.55,3.47,3.46,3.47c1.58,0,2.9-1.07,3.32-2.52h29.6c.41,1.45,1.74,2.52,3.32,2.52,1.91,0,3.47-1.56,3.47-3.47s-1.56-3.46-3.47-3.46c-1.58,0-2.9,1.07-3.32,2.52Zm-76.38,219.72c0,.87-.7,1.58-1.57,1.58s-1.58-.71-1.58-1.58.71-1.57,1.58-1.57,1.57.71,1.57,1.57Zm-113.8-244.3l-9.71-9.71v2.67l8.1,8.1v63.2c0,.25.1.49.28.67l112.62,112.62v63.44c-1.45.41-2.52,1.74-2.52,3.31,0,1.91,1.55,3.47,3.46,3.47s3.46-1.56,3.46-3.47c0-1.58-1.07-2.9-2.52-3.31v-63.83c0-.25-.1-.49-.28-.66l-112.62-112.62v-63.2c0-.25-.1-.49-.28-.67Zm476.97,348.43c-.61.61-1.61.61-2.23,0-.3-.3-.46-.69-.46-1.12s.16-.81.46-1.11c.31-.31.71-.46,1.11-.46s.81.15,1.12.46c.29.3.46.7.46,1.11s-.17.82-.46,1.12Zm27.86-2.06h-25.66c-.16-.56-.44-1.08-.87-1.51-1.35-1.35-3.55-1.35-4.9,0-.65.66-1.01,1.53-1.01,2.45s.36,1.8,1.01,2.45c.67.68,1.56,1.01,2.45,1.01s1.77-.34,2.45-1.01c.43-.42.71-.94.87-1.5h25.27l52.66,52.66v-2.67l-51.6-51.6c-.18-.18-.42-.27-.67-.27Zm-151.14-209.14c-.87,0-1.57-.71-1.57-1.58s.7-1.58,1.57-1.58,1.58.71,1.58,1.58-.7,1.58-1.58,1.58Zm19.23,36.33l42.16,42.16v28.58c0,.25.1.49.27.67l23.66,23.66v122.73c0,.25.1.49.28.67l87.81,87.82h2.67l-88.88-88.87v-122.73c0-.25-.1-.49-.28-.67l-23.65-23.66v-28.58c0-.25-.1-.49-.28-.67l-42.16-42.16v-16.95c0-.25-.1-.49-.28-.67l-17.55-17.55c.28-.5.45-1.07.45-1.68,0-1.91-1.55-3.46-3.47-3.46s-3.47,1.55-3.47,3.46,1.56,3.46,3.47,3.46c.61,0,1.18-.17,1.68-.45l17.27,17.27v16.95c0,.25.1.49.28.67Zm-372.99,247.71c-.87,0-1.58-.71-1.58-1.58s.71-1.57,1.58-1.57,1.58.7,1.58,1.57-.71,1.58-1.58,1.58Zm27.05,58.57v-16.79c0-.25-.1-.49-.28-.67l-16.6-16.6v-17.01c0-.25-.1-.49-.27-.67l-6.83-6.82c.25-.48.4-1.01.4-1.58,0-1.91-1.55-3.46-3.46-3.46s-3.46,1.55-3.46,3.46,1.55,3.46,3.46,3.46c.65,0,1.26-.19,1.78-.51l6.5,6.5v17.01c0,.25.1.49.28.67l16.6,16.6v16.4h1.89Zm400.39-320.2c-.87,0-1.58-.71-1.58-1.58s.71-1.58,1.58-1.58,1.57.71,1.57,1.58-.71,1.58-1.57,1.58Zm56.91,19.99c.87,0,1.58.7,1.58,1.57s-.71,1.58-1.58,1.58-1.57-.71-1.57-1.58.7-1.57,1.57-1.57Zm0,5.04c1.91,0,3.46-1.55,3.46-3.47s-1.55-3.47-3.46-3.47c-.61,0-1.18.17-1.68.45l-20.27-20.27c-.18-.18-.42-.27-.67-.27h-30.88c-.21-1.71-1.65-3.05-3.42-3.05-1.91,0-3.47,1.55-3.47,3.46s1.56,3.46,3.47,3.46c1.38,0,2.57-.82,3.12-1.99h30.79l19.99,19.99c-.28.5-.45,1.07-.45,1.68,0,1.91,1.55,3.47,3.46,3.47Zm-14.6,1.82c.87,0,1.57.71,1.57,1.58s-.7,1.57-1.57,1.57-1.58-.71-1.58-1.57.71-1.58,1.58-1.58Zm0,5.04c1.91,0,3.47-1.55,3.47-3.46s-1.56-3.47-3.47-3.47c-.61,0-1.18.18-1.68.45l-15.82-15.82c-.37-.37-.97-.37-1.34,0s-.37.97,0,1.34l15.82,15.82c-.28.5-.45,1.07-.45,1.68,0,1.91,1.55,3.46,3.47,3.46Zm-34.3,55.29c0,.87-.71,1.58-1.57,1.58s-1.58-.71-1.58-1.58.71-1.57,1.58-1.57,1.57.7,1.57,1.57Zm-179.17-174.88c-.87,0-1.57-.71-1.57-1.58s.7-1.57,1.57-1.57,1.58.7,1.58,1.57-.71,1.58-1.58,1.58Zm0-5.04c-1.91,0-3.47,1.55-3.47,3.46s1.56,3.46,3.47,3.46c.61,0,1.18-.17,1.68-.45l18.23,18.23c.18.18.41.27.67.27h12.17l24.13,24.14c.18.17.41.27.67.27h53.29l53.04,53.05v32.14c0,.25.1.49.28.67l12.5,12.51v28.86c-1.45.41-2.51,1.74-2.51,3.31,0,1.91,1.55,3.47,3.46,3.47s3.46-1.55,3.46-3.47c0-1.58-1.07-2.9-2.52-3.31v-29.25c0-.25-.1-.49-.27-.67l-12.51-12.5v-32.14c0-.25-.1-.49-.27-.67l-53.6-53.6c-.18-.18-.41-.28-.67-.28h-53.29l-24.13-24.14c-.18-.17-.42-.27-.67-.27h-12.17l-17.95-17.95c.28-.5.45-1.07.45-1.68,0-1.91-1.55-3.46-3.47-3.46Zm-255.12,168.41l-10.77,10.77v-2.67l9.16-9.16v-64.68l-9.16-9.16v-2.67l10.77,10.77c.18.18.27.42.27.67v65.46c0,.25-.1.49-.27.67Zm373.58,130.24c.87,0,1.57.71,1.57,1.58s-.7,1.58-1.57,1.58-1.58-.71-1.58-1.58.71-1.58,1.58-1.58Zm-136.58-157.46c-.87,0-1.58-.71-1.58-1.58s.71-1.58,1.58-1.58,1.58.71,1.58,1.58-.71,1.58-1.58,1.58Zm117.97,66.89l-58.53-58.53c-.17-.18-.41-.28-.67-.28h-18.87l-10.33-10.33c-.18-.18-.42-.27-.67-.27h-25.59c-.41-1.45-1.74-2.52-3.32-2.52-1.91,0-3.46,1.55-3.46,3.46s1.55,3.47,3.46,3.47c1.58,0,2.9-1.07,3.32-2.52h25.2l10.33,10.33c.18.18.42.27.67.27h18.87l57.98,57.98v71.81c0,.25.1.49.28.67l16.93,16.93c-.28.5-.45,1.07-.45,1.68,0,1.91,1.55,3.46,3.47,3.46s3.47-1.55,3.47-3.46-1.56-3.46-3.47-3.46c-.61,0-1.17.17-1.68.45l-16.66-16.66v-71.81c0-.25-.1-.49-.27-.67Zm23.35-223.28c0,.87-.7,1.57-1.57,1.57s-1.58-.7-1.58-1.57.71-1.58,1.58-1.58,1.57.71,1.57,1.58Zm-38.97,1.57c-.87,0-1.58-.7-1.58-1.57s.71-1.58,1.58-1.58,1.57.71,1.57,1.58-.7,1.57-1.57,1.57Zm34.08-2.52h-30.77c-.41-1.45-1.74-2.52-3.32-2.52-1.91,0-3.46,1.55-3.46,3.46s1.55,3.46,3.46,3.46c1.58,0,2.9-1.07,3.32-2.52h30.77c.41,1.45,1.74,2.52,3.32,2.52,1.91,0,3.46-1.55,3.46-3.46s-1.55-3.46-3.46-3.46c-1.58,0-2.9,1.07-3.32,2.52Zm159.28,121.62c.87,0,1.58.71,1.58,1.58s-.71,1.57-1.58,1.57-1.57-.7-1.57-1.57.7-1.58,1.57-1.58Zm0,5.04c1.91,0,3.47-1.55,3.47-3.46s-1.55-3.47-3.47-3.47c-1.58,0-2.9,1.07-3.32,2.52h-21.12c-.25,0-.49.1-.67.28l-42.01,42.01c-.18.18-.28.41-.28.67v28.2l-20.79,20.79c-.17.18-.27.42-.27.67v123.12c0,.25.1.49.27.67l90.42,90.42h2.67l-91.49-91.48v-122.34l20.79-20.79c.18-.18.28-.42.28-.67v-28.2l41.46-41.46h20.73c.41,1.45,1.74,2.52,3.32,2.52ZM177.72,173.15c-.87,0-1.58-.71-1.58-1.57s.71-1.58,1.58-1.58,1.57.71,1.57,1.58-.7,1.57-1.57,1.57Zm94.59-29.55h-67.56c-.25,0-.49.1-.67.28l-24.69,24.69c-.5-.28-1.07-.45-1.68-.45-1.91,0-3.47,1.56-3.47,3.47s1.56,3.46,3.47,3.46,3.47-1.56,3.47-3.46c0-.61-.17-1.18-.45-1.68l24.41-24.41h67.56c.25,0,.49-.1.67-.27l30.42-30.42h-2.67l-28.8,28.8Zm40.56-5.04c-.87,0-1.58-.71-1.58-1.58s.71-1.57,1.58-1.57,1.57.7,1.57,1.57-.7,1.58-1.57,1.58Zm86.41-13.29h-36.88c-.25,0-.49.1-.67.28l-10.49,10.49h-35.05c-.41-1.45-1.73-2.52-3.31-2.52-1.91,0-3.47,1.56-3.47,3.47s1.55,3.46,3.47,3.46c1.58,0,2.9-1.07,3.31-2.52h35.44c.25,0,.49-.1.67-.27l10.49-10.49h36.88c.25,0,.49-.1.67-.28l12.09-12.09h-2.67l-10.48,10.47Zm-115.38,50.4c-.87,0-1.58-.7-1.58-1.57s.71-1.58,1.58-1.58,1.57.71,1.57,1.58-.71,1.57-1.57,1.57Zm216.83-41.41c-.18.18-.27.42-.27.67v27.35l-16.42,16.41h-67.56c-.25,0-.49.1-.67.27l-14.83,14.84h-41.14l-20.9-20.9c-.18-.18-.42-.28-.67-.28h-51.25c-.56-1.17-1.74-2-3.13-2-1.91,0-3.47,1.55-3.47,3.47s1.55,3.46,3.47,3.46c1.76,0,3.21-1.33,3.42-3.04h50.56l20.9,20.9c.18.18.42.27.67.27h41.92c.25,0,.49-.1.67-.27l14.83-14.84h67.56c.25,0,.49-.1.66-.27l16.97-16.97c.18-.17.28-.41.28-.67v-27.35l20.52-20.52h-2.67l-19.46,19.46Zm13.2,170.63c-.87,0-1.58-.71-1.58-1.58s.71-1.58,1.58-1.58,1.57.71,1.57,1.58-.7,1.58-1.57,1.58Zm55.72-2.24c-.18-.18-.42-.27-.67-.27h-51.74c-.41-1.45-1.74-2.52-3.31-2.52-1.91,0-3.47,1.55-3.47,3.46s1.56,3.47,3.47,3.47c1.58,0,2.9-1.07,3.31-2.52h51.35l12.74,12.74c.18.18.41.28.67.28h68.02v-1.89h-67.62l-12.74-12.74Zm-84.59,146.88c.87,0,1.57.7,1.57,1.57s-.7,1.58-1.57,1.58-1.58-.71-1.58-1.58.71-1.57,1.58-1.57Zm-160.37-65.34c-.87,0-1.58-.7-1.58-1.57s.7-1.58,1.58-1.58,1.57.71,1.57,1.58-.7,1.57-1.57,1.57Zm156.9,66.92c0,1.91,1.56,3.47,3.47,3.47s3.47-1.56,3.47-3.47c0-1.58-1.07-2.9-2.52-3.32v-7.79c0-.25-.1-.49-.27-.67l-28.53-28.53c-.18-.18-.42-.28-.67-.28h-14.23l-28.58-28.58c-.18-.18-.41-.28-.67-.28h-85.05c-.41-1.45-1.74-2.52-3.31-2.52-1.91,0-3.47,1.55-3.47,3.47s1.55,3.47,3.47,3.47c1.58,0,2.9-1.07,3.31-2.52h84.66l28.58,28.58c.18.18.42.27.67.27h14.23l27.97,27.97v7.4c-1.45.41-2.52,1.74-2.52,3.32Zm-93.15-286.13c-.87,0-1.57-.7-1.57-1.57s.7-1.58,1.57-1.58,1.58.71,1.58,1.58-.71,1.57-1.58,1.57Zm22.45-13.44c.87,0,1.58.71,1.58,1.58s-.71,1.57-1.58,1.57-1.57-.71-1.57-1.57.71-1.58,1.57-1.58Zm-3.32,2.52c.42,1.45,1.74,2.52,3.32,2.52,1.91,0,3.47-1.55,3.47-3.46s-1.55-3.47-3.47-3.47c-1.58,0-2.9,1.07-3.32,2.52h-8.54c-.25,0-.49.1-.67.28l-8.06,8.05c-.54-.35-1.18-.56-1.87-.56-1.91,0-3.46,1.56-3.46,3.47s1.55,3.47,3.46,3.47,3.47-1.56,3.47-3.47c0-.53-.13-1.03-.34-1.48l7.87-7.87h8.15Zm-40.75,27.82c-.87,0-1.57-.71-1.57-1.58s.7-1.58,1.57-1.58,1.58.71,1.58,1.58-.71,1.58-1.58,1.58Zm113.26-35.93l-18.28,18.28h-50.85c-.25,0-.49.1-.67.27l-14.82,14.82h-25.33c-.42-1.44-1.74-2.49-3.31-2.49-1.91,0-3.46,1.55-3.46,3.47s1.55,3.46,3.46,3.46c1.59,0,2.92-1.08,3.32-2.55h25.7c.25,0,.49-.1.67-.28l14.82-14.82h50.85c.25,0,.49-.1.67-.28l18.84-18.83c.18-.18.27-.42.27-.67v-31.54h-1.89v31.14Zm121.23,115.29c-.87,0-1.58-.71-1.58-1.58s.71-1.57,1.58-1.57,1.57.71,1.57,1.57-.7,1.58-1.57,1.58Zm28.58-2.24c-.18-.18-.42-.27-.67-.27h-24.59c-.41-1.45-1.74-2.52-3.31-2.52-1.91,0-3.47,1.55-3.47,3.46s1.55,3.47,3.47,3.47c1.58,0,2.9-1.07,3.31-2.52h24.2l13.63,13.63c.18.17.42.27.67.27h6.89v-1.89h-6.5l-13.63-13.63Zm7.11-57.02c.87,0,1.58.7,1.58,1.57s-.71,1.58-1.58,1.58-1.57-.71-1.57-1.58.71-1.57,1.57-1.57Zm-142.23,44.78c-.87,0-1.58-.7-1.58-1.57s.71-1.58,1.58-1.58,1.58.71,1.58,1.58-.71,1.57-1.58,1.57Zm98.07-24.75l-9.93-9.93c-.18-.17-.41-.27-.67-.27h-55.36c-.25,0-.49.1-.67.27l-29.98,29.98c-.45-.21-.94-.34-1.47-.34-1.91,0-3.47,1.55-3.47,3.47s1.55,3.46,3.47,3.46,3.46-1.55,3.46-3.46c0-.7-.21-1.34-.57-1.88l29.61-29.6h54.58l9.93,9.93c.18.18.42.27.67.27h25.14c.25,0,.49-.1.67-.27l17.06-17.06c.5.28,1.07.45,1.68.45,1.91,0,3.47-1.56,3.47-3.47s-1.55-3.47-3.47-3.47-3.46,1.56-3.46,3.47c0,.61.17,1.18.45,1.68l-16.78,16.78h-24.36Zm-82.95,425.93c0,.87-.71,1.58-1.58,1.58s-1.58-.71-1.58-1.58.71-1.58,1.58-1.58,1.58.71,1.58,1.58Zm-39.99-161.87c-.87,0-1.57-.71-1.57-1.58s.7-1.58,1.57-1.58,1.58.71,1.58,1.58-.71,1.58-1.58,1.58Zm0-5.04c-1.91,0-3.47,1.55-3.47,3.46s1.56,3.46,3.47,3.46c.61,0,1.18-.17,1.68-.45l19.27,19.27v48.5l-14.92,14.92c-.18.18-.28.41-.28.67v15.04c0,.25.1.49.28.66l31.45,31.45v26.61c-1.45.41-2.52,1.74-2.52,3.32,0,1.91,1.55,3.46,3.47,3.46s3.46-1.55,3.46-3.46c0-1.58-1.07-2.9-2.52-3.32v-27.01c0-.25-.1-.49-.27-.66l-31.45-31.45v-14.25l14.91-14.92c.18-.18.28-.41.28-.67v-49.28c0-.25-.1-.49-.28-.67l-19.54-19.54c.28-.5.45-1.07.45-1.68,0-1.91-1.56-3.46-3.47-3.46Zm-173.19-289.65c-.87,0-1.58-.71-1.58-1.58s.7-1.57,1.58-1.57,1.57.71,1.57,1.57-.71,1.58-1.57,1.58Zm177.34,93.59c-.18-.18-.42-.28-.67-.28h-53.29l-69.19-69.19v-14.4c0-.25-.1-.49-.28-.67l-18.29-18.29c-.18-.18-.42-.27-.67-.27h-28.03c-.25,0-.49.1-.67.27l-4.63,4.63c-.49-.26-1.04-.43-1.63-.43-1.91,0-3.47,1.55-3.47,3.46s1.56,3.47,3.47,3.47,3.46-1.55,3.46-3.47c0-.63-.18-1.21-.48-1.72l4.34-4.33h27.24l17.74,17.73v14.41c0,.25.1.49.28.67l69.74,69.75c.18.17.41.27.67.27h53.29l36.73,36.73c.18.18.41.28.67.28h139.63v-1.89h-139.24l-36.73-36.73Zm-45.74-84.88c-.87,0-1.58-.7-1.58-1.57s.71-1.58,1.58-1.58,1.58.71,1.58,1.58-.71,1.57-1.58,1.57Zm61.91-3.15c.87,0,1.57.71,1.57,1.58s-.7,1.57-1.57,1.57-1.58-.7-1.58-1.57.71-1.58,1.58-1.58Zm-58.59,2.52h55.28c.41,1.45,1.74,2.52,3.32,2.52,1.91,0,3.46-1.56,3.46-3.47s-1.55-3.47-3.46-3.47c-1.58,0-2.9,1.07-3.32,2.52h-55.28c-.41-1.45-1.74-2.52-3.32-2.52-1.91,0-3.46,1.55-3.46,3.47s1.55,3.47,3.46,3.47c1.58,0,2.9-1.07,3.32-2.52Zm141.82,22.17c0-.87.71-1.57,1.57-1.57s1.58.71,1.58,1.57-.71,1.58-1.58,1.58-1.57-.71-1.57-1.58Zm12.44,17.71l-9.92-9.92v-4.47c1.45-.41,2.52-1.74,2.52-3.32,0-1.91-1.55-3.46-3.47-3.46s-3.46,1.56-3.46,3.46c0,1.58,1.07,2.9,2.52,3.32v4.86c0,.25.1.49.27.67l10.47,10.47c.18.18.42.28.67.28h41.22c.25,0,.49-.1.67-.28l22.65-22.65v-2.67l-23.71,23.71h-40.43Zm-62.36,40.42c.87,0,1.58.71,1.58,1.58s-.71,1.58-1.58,1.58-1.57-.71-1.57-1.58.71-1.58,1.57-1.58Zm-102.87-36.64c-.87,0-1.58-.71-1.58-1.58s.71-1.58,1.58-1.58,1.58.71,1.58,1.58-.71,1.58-1.58,1.58Zm54.24-2.52h-50.93c-.42-1.45-1.74-2.52-3.32-2.52-1.91,0-3.46,1.55-3.46,3.46s1.55,3.47,3.46,3.47c1.58,0,2.9-1.07,3.32-2.52h50.53l39.51,39.51c.18.18.42.27.67.27h5.53c.41,1.45,1.74,2.52,3.32,2.52,1.91,0,3.47-1.55,3.47-3.47s-1.55-3.46-3.47-3.46c-1.58,0-2.9,1.07-3.32,2.52h-5.14l-39.51-39.51c-.18-.18-.42-.27-.67-.27Zm-17.42,259.11c-.87,0-1.57-.71-1.57-1.58s.7-1.57,1.57-1.57,1.58.7,1.58,1.57-.71,1.58-1.58,1.58Zm15.46,59.42c.87,0,1.57.71,1.57,1.58s-.7,1.57-1.57,1.57-1.58-.7-1.58-1.57.71-1.58,1.58-1.58Zm-11.99-61c0-1.91-1.55-3.46-3.46-3.46s-3.46,1.55-3.46,3.46c0,1.58,1.07,2.9,2.52,3.32v43.8c0,.25.1.49.28.67l13.11,13.11c-.28.5-.45,1.07-.45,1.68,0,1.91,1.55,3.46,3.47,3.46s3.46-1.55,3.46-3.46-1.55-3.46-3.46-3.46c-.61,0-1.18.17-1.68.45l-12.83-12.83v-43.41c1.45-.41,2.51-1.74,2.51-3.32Zm90.28-263.32c-.87,0-1.58-.71-1.58-1.58s.71-1.58,1.58-1.58,1.57.71,1.57,1.58-.71,1.58-1.57,1.58Zm0-5.04c-1.91,0-3.47,1.55-3.47,3.46s1.55,3.46,3.47,3.46c.61,0,1.17-.17,1.67-.45l42.43,42.43c.18.18.42.28.67.28h17.39l7.81,7.81c.18.18.42.28.67.28h28.17v-1.89h-27.78l-7.81-7.81c-.18-.18-.42-.28-.67-.28h-17.38l-42.15-42.15c.28-.5.45-1.07.45-1.68,0-1.91-1.55-3.46-3.46-3.46Zm-225.18,369.78c-.87,0-1.57-.71-1.57-1.58s.7-1.58,1.57-1.58,1.58.71,1.58,1.58-.71,1.58-1.58,1.58Zm19.49,68.55c0,.87-.71,1.57-1.58,1.57s-1.57-.71-1.57-1.57.7-1.58,1.57-1.58,1.58.71,1.58,1.58Zm-16.02-70.13c0-1.91-1.55-3.46-3.47-3.46s-3.46,1.55-3.46,3.46c0,1.58,1.07,2.9,2.52,3.32v24.18c0,.25.1.49.28.67l17.63,17.64v21.01c-1.45.41-2.52,1.74-2.52,3.32,0,1.91,1.56,3.46,3.47,3.46s3.47-1.55,3.47-3.46c0-1.58-1.07-2.9-2.52-3.32v-21.4c0-.25-.1-.49-.28-.67l-17.63-17.64v-23.79c1.45-.42,2.52-1.74,2.52-3.32Zm215.66-374.78c-.87,0-1.57-.71-1.57-1.58s.71-1.57,1.57-1.57,1.58.71,1.58,1.57-.71,1.58-1.58,1.58Zm13.43-2.24c-.17-.18-.41-.27-.67-.27h-9.45c-.41-1.45-1.74-2.52-3.32-2.52-1.91,0-3.46,1.56-3.46,3.46s1.56,3.47,3.46,3.47c1.58,0,2.9-1.07,3.32-2.52h9.06l24.67,24.68c.18.17.42.27.67.27h67.14v-1.89h-66.75l-24.67-24.68Zm-299.42,76.79c0-.87.7-1.58,1.57-1.58s1.58.71,1.58,1.58-.71,1.58-1.58,1.58-1.57-.71-1.57-1.58Zm354.62,383.86l-86.27-86.27v-122.73c0-.25-.1-.49-.27-.67l-100.76-100.77c-.18-.18-.42-.27-.67-.27h-118.85l-45.62-45.63v-24.13c1.62-.29,2.87-1.7,2.87-3.4,0-1.91-1.55-3.47-3.47-3.47s-3.46,1.55-3.46,3.47c0,1.45.9,2.69,2.17,3.21v24.72c0,.25.1.49.28.67l46.18,46.18c.18.17.42.28.67.28h118.85l100.21,100.21v122.73c0,.25.1.49.27.67l85.21,85.21h2.67Zm-23.6-263.03c-.87,0-1.57-.71-1.57-1.58s.7-1.57,1.57-1.57,1.58.7,1.58,1.57-.71,1.58-1.58,1.58Zm28.79-31.93c.87,0,1.58.71,1.58,1.57s-.71,1.58-1.58,1.58-1.58-.7-1.58-1.58.71-1.57,1.58-1.57Zm0,5.04c1.91,0,3.46-1.55,3.46-3.47s-1.55-3.46-3.46-3.46-3.46,1.55-3.46,3.46c0,.61.17,1.18.45,1.68l-24.1,24.1c-.5-.28-1.07-.45-1.68-.45-1.91,0-3.46,1.55-3.46,3.46s1.55,3.47,3.46,3.47,3.47-1.55,3.47-3.47c0-.61-.17-1.18-.45-1.67l24.09-24.1c.5.28,1.07.45,1.68.45Zm-54.61-234.36c-.87,0-1.57-.7-1.57-1.57s.7-1.58,1.57-1.58,1.58.71,1.58,1.58-.71,1.57-1.58,1.57Zm33.35-2.52h-30.03c-.41-1.45-1.74-2.52-3.32-2.52-1.91,0-3.47,1.55-3.47,3.47s1.56,3.46,3.47,3.46c1.58,0,2.9-1.07,3.32-2.52h30.42c.25,0,.49-.1.67-.28l41.6-41.6h-2.67l-39.99,39.99Zm23.95,200.94c.87,0,1.58.71,1.58,1.58s-.71,1.58-1.58,1.58-1.57-.71-1.57-1.58.7-1.58,1.57-1.58Zm-282.26-104.44c-.87,0-1.58-.71-1.58-1.58s.71-1.57,1.58-1.57,1.58.7,1.58,1.57-.71,1.58-1.58,1.58Zm239.63,116.58l-20.72-20.72c-.18-.18-.41-.28-.67-.28h-57.31l-36.73-36.73c-.18-.18-.42-.27-.67-.27h-53.29l-60.82-60.82c-.18-.17-.42-.27-.67-.27h-5.44c-.42-1.45-1.74-2.52-3.32-2.52-1.91,0-3.46,1.55-3.46,3.46s1.55,3.46,3.46,3.46c1.58,0,2.9-1.07,3.32-2.52h5.05l60.82,60.82c.18.18.42.28.67.28h53.29l36.73,36.73c.18.18.41.28.67.28h57.31l20.72,20.72c.18.18.42.28.67.28h32.66c.25,0,.49-.1.67-.28l8.83-8.83c.28.07.56.12.86.12,1.91,0,3.47-1.55,3.47-3.46s-1.55-3.47-3.47-3.47-3.47,1.56-3.47,3.47c0,.91.36,1.72.93,2.34l-8.21,8.21h-31.88Zm-148.21-154.68c.87,0,1.57.71,1.57,1.58s-.71,1.57-1.57,1.57-1.58-.7-1.58-1.57.71-1.58,1.58-1.58Zm88.12-22.3c.87,0,1.58.71,1.58,1.58s-.71,1.57-1.58,1.57-1.58-.7-1.58-1.57.71-1.58,1.58-1.58Zm-88.12,27.34c1.63,0,3-1.14,3.36-2.67h62.61c.25,0,.49-.1.67-.28l19.8-19.8c.5.28,1.07.45,1.68.45,1.91,0,3.46-1.56,3.46-3.47s-1.55-3.47-3.46-3.47-3.46,1.56-3.46,3.47c0,.61.17,1.18.45,1.68l-19.52,19.53h-62.31c-.46-1.37-1.75-2.37-3.27-2.37-1.91,0-3.47,1.55-3.47,3.47s1.55,3.46,3.47,3.46Zm117.87-13.11c-.87,0-1.58-.71-1.58-1.58s.71-1.57,1.58-1.57,1.57.7,1.57,1.57-.71,1.58-1.57,1.58Zm45.75-2.52h-42.44c-.41-1.45-1.74-2.52-3.32-2.52-1.91,0-3.47,1.56-3.47,3.47s1.55,3.47,3.47,3.47c1.58,0,2.9-1.07,3.32-2.52h42.83c.25,0,.49-.1.67-.28l54.51-54.51v-2.67l-55.57,55.57Zm-181.03,28.78c-.87,0-1.58-.71-1.58-1.58s.71-1.57,1.58-1.57,1.58.7,1.58,1.57-.71,1.58-1.58,1.58Zm194.73-51.39h-62.99c-.25,0-.49.1-.67.28l-48.6,48.6h-79.16c-.41-1.45-1.74-2.52-3.32-2.52-1.91,0-3.46,1.55-3.46,3.46s1.55,3.47,3.46,3.47c1.58,0,2.9-1.07,3.32-2.52h79.55c.25,0,.49-.1.67-.28l48.6-48.59h62.99c.25,0,.49-.1.67-.28l40.81-40.81v-2.67l-41.87,41.86Zm-86.69-3.78c-.87,0-1.58-.7-1.58-1.57s.71-1.58,1.58-1.58,1.57.71,1.57,1.58-.71,1.57-1.57,1.57Zm84.08-2.52h-80.76c-.41-1.45-1.74-2.52-3.32-2.52-1.91,0-3.46,1.55-3.46,3.46s1.55,3.46,3.46,3.46c1.58,0,2.9-1.07,3.32-2.52h81.15c.25,0,.49-.1.67-.28l43.42-43.42v-2.67l-44.47,44.48Zm-155.87-22.04c-.87,0-1.58-.71-1.58-1.58s.71-1.57,1.58-1.57,1.57.71,1.57,1.57-.7,1.58-1.57,1.58Zm13.2-16.52c.87,0,1.57.71,1.57,1.58s-.7,1.57-1.57,1.57-1.58-.71-1.58-1.57.71-1.58,1.58-1.58Zm0,5.04c1.91,0,3.47-1.55,3.47-3.46s-1.56-3.47-3.47-3.47-3.47,1.55-3.47,3.47c0,.61.17,1.18.45,1.67l-8.62,8.63c-.47-.24-1-.39-1.56-.39-1.91,0-3.47,1.55-3.47,3.46s1.56,3.47,3.47,3.47,3.47-1.55,3.47-3.47c0-.66-.19-1.26-.51-1.79l8.57-8.58c.5.28,1.07.45,1.68.45Zm63.3,476.49c0-.87.7-1.58,1.57-1.58s1.58.71,1.58,1.58-.71,1.58-1.58,1.58-1.57-.71-1.57-1.58Zm11.86,29.69c.87,0,1.58.71,1.58,1.58s-.71,1.58-1.58,1.58-1.57-.71-1.57-1.58.71-1.58,1.57-1.58Zm0,5.04c1.91,0,3.47-1.55,3.47-3.46s-1.56-3.46-3.47-3.46c-.53,0-1.03.13-1.48.34l-7.87-7.87v-16.96c1.45-.41,2.52-1.74,2.52-3.32,0-1.91-1.56-3.46-3.47-3.46s-3.47,1.56-3.47,3.46c0,1.58,1.07,2.9,2.52,3.32v17.35c0,.25.1.49.28.67l8.05,8.05c-.35.54-.56,1.18-.56,1.87,0,1.91,1.55,3.46,3.46,3.46ZM466.8,123.76c0-.87.7-1.58,1.57-1.58s1.58.71,1.58,1.58-.71,1.58-1.58,1.58-1.57-.71-1.57-1.58Zm-31.89,31.35c0,.87-.7,1.58-1.57,1.58s-1.58-.71-1.58-1.58.71-1.57,1.58-1.57,1.57.71,1.57,1.57Zm36.93-31.35c0-1.91-1.56-3.47-3.47-3.47-1.58,0-2.9,1.07-3.31,2.52h-13.2c-.25,0-.49.1-.67.27l-18.52,18.53c-.18.17-.28.41-.28.67v9.51c-1.45.41-2.52,1.74-2.52,3.31,0,1.91,1.55,3.47,3.46,3.47s3.46-1.56,3.46-3.47c0-1.58-1.07-2.9-2.52-3.31v-9.12l17.97-17.97h12.81c.41,1.45,1.74,2.52,3.31,2.52,1.91,0,3.47-1.55,3.47-3.46Zm64.6-.94c-.87,0-1.58-.71-1.58-1.58s.71-1.57,1.58-1.57,1.57.7,1.57,1.57-.7,1.58-1.57,1.58Zm5.41-8.02l-3.54,3.54c-.54-.35-1.18-.56-1.87-.56-1.91,0-3.47,1.55-3.47,3.46s1.56,3.46,3.47,3.46,3.46-1.55,3.46-3.46c0-.53-.13-1.03-.34-1.48l4.97-4.97h-2.67Zm-108.81,209.11c.87,0,1.58.71,1.58,1.57s-.71,1.58-1.58,1.58-1.57-.71-1.57-1.58.71-1.57,1.57-1.57Zm-214.08-107.57c-.87,0-1.57-.7-1.57-1.57s.7-1.58,1.57-1.58,1.58.71,1.58,1.58-.71,1.57-1.58,1.57Zm0-5.04c-1.91,0-3.47,1.55-3.47,3.47s1.56,3.46,3.47,3.46c.68,0,1.32-.2,1.85-.55l19.45,19.44c.18.18.42.28.66.28h38.84l42.97,42.97c.18.17.42.27.67.27h10.37l30.86,30.86c.18.17.42.27.67.27h6.5l14.37,14.37c.18.18.42.28.67.28h42.89c.41,1.45,1.74,2.52,3.31,2.52,1.91,0,3.47-1.55,3.47-3.47s-1.55-3.46-3.47-3.46c-1.58,0-2.9,1.07-3.31,2.52h-42.5l-14.37-14.37c-.18-.18-.42-.27-.67-.27h-6.5l-30.86-30.86c-.18-.18-.42-.27-.67-.27h-10.37l-42.97-42.97c-.18-.18-.42-.28-.67-.28h-38.84l-19.25-19.25c.22-.46.36-.96.36-1.5,0-1.91-1.55-3.47-3.47-3.47Zm197.32-89.11c.87,0,1.57.71,1.57,1.58s-.7,1.58-1.57,1.58-1.58-.71-1.58-1.58.71-1.58,1.58-1.58Zm-118.75,15.39c-.87,0-1.58-.71-1.58-1.58s.71-1.57,1.58-1.57,1.57.7,1.57,1.57-.71,1.58-1.57,1.58Zm0-5.04c-1.91,0-3.47,1.55-3.47,3.46s1.55,3.46,3.47,3.46c.6,0,1.16-.17,1.66-.44l6.7,6.7c.18.18.42.28.67.28h50.58c.25,0,.49-.1.67-.28l9.73-9.73h37.46c.25,0,.49-.1.67-.27l8.93-8.93c.5.28,1.07.45,1.68.45,1.91,0,3.47-1.55,3.47-3.46s-1.56-3.47-3.47-3.47-3.47,1.56-3.47,3.47c0,.61.18,1.17.45,1.68l-8.66,8.66h-37.46c-.25,0-.49.1-.67.27l-9.74,9.74h-49.79l-6.42-6.41c.29-.5.46-1.08.46-1.7,0-1.91-1.55-3.46-3.46-3.46Zm65.29,18.48c.87,0,1.57.7,1.57,1.57s-.71,1.58-1.57,1.58-1.58-.71-1.58-1.58.71-1.57,1.58-1.57Zm-76.42,3.15c-.87,0-1.58-.71-1.58-1.58s.71-1.57,1.58-1.57,1.57.7,1.57,1.57-.7,1.58-1.57,1.58Zm0-5.04c-1.91,0-3.47,1.55-3.47,3.46s1.56,3.47,3.47,3.47c1.58,0,2.9-1.07,3.32-2.52h69.78c.41,1.45,1.74,2.52,3.32,2.52,1.91,0,3.46-1.55,3.46-3.47s-1.56-3.46-3.46-3.46c-1.58,0-2.9,1.07-3.32,2.52h-69.78c-.41-1.45-1.74-2.52-3.32-2.52Zm131.44,104.33c0,.87-.7,1.57-1.57,1.57s-1.58-.7-1.58-1.57.71-1.58,1.58-1.58,1.57.71,1.57,1.58Zm86.52,28.91c.87,0,1.58.71,1.58,1.58s-.71,1.58-1.58,1.58-1.58-.71-1.58-1.58.71-1.58,1.58-1.58Zm-91.56-28.91c0,1.91,1.56,3.46,3.47,3.46.61,0,1.18-.17,1.68-.45l9.1,9.09c.18.18.41.28.67.28h57.05l16.54,16.53c-.24.47-.39,1-.39,1.57,0,1.91,1.55,3.46,3.46,3.46s3.46-1.55,3.46-3.46-1.55-3.46-3.46-3.46c-.65,0-1.26.19-1.78.51l-16.76-16.76c-.18-.18-.42-.28-.67-.28h-57.05l-8.82-8.82c.28-.5.45-1.07.45-1.68,0-1.91-1.56-3.46-3.47-3.46s-3.47,1.55-3.47,3.46Zm-187.04-88.7c-.87,0-1.58-.71-1.58-1.57s.71-1.58,1.58-1.58,1.58.71,1.58,1.58-.71,1.57-1.58,1.57Zm190.81-23.71h-21.64c-.25,0-.49.1-.67.27l-20.91,20.91h-144.27c-.41-1.45-1.73-2.52-3.32-2.52-1.91,0-3.46,1.56-3.46,3.47s1.55,3.46,3.46,3.46c1.58,0,2.9-1.07,3.32-2.52h144.67c.25,0,.49-.1.67-.28l20.91-20.91h21.64c.25,0,.49-.1.67-.28l27.86-27.86h-2.67l-26.25,26.25Zm112.8,91.23c-.87,0-1.57-.71-1.57-1.58s.7-1.58,1.57-1.58,1.58.71,1.58,1.58-.71,1.58-1.58,1.58Zm66.81,66.4h53.8v-1.89h-53.41l-64.27-64.27c.33-.53.53-1.15.53-1.82,0-1.91-1.56-3.46-3.47-3.46s-3.46,1.55-3.46,3.46,1.55,3.47,3.46,3.47c.56,0,1.07-.14,1.53-.37l64.61,64.61c.18.18.41.27.67.27Zm19.12-90.67c0,.87-.7,1.57-1.57,1.57s-1.58-.7-1.58-1.57.71-1.58,1.58-1.58,1.57.71,1.57,1.58Zm-2.24-15.15c-.18.18-.28.42-.28.67v11.17c-1.45.41-2.52,1.74-2.52,3.32,0,1.91,1.55,3.46,3.47,3.46s3.47-1.55,3.47-3.46c0-1.58-1.07-2.9-2.52-3.32v-10.78l35.31-35.31v-2.67l-36.92,36.93Zm-57.1,274.64c-.61-.61-.61-1.61,0-2.23.3-.3.69-.46,1.11-.46s.81.16,1.11.46c.61.61.61,1.61,0,2.23-.62.61-1.61.61-2.23,0Zm-6.37,55.9c-.62.61-1.61.61-2.23,0-.62-.61-.62-1.61,0-2.23.31-.31.71-.46,1.12-.46s.8.15,1.11.46c.61.62.61,1.61,0,2.23Zm8.21-9.5v-44.14c.63-.14,1.23-.44,1.72-.93,1.35-1.35,1.35-3.55,0-4.9-1.31-1.31-3.6-1.31-4.9,0-1.35,1.35-1.35,3.55,0,4.9.38.38.82.64,1.29.8v43.87l-5.76,5.76c-1.32-.73-3.01-.55-4.12.56-1.35,1.35-1.35,3.55,0,4.9.68.68,1.56,1.01,2.45,1.01s1.77-.34,2.45-1.01c1.12-1.12,1.3-2.81.56-4.12l6.04-6.04c.18-.18.27-.42.27-.67ZM243.26,178.6c-.87,0-1.57-.71-1.57-1.58s.7-1.58,1.57-1.58,1.58.71,1.58,1.58-.71,1.58-1.58,1.58Zm33.54,9.79c.87,0,1.58.71,1.58,1.58s-.71,1.57-1.58,1.57-1.57-.71-1.57-1.57.71-1.58,1.57-1.58Zm0,5.04c1.91,0,3.47-1.56,3.47-3.46s-1.55-3.47-3.47-3.47c-.66,0-1.28.2-1.8.52l-11.08-11.08c-.18-.18-.42-.28-.67-.28h-16.81c-.53-1.24-1.76-2.11-3.18-2.11-1.91,0-3.47,1.55-3.47,3.46s1.56,3.46,3.47,3.46c1.73,0,3.15-1.27,3.41-2.93h16.19l10.86,10.86c-.24.47-.38.99-.38,1.55,0,1.91,1.55,3.46,3.46,3.46Zm307.45,155.92c.87,0,1.58.7,1.58,1.57s-.71,1.58-1.58,1.58-1.57-.71-1.57-1.58.7-1.57,1.57-1.57Zm-270.48-126.16c-.87,0-1.57-.71-1.57-1.58s.7-1.57,1.57-1.57,1.58.71,1.58,1.57-.71,1.58-1.58,1.58Zm0-5.04c-1.91,0-3.47,1.56-3.47,3.46s1.56,3.47,3.47,3.47c.61,0,1.18-.17,1.68-.45l10.6,10.6c.18.18.42.28.67.28h14.8l69.67,69.68c.18.17.42.27.67.27h53.29l36.73,36.73c.18.18.42.28.67.28h71.91l6.78,6.78c-.28.5-.45,1.06-.45,1.67,0,1.91,1.55,3.47,3.46,3.47s3.47-1.55,3.47-3.47-1.55-3.46-3.47-3.46c-.61,0-1.18.17-1.67.45l-7.06-7.06c-.18-.18-.42-.28-.67-.28h-71.91l-36.73-36.73c-.17-.18-.41-.27-.67-.27h-53.29l-69.68-69.68c-.18-.18-.41-.28-.67-.28h-14.8l-10.32-10.32c.27-.5.45-1.07.45-1.68,0-1.91-1.56-3.46-3.47-3.46Zm201.17,322.46c0,.87-.7,1.57-1.57,1.57s-1.58-.7-1.58-1.57.71-1.58,1.58-1.58,1.57.71,1.57,1.58Zm-22.89-64.58c-.87,0-1.58-.7-1.58-1.57s.71-1.58,1.58-1.58,1.57.71,1.57,1.58-.7,1.57-1.57,1.57Zm0-5.04c-1.91,0-3.47,1.56-3.47,3.47s1.56,3.47,3.47,3.47c.61,0,1.17-.17,1.67-.45l18.7,18.7v41.12c-1.45.41-2.52,1.74-2.52,3.32,0,1.91,1.56,3.47,3.47,3.47s3.47-1.56,3.47-3.47c0-1.58-1.07-2.9-2.52-3.32v-41.51c0-.25-.1-.49-.27-.67l-18.98-18.98c.28-.5.45-1.07.45-1.68,0-1.91-1.55-3.47-3.46-3.47Zm128.02-30.1c0-.87.7-1.58,1.57-1.58s1.58.71,1.58,1.58-.71,1.57-1.58,1.57-1.57-.71-1.57-1.57Zm2.52,3.31c1.45-.41,2.52-1.74,2.52-3.31,0-1.91-1.55-3.47-3.47-3.47s-3.47,1.56-3.47,3.47c0,1.58,1.07,2.9,2.52,3.31v24.69c0,.25.1.49.28.67l29.02,29.02v-2.67l-27.41-27.41v-24.3ZM170.75,209.58c-.87,0-1.57-.7-1.57-1.57s.7-1.58,1.57-1.58,1.58.71,1.58,1.58-.71,1.57-1.58,1.57Zm149.09,346.4c.17-.18.27-.42.27-.67v-138.31c0-.25-.1-.49-.27-.67l-126.73-126.73v-60.19c0-.25-.1-.49-.28-.67l-19.07-19.07c.28-.5.45-1.07.45-1.68,0-1.91-1.56-3.47-3.47-3.47s-3.47,1.55-3.47,3.47,1.56,3.46,3.47,3.46c.61,0,1.18-.17,1.68-.45l18.79,18.79v60.19c0,.25.1.49.28.67l126.73,126.73v137.53l-24.5,24.49c-.18.18-.28.42-.28.67v101.51h1.89v-101.13l24.5-24.49Zm-149.22,93.69c.87,0,1.57.71,1.57,1.58s-.7,1.57-1.57,1.57-1.58-.71-1.58-1.57.71-1.58,1.58-1.58Zm-15.58,18.82l14.12-14.12c.45.21.94.34,1.47.34,1.91,0,3.46-1.55,3.46-3.46s-1.55-3.47-3.46-3.47-3.47,1.55-3.47,3.47c0,.7.21,1.34.57,1.89l-14.3,14.3c-.18.18-.27.42-.27.67v13.5h1.89v-13.11Zm12.76-368.81c.62.61.62,1.61,0,2.23-.61.61-1.61.61-2.23,0s-.61-1.61,0-2.23c.3-.3.7-.46,1.12-.46s.81.17,1.11.46Zm-45.91-184.88v36.48c0,.25.1.49.28.67l16.08,16.08v64.55c0,.25.1.49.27.67l27.22,27.22v37.04c-.56.15-1.08.42-1.5.84-1.35,1.35-1.35,3.55,0,4.9.65.65,1.52,1.01,2.45,1.01s1.79-.36,2.45-1.01c1.35-1.35,1.35-3.55,0-4.9-.42-.42-.95-.69-1.51-.84v-37.44c0-.25-.1-.49-.27-.67l-27.22-27.22v-64.55c0-.25-.1-.49-.28-.67l-16.08-16.08v-36.09h-1.89Zm245.89,382.2c-.87,0-1.58-.71-1.58-1.57s.7-1.58,1.58-1.58,1.57.71,1.57,1.58-.71,1.57-1.57,1.57Zm1.57,24.23c0,.87-.71,1.57-1.57,1.57s-1.58-.7-1.58-1.57.7-1.58,1.58-1.58,1.57.71,1.57,1.58Zm1.89-25.8c0-1.91-1.55-3.47-3.46-3.47s-3.47,1.55-3.47,3.47c0,1.58,1.07,2.9,2.52,3.32v19.17c-1.45.41-2.52,1.74-2.52,3.32,0,1.91,1.55,3.46,3.47,3.46s3.46-1.55,3.46-3.46c0-1.58-1.07-2.9-2.52-3.32v-19.17c1.45-.42,2.52-1.74,2.52-3.32Zm267.86-85.57c-.87,0-1.58-.71-1.58-1.58s.71-1.58,1.58-1.58,1.58.71,1.58,1.58-.71,1.58-1.58,1.58Zm0-5.04c-1.91,0-3.46,1.55-3.46,3.46s1.55,3.47,3.46,3.47,3.47-1.56,3.47-3.47c0-.61-.17-1.17-.45-1.68l7.91-7.9v-2.67l-9.24,9.24c-.5-.28-1.07-.45-1.68-.45Zm-395.71,225.71c0-.87.71-1.57,1.58-1.57s1.57.7,1.57,1.57-.7,1.58-1.57,1.58-1.58-.71-1.58-1.58Zm-18.7,34.67l21.14-21.14c.18-.18.28-.42.28-.66v-9.61c1.35-.47,2.33-1.75,2.33-3.26,0-1.91-1.56-3.46-3.47-3.46s-3.47,1.55-3.47,3.46c0,1.65,1.16,3.03,2.71,3.37v9.1l-21.14,21.14c-.18.17-.27.41-.27.67v16.8h1.89v-16.41Zm52.98-133.53c.87,0,1.57.71,1.57,1.58s-.7,1.58-1.57,1.58-1.58-.71-1.58-1.58.71-1.58,1.58-1.58Zm-18.32,21.23l16.64-16.64c.5.28,1.06.45,1.68.45,1.91,0,3.46-1.55,3.46-3.46s-1.55-3.46-3.46-3.46-3.47,1.55-3.47,3.46c0,.61.17,1.17.45,1.68l-16.92,16.92c-.17.18-.27.41-.27.67v129.1h1.89v-128.71Zm-95.08,41.98c0-.87.7-1.57,1.57-1.57s1.58.7,1.58,1.57-.71,1.58-1.58,1.58-1.57-.71-1.57-1.58Zm-16.15,66.73l18.39-18.39c.18-.17.28-.41.28-.67v-44.35c1.45-.41,2.52-1.74,2.52-3.32,0-1.91-1.55-3.46-3.47-3.46s-3.47,1.55-3.47,3.46c0,1.58,1.07,2.9,2.52,3.32v43.96l-18.39,18.39c-.18.17-.28.41-.28.67v20.4h1.89v-20.01Zm191.68-191.61c0,.87-.7,1.57-1.57,1.57s-1.58-.7-1.58-1.57.71-1.58,1.58-1.58,1.57.71,1.57,1.58Zm18.72-44.83c.87,0,1.58.7,1.58,1.57s-.71,1.58-1.58,1.58-1.57-.71-1.57-1.58.7-1.57,1.57-1.57Zm-1.65,4.6c.49.27,1.05.44,1.65.44,1.91,0,3.47-1.56,3.47-3.47s-1.55-3.46-3.47-3.46-3.46,1.55-3.46,3.46c0,.62.18,1.2.47,1.7l-17.96,17.96c-.18.18-.28.42-.28.67v19.61c-1.45.41-2.52,1.74-2.52,3.32,0,1.91,1.55,3.46,3.46,3.46s3.46-1.55,3.46-3.46c0-1.58-1.07-2.9-2.52-3.32v-19.22l17.7-17.7Zm-221.92-181.44c-.61.61-1.61.61-2.23,0-.61-.61-.61-1.61,0-2.23.31-.31.71-.46,1.12-.46s.81.15,1.11.46c.61.61.61,1.61,0,2.23Zm17.13,17.13c.31-.31.71-.46,1.11-.46s.81.15,1.11.46c.61.61.61,1.61,0,2.23-.61.61-1.61.61-2.23,0-.61-.61-.61-1.61,0-2.23Zm-1.33,3.56c.67.68,1.56,1.01,2.45,1.01s1.77-.34,2.45-1.01c1.35-1.35,1.35-3.55,0-4.9-1.12-1.12-2.81-1.3-4.12-.56l-14.67-14.67c.28-.51.45-1.08.45-1.68,0-.92-.36-1.79-1.01-2.45-1.35-1.35-3.55-1.35-4.9,0-1.35,1.35-1.35,3.55,0,4.9.67.68,1.56,1.01,2.45,1.01.58,0,1.16-.16,1.68-.45l14.67,14.67c-.29.51-.45,1.08-.45,1.68,0,.93.36,1.8,1.01,2.45Zm22.86,363.1c-.87,0-1.58-.71-1.58-1.58s.7-1.57,1.58-1.57,1.57.7,1.57,1.57-.71,1.58-1.57,1.58Zm12.88,49.5v-39.14c0-.25-.1-.49-.28-.67l-9.6-9.6c.28-.5.45-1.07.45-1.68,0-1.91-1.55-3.46-3.46-3.46s-3.47,1.55-3.47,3.46,1.56,3.47,3.47,3.47c.61,0,1.17-.17,1.67-.45l9.32,9.32v38.74h1.89Zm-14.46-76.26c0-.87.7-1.58,1.58-1.58s1.57.7,1.57,1.58-.71,1.57-1.57,1.57-1.58-.7-1.58-1.57Zm23.73,76.26v-42.46c0-.25-.1-.49-.28-.67l-20.93-20.93v-8.88c1.45-.41,2.52-1.74,2.52-3.32,0-1.91-1.55-3.47-3.46-3.47s-3.47,1.56-3.47,3.47c0,1.58,1.07,2.9,2.52,3.32v9.27c0,.25.1.49.28.67l20.93,20.94v42.06h1.89Zm-16.28-490.23c-.87,0-1.58-.71-1.58-1.58s.71-1.57,1.58-1.57,1.57.71,1.57,1.57-.71,1.58-1.57,1.58Zm10.29,19.3c.87,0,1.57.71,1.57,1.58s-.7,1.57-1.57,1.57-1.58-.7-1.58-1.57.71-1.58,1.58-1.58Zm-6.83-20.87c0-1.91-1.56-3.46-3.46-3.46s-3.47,1.55-3.47,3.46c0,1.58,1.07,2.9,2.52,3.32v8.54c0,.25.1.49.28.67l8.05,8.05c-.35.54-.56,1.18-.56,1.87,0,1.91,1.55,3.46,3.47,3.46s3.46-1.55,3.46-3.46-1.55-3.46-3.46-3.46c-.53,0-1.03.13-1.48.34l-7.87-7.87v-8.14c1.45-.41,2.52-1.74,2.52-3.32Zm72.63,264.1c0-.87.71-1.58,1.57-1.58s1.58.71,1.58,1.58-.7,1.57-1.58,1.57-1.57-.71-1.57-1.57Zm-50.85,180.74l16.46-16.47c.18-.18.28-.42.28-.67v-53.98l29.1-29.1c.18-.18.27-.42.27-.67v-13.29l6.97-6.97c.18-.18.28-.42.28-.67v-55.61c1.45-.41,2.52-1.74,2.52-3.31,0-1.91-1.56-3.47-3.47-3.47s-3.46,1.55-3.46,3.47c0,1.58,1.07,2.9,2.52,3.31v55.21l-6.97,6.98c-.18.18-.28.41-.28.67v13.29l-29.1,29.1c-.18.17-.28.41-.28.67v53.98l-16.47,16.46c-.18.18-.28.42-.28.67v47.36h1.89v-46.97Zm137.21-209.11c.87,0,1.58.71,1.58,1.58s-.71,1.57-1.58,1.57-1.58-.7-1.58-1.57.71-1.58,1.58-1.58Zm-15.5,105.17v-86.75l13.83-13.83c.5.28,1.07.45,1.68.45,1.91,0,3.46-1.55,3.46-3.46s-1.55-3.47-3.46-3.47-3.46,1.55-3.46,3.47c0,.61.17,1.18.45,1.67l-14.1,14.11c-.18.18-.28.42-.28.67v87.54c0,.12.03.24.07.36.05.12.12.22.21.31l74.77,74.77v75.08h1.89v-75.47c0-.25-.1-.49-.27-.67l-74.77-74.77Zm-58.54,32.09c-.87,0-1.57-.71-1.57-1.58s.7-1.57,1.57-1.57,1.58.71,1.58,1.57-.71,1.58-1.58,1.58Zm1.58,62.69c0,.87-.71,1.58-1.58,1.58s-1.57-.71-1.57-1.58.7-1.57,1.57-1.57,1.58.7,1.58,1.57Zm1.89-64.26c0-1.91-1.55-3.46-3.47-3.46s-3.46,1.56-3.46,3.46c0,1.58,1.07,2.9,2.52,3.32v57.63c-1.45.41-2.52,1.74-2.52,3.31,0,1.91,1.55,3.47,3.46,3.47s3.47-1.55,3.47-3.47c0-1.58-1.07-2.9-2.52-3.31v-57.63c1.45-.41,2.52-1.74,2.52-3.32Zm-5.7,120.4h-1.89v-35.16c0-.25.1-.49.27-.67l10.54-10.53v-62.98c0-.25.1-.49.28-.67l24.49-24.49v-121.88l-101.26-101.26h-39.91c-.25,0-.49-.1-.67-.27l-59.6-59.61c-.18-.18-.28-.42-.28-.67v-63.2l-14.39-14.39v-2.67l16.01,16.01c.18.18.28.42.28.66v63.2l59.05,59.05h39.91c.12,0,.25.03.36.08.11.04.22.11.31.2l101.81,101.81c.17.18.27.42.27.67v122.66c0,.25-.1.49-.27.67l-24.5,24.49v62.98c0,.12-.03.24-.07.36-.05.11-.12.22-.2.31l-10.53,10.54v34.77Zm-112.66-401.07c.31-.31.71-.46,1.12-.46s.8.15,1.11.46c.61.62.61,1.61,0,2.23-.62.61-1.61.61-2.23,0-.61-.62-.61-1.61,0-2.23Zm-19.16-106.05v27.07l-11.99,11.99c-.17.18-.27.42-.27.67v35.83c0,.25.1.49.27.67l29.25,29.25c-.73,1.32-.55,3.01.57,4.13.68.67,1.56,1.01,2.45,1.01s1.77-.34,2.45-1.01c1.35-1.35,1.35-3.55,0-4.9-1.08-1.08-2.81-1.25-4.12-.55l-28.99-28.98v-35.05l11.99-11.99c.18-.18.27-.42.27-.67v-27.86c0-.25-.1-.49-.27-.67l-29.54-29.54v-29.09h-1.89v29.48c0,.25.1.49.28.67l29.54,29.54Zm335.04,317.76c.87,0,1.58.71,1.58,1.57s-.71,1.58-1.58,1.58-1.58-.7-1.58-1.58.71-1.57,1.58-1.57Zm17.36,49.31c0,.87-.71,1.58-1.57,1.58s-1.58-.71-1.58-1.58.71-1.58,1.58-1.58,1.57.71,1.57,1.58Zm-20.82-47.73c0,1.91,1.55,3.47,3.46,3.47.61,0,1.18-.18,1.68-.45l13.16,13.16v28.24c-1.45.41-2.52,1.74-2.52,3.32,0,1.91,1.55,3.46,3.47,3.46s3.46-1.55,3.46-3.46c0-1.58-1.07-2.9-2.52-3.32v-28.63c0-.25-.1-.49-.28-.67l-13.44-13.44c.28-.5.45-1.07.45-1.68,0-1.91-1.55-3.46-3.46-3.46s-3.46,1.56-3.46,3.46Zm-142.31,73.49c.87,0,1.58.71,1.58,1.58s-.71,1.58-1.58,1.58-1.57-.71-1.57-1.58.7-1.58,1.57-1.58Zm-2.99,100.46l-6.02-6.02v-14.08c0-.25-.1-.49-.28-.67l-8.25-8.25v-51.53l15.53-15.53c.57.41,1.26.66,2.02.66,1.91,0,3.47-1.55,3.47-3.46s-1.55-3.46-3.47-3.46-3.46,1.55-3.46,3.46c0,.47.09.91.26,1.32l-15.96,15.95c-.18.18-.28.42-.28.67v52.31c0,.25.1.49.28.67l8.25,8.26v14.08c0,.25.1.49.28.67l6.02,6.02v12.76h1.89v-13.16c0-.25-.1-.49-.28-.67Zm-140.13-354.36c.31-.31.71-.46,1.11-.46s.81.15,1.11.46c.61.61.61,1.61,0,2.23-.61.62-1.61.62-2.23,0-.61-.61-.61-1.61,0-2.23Zm-20.93-6.37c-.61.61-1.61.61-2.23,0-.61-.62-.61-1.61,0-2.23.31-.31.71-.46,1.12-.46s.8.16,1.11.46c.61.61.61,1.61,0,2.23Zm1.33-3.57c-1.35-1.35-3.55-1.35-4.9,0-1.35,1.35-1.35,3.55,0,4.9.68.67,1.56,1.01,2.45,1.01.58,0,1.15-.16,1.68-.45l6.04,6.04c.18.18.42.28.67.28h11.39c.14.63.44,1.23.93,1.72.67.68,1.56,1.01,2.45,1.01s1.77-.34,2.45-1.01c1.35-1.35,1.35-3.55,0-4.9s-3.55-1.35-4.9,0c-.38.38-.64.82-.8,1.29h-11.12l-5.76-5.76c.73-1.32.55-3.01-.56-4.13Zm209.32-90.21c-.87,0-1.58-.7-1.58-1.57s.71-1.58,1.58-1.58,1.58.71,1.58,1.58-.71,1.57-1.58,1.57Zm175.47,69.1c.87,0,1.58.71,1.58,1.58s-.71,1.58-1.58,1.58-1.57-.71-1.57-1.58.71-1.58,1.57-1.58Zm-144.74-23.6l21.22,21.22c.17.18.41.28.67.28h53.29l15.62,15.62c.18.18.42.28.67.28h41.63c.25,0,.49-.1.67-.28l9.06-9.06c.55.37,1.21.58,1.92.58,1.91,0,3.47-1.55,3.47-3.46s-1.55-3.46-3.47-3.46-3.46,1.55-3.46,3.46c0,.51.12.99.32,1.43l-8.9,8.9h-40.84l-15.62-15.62c-.18-.18-.42-.27-.67-.27h-53.29l-20.67-20.67v-14.61c0-.25-.1-.49-.27-.67l-29.06-29.06c.28-.5.45-1.06.45-1.67,0-1.91-1.55-3.47-3.46-3.47s-3.47,1.55-3.47,3.47,1.56,3.46,3.47,3.46c.61,0,1.17-.17,1.68-.45l28.78,28.78v14.61c0,.25.1.49.28.67Zm117.07-2.35c-.87,0-1.57-.71-1.57-1.58s.7-1.57,1.57-1.57,1.58.71,1.58,1.57-.71,1.58-1.58,1.58Zm49.4,28.48c.87,0,1.58.71,1.58,1.58s-.71,1.58-1.58,1.58-1.57-.71-1.57-1.58.71-1.58,1.57-1.58Zm0,5.04c1.91,0,3.47-1.55,3.47-3.46s-1.55-3.47-3.47-3.47c-.69,0-1.33.21-1.87.56l-14.95-14.95c-.17-.18-.41-.27-.67-.27h-17.08l-11.82-11.82c.28-.5.45-1.07.45-1.68,0-1.91-1.55-3.46-3.47-3.46s-3.46,1.55-3.46,3.46,1.55,3.47,3.46,3.47c.61,0,1.18-.17,1.68-.45l12.09,12.1c.18.17.42.28.67.28h17.08l14.76,14.76c-.21.45-.34.94-.34,1.48,0,1.91,1.55,3.46,3.46,3.46Zm-130.99,212.65c-.87,0-1.58-.7-1.58-1.57s.7-1.58,1.58-1.58,1.57.71,1.57,1.58-.7,1.57-1.57,1.57Zm1.57,31.8c0,.87-.7,1.57-1.57,1.57s-1.58-.7-1.58-1.57.7-1.58,1.58-1.58,1.57.71,1.57,1.58Zm1.89-33.37c0-1.91-1.55-3.47-3.46-3.47s-3.47,1.55-3.47,3.47c0,1.58,1.07,2.9,2.52,3.31v26.74c-1.45.41-2.52,1.74-2.52,3.32,0,1.91,1.55,3.46,3.47,3.46s3.46-1.55,3.46-3.46c0-1.58-1.07-2.9-2.52-3.32v-26.74c1.45-.41,2.52-1.74,2.52-3.31ZM211.07,155.11c0-.87.7-1.57,1.57-1.57s1.58.71,1.58,1.57-.71,1.58-1.58,1.58-1.57-.71-1.57-1.58Zm294.48,179.17l-36.73-36.73c-.18-.18-.42-.28-.67-.28h-53.29l-90.6-90.59c-.17-.18-.41-.28-.67-.28h-91.69l-18.32-18.32v-29.65c1.45-.41,2.52-1.74,2.52-3.32,0-1.91-1.56-3.46-3.47-3.46s-3.47,1.56-3.47,3.46c0,1.58,1.07,2.9,2.52,3.32v30.04c0,.25.1.49.27.67l18.88,18.88c.18.18.42.27.67.27h91.69l90.59,90.59c.18.18.42.28.67.28h53.29l36.73,36.73c.18.18.41.28.67.28h144.85v-1.89h-144.46Zm-325.99-37.49c-.87,0-1.58-.71-1.58-1.58s.71-1.58,1.58-1.58,1.57.71,1.57,1.58-.7,1.58-1.57,1.58Zm103.18,278.47l24.5-24.49c.18-.18.28-.42.28-.67v-127.88c0-.25-.1-.49-.28-.67l-124.66-124.66c.28-.5.45-1.07.45-1.68,0-1.91-1.55-3.46-3.46-3.46s-3.46,1.55-3.46,3.46,1.55,3.46,3.46,3.46c.61,0,1.18-.17,1.68-.45l124.39,124.39v127.09l-24.5,24.49c-.17.18-.28.42-.28.67v106.73h1.89v-106.34Zm6.3,106.34h-1.89v-104.12c0-.25.1-.49.27-.67l24.5-24.49v-132.31l-126.73-126.73c-.18-.18-.27-.42-.27-.67v-32.99l-35.41-35.41c-.18-.18-.28-.42-.28-.67v-108.74h1.89v108.35l35.41,35.41c.18.18.28.42.28.67v32.99l126.73,126.73c.17.18.27.42.27.67v133.09c0,.25-.1.49-.27.67l-24.5,24.49v103.73Zm177.72-173.28c0,.87-.71,1.57-1.58,1.57s-1.57-.7-1.57-1.57.7-1.58,1.57-1.58,1.58.71,1.58,1.58Zm.92,28.57c0,.87-.71,1.57-1.58,1.57s-1.57-.71-1.57-1.57.7-1.58,1.57-1.58,1.58.7,1.58,1.58Zm-5.95-28.57c0,1.58,1.07,2.9,2.52,3.32v22.34c-.96.62-1.6,1.69-1.6,2.92,0,1.91,1.55,3.46,3.46,3.46s3.46-1.55,3.46-3.46-1.54-3.45-3.43-3.46v-21.79c1.45-.41,2.52-1.74,2.52-3.32,0-1.91-1.55-3.46-3.47-3.46s-3.46,1.55-3.46,3.46ZM226.08,184.36c-.87,0-1.57-.71-1.57-1.58s.7-1.57,1.57-1.57,1.58.71,1.58,1.57-.71,1.58-1.58,1.58Zm245.35,106.89c-.18-.18-.42-.27-.66-.27h-53.29l-52.67-52.67-37.92-37.92c-.18-.17-.42-.27-.67-.27h-67.43l-9.1-9.1c-.18-.18-.42-.27-.67-.27h-13.64l-6.27-6.28c.27-.49.44-1.06.44-1.66,0-1.91-1.55-3.46-3.47-3.46s-3.46,1.56-3.46,3.46,1.55,3.47,3.46,3.47c.62,0,1.19-.18,1.69-.46l6.55,6.55c.18.18.42.27.67.27h13.64l9.1,9.1c.18.18.42.28.67.28h67.43l90.59,90.59c.17.17.41.27.66.27h53.29l36.73,36.73c.18.18.42.28.67.28h142.24v-1.89h-141.85l-36.73-36.73Zm-302.1-108.46c0,.87-.7,1.58-1.57,1.58s-1.58-.71-1.58-1.58.71-1.57,1.58-1.57,1.57.71,1.57,1.57Zm27.6-58.08c-.25,0-.49.1-.67.28l-29.17,29.17c-.18.18-.28.42-.28.67v24.65c-1.45.41-2.52,1.74-2.52,3.31,0,1.91,1.55,3.47,3.46,3.47s3.46-1.55,3.46-3.47c0-1.58-1.07-2.9-2.52-3.31v-24.26l28.62-28.62h67.56c.25,0,.49-.1.67-.27l11.52-11.52h-2.67l-9.91,9.9h-67.56Zm313.16,22.15c-.87,0-1.58-.71-1.58-1.58s.71-1.57,1.58-1.57,1.57.7,1.57,1.57-.7,1.58-1.57,1.58Zm56.73-16.52c.87,0,1.58.71,1.58,1.58s-.71,1.57-1.58,1.57-1.58-.7-1.58-1.57.71-1.58,1.58-1.58Zm-3.32,2.52c.42,1.45,1.74,2.52,3.32,2.52,1.91,0,3.47-1.55,3.47-3.46s-1.55-3.47-3.47-3.47c-1.58,0-2.9,1.07-3.32,2.52h-40.04c-.25,0-.49.1-.67.28l-11.03,11.03c-.5-.28-1.07-.45-1.68-.45-1.91,0-3.46,1.55-3.46,3.47s1.55,3.47,3.46,3.47,3.46-1.56,3.46-3.47c0-.61-.17-1.18-.45-1.68l10.75-10.75h39.65Zm26.43-2.52c.87,0,1.57.71,1.57,1.58s-.7,1.57-1.57,1.57-1.58-.7-1.58-1.57.71-1.58,1.58-1.58Zm-196.6,82.94c-.87,0-1.58-.7-1.58-1.57s.71-1.58,1.58-1.58,1.57.71,1.57,1.58-.71,1.57-1.57,1.57Zm25.76-28.28c-.25,0-.49.1-.67.28l-23.42,23.42c-.5-.28-1.07-.45-1.67-.45-1.91,0-3.47,1.55-3.47,3.47s1.55,3.46,3.47,3.46,3.46-1.55,3.46-3.46c0-.61-.17-1.18-.45-1.68l23.14-23.14h67.56c.25,0,.49-.1.67-.28l40.77-40.77h48.48c.25,0,.49-.1.67-.27l10.64-10.64c.5.28,1.06.45,1.67.45,1.91,0,3.47-1.55,3.47-3.46s-1.56-3.47-3.47-3.47-3.47,1.55-3.47,3.47c0,.61.17,1.18.45,1.68l-10.36,10.36h-48.48c-.25,0-.49.1-.67.28l-40.77,40.77h-67.56Zm9.24,406.55c.87,0,1.57.7,1.57,1.57s-.7,1.58-1.57,1.58-1.58-.71-1.58-1.58.71-1.57,1.58-1.57Zm-66.93-143.91c-.87,0-1.58-.71-1.58-1.58s.71-1.57,1.58-1.57,1.57.71,1.57,1.57-.7,1.58-1.57,1.58Zm18.65,40.74c0-.25-.1-.49-.27-.67l-17.06-17.06v-21.38c1.26-.52,2.15-1.76,2.15-3.2,0-1.91-1.56-3.46-3.47-3.46s-3.47,1.56-3.47,3.46c0,1.72,1.25,3.13,2.89,3.41v21.57c0,.25.1.49.28.67l17.06,17.06v55.13c0,.25.1.49.28.66l46.88,46.88c-.28.5-.45,1.07-.45,1.68,0,1.91,1.55,3.47,3.47,3.47s3.46-1.55,3.46-3.47-1.55-3.46-3.46-3.46c-.61,0-1.18.17-1.68.45l-46.61-46.61v-55.13Zm222.65-50.39c-.87,0-1.58-.71-1.58-1.57s.71-1.58,1.58-1.58,1.57.71,1.57,1.58-.7,1.57-1.57,1.57Zm1.57,60.14c0,.87-.7,1.58-1.57,1.58s-1.58-.71-1.58-1.58.71-1.57,1.58-1.57,1.57.7,1.57,1.57Zm1.89-61.72c0-1.91-1.55-3.47-3.46-3.47s-3.47,1.55-3.47,3.47c0,1.58,1.07,2.9,2.52,3.31v55.09c-1.45.41-2.52,1.74-2.52,3.32,0,1.91,1.55,3.46,3.47,3.46s3.46-1.55,3.46-3.46c0-1.58-1.07-2.9-2.52-3.32v-55.09c1.45-.41,2.52-1.74,2.52-3.31Zm-124.7,184.04c.87,0,1.57.71,1.57,1.58s-.71,1.58-1.57,1.58-1.58-.71-1.58-1.58.71-1.58,1.58-1.58Zm-53.13-49.98c-.87,0-1.58-.71-1.58-1.58s.71-1.58,1.58-1.58,1.57.71,1.57,1.58-.7,1.58-1.57,1.58Zm0-5.04c-1.91,0-3.47,1.55-3.47,3.46s1.55,3.46,3.47,3.46c.61,0,1.18-.17,1.68-.45l48.44,48.44c-.27.5-.45,1.07-.45,1.68,0,1.91,1.56,3.46,3.47,3.46s3.46-1.55,3.46-3.46-1.56-3.47-3.46-3.47c-.61,0-1.18.17-1.68.45l-48.44-48.44c.28-.5.45-1.07.45-1.68,0-1.91-1.55-3.46-3.46-3.46Zm-183.18-3.09c.87,0,1.58.71,1.58,1.57s-.71,1.58-1.58,1.58-1.58-.7-1.58-1.58.71-1.57,1.58-1.57Zm-32.5,89.52l19.55-19.55c.18-.18.28-.42.28-.67v-53.72l11-11c.5.28,1.07.45,1.68.45,1.91,0,3.46-1.56,3.46-3.47s-1.55-3.46-3.46-3.46-3.46,1.56-3.46,3.46c0,.61.17,1.18.45,1.68l-11.28,11.28c-.18.18-.28.42-.28.67v53.71l-19.55,19.55c-.18.17-.27.41-.27.67v30.13h1.89v-29.75ZM107.95,189.79c0-.87.7-1.57,1.57-1.57s1.58.71,1.58,1.57-.71,1.58-1.58,1.58-1.57-.71-1.57-1.58Zm37.03,98.87c.31-.31.71-.46,1.11-.46s.81.16,1.12.46c.61.61.61,1.61,0,2.23-.62.61-1.61.61-2.23,0-.3-.3-.46-.7-.46-1.12s.17-.82.46-1.11Zm-1.34,3.56c.68.68,1.56,1.01,2.45,1.01s1.78-.34,2.45-1.01c1.35-1.35,1.35-3.55,0-4.9-1.12-1.12-2.81-1.3-4.13-.56l-33.94-33.94v-59.71c1.45-.41,2.52-1.74,2.52-3.32,0-1.91-1.55-3.46-3.47-3.46s-3.46,1.55-3.46,3.46c0,1.58,1.07,2.9,2.52,3.32v60.1c0,.25.1.49.28.67l34.22,34.22c-.29.51-.45,1.08-.45,1.68,0,.93.36,1.79,1.01,2.45Zm101.95,292.29c-.87,0-1.58-.7-1.58-1.58s.71-1.57,1.58-1.57,1.58.71,1.58,1.57-.71,1.58-1.58,1.58Zm1.58,28.13c0,.87-.71,1.57-1.58,1.57s-1.58-.7-1.58-1.57.71-1.58,1.58-1.58,1.58.71,1.58,1.58Zm1.89-29.71c0-1.91-1.55-3.46-3.46-3.46s-3.46,1.55-3.46,3.46c0,1.58,1.07,2.9,2.52,3.32v23.07c-1.45.41-2.52,1.74-2.52,3.32,0,1.91,1.55,3.46,3.46,3.46s3.46-1.55,3.46-3.46c0-1.58-1.07-2.9-2.52-3.32v-23.07c1.45-.41,2.52-1.73,2.52-3.32Zm-98.87-10.5c.87,0,1.57.71,1.57,1.58s-.7,1.58-1.57,1.58-1.58-.71-1.58-1.58.71-1.58,1.58-1.58Zm-8.37,109.16v-39.38c0-.25-.1-.49-.28-.67l-9.7-9.7v-38.15s16.68-16.67,16.68-16.67c.5.28,1.07.45,1.68.45,1.91,0,3.46-1.55,3.46-3.46s-1.55-3.46-3.46-3.46-3.47,1.55-3.47,3.46c0,.61.17,1.18.45,1.68l-16.95,16.95c-.18.18-.27.42-.27.67v38.94c0,.25.1.49.27.66l9.7,9.7v38.99h1.89Zm-17.4-489.29c0,.87-.7,1.58-1.57,1.58s-1.58-.71-1.58-1.58.71-1.57,1.58-1.57,1.57.7,1.57,1.57Zm-41.19-53.98l38.67,38.67v11.99c-1.45.41-2.52,1.74-2.52,3.32,0,1.91,1.55,3.46,3.47,3.46s3.46-1.55,3.46-3.46c0-1.58-1.07-2.9-2.52-3.32v-12.38c0-.25-.1-.49-.28-.67l-40.29-40.29v2.67Zm543.29,280.48c.87,0,1.58.71,1.58,1.58s-.71,1.58-1.58,1.58-1.57-.71-1.57-1.58.7-1.58,1.57-1.58Zm6.02,128.08v-52.66c0-.25-.1-.49-.27-.67l-18.84-18.84v-40.61l10.99-10.99c.59.45,1.31.73,2.1.73,1.91,0,3.47-1.55,3.47-3.46s-1.55-3.46-3.47-3.46-3.46,1.55-3.46,3.46c0,.42.09.82.23,1.2l-11.46,11.47c-.18.18-.28.41-.28.67v41.39c0,.25.1.49.28.67l18.83,18.84v52.67c0,.25.1.49.28.67l19.1,19.1v-2.67l-17.49-17.49ZM99.82,173.05c.87,0,1.58.71,1.58,1.58s-.71,1.57-1.58,1.57-1.57-.7-1.57-1.57.7-1.58,1.57-1.58Zm0,5.04c1.91,0,3.47-1.55,3.47-3.46s-1.56-3.46-3.47-3.46c-.56,0-1.08.14-1.55.38l-15.06-15.06v2.67l13.67,13.67c-.33.53-.52,1.14-.52,1.81,0,1.91,1.56,3.46,3.47,3.46Zm504.78,335.93c-.59.59-1.63.59-2.22,0-.3-.3-.46-.7-.46-1.12s.16-.82.46-1.11c.3-.3.69-.46,1.11-.46s.81.17,1.11.46c.3.3.46.69.46,1.11s-.16.82-.46,1.12Zm12.78,26.63v-14.8c0-.25-.1-.49-.28-.67l-10.6-10.6c.29-.51.45-1.08.45-1.68,0-.93-.36-1.79-1.01-2.45-1.31-1.31-3.59-1.31-4.9,0-.66.66-1.01,1.53-1.01,2.45s.36,1.8,1.01,2.45c.65.66,1.52,1.01,2.45,1.01.6,0,1.17-.16,1.67-.45l10.32,10.32v14.8c0,.25.1.49.28.67l34.25,34.24v-2.67l-32.64-32.64"/>
    </g>
  </g>
  <g id="Layer_3" data-name="Layer 3">
    <polygon class="cls-5" points="282.23 306.72 264.99 282.37 264.24 279.55 245.35 277.08 223.11 277.31 219.77 278.33 209.54 279.03 145.11 330.01 174.29 351.62 177.69 348.92 218.02 377.61 243.29 407.55 253.52 438 273.31 478.99 273.7 493.12 290.66 526.7 293.9 526.99 298.06 536.2 298.83 540.84 301.73 541.78 304.52 547.91 306.81 552.15 308.81 554.09 314.71 554.09 318.22 546.83 320.34 546.81 325.1 532.61 327.5 530.92 339.9 500.85 341.69 501.03 360.49 460.1 364.01 457.79 365.09 451.57 384.46 423.12 403.67 392.3 443.57 334.1 463.02 324.02 473.79 314.09 475.01 312.64 474.96 305.93 477.82 286.64 478.26 278.7 478.49 276.88 475.18 267.62 436.36 276.22 434.51 281.29 430.3 283.89 428.58 286.56 422.29 290.77 421.46 293.6 417.42 297.44 375.68 351.28 333.44 425.22 338.51 432.68 327 454.79 324.52 455.63 320.36 469.59 317.7 470.67 313.82 419.55 311.49 411.06 312.13 407.65 306.96 394.56 301.37 377.61 299.01 368.91 299.78 362.85 297.64 359.88 284.53 315.69 284.92 309.82 282.23 306.72"/>
  </g>
  <g>
    <polygon class="cls-9" points="471.14 273.11 468.16 291.47 465.17 309.82 450.77 298.06 436.36 286.3 453.75 279.71 471.14 273.11"/>
    <g>
      <path class="cls-9" d="m451.05,317.55c-.21.23-.33.4-.48.54-26.21,24.64-48.2,52.7-67.31,83.09-14.77,23.5-27.83,47.94-39.7,73-10.69,22.56-20.97,45.31-31.43,67.98-.17.38-.36.75-.63,1.31-.33-.66-.58-1.15-.82-1.65-8.21-17.34-15.2-35.2-22.15-53.07-6.48-16.64-12.97-33.28-20.72-49.39-10.53-21.91-23.47-42.24-39.74-60.36-11.88-13.23-24.76-25.34-39.63-35.18-9.05-5.99-18.63-10.9-29.01-14.17-.2-.06-.39-.16-.74-.31,12.18-10.03,24.28-19.99,36.45-30,.51.46.99.87,1.44,1.31,10.22,9.81,19.22,20.68,27.6,32.07,15.8,21.47,29.32,44.34,41.53,67.99,15.01,29.07,28.07,58.99,38.15,90.14,2.6,8.03,4.69,16.22,7.01,24.33.1.34.2.67.39,1.32.3-.63.53-1.03.69-1.45,5.43-14.19,10.74-28.42,16.3-42.56,10.48-26.68,21.89-52.96,35.2-78.38,11.09-21.17,23.41-41.56,38.03-60.5,8.38-10.86,17.45-21.11,27.5-30.46.21-.19.42-.37.72-.64,7.11,5.01,14.21,10.02,21.36,15.06Z"/>
      <path class="cls-9" d="m302.93,473.56c-21.87-65.35-51.69-126.75-92.72-182.6,2-.23,3.99-.47,5.98-.7,2.15-.25,4.31-.43,6.45-.76.87-.14,1.34.07,1.84.78,11.78,17.04,22.3,34.84,31.88,53.19,13.7,26.23,25.43,53.31,34.51,81.5,4.72,14.64,8.58,29.49,11.39,44.62.25,1.32.45,2.66.66,3.99,0,.03-.02.06.01-.02Z"/>
      <path class="cls-9" d="m245.56,287.66c.45.07.9.19,1.35.21,3.55.16,7.11.31,10.66.42.72.02,1.12.22,1.45.92,17.46,36.42,31.14,74.2,40.67,113.45,2.76,11.38,5.13,22.85,6.8,34.45,1.16,8.04,1.94,16.14,2.88,24.22.1.88.16,1.76.07,2.67-.49-2.16-.97-4.33-1.46-6.49-5.8-25.82-13.29-51.16-22.04-76.13-9.98-28.52-21.59-56.35-35.26-83.31-1.67-3.3-3.43-6.54-5.14-9.82-.1-.19-.14-.4-.21-.6.07,0,.14,0,.21,0Z"/>
    </g>
  </g>
  <g>
    <circle class="cls-3" cx="174.64" cy="347.25" r="3.48"/>
    <circle class="cls-7" cx="174.64" cy="347.33" r="1.59"/>
  </g>
  <g>
    <g>
      <circle class="cls-3" cx="152.92" cy="327.04" r="2.81"/>
      <circle class="cls-7" cx="152.92" cy="327.11" r="1.29"/>
    </g>
    <g>
      <circle class="cls-3" cx="157.96" cy="322.94" r="2.69"/>
      <circle class="cls-7" cx="157.96" cy="323.01" r="1.23"/>
    </g>
    <g>
      <circle class="cls-3" cx="167.44" cy="315.64" r="2.78"/>
      <circle class="cls-7" cx="167.44" cy="315.71" r="1.28"/>
    </g>
    <g>
      <circle class="cls-3" cx="185.39" cy="301.34" r="2.67"/>
      <circle class="cls-7" cx="185.39" cy="301.41" r="1.22"/>
    </g>
    <g>
      <circle class="cls-3" cx="190.33" cy="297.38" r="2.81"/>
      <circle class="cls-7" cx="190.33" cy="297.44" r="1.29"/>
    </g>
  </g>
  <g>
    <circle class="cls-3" cx="195.37" cy="293.66" r="2.78"/>
    <circle class="cls-7" cx="195.37" cy="293.72" r="1.28"/>
  </g>
  <g>
    <circle class="cls-3" cx="200.14" cy="289.46" r="2.65"/>
    <circle class="cls-7" cx="200.14" cy="289.53" r="1.22"/>
  </g>
  <g>
    <circle class="cls-3" cx="223.11" cy="280.64" r="3.34"/>
    <circle class="cls-7" cx="223.11" cy="280.72" r="1.53"/>
  </g>
  <g>
    <circle class="cls-3" cx="261.65" cy="282.37" r="3.34"/>
    <circle class="cls-7" cx="261.65" cy="282.45" r="1.53"/>
  </g>
  <g>
    <circle class="cls-3" cx="281.58" cy="312.13" r="3.34"/>
    <circle class="cls-7" cx="281.58" cy="312.21" r="1.53"/>
  </g>
  <g>
    <circle class="cls-3" cx="296.76" cy="364.2" r="3.02"/>
    <circle class="cls-7" cx="296.76" cy="364.28" r="1.39"/>
  </g>
  <g>
    <circle class="cls-3" cx="304.52" cy="396.13" r="3.02"/>
    <circle class="cls-7" cx="304.52" cy="396.2" r="1.39"/>
  </g>
  <g>
    <circle class="cls-3" cx="308.93" cy="408.97" r="3.02"/>
    <circle class="cls-7" cx="308.93" cy="409.04" r="1.39"/>
  </g>
  <g>
    <circle class="cls-3" cx="376.84" cy="354.82" r="3.02"/>
    <circle class="cls-7" cx="376.84" cy="354.89" r="1.39"/>
  </g>
  <g>
    <circle class="cls-3" cx="389.97" cy="336.96" r="3.02"/>
    <circle class="cls-7" cx="389.97" cy="337.03" r="1.39"/>
  </g>
  <g>
    <circle class="cls-3" cx="397.85" cy="326.72" r="3.02"/>
    <circle class="cls-7" cx="397.85" cy="326.8" r="1.39"/>
  </g>
  <g>
    <circle class="cls-3" cx="406.3" cy="316.52" r="3.02"/>
    <circle class="cls-7" cx="406.3" cy="316.59" r="1.39"/>
  </g>
  <g>
    <circle class="cls-3" cx="410.3" cy="311.31" r="3.02"/>
    <circle class="cls-7" cx="410.3" cy="311.38" r="1.39"/>
  </g>
  <g>
    <circle class="cls-3" cx="414.36" cy="306.04" r="3.02"/>
    <circle class="cls-7" cx="414.36" cy="306.11" r="1.39"/>
  </g>
  <g>
    <circle class="cls-3" cx="418.87" cy="299.39" r="2.8"/>
    <circle class="cls-7" cx="418.87" cy="299.46" r="1.28"/>
  </g>
  <g>
    <circle class="cls-3" cx="424.68" cy="292.62" r="3.02"/>
    <circle class="cls-7" cx="424.68" cy="292.69" r="1.39"/>
  </g>
  <g>
    <circle class="cls-3" cx="431.52" cy="286.57" r="2.95"/>
    <circle class="cls-7" cx="431.52" cy="286.64" r="1.35"/>
  </g>
  <g>
    <circle class="cls-3" cx="437.53" cy="280.11" r="2.68"/>
    <circle class="cls-7" cx="437.53" cy="280.18" r="1.23"/>
  </g>
  <g>
    <circle class="cls-3" cx="475.61" cy="280.94" r="2.68"/>
    <circle class="cls-7" cx="475.61" cy="281.01" r="1.23"/>
  </g>
  <g>
    <circle class="cls-3" cx="475.01" cy="288.79" r="2.68"/>
    <circle class="cls-7" cx="475.01" cy="288.86" r="1.23"/>
  </g>
  <g>
    <circle class="cls-3" cx="473.78" cy="296.64" r="2.68"/>
    <circle class="cls-7" cx="473.78" cy="296.7" r="1.23"/>
  </g>
  <g>
    <circle class="cls-3" cx="472.83" cy="304.3" r="2.68"/>
    <circle class="cls-7" cx="472.83" cy="304.37" r="1.23"/>
  </g>
  <g>
    <circle class="cls-3" cx="472.83" cy="311.84" r="2.55"/>
    <circle class="cls-7" cx="472.83" cy="311.9" r="1.17"/>
  </g>
  <g>
    <circle class="cls-3" cx="467.95" cy="316.52" r="2.55"/>
    <circle class="cls-7" cx="467.95" cy="316.58" r="1.17"/>
  </g>
  <g>
    <circle class="cls-3" cx="463.38" cy="320.53" r="2.55"/>
    <circle class="cls-7" cx="463.38" cy="320.59" r="1.17"/>
  </g>
  <g>
    <circle class="cls-3" cx="370.8" cy="365.52" r="3.02"/>
    <circle class="cls-7" cx="370.8" cy="365.59" r="1.39"/>
  </g>
  <g>
    <circle class="cls-3" cx="366.61" cy="372.81" r="3.02"/>
    <circle class="cls-7" cx="366.61" cy="372.88" r="1.39"/>
  </g>
  <g>
    <circle class="cls-3" cx="360.49" cy="383.67" r="3.02"/>
    <circle class="cls-7" cx="360.49" cy="383.74" r="1.39"/>
  </g>
  <g>
    <circle class="cls-3" cx="353.1" cy="396.2" r="3.02"/>
    <circle class="cls-7" cx="353.1" cy="396.27" r="1.39"/>
  </g>
  <g>
    <circle class="cls-3" cx="345.79" cy="408.97" r="3.02"/>
    <circle class="cls-7" cx="345.79" cy="409.04" r="1.39"/>
  </g>
  <g>
    <circle class="cls-3" cx="361.09" cy="456.5" r="3.02"/>
    <circle class="cls-7" cx="361.09" cy="456.57" r="1.39"/>
  </g>
  <g>
    <circle class="cls-3" cx="340.3" cy="498.34" r="3.02"/>
    <circle class="cls-7" cx="340.3" cy="498.42" r="1.39"/>
  </g>
  <g>
    <circle class="cls-3" cx="325.1" cy="529.07" r="3.02"/>
    <circle class="cls-7" cx="325.1" cy="529.14" r="1.39"/>
  </g>
  <g>
    <circle class="cls-3" cx="318.95" cy="544.12" r="3.02"/>
    <circle class="cls-7" cx="318.95" cy="544.19" r="1.39"/>
  </g>
  <g>
    <circle class="cls-3" cx="311.8" cy="551.64" r="2.91"/>
    <circle class="cls-7" cx="311.8" cy="551.71" r="1.33"/>
  </g>
  <g>
    <circle class="cls-3" cx="306.5" cy="548.82" r="2.74"/>
    <circle class="cls-7" cx="306.5" cy="548.88" r="1.26"/>
  </g>
  <g>
    <circle class="cls-3" cx="301.15" cy="538.74" r="3.04"/>
    <circle class="cls-7" cx="301.15" cy="538.82" r="1.39"/>
  </g>
  <g>
    <circle class="cls-3" cx="292.51" cy="524.29" r="3.04"/>
    <circle class="cls-7" cx="292.51" cy="524.37" r="1.39"/>
  </g>
  <g>
    <circle class="cls-3" cx="384.88" cy="417.45" r="3.02"/>
    <circle class="cls-7" cx="384.88" cy="417.52" r="1.39"/>
  </g>
  <g>
    <circle class="cls-3" cx="392.36" cy="405.06" r="3.02"/>
    <circle class="cls-7" cx="392.36" cy="405.13" r="1.39"/>
  </g>
  <g>
    <circle class="cls-3" cx="407.9" cy="381.28" r="3.02"/>
    <circle class="cls-7" cx="407.9" cy="381.35" r="1.39"/>
  </g>
  <g>
    <circle class="cls-3" cx="415.22" cy="370.56" r="3.02"/>
    <circle class="cls-7" cx="415.22" cy="370.63" r="1.39"/>
  </g>
  <g>
    <circle class="cls-3" cx="420.8" cy="363.3" r="3.02"/>
    <circle class="cls-7" cx="420.8" cy="363.37" r="1.39"/>
  </g>
  <g>
    <circle class="cls-3" cx="426.87" cy="354.07" r="3.02"/>
    <circle class="cls-7" cx="426.87" cy="354.14" r="1.39"/>
  </g>
  <g>
    <circle class="cls-3" cx="339.64" cy="429.45" r="3.02"/>
    <circle class="cls-7" cx="339.64" cy="429.52" r="1.39"/>
  </g>
  <g>
    <circle class="cls-3" cx="326.23" cy="457.95" r="3.02"/>
    <circle class="cls-7" cx="326.23" cy="458.03" r="1.39"/>
  </g>
  <g>
    <circle class="cls-3" cx="319.75" cy="472.83" r="3.02"/>
    <circle class="cls-7" cx="319.75" cy="472.91" r="1.39"/>
  </g>
  <path class="cls-4" d="m455.17,45.19l8.43,19.71c4.27,9.98,9.41,19.55,15.36,28.62l14.04,21.38-409.79-.11c-1.09.09-19.93,1.24-31.22-14.23-7.6-10.42-8.84-24.33-3.17-35.87,7.6-15.48,23.72-18.69,25.47-19.01,126.96-.16,253.92-.33,380.88-.49Z"/>
  <path class="cls-8" d="m121.93,81.81c36.33-2.09,88.22-4.37,150.81-4.69,76.59-.38,161.47,2.22,161.5,4.69.02,1.97-54.23,3.66-74.64,4.3-35.22,1.1-64.78,1.11-86.07.88-23.63.06-48.9-.27-75.61-1.18-26.99-.92-52.37-2.31-75.98-3.99Z"/>
</svg>