<svg version="1.2" xmlns="http://www.w3.org/2000/svg" viewBox="0 0 802 729" width="802" height="729">
	<title>translation</title>
	<defs>
		<clipPath clipPathUnits="userSpaceOnUse" id="cp1">
			<path d="m612.24 365c0 118.38-95.96 214.34-214.34 214.34-118.38 0-214.34-95.96-214.34-214.34 0-118.38 95.96-214.34 214.34-214.34 118.38 0 214.34 95.96 214.34 214.34z"/>
		</clipPath>
	</defs>
	<style>
		tspan { white-space:pre } 
		.s0 { fill: none;stroke: #c4a9f7;stroke-linecap: round;stroke-miterlimit:10;stroke-width: 4;stroke-dasharray: 0,11.99206 } 
		.s1 { fill: none;stroke: #c4a9f7;stroke-linecap: round;stroke-miterlimit:10;stroke-width: 4;stroke-dasharray: 0,11.68284 } 
		.s2 { fill: none;stroke: #c4a9f7;stroke-linecap: round;stroke-miterlimit:10;stroke-width: 4;stroke-dasharray: 0,12.10598 } 
		.s3 { fill: none;stroke: #c4a9f7;stroke-linecap: round;stroke-miterlimit:10;stroke-width: 4;stroke-dasharray: 0,12.05786 } 
		.s4 { fill: none;stroke: #c4a9f7;stroke-linecap: round;stroke-miterlimit:10;stroke-width: 4;stroke-dasharray: 0,11.86584 } 
		.s5 { fill: #b7b7ed } 
		.s6 { mix-blend-mode: multiply;fill: #a1a1db } 
		.s7 { opacity: .4;mix-blend-mode: overlay;fill: #333333 } 
		.s8 { opacity: .3;fill: #ffffff } 
		.s9 { fill: #6c64bf } 
		.t10 { font-size: 10px;text-transform: uppercase;fill: #ffffff;font-weight: 700;font-family: "Poppins-Bold", "Poppins" } 
		.t11 { font-size: 9px;text-transform: uppercase;fill: #ffffff;font-weight: 700;font-family: "Poppins-Bold", "Poppins" } 
		.s12 { fill: #e5b753 } 
		.t13 { font-size: 7px;text-transform: uppercase;fill: #ffffff;font-weight: 400;font-family: "DejaVuSans", "DejaVu Sans" } 
		.s14 { fill: #f184a4 } 
		.t15 { font-size: 10px;text-transform: uppercase;fill: #ffffff;font-weight: 400;font-family: "DejaVuSans", "DejaVu Sans" } 
		.s16 { fill: #88aafe } 
		.t17 { font-size: 8px;text-transform: uppercase;fill: #ffffff;font-weight: 700;font-family: "Poppins-Bold", "Poppins" } 
		.s18 { fill: #e7bb5b } 
		.s19 { fill: #7fbfe8 } 
		.t20 { font-size: 13px;text-transform: uppercase;fill: #ffffff;font-weight: 700;font-family: "Poppins-Bold", "Poppins" } 
		.s21 { fill: #e4c7bf } 
		.t22 { font-size: 12px;text-transform: uppercase;fill: #ffffff;font-weight: 700;font-family: "Poppins-Bold", "Poppins" } 
		.s23 { fill: #f28e73 } 
		.t24 { font-size: 16px;text-transform: uppercase;fill: #ffffff;font-weight: 700;font-family: "Poppins-Bold", "Poppins" } 
		.s25 { fill: #b688e9 } 
		.t26 { font-size: 17px;text-transform: uppercase;fill: #ffffff;font-weight: 700;font-family: "Poppins-Bold", "Poppins" } 
	</style>
	<g id="OBJECTS">
		<g id="&lt;Group&gt;">
			<g id="&lt;Group&gt;">
				<g id="&lt;Group&gt;">
				</g>
				<g id="&lt;Group&gt;">
					<g id="&lt;Group&gt;">
						<path id="&lt;Path&gt;" class="s0" d="m667.2 191.4c0 48.5-39.4 87.8-87.9 87.8-48.5 0-87.8-39.3-87.8-87.8 0-48.5 39.3-87.8 87.8-87.8 48.5 0 87.9 39.3 87.9 87.8z"/>
					</g>
					<g id="&lt;Group&gt;">
						<path id="&lt;Path&gt;" class="s0" d="m283.5 247.7c0 48.5-39.4 87.8-87.9 87.8-48.5 0-87.8-39.3-87.8-87.8 0-48.5 39.3-87.8 87.8-87.8 48.5 0 87.9 39.3 87.9 87.8z"/>
					</g>
					<g id="&lt;Group&gt;">
						<path id="&lt;Path&gt;" class="s1" d="m155.1 380c0 16.5-13.3 29.8-29.7 29.8-16.4 0-29.8-13.3-29.8-29.8 0-16.4 13.4-29.7 29.8-29.7 16.4 0 29.7 13.3 29.7 29.7z"/>
					</g>
					<g id="&lt;Group&gt;">
						<path id="&lt;Path&gt;" class="s2" d="m673.7 416.6c0 40.4-32.8 73.2-73.2 73.2-40.5 0-73.3-32.8-73.3-73.2 0-40.5 32.8-73.3 73.3-73.3 40.4 0 73.2 32.8 73.2 73.3z"/>
					</g>
					<g id="&lt;Group&gt;">
						<path id="&lt;Path&gt;" class="s3" d="m280.6 494.3c0 37.1-30.1 67.2-67.2 67.2-37.1 0-67.2-30.1-67.2-67.2 0-37.1 30.1-67.1 67.2-67.1 37.1 0 67.2 30 67.2 67.1z"/>
					</g>
					<g id="&lt;Group&gt;">
						<path id="&lt;Path&gt;" class="s4" d="m710.6 318.2c0 17.7-14.4 32.1-32.1 32.1-17.7 0-32.1-14.4-32.1-32.1 0-17.8 14.4-32.1 32.1-32.1 17.7 0 32.1 14.3 32.1 32.1z"/>
					</g>
					<g id="&lt;Group&gt;">
						<g id="&lt;Group&gt;">
							<g id="&lt;Clip Group&gt;" clip-path="url(#cp1)">
								<path id="&lt;Path&gt;" class="s5" d="m397.9 150.7c-22.6 0-44.4 3.5-64.9 10-86.6 27.4-149.4 108.5-149.4 204.3 0 118.4 95.9 214.3 214.3 214.3q12 0 23.6-1.3c107.3-11.7 190.7-102.6 190.7-213 0-118.4-95.9-214.3-214.3-214.3z"/>
								<path id="&lt;Path&gt;" class="s6" d="m629.2 344.8l-50.1-151.8c-0.4-1.1-1.3-1.9-2.4-2.2l-69.2-15.1q-0.2 0-0.5-0.1l-29.5-12.4c-0.7-0.3-1.5-0.3-2.2-0.1l-3.1 1c-2.6 0.8-3.1 4.2-0.9 5.8l20.6 14.3q0.1 0.1 0.2 0.2l7.8 4.5c1.9 1.1 2.2 3.9 0.4 5.3l-11.4 9.5c-1.3 1.1-3.2 1-4.4-0.2l-20.5-20.7c-1-0.9-2.5-1.2-3.8-0.6l-12.3 6.2c-0.9 0.4-1.5 1.2-1.7 2.1l-6.5 25.1c-0.2 0.9 0 1.9 0.5 2.7l4.8 6.7q0.3 0.4 0.8 0.7l9.8 7.1c1 0.7 2.4 0.8 3.5 0.2l7.3-4.2c1.5-0.8 2.1-2.7 1.3-4.2l-2.2-4.7c-1.1-2.4 0.9-5.1 3.5-4.6l5.3 1c1.7 0.3 2.9 1.8 2.7 3.6l-1.7 13c-0.2 1.5-1.4 2.6-2.9 2.8l-23.7 2.1c-0.6 0-1.2 0.3-1.7 0.7l-18.4 14.8c-1.3 1.1-1.6 3.1-0.5 4.5l3.6 4.7c1.6 2.2 0 5.2-2.6 5.2h-10.6c-1.8 0-3.3 1.5-3.3 3.3v19c0 1.9 1.7 3.4 3.6 3.2l23.1-2.4c1-0.1 1.8-0.6 2.4-1.4l10-15.9c0.6-0.8 1.4-1.3 2.3-1.4l7-1.1c0.9-0.1 1.7 0.1 2.4 0.6l19.4 14.4c1 0.7 2.2 0.8 3.3 0.3l23.4-10.6q0.7-0.3 1.1-0.9l7.8-9.7c1.1-1.5 3.2-1.7 4.6-0.5l8.6 7.1c1.5 1.3 1.6 3.7 0 5l-2.4 2.1c-1 0.8-2.3 1-3.5 0.5l-6.7-3.1c-1-0.5-2.3-0.4-3.2 0.3l-8 5.7c-1.6 1.1-1.8 3.3-0.6 4.7l6.5 7.7c0.6 0.7 1.5 1.1 2.5 1.1h11.1c2.6 0 4.2 2.9 2.7 5l-5.6 8.6c-0.7 1.1-2 1.6-3.3 1.4l-48.6-9.6c-0.6-0.2-1.1-0.4-1.6-0.8l-8.6-7.8c-0.8-0.8-1.8-1-2.9-0.8l-37.2 8.6c-0.8 0.2-1.5 0.6-2 1.3l-26.3 39.6c-0.5 0.7-0.6 1.6-0.5 2.4l7.5 36.8c0.2 0.7 0.6 1.4 1.1 1.9l21.7 17.6c0.6 0.5 1.3 0.7 2 0.7h43.9c1.6 0 3 1.2 3.2 2.8l4.8 33.4q0 0.7-0.1 1.3l-7.8 31.3q-0.2 0.6-0.1 1.2l5.1 35.1c0.3 2 2.4 3.3 4.3 2.6l33.6-12.5c0.9-0.3 1.6-1 1.9-1.9 3.9-10.9 28.9-80.7 29.4-81.5 0.4-0.8 16.9-23.4 23.2-31.9 1.2-1.7 0.5-4.1-1.4-4.9l-17.8-7.8c-0.9-0.4-1.6-1.2-1.8-2.1l-4.8-16.2c-1-3.5 3.7-5.8 5.8-2.8q0.1 0.2 0.2 0.4l9.3 18c1 1.9 3.7 2.3 5.2 0.7l18.2-18.9c1.1-1.1 1.2-2.9 0.2-4.2l-8.4-11.3c-2.1-2.7 1-6.4 4-4.9l8.8 4.4c0.8 0.4 1.5 1.2 1.7 2.2l12.3 55.3c0.7 2.9 4.6 3.5 6 0.8l21.8-41.8c0.4-0.8 0.5-1.7 0.2-2.6z"/>
								<path id="&lt;Path&gt;" class="s6" d="m396.8 472.7l-3-22.5c-0.6-4-3.6-7.2-7.6-7.9l-30.5-5.6q-0.1 0-0.1-0.1l-5.7-10.5c-1.4-2.5-3.6-4.3-6.2-5.1l-7.1-2.2q-0.1 0-0.1 0l-9.1-8.9c-2.2-2.1-5-3.6-8.1-4.2l-23.4-4.7q-0.1 0-0.1 0l-3.9-1.7q-0.1-0.1-0.1-0.1c-0.2-1.1 0-2.1 0.5-3.1l3.4-6.6c1.6-3-0.3-6.8-3.8-7.2-0.8-0.1-1.7 0-2.5 0.4l-4.1 1.7c-2.8 1.1-5.9-0.4-6.7-3.2l-3.6-12.7c-0.9-3.1 1.5-6.3 4.8-6.3l19.5 0.1c2.2 0 4.2 1.5 4.8 3.6l3.8 13.1c1.1 3.9 6.1 4.9 8.6 1.8l1-1.2c0.9-1.1 1.3-2.6 1-4.1l-2.5-12.8c-0.5-2.8 1.5-5.6 4.4-5.8l10.3-1c2.2-0.2 4-1.9 4.4-4.2l1.8-10.8c0.3-1.7 1.5-3.2 3.1-3.8l20-7.6c3.4-1.2 4.3-5.6 1.7-8.1l-5.3-5.3c-1.8-1.8-2-4.6-0.4-6.6l4.1-5.2c1.4-1.8 3.9-2.4 5.9-1.4l6.7 2.9c3.8 1.7 7.8-2 6.4-6l-12.5-36c-1.2-3.5-5.8-4.4-8.2-1.6-2.2 2.6-6.2 2.1-7.8-0.8l-5.3-9.8c-0.8-1.5-2.3-2.5-4-2.6l-4.2-0.2c-2.8-0.2-5.2 1.9-5.3 4.7l-1.5 41.8c-0.1 1.7-1 3.3-2.6 4.1l-2.9 1.6c-3 1.7-6.7-0.1-7.3-3.4l-2.5-14.4c-0.3-1.7-1.4-3.1-3.1-3.8l-18.6-7.3c-1.6-0.6-2.7-2-3.1-3.6l-1.6-8c-0.3-1.6 0.2-3.2 1.4-4.4l19.6-20.2c0.9-0.9 1.4-2.2 1.4-3.5v-10.4c0-2.9-2.5-5.1-5.3-4.9l-48.1 3.7c-2 0.2-3.9-0.9-4.9-2.7l-7.4-14.8c-1.3-2.7-4.7-3.6-7.1-1.9l-22.8 14.9c-2.1 1.4-4.8 1-6.4-0.8l-14.8-16.3q-0.5-0.6-1.2-1l-17.7-10.2c-2.1-1.2-4.7-0.7-6.3 1.1l-8.7 10.5c-0.7 0.8-1.1 1.8-1.2 2.8l-2.8 43.2c-0.2 2.6 1.7 4.8 4.3 5.1l35.8 3.2c2.3 0.2 4.1 2 4.5 4.3l10.5 75.5c0.2 1.1 0.7 2.1 1.5 2.9l58.9 54.7q0.1 0.1 0.1 0.2l8.9 25.5q0 0 0 0.1l-1.9 5.8q0 0 0 0l-8.4 12.4q0 0.1 0 0.2l7.2 17.1q0 0 0 0l12.8 18.2c1.5 2.1 3.4 3.7 5.5 4.8l12.9 6.7q0.1 0.1 0.1 0.1l20.6 52.2q2.2 5.7 5.4 10.8c3.8 6.1 9.7 15.7 10.3 16.8 0.5 0.9 9 2.6 16.1 4 2.7 0.5 4.4-2.9 2.2-4.7l-4.4-3.6c-5.8-4.8-8.9-12.1-8.4-19.6 0.1-1.7 0.8-3.4 2.1-4.7l12-11.7c2.3-2.3 3.6-5.4 3.6-8.6l0.2-7.1c0-3.1 2.3-5.8 5.3-6.4l3-0.6c4.9-1 9.2-4 11.7-8.4l7-12.3c1-1.8 1.4-3.8 1.1-5.8z"/>
								<path id="&lt;Path&gt;" class="s6" d="m323.8 388.6c-0.9 0.9-1.4 2.2-0.4 3.4 0.7 0.9 1.8 1.4 2.8 1.8 4.1 1.7 8.1 2.5 12.4 0.8 1-0.4 1.9-0.9 2.4-1.8 1.7-3.5-6.4-8.5-9.3-8.1-2 0.4-4 1.2-5.8 2.2-0.7 0.4-1.5 1-2.1 1.7z"/>
							</g>
							<path id="&lt;Path&gt;" class="s7" d="m564.2 229.6c8.3 22.8 12.8 47.3 12.8 72.9 0 118.5-96.1 214.5-214.6 214.5-67.2 0-127.1-30.9-166.5-79.3 29.9 82.6 109 141.6 201.8 141.6 118.5 0 214.5-96 214.5-214.5 0-51.2-18-98.3-48-135.2z"/>
							<g id="&lt;Group&gt;">
								<path id="&lt;Path&gt;" class="s8" d="m349.6 306.1c-39.7 28.9-88.9 28.9-110 0-21.1-29-6-75.8 33.7-104.7 39.7-28.9 88.9-28.9 110 0 21 29 6 75.8-33.7 104.7z"/>
								<path id="&lt;Path&gt;" class="s8" d="m326.6 267.1c-23.2 16.9-51.9 16.9-64.2 0-12.3-16.9-3.5-44.2 19.7-61.1 23.1-16.8 51.8-16.8 64.1 0.1 12.3 16.8 3.5 44.2-19.6 61z"/>
							</g>
						</g>
						<g id="&lt;Group&gt;">
							<g id="&lt;Group&gt;">
								<path id="&lt;Path&gt;" class="s9" d="m311.3 328.1c0-24.3 26.1-43.9 58.2-43.9 32.1 0 58.2 19.6 58.2 43.9 0 24.2-26.1 43.9-58.2 43.9q-5.9 0-11.5-0.9l-27.6 17.9 13.1-21.6c-19.1-7.3-32.2-22.1-32.2-39.3z"/>
							</g>
							<text id="Sata " style="transform: matrix(2,0,0,2,370.774,320.03)" >
								<tspan x="-14.6" y="0" class="t10">SATA </tspan><tspan  y="0" class="t10">
</tspan>
							</text>
							<text id="srī akāla" style="transform: matrix(2,0,0,2,369.774,343.348)" >
								<tspan x="-23.2" y="0" class="t11">SRĪ AKĀLA
</tspan>
							</text>
						</g>
						<g id="&lt;Group&gt;">
							<path id="&lt;Path&gt;" class="s12" d="m307.5 372.9c0-28.5-23.1-51.7-51.7-51.7-28.5 0-51.7 23.2-51.7 51.7 0 28.6 23.2 51.7 51.7 51.7 8.3 0 16.1-2 23-5.4 7.2 8.6 18.9 22.3 19 20.6 0.2-1.5-3.5-17.7-6.2-29.6 9.8-9.4 15.9-22.6 15.9-37.3z"/>
							<text id="Vaṇakkam" style="transform: matrix(2,0,0,2,255.972,379.211)" >
								<tspan x="-19.5" y="0" class="t13">VAṆAKKAM
</tspan>
							</text>
						</g>
						<g id="&lt;Group&gt;">
							<path id="&lt;Path&gt;" class="s14" d="m449.6 210.2c0-23-20.4-41.6-45.5-41.6-25.1 0-45.5 18.6-45.5 41.6 0 23.1 20.4 41.7 45.5 41.7 7.3 0 14.1-1.6 20.3-4.4 6.3 7 16.5 18 16.7 16.7 0.1-1.3-3.1-14.3-5.5-23.9 8.6-7.6 14-18.2 14-30.1z"/>
							<text id="HeLO" style="transform: matrix(2,0,0,2,404.669,217.693)" >
								<tspan x="-15" y="0" class="t15">H</tspan><tspan  y="0" class="t15">E</tspan><tspan  y="0" class="t15">L</tspan><tspan  y="0" class="t15">O
</tspan>
							</text>
						</g>
						<g id="&lt;Group&gt;">
							<path id="&lt;Path&gt;" class="s16" d="m533.4 388.9h-91.9c-11.5 0-20.8 9.3-20.8 20.8 0 11.5 9.3 20.8 20.8 20.8h65l14.6 13.8v-13.8h12.3c11.5 0 20.8-9.3 20.8-20.8 0-11.5-9.3-20.8-20.8-20.8z"/>
							<g id="&lt;Group&gt;">
								<g id="&lt;Group&gt;">
									<text id="Namaskāra" style="transform: matrix(2,0,0,2,487.487,417.364)" >
										<tspan x="-26.3" y="0" class="t17">NAMASKĀRA
</tspan>
									</text>
								</g>
							</g>
						</g>
						<g id="&lt;Group&gt;">
							<path id="&lt;Path&gt;" class="s18" d="m552.5 274c0.5-5.7 4.3-10.4 9.3-12.3-6-2.4-9.9-8.4-9.3-15.1 0.7-8.1 7.9-14.1 16-13.3q0.5 0 1 0.1-0.2-1.3-0.2-2.6c0-10 8.1-18.2 18.1-18.2 7.5 0 13.8 4.5 16.6 10.9 2.8-6.4 9.2-10.9 16.7-10.9 7.7 0 14.3 4.9 16.9 11.6 2.6-6.7 9.2-11.6 16.9-11.6 10 0 18.2 8.2 18.2 18.2q0 2-0.5 3.9c1.6-0.4 3.4-0.6 5.1-0.4 8.1 0.7 14.1 7.9 13.3 16-0.5 5.8-4.3 10.4-9.3 12.4 6 2.3 10 8.3 9.3 15-0.7 8.1-7.9 14.1-16 13.3q-1-0.1-2-0.3c-0.7 9.4-8.5 16.8-18.1 16.8-7.7 0-14.3-4.8-16.9-11.6-2.6 6.8-9.2 11.6-16.9 11.6-7.5 0-13.9-4.5-16.7-10.9-2.8 6.4-9.1 10.9-16.6 10.9-5 0-9.5-2-12.8-5.3-6.5 6.2-18.1 17-18.2 15.9-0.1-1.1 5.5-17.8 8.9-28.1-7.9-1-13.6-8-12.8-16z"/>
							<text id="namaste" style="transform: matrix(2,0,0,2,621.556,270.499)" >
								<tspan x="-25.2" y="0" class="t10">NAMASTE
</tspan>
							</text>
						</g>
						<g id="&lt;Group&gt;">
							<g id="&lt;Group&gt;">
								<path id="&lt;Path&gt;" class="s19" d="m449.3 103.6h78.6c5.7 0 10.3 4.6 10.3 10.2v61.3c0 5.7-4.6 10.3-10.3 10.3h-55.4c-3.6 8.2-9 20.4-9.4 19-0.4-1.3-1.6-11.7-2.4-19h-11.4c-5.7 0-10.3-4.6-10.3-10.3v-61.3c0-5.6 4.6-10.2 10.3-10.2z"/>
							</g>
							<g id="&lt;Group&gt;">
								<text id="Hyālō" style="transform: matrix(2,0,0,2,489.139,155.693)" >
									<tspan x="-22.1" y="0" class="t20">HYĀLŌ
</tspan>
								</text>
							</g>
						</g>
						<g id="&lt;Group&gt;">
							<g id="&lt;Group&gt;">
								<path id="&lt;Path&gt;" class="s21" d="m449.8 283.3h78.6c5.7 0 10.3 4.6 10.3 10.3v61.3c0 5.7-4.6 10.3-10.3 10.3h-55.3c-3.6 8.2-9.1 20.3-9.4 19-0.4-1.3-1.6-11.7-2.4-19h-11.5c-5.6 0-10.3-4.6-10.3-10.3v-61.3c0-5.7 4.7-10.3 10.3-10.3z"/>
							</g>
							<g id="&lt;Group&gt;">
								<text id="HALO" style="transform: matrix(2,0,0,2,457.842,313.055)" >
									<tspan x="1.3" y="8.5" class="t22">H</tspan><tspan  y="8.5" class="t22">A</tspan><tspan  y="8.5" class="t22">L</tspan><tspan  y="8.5" class="t22">O
</tspan>
								</text>
							</g>
						</g>
						<g id="&lt;Group&gt;">
							<g id="&lt;Group&gt;">
								<path id="&lt;Path&gt;" class="s23" d="m275.3 200.1h-105.3c-13.1 0-23.8 10.6-23.8 23.8 0 13.2 10.7 23.8 23.8 23.8h74.4l16.8 15.8v-15.8h14.1c13.2 0 23.8-10.6 23.8-23.8 0-13.2-10.6-23.8-23.8-23.8z"/>
							</g>
							<text id="hello
" style="transform: matrix(2,0,0,2,222.663,236.568)" >
								<tspan x="-23.7" y="0" class="t24">HELLO
</tspan>
							</text>
						</g>
						<g id="&lt;Group&gt;">
							<g id="&lt;Group&gt;">
								<path id="&lt;Path&gt;" class="s25" d="m308.3 499.7c0.4 4.9 3.6 8.9 7.8 10.6-5.1 1.9-8.6 7.1-8.1 12.8 0.5 6.9 6.6 12.1 13.5 11.5q0.4 0 0.8-0.1-0.2 1.1-0.2 2.3c-0.1 8.5 6.7 15.5 15.2 15.7 6.4 0 11.9-3.7 14.4-9.1 2.3 5.5 7.7 9.4 14 9.5 6.6 0.1 12.2-4 14.6-9.7 2.1 5.8 7.7 10 14.2 10.1 8.6 0.1 15.6-6.7 15.7-15.3q0.1-1.7-0.3-3.3c1.4 0.4 2.9 0.5 4.4 0.4 6.9-0.5 12-6.6 11.5-13.5-0.4-4.9-3.5-8.9-7.8-10.6 5.1-1.9 8.6-7 8.1-12.8-0.5-6.9-6.5-12-13.4-11.5q-0.9 0.1-1.8 0.3c-0.5-8-7-14.4-15.2-14.6-6.6-0.1-12.2 4-14.5 9.7-2.2-5.8-7.7-10-14.3-10.1-6.4-0.1-11.9 3.7-14.3 9.1-2.3-5.5-7.7-9.4-14.1-9.5-4.2-0.1-8.1 1.6-10.9 4.3-5.5-5.3-15.3-14.7-15.4-13.7 0 0.9 4.5 15.2 7.3 24.1-6.8 0.7-11.7 6.6-11.2 13.4z"/>
							</g>
							<g id="&lt;Group&gt;">
								<text id="Halō" style="transform: matrix(2,0,0,2,368.061,526.16)" >
									<tspan x="-22.5" y="0" class="t26">HALŌ</tspan><tspan  y="0" class="t26">
</tspan>
								</text>
							</g>
						</g>
					</g>
				</g>
			</g>
		</g>
	</g>
</svg>